<svg width="231" height="202" viewBox="0 0 231 202" fill="none" xmlns="http://www.w3.org/2000/svg">
<path d="M45.4953 133.12C45.1086 133.12 44.7953 133.007 44.5553 132.78C44.3286 132.54 44.2153 132.22 44.2153 131.82V120.12C44.2153 119.733 44.322 119.433 44.5353 119.22C44.762 119.007 45.0686 118.9 45.4553 118.9H50.3753C51.882 118.9 53.0553 119.28 53.8953 120.04C54.7353 120.787 55.1553 121.84 55.1553 123.2C55.1553 124.56 54.7353 125.62 53.8953 126.38C53.0553 127.14 51.882 127.52 50.3753 127.52H46.7953V131.82C46.7953 132.22 46.6753 132.54 46.4353 132.78C46.2086 133.007 45.8953 133.12 45.4953 133.12ZM50.0553 125.54C51.8286 125.54 52.7153 124.767 52.7153 123.22C52.7153 121.673 51.8286 120.9 50.0553 120.9H46.7953V125.54H50.0553ZM64.7622 123.02C65.1489 123.02 65.4555 123.127 65.6822 123.34C65.9089 123.553 66.0222 123.84 66.0222 124.2V131.96C66.0222 132.307 65.9022 132.587 65.6622 132.8C65.4355 133.013 65.1355 133.12 64.7622 133.12C64.4022 133.12 64.1155 133.02 63.9022 132.82C63.6889 132.62 63.5822 132.347 63.5822 132V131.5C63.2755 132.033 62.8622 132.447 62.3422 132.74C61.8222 133.02 61.2355 133.16 60.5822 133.16C58.1822 133.16 56.9822 131.813 56.9822 129.12V124.2C56.9822 123.84 57.0955 123.553 57.3222 123.34C57.5489 123.127 57.8489 123.02 58.2222 123.02C58.6089 123.02 58.9155 123.127 59.1422 123.34C59.3689 123.553 59.4822 123.84 59.4822 124.2V129.14C59.4822 129.833 59.6222 130.347 59.9022 130.68C60.1822 131.013 60.6222 131.18 61.2222 131.18C61.9155 131.18 62.4689 130.953 62.8822 130.5C63.3089 130.033 63.5222 129.42 63.5222 128.66V124.2C63.5222 123.84 63.6355 123.553 63.8622 123.34C64.0889 123.127 64.3889 123.02 64.7622 123.02ZM76.3642 130.32C76.5909 130.32 76.7709 130.407 76.9042 130.58C77.0509 130.753 77.1242 130.987 77.1242 131.28C77.1242 131.693 76.8776 132.04 76.3842 132.32C75.9309 132.573 75.4176 132.78 74.8442 132.94C74.2709 133.087 73.7242 133.16 73.2042 133.16C71.6309 133.16 70.3842 132.707 69.4642 131.8C68.5442 130.893 68.0842 129.653 68.0842 128.08C68.0842 127.08 68.2842 126.193 68.6842 125.42C69.0842 124.647 69.6442 124.047 70.3642 123.62C71.0976 123.193 71.9242 122.98 72.8442 122.98C73.7242 122.98 74.4909 123.173 75.1442 123.56C75.7976 123.947 76.3042 124.493 76.6642 125.2C77.0242 125.907 77.2042 126.74 77.2042 127.7C77.2042 128.273 76.9509 128.56 76.4442 128.56H70.5442C70.6242 129.48 70.8842 130.16 71.3242 130.6C71.7642 131.027 72.4042 131.24 73.2442 131.24C73.6709 131.24 74.0442 131.187 74.3642 131.08C74.6976 130.973 75.0709 130.827 75.4842 130.64C75.8842 130.427 76.1776 130.32 76.3642 130.32ZM72.9042 124.74C72.2242 124.74 71.6776 124.953 71.2642 125.38C70.8642 125.807 70.6242 126.42 70.5442 127.22H75.0642C75.0376 126.407 74.8376 125.793 74.4642 125.38C74.0909 124.953 73.5709 124.74 72.9042 124.74ZM84.7092 123.02C85.0559 122.993 85.3292 123.067 85.5292 123.24C85.7292 123.413 85.8292 123.673 85.8292 124.02C85.8292 124.38 85.7426 124.647 85.5692 124.82C85.3959 124.993 85.0826 125.107 84.6292 125.16L84.0292 125.22C83.2426 125.3 82.6626 125.567 82.2892 126.02C81.9292 126.473 81.7492 127.04 81.7492 127.72V131.92C81.7492 132.307 81.6292 132.607 81.3892 132.82C81.1492 133.02 80.8492 133.12 80.4892 133.12C80.1292 133.12 79.8292 133.02 79.5892 132.82C79.3626 132.607 79.2492 132.307 79.2492 131.92V124.18C79.2492 123.807 79.3626 123.52 79.5892 123.32C79.8292 123.12 80.1226 123.02 80.4692 123.02C80.8159 123.02 81.0959 123.12 81.3092 123.32C81.5226 123.507 81.6292 123.78 81.6292 124.14V124.94C81.8826 124.353 82.2559 123.9 82.7492 123.58C83.2559 123.26 83.8159 123.08 84.4292 123.04L84.7092 123.02ZM92.8839 131.26C93.5506 131.3 93.8839 131.6 93.8839 132.16C93.8839 132.48 93.7506 132.727 93.4839 132.9C93.2306 133.06 92.8639 133.127 92.3839 133.1L91.8439 133.06C89.6039 132.9 88.4839 131.7 88.4839 129.46V125.1H87.4839C87.1239 125.1 86.8439 125.02 86.6439 124.86C86.4572 124.7 86.3639 124.467 86.3639 124.16C86.3639 123.853 86.4572 123.62 86.6439 123.46C86.8439 123.3 87.1239 123.22 87.4839 123.22H88.4839V121.38C88.4839 121.02 88.5972 120.733 88.8239 120.52C89.0506 120.307 89.3572 120.2 89.7439 120.2C90.1172 120.2 90.4172 120.307 90.6439 120.52C90.8706 120.733 90.9839 121.02 90.9839 121.38V123.22H92.6839C93.0439 123.22 93.3172 123.3 93.5039 123.46C93.7039 123.62 93.8039 123.853 93.8039 124.16C93.8039 124.467 93.7039 124.7 93.5039 124.86C93.3172 125.02 93.0439 125.1 92.6839 125.1H90.9839V129.64C90.9839 130.627 91.4372 131.153 92.3439 131.22L92.8839 131.26ZM99.4267 122.98C100.787 122.98 101.793 123.32 102.447 124C103.113 124.667 103.447 125.687 103.447 127.06V131.94C103.447 132.3 103.34 132.587 103.127 132.8C102.913 133 102.62 133.1 102.247 133.1C101.9 133.1 101.613 132.993 101.387 132.78C101.173 132.567 101.067 132.287 101.067 131.94V131.5C100.84 132.02 100.48 132.427 99.9867 132.72C99.5067 133.013 98.9467 133.16 98.3067 133.16C97.6534 133.16 97.0601 133.027 96.5267 132.76C95.9934 132.493 95.5734 132.127 95.2667 131.66C94.9601 131.193 94.8067 130.673 94.8067 130.1C94.8067 129.38 94.9867 128.813 95.3467 128.4C95.7201 127.987 96.3201 127.687 97.1467 127.5C97.9734 127.313 99.1134 127.22 100.567 127.22H101.067V126.76C101.067 126.107 100.927 125.633 100.647 125.34C100.367 125.033 99.9134 124.88 99.2867 124.88C98.9001 124.88 98.5067 124.94 98.1067 125.06C97.7067 125.167 97.2334 125.327 96.6867 125.54C96.3401 125.713 96.0867 125.8 95.9267 125.8C95.6867 125.8 95.4867 125.713 95.3267 125.54C95.1801 125.367 95.1067 125.14 95.1067 124.86C95.1067 124.633 95.1601 124.44 95.2667 124.28C95.3867 124.107 95.5801 123.947 95.8467 123.8C96.3134 123.547 96.8667 123.347 97.5067 123.2C98.1601 123.053 98.8001 122.98 99.4267 122.98ZM98.8067 131.36C99.4734 131.36 100.013 131.14 100.427 130.7C100.853 130.247 101.067 129.667 101.067 128.96V128.54H100.707C99.8134 128.54 99.1201 128.58 98.6267 128.66C98.1334 128.74 97.7801 128.88 97.5667 129.08C97.3534 129.28 97.2467 129.553 97.2467 129.9C97.2467 130.327 97.3934 130.68 97.6867 130.96C97.9934 131.227 98.3667 131.36 98.8067 131.36ZM115.657 122.98C117.017 122.98 118.024 123.32 118.677 124C119.344 124.667 119.677 125.687 119.677 127.06V131.94C119.677 132.3 119.571 132.587 119.357 132.8C119.144 133 118.851 133.1 118.477 133.1C118.131 133.1 117.844 132.993 117.617 132.78C117.404 132.567 117.297 132.287 117.297 131.94V131.5C117.071 132.02 116.711 132.427 116.217 132.72C115.737 133.013 115.177 133.16 114.537 133.16C113.884 133.16 113.291 133.027 112.757 132.76C112.224 132.493 111.804 132.127 111.497 131.66C111.191 131.193 111.037 130.673 111.037 130.1C111.037 129.38 111.217 128.813 111.577 128.4C111.951 127.987 112.551 127.687 113.377 127.5C114.204 127.313 115.344 127.22 116.797 127.22H117.297V126.76C117.297 126.107 117.157 125.633 116.877 125.34C116.597 125.033 116.144 124.88 115.517 124.88C115.131 124.88 114.737 124.94 114.337 125.06C113.937 125.167 113.464 125.327 112.917 125.54C112.571 125.713 112.317 125.8 112.157 125.8C111.917 125.8 111.717 125.713 111.557 125.54C111.411 125.367 111.337 125.14 111.337 124.86C111.337 124.633 111.391 124.44 111.497 124.28C111.617 124.107 111.811 123.947 112.077 123.8C112.544 123.547 113.097 123.347 113.737 123.2C114.391 123.053 115.031 122.98 115.657 122.98ZM115.037 131.36C115.704 131.36 116.244 131.14 116.657 130.7C117.084 130.247 117.297 129.667 117.297 128.96V128.54H116.937C116.044 128.54 115.351 128.58 114.857 128.66C114.364 128.74 114.011 128.88 113.797 129.08C113.584 129.28 113.477 129.553 113.477 129.9C113.477 130.327 113.624 130.68 113.917 130.96C114.224 131.227 114.597 131.36 115.037 131.36ZM133.268 122.98C134.108 122.98 134.854 123.193 135.508 123.62C136.174 124.047 136.688 124.653 137.048 125.44C137.421 126.213 137.608 127.107 137.608 128.12C137.608 129.133 137.421 130.02 137.048 130.78C136.688 131.54 136.181 132.127 135.528 132.54C134.874 132.953 134.121 133.16 133.268 133.16C132.574 133.16 131.954 133.013 131.408 132.72C130.861 132.427 130.441 132.02 130.148 131.5V135.58C130.148 135.927 130.034 136.2 129.808 136.4C129.581 136.6 129.281 136.7 128.908 136.7C128.534 136.7 128.228 136.593 127.988 136.38C127.761 136.167 127.648 135.887 127.648 135.54V124.2C127.648 123.84 127.754 123.553 127.968 123.34C128.194 123.127 128.494 123.02 128.868 123.02C129.241 123.02 129.541 123.127 129.768 123.34C129.994 123.553 130.108 123.84 130.108 124.2V124.7C130.401 124.153 130.821 123.733 131.368 123.44C131.928 123.133 132.561 122.98 133.268 122.98ZM132.608 131.22C133.394 131.22 134.008 130.953 134.448 130.42C134.888 129.873 135.108 129.107 135.108 128.12C135.108 127.107 134.888 126.32 134.448 125.76C134.008 125.2 133.394 124.92 132.608 124.92C131.808 124.92 131.188 125.193 130.748 125.74C130.321 126.287 130.108 127.067 130.108 128.08C130.108 129.08 130.321 129.853 130.748 130.4C131.188 130.947 131.808 131.22 132.608 131.22ZM147.379 123.02C147.766 123.02 148.073 123.127 148.299 123.34C148.526 123.553 148.639 123.84 148.639 124.2V131.96C148.639 132.307 148.519 132.587 148.279 132.8C148.053 133.013 147.753 133.12 147.379 133.12C147.019 133.12 146.733 133.02 146.519 132.82C146.306 132.62 146.199 132.347 146.199 132V131.5C145.893 132.033 145.479 132.447 144.959 132.74C144.439 133.02 143.853 133.16 143.199 133.16C140.799 133.16 139.599 131.813 139.599 129.12V124.2C139.599 123.84 139.713 123.553 139.939 123.34C140.166 123.127 140.466 123.02 140.839 123.02C141.226 123.02 141.533 123.127 141.759 123.34C141.986 123.553 142.099 123.84 142.099 124.2V129.14C142.099 129.833 142.239 130.347 142.519 130.68C142.799 131.013 143.239 131.18 143.839 131.18C144.533 131.18 145.086 130.953 145.499 130.5C145.926 130.033 146.139 129.42 146.139 128.66V124.2C146.139 123.84 146.253 123.553 146.479 123.34C146.706 123.127 147.006 123.02 147.379 123.02ZM158.981 130.32C159.208 130.32 159.388 130.407 159.521 130.58C159.668 130.753 159.741 130.987 159.741 131.28C159.741 131.693 159.495 132.04 159.001 132.32C158.548 132.573 158.035 132.78 157.461 132.94C156.888 133.087 156.341 133.16 155.821 133.16C154.248 133.16 153.001 132.707 152.081 131.8C151.161 130.893 150.701 129.653 150.701 128.08C150.701 127.08 150.901 126.193 151.301 125.42C151.701 124.647 152.261 124.047 152.981 123.62C153.715 123.193 154.541 122.98 155.461 122.98C156.341 122.98 157.108 123.173 157.761 123.56C158.415 123.947 158.921 124.493 159.281 125.2C159.641 125.907 159.821 126.74 159.821 127.7C159.821 128.273 159.568 128.56 159.061 128.56H153.161C153.241 129.48 153.501 130.16 153.941 130.6C154.381 131.027 155.021 131.24 155.861 131.24C156.288 131.24 156.661 131.187 156.981 131.08C157.315 130.973 157.688 130.827 158.101 130.64C158.501 130.427 158.795 130.32 158.981 130.32ZM155.521 124.74C154.841 124.74 154.295 124.953 153.881 125.38C153.481 125.807 153.241 126.42 153.161 127.22H157.681C157.655 126.407 157.455 125.793 157.081 125.38C156.708 124.953 156.188 124.74 155.521 124.74ZM167.326 123.02C167.673 122.993 167.946 123.067 168.146 123.24C168.346 123.413 168.446 123.673 168.446 124.02C168.446 124.38 168.36 124.647 168.186 124.82C168.013 124.993 167.7 125.107 167.246 125.16L166.646 125.22C165.86 125.3 165.28 125.567 164.906 126.02C164.546 126.473 164.366 127.04 164.366 127.72V131.92C164.366 132.307 164.246 132.607 164.006 132.82C163.766 133.02 163.466 133.12 163.106 133.12C162.746 133.12 162.446 133.02 162.206 132.82C161.98 132.607 161.866 132.307 161.866 131.92V124.18C161.866 123.807 161.98 123.52 162.206 123.32C162.446 123.12 162.74 123.02 163.086 123.02C163.433 123.02 163.713 123.12 163.926 123.32C164.14 123.507 164.246 123.78 164.246 124.14V124.94C164.5 124.353 164.873 123.9 165.366 123.58C165.873 123.26 166.433 123.08 167.046 123.04L167.326 123.02ZM175.501 131.26C176.168 131.3 176.501 131.6 176.501 132.16C176.501 132.48 176.368 132.727 176.101 132.9C175.848 133.06 175.481 133.127 175.001 133.1L174.461 133.06C172.221 132.9 171.101 131.7 171.101 129.46V125.1H170.101C169.741 125.1 169.461 125.02 169.261 124.86C169.074 124.7 168.981 124.467 168.981 124.16C168.981 123.853 169.074 123.62 169.261 123.46C169.461 123.3 169.741 123.22 170.101 123.22H171.101V121.38C171.101 121.02 171.214 120.733 171.441 120.52C171.668 120.307 171.974 120.2 172.361 120.2C172.734 120.2 173.034 120.307 173.261 120.52C173.488 120.733 173.601 121.02 173.601 121.38V123.22H175.301C175.661 123.22 175.934 123.3 176.121 123.46C176.321 123.62 176.421 123.853 176.421 124.16C176.421 124.467 176.321 124.7 176.121 124.86C175.934 125.02 175.661 125.1 175.301 125.1H173.601V129.64C173.601 130.627 174.054 131.153 174.961 131.22L175.501 131.26ZM182.044 122.98C183.404 122.98 184.411 123.32 185.064 124C185.731 124.667 186.064 125.687 186.064 127.06V131.94C186.064 132.3 185.957 132.587 185.744 132.8C185.531 133 185.237 133.1 184.864 133.1C184.517 133.1 184.231 132.993 184.004 132.78C183.791 132.567 183.684 132.287 183.684 131.94V131.5C183.457 132.02 183.097 132.427 182.604 132.72C182.124 133.013 181.564 133.16 180.924 133.16C180.271 133.16 179.677 133.027 179.144 132.76C178.611 132.493 178.191 132.127 177.884 131.66C177.577 131.193 177.424 130.673 177.424 130.1C177.424 129.38 177.604 128.813 177.964 128.4C178.337 127.987 178.937 127.687 179.764 127.5C180.591 127.313 181.731 127.22 183.184 127.22H183.684V126.76C183.684 126.107 183.544 125.633 183.264 125.34C182.984 125.033 182.531 124.88 181.904 124.88C181.517 124.88 181.124 124.94 180.724 125.06C180.324 125.167 179.851 125.327 179.304 125.54C178.957 125.713 178.704 125.8 178.544 125.8C178.304 125.8 178.104 125.713 177.944 125.54C177.797 125.367 177.724 125.14 177.724 124.86C177.724 124.633 177.777 124.44 177.884 124.28C178.004 124.107 178.197 123.947 178.464 123.8C178.931 123.547 179.484 123.347 180.124 123.2C180.777 123.053 181.417 122.98 182.044 122.98ZM181.424 131.36C182.091 131.36 182.631 131.14 183.044 130.7C183.471 130.247 183.684 129.667 183.684 128.96V128.54H183.324C182.431 128.54 181.737 128.58 181.244 128.66C180.751 128.74 180.397 128.88 180.184 129.08C179.971 129.28 179.864 129.553 179.864 129.9C179.864 130.327 180.011 130.68 180.304 130.96C180.611 131.227 180.984 131.36 181.424 131.36Z" fill="white"/>
<path d="M31.5349 167.682C32.1856 167.853 32.6869 168.173 33.0389 168.642C33.4016 169.112 33.5829 169.698 33.5829 170.402C33.5829 171.394 33.2576 172.157 32.6069 172.69C31.9563 173.213 31.0336 173.474 29.8389 173.474H25.8069C25.6043 173.474 25.4389 173.416 25.3109 173.298C25.1936 173.181 25.1349 173.026 25.1349 172.834V162.834C25.1349 162.642 25.1936 162.488 25.3109 162.37C25.4389 162.253 25.6043 162.194 25.8069 162.194H29.6629C30.8256 162.194 31.7269 162.45 32.3669 162.962C33.0069 163.474 33.3269 164.2 33.3269 165.138C33.3269 165.746 33.1669 166.269 32.8469 166.706C32.5376 167.144 32.1003 167.469 31.5349 167.682ZM26.4309 167.202H29.4709C30.3136 167.202 30.9483 167.032 31.3749 166.69C31.8123 166.349 32.0309 165.853 32.0309 165.202C32.0309 163.922 31.1776 163.282 29.4709 163.282H26.4309V167.202ZM29.7109 172.386C30.5963 172.386 31.2469 172.226 31.6629 171.906C32.0896 171.576 32.3029 171.064 32.3029 170.37C32.3029 168.984 31.4389 168.29 29.7109 168.29H26.4309V172.386H29.7109ZM41.6442 165.522C41.8469 165.522 42.0015 165.581 42.1082 165.698C42.2255 165.816 42.2842 165.97 42.2842 166.162V172.93C42.2842 173.112 42.2255 173.261 42.1082 173.378C42.0015 173.496 41.8469 173.554 41.6442 173.554C41.4522 173.554 41.2975 173.501 41.1802 173.394C41.0735 173.277 41.0202 173.128 41.0202 172.946V172.146C40.7749 172.616 40.4282 172.973 39.9802 173.218C39.5429 173.464 39.0469 173.586 38.4922 173.586C37.5642 173.586 36.8655 173.33 36.3962 172.818C35.9269 172.296 35.6922 171.528 35.6922 170.514V166.162C35.6922 165.97 35.7509 165.816 35.8682 165.698C35.9855 165.581 36.1455 165.522 36.3482 165.522C36.5509 165.522 36.7055 165.581 36.8122 165.698C36.9295 165.816 36.9882 165.97 36.9882 166.162V170.482C36.9882 171.176 37.1269 171.688 37.4042 172.018C37.6815 172.338 38.1189 172.498 38.7162 172.498C39.3989 172.498 39.9482 172.28 40.3642 171.842C40.7802 171.394 40.9882 170.808 40.9882 170.082V166.162C40.9882 165.97 41.0469 165.816 41.1642 165.698C41.2815 165.581 41.4415 165.522 41.6442 165.522ZM47.3169 173.586C46.8263 173.586 46.3569 173.528 45.9089 173.41C45.4716 173.293 45.0823 173.128 44.7409 172.914C44.5489 172.786 44.4103 172.669 44.3249 172.562C44.2503 172.445 44.2129 172.306 44.2129 172.146C44.2129 172.008 44.2503 171.896 44.3249 171.81C44.4103 171.714 44.5169 171.666 44.6449 171.666C44.7729 171.666 44.9596 171.746 45.2049 171.906C45.5249 172.098 45.8396 172.253 46.1489 172.37C46.4689 172.477 46.8636 172.53 47.3329 172.53C47.9089 172.53 48.3569 172.429 48.6769 172.226C48.9969 172.024 49.1569 171.73 49.1569 171.346C49.1569 171.112 49.0983 170.925 48.9809 170.786C48.8636 170.637 48.6609 170.509 48.3729 170.402C48.0849 170.285 47.6636 170.168 47.1089 170.05C46.1703 169.848 45.4983 169.576 45.0929 169.234C44.6876 168.893 44.4849 168.429 44.4849 167.842C44.4849 167.384 44.6129 166.978 44.8689 166.626C45.1249 166.274 45.4769 165.997 45.9249 165.794C46.3836 165.592 46.9009 165.49 47.4769 165.49C47.8929 165.49 48.2929 165.549 48.6769 165.666C49.0716 165.773 49.4183 165.928 49.7169 166.13C50.0796 166.386 50.2609 166.653 50.2609 166.93C50.2609 167.069 50.2183 167.186 50.1329 167.282C50.0476 167.378 49.9463 167.426 49.8289 167.426C49.7009 167.426 49.5089 167.336 49.2529 167.154C48.9543 166.962 48.6716 166.813 48.4049 166.706C48.1383 166.6 47.8076 166.546 47.4129 166.546C46.9116 166.546 46.5063 166.658 46.1969 166.882C45.8983 167.106 45.7489 167.405 45.7489 167.778C45.7489 168.013 45.8023 168.205 45.9089 168.354C46.0263 168.493 46.2129 168.621 46.4689 168.738C46.7356 168.845 47.1143 168.952 47.6049 169.058C48.3303 169.218 48.8903 169.394 49.2849 169.586C49.6903 169.778 49.9783 170.013 50.1489 170.29C50.3196 170.568 50.4049 170.92 50.4049 171.346C50.4049 172.018 50.1223 172.562 49.5569 172.978C48.9916 173.384 48.2449 173.586 47.3169 173.586ZM55.5964 173.586C54.8711 173.586 54.2258 173.421 53.6604 173.09C53.1058 172.76 52.6738 172.29 52.3644 171.682C52.0658 171.074 51.9164 170.37 51.9164 169.57C51.9164 168.77 52.0711 168.061 52.3804 167.442C52.7004 166.824 53.1431 166.344 53.7084 166.002C54.2738 165.661 54.9244 165.49 55.6604 165.49C56.0658 165.49 56.4658 165.549 56.8604 165.666C57.2658 165.773 57.6178 165.933 57.9164 166.146C58.1084 166.274 58.2418 166.402 58.3164 166.53C58.4018 166.648 58.4444 166.781 58.4444 166.93C58.4444 167.08 58.4018 167.202 58.3164 167.298C58.2418 167.394 58.1404 167.442 58.0124 167.442C57.9378 167.442 57.8578 167.421 57.7724 167.378C57.6871 167.336 57.6124 167.293 57.5484 167.25C57.4951 167.208 57.4578 167.181 57.4364 167.17C57.1591 166.989 56.8924 166.845 56.6364 166.738C56.3911 166.632 56.0871 166.578 55.7244 166.578C54.9458 166.578 54.3378 166.845 53.9004 167.378C53.4738 167.901 53.2604 168.632 53.2604 169.57C53.2604 170.509 53.4738 171.234 53.9004 171.746C54.3378 172.258 54.9458 172.514 55.7244 172.514C56.0871 172.514 56.3964 172.461 56.6524 172.354C56.9191 172.248 57.1858 172.104 57.4524 171.922C57.5698 171.848 57.6818 171.784 57.7884 171.73C57.8951 171.677 57.9858 171.65 58.0604 171.65C58.1778 171.65 58.2738 171.698 58.3484 171.794C58.4338 171.89 58.4764 172.013 58.4764 172.162C58.4764 172.301 58.4391 172.429 58.3644 172.546C58.2898 172.653 58.1511 172.776 57.9484 172.914C57.6498 173.117 57.2871 173.282 56.8604 173.41C56.4444 173.528 56.0231 173.586 55.5964 173.586ZM63.2207 165.49C65.1727 165.49 66.1487 166.514 66.1487 168.562V172.914C66.1487 173.106 66.09 173.261 65.9727 173.378C65.866 173.496 65.7167 173.554 65.5247 173.554C65.3327 173.554 65.178 173.496 65.0607 173.378C64.9434 173.261 64.8847 173.106 64.8847 172.914V172.146C64.682 172.605 64.3727 172.962 63.9567 173.218C63.5407 173.464 63.0607 173.586 62.5167 173.586C62.0154 173.586 61.5514 173.485 61.1247 173.282C60.7087 173.08 60.378 172.797 60.1327 172.434C59.8874 172.072 59.7647 171.672 59.7647 171.234C59.7647 170.648 59.914 170.194 60.2127 169.874C60.5114 169.544 61.002 169.309 61.6847 169.17C62.3674 169.021 63.3167 168.946 64.5327 168.946H64.8847V168.418C64.8847 167.778 64.7514 167.309 64.4847 167.01C64.2287 166.712 63.8074 166.562 63.2207 166.562C62.4954 166.562 61.7594 166.76 61.0127 167.154C60.7247 167.336 60.522 167.426 60.4047 167.426C60.2767 167.426 60.17 167.378 60.0847 167.282C59.9994 167.186 59.9567 167.064 59.9567 166.914C59.9567 166.765 59.9994 166.637 60.0847 166.53C60.1807 166.413 60.33 166.296 60.5327 166.178C60.906 165.965 61.3274 165.8 61.7967 165.682C62.2767 165.554 62.7514 165.49 63.2207 165.49ZM62.6927 172.562C63.3327 172.562 63.8554 172.349 64.2607 171.922C64.6767 171.485 64.8847 170.925 64.8847 170.242V169.778H64.5967C63.658 169.778 62.9434 169.821 62.4527 169.906C61.962 169.981 61.61 170.114 61.3967 170.306C61.194 170.488 61.0927 170.76 61.0927 171.122C61.0927 171.538 61.242 171.885 61.5407 172.162C61.85 172.429 62.234 172.562 62.6927 172.562ZM77.1931 165.49C78.9211 165.49 79.7851 166.52 79.7851 168.578V172.914C79.7851 173.117 79.7264 173.277 79.6091 173.394C79.4917 173.501 79.3371 173.554 79.1451 173.554C78.9531 173.554 78.7931 173.501 78.6651 173.394C78.5477 173.277 78.4891 173.117 78.4891 172.914V168.61C78.4891 167.896 78.3611 167.378 78.1051 167.058C77.8491 166.738 77.4491 166.578 76.9051 166.578C76.2544 166.578 75.7424 166.797 75.3691 167.234C74.9957 167.672 74.8091 168.264 74.8091 169.01V172.914C74.8091 173.117 74.7451 173.277 74.6171 173.394C74.4997 173.501 74.3451 173.554 74.1531 173.554C73.9611 173.554 73.8064 173.501 73.6891 173.394C73.5717 173.277 73.5131 173.117 73.5131 172.914V168.61C73.5131 167.896 73.3851 167.378 73.1291 167.058C72.8731 166.738 72.4677 166.578 71.9131 166.578C71.2731 166.578 70.7611 166.797 70.3771 167.234C70.0037 167.672 69.8171 168.264 69.8171 169.01V172.914C69.8171 173.117 69.7584 173.277 69.6411 173.394C69.5237 173.501 69.3691 173.554 69.1771 173.554C68.9851 173.554 68.8251 173.501 68.6971 173.394C68.5797 173.277 68.5211 173.117 68.5211 172.914V166.162C68.5211 165.97 68.5797 165.816 68.6971 165.698C68.8251 165.581 68.9851 165.522 69.1771 165.522C69.3584 165.522 69.5077 165.581 69.6251 165.698C69.7424 165.805 69.8011 165.954 69.8011 166.146V166.914C70.0357 166.456 70.3611 166.104 70.7771 165.858C71.1931 165.613 71.6731 165.49 72.2171 165.49C73.4331 165.49 74.2277 166.002 74.6011 167.026C74.8251 166.557 75.1664 166.184 75.6251 165.906C76.0837 165.629 76.6064 165.49 77.1931 165.49ZM85.3781 173.586C84.6421 173.586 83.9914 173.421 83.4261 173.09C82.8714 172.76 82.4394 172.29 82.1301 171.682C81.8314 171.064 81.6821 170.349 81.6821 169.538C81.6821 168.728 81.8314 168.018 82.1301 167.41C82.4394 166.792 82.8714 166.317 83.4261 165.986C83.9914 165.656 84.6421 165.49 85.3781 165.49C86.1141 165.49 86.7647 165.656 87.3301 165.986C87.8954 166.317 88.3274 166.792 88.6261 167.41C88.9354 168.018 89.0901 168.728 89.0901 169.538C89.0901 170.349 88.9354 171.064 88.6261 171.682C88.3274 172.29 87.8954 172.76 87.3301 173.09C86.7647 173.421 86.1141 173.586 85.3781 173.586ZM85.3781 172.514C86.1461 172.514 86.7327 172.264 87.1381 171.762C87.5541 171.25 87.7621 170.509 87.7621 169.538C87.7621 168.589 87.5541 167.858 87.1381 167.346C86.7221 166.824 86.1354 166.562 85.3781 166.562C84.6207 166.562 84.0341 166.824 83.6181 167.346C83.2021 167.858 82.9941 168.589 82.9941 169.538C82.9941 170.498 83.1967 171.234 83.6021 171.746C84.0181 172.258 84.6101 172.514 85.3781 172.514ZM93.6451 173.586C93.1544 173.586 92.6851 173.528 92.2371 173.41C91.7997 173.293 91.4104 173.128 91.0691 172.914C90.8771 172.786 90.7384 172.669 90.6531 172.562C90.5784 172.445 90.5411 172.306 90.5411 172.146C90.5411 172.008 90.5784 171.896 90.6531 171.81C90.7384 171.714 90.8451 171.666 90.9731 171.666C91.1011 171.666 91.2877 171.746 91.5331 171.906C91.8531 172.098 92.1677 172.253 92.4771 172.37C92.7971 172.477 93.1917 172.53 93.6611 172.53C94.2371 172.53 94.6851 172.429 95.0051 172.226C95.3251 172.024 95.4851 171.73 95.4851 171.346C95.4851 171.112 95.4264 170.925 95.3091 170.786C95.1917 170.637 94.9891 170.509 94.7011 170.402C94.4131 170.285 93.9917 170.168 93.4371 170.05C92.4984 169.848 91.8264 169.576 91.4211 169.234C91.0157 168.893 90.8131 168.429 90.8131 167.842C90.8131 167.384 90.9411 166.978 91.1971 166.626C91.4531 166.274 91.8051 165.997 92.2531 165.794C92.7117 165.592 93.2291 165.49 93.8051 165.49C94.2211 165.49 94.6211 165.549 95.0051 165.666C95.3997 165.773 95.7464 165.928 96.0451 166.13C96.4077 166.386 96.5891 166.653 96.5891 166.93C96.5891 167.069 96.5464 167.186 96.4611 167.282C96.3757 167.378 96.2744 167.426 96.1571 167.426C96.0291 167.426 95.8371 167.336 95.5811 167.154C95.2824 166.962 94.9997 166.813 94.7331 166.706C94.4664 166.6 94.1357 166.546 93.7411 166.546C93.2397 166.546 92.8344 166.658 92.5251 166.882C92.2264 167.106 92.0771 167.405 92.0771 167.778C92.0771 168.013 92.1304 168.205 92.2371 168.354C92.3544 168.493 92.5411 168.621 92.7971 168.738C93.0637 168.845 93.4424 168.952 93.9331 169.058C94.6584 169.218 95.2184 169.394 95.6131 169.586C96.0184 169.778 96.3064 170.013 96.4771 170.29C96.6477 170.568 96.7331 170.92 96.7331 171.346C96.7331 172.018 96.4504 172.562 95.8851 172.978C95.3197 173.384 94.5731 173.586 93.6451 173.586ZM106.434 172.53C106.807 172.562 106.994 172.733 106.994 173.042C106.994 173.224 106.924 173.362 106.786 173.458C106.658 173.544 106.46 173.576 106.194 173.554L105.762 173.522C104.908 173.458 104.279 173.202 103.874 172.754C103.468 172.306 103.266 171.629 103.266 170.722V166.706H102.194C102.012 166.706 101.868 166.664 101.762 166.578C101.666 166.482 101.618 166.36 101.618 166.21C101.618 166.05 101.666 165.922 101.762 165.826C101.868 165.73 102.012 165.682 102.194 165.682H103.266V163.874C103.266 163.672 103.324 163.517 103.442 163.41C103.559 163.293 103.719 163.234 103.922 163.234C104.114 163.234 104.268 163.293 104.386 163.41C104.503 163.517 104.562 163.672 104.562 163.874V165.682H106.338C106.508 165.682 106.642 165.73 106.738 165.826C106.844 165.922 106.898 166.05 106.898 166.21C106.898 166.36 106.844 166.482 106.738 166.578C106.642 166.664 106.508 166.706 106.338 166.706H104.562V170.786C104.562 171.373 104.679 171.8 104.914 172.066C105.159 172.322 105.522 172.466 106.002 172.498L106.434 172.53ZM114.191 165.522C114.394 165.522 114.548 165.581 114.655 165.698C114.772 165.816 114.831 165.97 114.831 166.162V172.93C114.831 173.112 114.772 173.261 114.655 173.378C114.548 173.496 114.394 173.554 114.191 173.554C113.999 173.554 113.844 173.501 113.727 173.394C113.62 173.277 113.567 173.128 113.567 172.946V172.146C113.322 172.616 112.975 172.973 112.527 173.218C112.09 173.464 111.594 173.586 111.039 173.586C110.111 173.586 109.412 173.33 108.943 172.818C108.474 172.296 108.239 171.528 108.239 170.514V166.162C108.239 165.97 108.298 165.816 108.415 165.698C108.532 165.581 108.692 165.522 108.895 165.522C109.098 165.522 109.252 165.581 109.359 165.698C109.476 165.816 109.535 165.97 109.535 166.162V170.482C109.535 171.176 109.674 171.688 109.951 172.018C110.228 172.338 110.666 172.498 111.263 172.498C111.946 172.498 112.495 172.28 112.911 171.842C113.327 171.394 113.535 170.808 113.535 170.082V166.162C113.535 165.97 113.594 165.816 113.711 165.698C113.828 165.581 113.988 165.522 114.191 165.522ZM127.397 171.666C127.514 171.666 127.615 171.714 127.701 171.81C127.786 171.906 127.829 172.029 127.829 172.178C127.829 172.445 127.642 172.69 127.269 172.914C126.885 173.138 126.479 173.309 126.053 173.426C125.626 173.533 125.21 173.586 124.805 173.586C123.599 173.586 122.645 173.229 121.941 172.514C121.247 171.8 120.901 170.813 120.901 169.554C120.901 168.754 121.055 168.05 121.365 167.442C121.674 166.824 122.106 166.344 122.661 166.002C123.226 165.661 123.866 165.49 124.581 165.49C125.594 165.49 126.399 165.821 126.997 166.482C127.594 167.144 127.893 168.04 127.893 169.17C127.893 169.384 127.85 169.538 127.765 169.634C127.679 169.73 127.541 169.778 127.349 169.778H122.197C122.293 171.613 123.162 172.53 124.805 172.53C125.221 172.53 125.578 172.477 125.877 172.37C126.175 172.253 126.495 172.098 126.837 171.906C127.114 171.746 127.301 171.666 127.397 171.666ZM124.597 166.498C123.914 166.498 123.365 166.712 122.949 167.138C122.543 167.565 122.303 168.168 122.229 168.946H126.757C126.735 168.157 126.538 167.554 126.165 167.138C125.791 166.712 125.269 166.498 124.597 166.498ZM133.722 165.49C135.589 165.49 136.522 166.52 136.522 168.578V172.914C136.522 173.117 136.464 173.277 136.346 173.394C136.24 173.501 136.085 173.554 135.882 173.554C135.68 173.554 135.52 173.501 135.402 173.394C135.285 173.277 135.226 173.117 135.226 172.914V168.658C135.226 167.933 135.082 167.405 134.794 167.074C134.517 166.744 134.069 166.578 133.45 166.578C132.736 166.578 132.165 166.797 131.738 167.234C131.312 167.672 131.098 168.264 131.098 169.01V172.914C131.098 173.117 131.04 173.277 130.922 173.394C130.816 173.501 130.661 173.554 130.458 173.554C130.256 173.554 130.096 173.501 129.978 173.394C129.861 173.277 129.802 173.117 129.802 172.914V166.162C129.802 165.97 129.861 165.816 129.978 165.698C130.096 165.581 130.256 165.522 130.458 165.522C130.65 165.522 130.8 165.581 130.906 165.698C131.024 165.816 131.082 165.965 131.082 166.146V166.962C131.338 166.482 131.696 166.12 132.154 165.874C132.613 165.618 133.136 165.49 133.722 165.49ZM142.112 173.586C141.387 173.586 140.741 173.421 140.176 173.09C139.621 172.76 139.189 172.29 138.88 171.682C138.581 171.074 138.432 170.37 138.432 169.57C138.432 168.77 138.587 168.061 138.896 167.442C139.216 166.824 139.659 166.344 140.224 166.002C140.789 165.661 141.44 165.49 142.176 165.49C142.581 165.49 142.981 165.549 143.376 165.666C143.781 165.773 144.133 165.933 144.432 166.146C144.624 166.274 144.757 166.402 144.832 166.53C144.917 166.648 144.96 166.781 144.96 166.93C144.96 167.08 144.917 167.202 144.832 167.298C144.757 167.394 144.656 167.442 144.528 167.442C144.453 167.442 144.373 167.421 144.288 167.378C144.203 167.336 144.128 167.293 144.064 167.25C144.011 167.208 143.973 167.181 143.952 167.17C143.675 166.989 143.408 166.845 143.152 166.738C142.907 166.632 142.603 166.578 142.24 166.578C141.461 166.578 140.853 166.845 140.416 167.378C139.989 167.901 139.776 168.632 139.776 169.57C139.776 170.509 139.989 171.234 140.416 171.746C140.853 172.258 141.461 172.514 142.24 172.514C142.603 172.514 142.912 172.461 143.168 172.354C143.435 172.248 143.701 172.104 143.968 171.922C144.085 171.848 144.197 171.784 144.304 171.73C144.411 171.677 144.501 171.65 144.576 171.65C144.693 171.65 144.789 171.698 144.864 171.794C144.949 171.89 144.992 172.013 144.992 172.162C144.992 172.301 144.955 172.429 144.88 172.546C144.805 172.653 144.667 172.776 144.464 172.914C144.165 173.117 143.803 173.282 143.376 173.41C142.96 173.528 142.539 173.586 142.112 173.586ZM149.784 173.586C149.048 173.586 148.398 173.421 147.832 173.09C147.278 172.76 146.846 172.29 146.536 171.682C146.238 171.064 146.088 170.349 146.088 169.538C146.088 168.728 146.238 168.018 146.536 167.41C146.846 166.792 147.278 166.317 147.832 165.986C148.398 165.656 149.048 165.49 149.784 165.49C150.52 165.49 151.171 165.656 151.736 165.986C152.302 166.317 152.734 166.792 153.032 167.41C153.342 168.018 153.496 168.728 153.496 169.538C153.496 170.349 153.342 171.064 153.032 171.682C152.734 172.29 152.302 172.76 151.736 173.09C151.171 173.421 150.52 173.586 149.784 173.586ZM149.784 172.514C150.552 172.514 151.139 172.264 151.544 171.762C151.96 171.25 152.168 170.509 152.168 169.538C152.168 168.589 151.96 167.858 151.544 167.346C151.128 166.824 150.542 166.562 149.784 166.562C149.027 166.562 148.44 166.824 148.024 167.346C147.608 167.858 147.4 168.589 147.4 169.538C147.4 170.498 147.603 171.234 148.008 171.746C148.424 172.258 149.016 172.514 149.784 172.514ZM164.099 165.49C165.827 165.49 166.691 166.52 166.691 168.578V172.914C166.691 173.117 166.633 173.277 166.515 173.394C166.398 173.501 166.243 173.554 166.051 173.554C165.859 173.554 165.699 173.501 165.571 173.394C165.454 173.277 165.395 173.117 165.395 172.914V168.61C165.395 167.896 165.267 167.378 165.011 167.058C164.755 166.738 164.355 166.578 163.811 166.578C163.161 166.578 162.649 166.797 162.275 167.234C161.902 167.672 161.715 168.264 161.715 169.01V172.914C161.715 173.117 161.651 173.277 161.523 173.394C161.406 173.501 161.251 173.554 161.059 173.554C160.867 173.554 160.713 173.501 160.595 173.394C160.478 173.277 160.419 173.117 160.419 172.914V168.61C160.419 167.896 160.291 167.378 160.035 167.058C159.779 166.738 159.374 166.578 158.819 166.578C158.179 166.578 157.667 166.797 157.283 167.234C156.91 167.672 156.723 168.264 156.723 169.01V172.914C156.723 173.117 156.665 173.277 156.547 173.394C156.43 173.501 156.275 173.554 156.083 173.554C155.891 173.554 155.731 173.501 155.603 173.394C155.486 173.277 155.427 173.117 155.427 172.914V166.162C155.427 165.97 155.486 165.816 155.603 165.698C155.731 165.581 155.891 165.522 156.083 165.522C156.265 165.522 156.414 165.581 156.531 165.698C156.649 165.805 156.707 165.954 156.707 166.146V166.914C156.942 166.456 157.267 166.104 157.683 165.858C158.099 165.613 158.579 165.49 159.123 165.49C160.339 165.49 161.134 166.002 161.507 167.026C161.731 166.557 162.073 166.184 162.531 165.906C162.99 165.629 163.513 165.49 164.099 165.49ZM169.708 173.554C169.516 173.554 169.356 173.501 169.228 173.394C169.111 173.277 169.052 173.117 169.052 172.914V166.162C169.052 165.96 169.111 165.805 169.228 165.698C169.356 165.581 169.516 165.522 169.708 165.522C169.9 165.522 170.055 165.581 170.172 165.698C170.29 165.805 170.348 165.96 170.348 166.162V172.914C170.348 173.128 170.29 173.288 170.172 173.394C170.055 173.501 169.9 173.554 169.708 173.554ZM169.708 163.842C169.452 163.842 169.244 163.768 169.084 163.618C168.924 163.469 168.844 163.272 168.844 163.026C168.844 162.792 168.924 162.6 169.084 162.45C169.244 162.301 169.452 162.226 169.708 162.226C169.964 162.226 170.172 162.301 170.332 162.45C170.492 162.6 170.572 162.792 170.572 163.026C170.572 163.272 170.492 163.469 170.332 163.618C170.172 163.768 169.964 163.842 169.708 163.842ZM178.803 171.666C178.92 171.666 179.022 171.714 179.107 171.81C179.192 171.906 179.235 172.029 179.235 172.178C179.235 172.445 179.048 172.69 178.675 172.914C178.291 173.138 177.886 173.309 177.459 173.426C177.032 173.533 176.616 173.586 176.211 173.586C175.006 173.586 174.051 173.229 173.347 172.514C172.654 171.8 172.307 170.813 172.307 169.554C172.307 168.754 172.462 168.05 172.771 167.442C173.08 166.824 173.512 166.344 174.067 166.002C174.632 165.661 175.272 165.49 175.987 165.49C177 165.49 177.806 165.821 178.403 166.482C179 167.144 179.299 168.04 179.299 169.17C179.299 169.384 179.256 169.538 179.171 169.634C179.086 169.73 178.947 169.778 178.755 169.778H173.603C173.699 171.613 174.568 172.53 176.211 172.53C176.627 172.53 176.984 172.477 177.283 172.37C177.582 172.253 177.902 172.098 178.243 171.906C178.52 171.746 178.707 171.666 178.803 171.666ZM176.003 166.498C175.32 166.498 174.771 166.712 174.355 167.138C173.95 167.565 173.71 168.168 173.635 168.946H178.163C178.142 168.157 177.944 167.554 177.571 167.138C177.198 166.712 176.675 166.498 176.003 166.498ZM185.129 165.49C186.995 165.49 187.929 166.52 187.929 168.578V172.914C187.929 173.117 187.87 173.277 187.753 173.394C187.646 173.501 187.491 173.554 187.289 173.554C187.086 173.554 186.926 173.501 186.809 173.394C186.691 173.277 186.633 173.117 186.633 172.914V168.658C186.633 167.933 186.489 167.405 186.201 167.074C185.923 166.744 185.475 166.578 184.857 166.578C184.142 166.578 183.571 166.797 183.145 167.234C182.718 167.672 182.505 168.264 182.505 169.01V172.914C182.505 173.117 182.446 173.277 182.329 173.394C182.222 173.501 182.067 173.554 181.865 173.554C181.662 173.554 181.502 173.501 181.385 173.394C181.267 173.277 181.209 173.117 181.209 172.914V166.162C181.209 165.97 181.267 165.816 181.385 165.698C181.502 165.581 181.662 165.522 181.865 165.522C182.057 165.522 182.206 165.581 182.313 165.698C182.43 165.816 182.489 165.965 182.489 166.146V166.962C182.745 166.482 183.102 166.12 183.561 165.874C184.019 165.618 184.542 165.49 185.129 165.49ZM196.558 162.114C196.761 162.114 196.921 162.173 197.038 162.29C197.156 162.408 197.214 162.557 197.214 162.738V172.914C197.214 173.106 197.156 173.261 197.038 173.378C196.921 173.496 196.761 173.554 196.558 173.554C196.356 173.554 196.196 173.496 196.078 173.378C195.972 173.261 195.918 173.106 195.918 172.914V172.05C195.684 172.541 195.337 172.92 194.878 173.186C194.43 173.453 193.902 173.586 193.294 173.586C192.612 173.586 192.009 173.416 191.486 173.074C190.964 172.733 190.558 172.258 190.27 171.65C189.982 171.032 189.838 170.317 189.838 169.506C189.838 168.706 189.982 168.002 190.27 167.394C190.558 166.786 190.964 166.317 191.486 165.986C192.009 165.656 192.612 165.49 193.294 165.49C193.902 165.49 194.43 165.624 194.878 165.89C195.337 166.157 195.684 166.536 195.918 167.026V162.738C195.918 162.546 195.972 162.397 196.078 162.29C196.196 162.173 196.356 162.114 196.558 162.114ZM193.55 172.514C194.308 172.514 194.889 172.258 195.294 171.746C195.71 171.224 195.918 170.488 195.918 169.538C195.918 168.589 195.71 167.858 195.294 167.346C194.889 166.834 194.308 166.578 193.55 166.578C192.793 166.578 192.201 166.834 191.774 167.346C191.358 167.858 191.15 168.578 191.15 169.506C191.15 170.456 191.358 171.197 191.774 171.73C192.201 172.253 192.793 172.514 193.55 172.514ZM202.799 165.49C204.751 165.49 205.727 166.514 205.727 168.562V172.914C205.727 173.106 205.668 173.261 205.551 173.378C205.444 173.496 205.295 173.554 205.103 173.554C204.911 173.554 204.756 173.496 204.639 173.378C204.521 173.261 204.463 173.106 204.463 172.914V172.146C204.26 172.605 203.951 172.962 203.535 173.218C203.119 173.464 202.639 173.586 202.095 173.586C201.593 173.586 201.129 173.485 200.703 173.282C200.287 173.08 199.956 172.797 199.711 172.434C199.465 172.072 199.343 171.672 199.343 171.234C199.343 170.648 199.492 170.194 199.791 169.874C200.089 169.544 200.58 169.309 201.263 169.17C201.945 169.021 202.895 168.946 204.111 168.946H204.463V168.418C204.463 167.778 204.329 167.309 204.063 167.01C203.807 166.712 203.385 166.562 202.799 166.562C202.073 166.562 201.337 166.76 200.591 167.154C200.303 167.336 200.1 167.426 199.983 167.426C199.855 167.426 199.748 167.378 199.663 167.282C199.577 167.186 199.535 167.064 199.535 166.914C199.535 166.765 199.577 166.637 199.663 166.53C199.759 166.413 199.908 166.296 200.111 166.178C200.484 165.965 200.905 165.8 201.375 165.682C201.855 165.554 202.329 165.49 202.799 165.49ZM202.271 172.562C202.911 172.562 203.433 172.349 203.839 171.922C204.255 171.485 204.463 170.925 204.463 170.242V169.778H204.175C203.236 169.778 202.521 169.821 202.031 169.906C201.54 169.981 201.188 170.114 200.975 170.306C200.772 170.488 200.671 170.76 200.671 171.122C200.671 171.538 200.82 171.885 201.119 172.162C201.428 172.429 201.812 172.562 202.271 172.562ZM15.5121 187.922C15.6294 187.666 15.8161 187.538 16.0721 187.538C16.2321 187.538 16.3761 187.592 16.5041 187.698C16.6321 187.805 16.6961 187.938 16.6961 188.098C16.6961 188.194 16.6747 188.28 16.6321 188.354L12.1361 198.05C12.0827 198.168 12.0027 198.258 11.8961 198.322C11.8001 198.386 11.6987 198.418 11.5921 198.418C11.4321 198.418 11.2881 198.365 11.1601 198.258C11.0427 198.162 10.9841 198.034 10.9841 197.874C10.9841 197.789 11.0054 197.704 11.0481 197.618L12.1681 195.202L9.00007 188.354C8.9574 188.28 8.93607 188.2 8.93607 188.114C8.93607 187.954 9.0054 187.816 9.14407 187.698C9.2934 187.581 9.4534 187.522 9.62407 187.522C9.73073 187.522 9.83207 187.554 9.92807 187.618C10.0347 187.682 10.1147 187.773 10.1681 187.89L12.8401 193.89L15.5121 187.922ZM22.8958 195.554C22.7038 195.554 22.5438 195.501 22.4158 195.394C22.2985 195.277 22.2398 195.117 22.2398 194.914V184.754C22.2398 184.552 22.2985 184.397 22.4158 184.29C22.5438 184.173 22.7038 184.114 22.8958 184.114C23.0772 184.114 23.2265 184.173 23.3438 184.29C23.4718 184.397 23.5358 184.552 23.5358 184.754V194.914C23.5358 195.117 23.4718 195.277 23.3438 195.394C23.2265 195.501 23.0772 195.554 22.8958 195.554ZM29.1906 195.586C28.4546 195.586 27.8039 195.421 27.2386 195.09C26.6839 194.76 26.2519 194.29 25.9426 193.682C25.6439 193.064 25.4946 192.349 25.4946 191.538C25.4946 190.728 25.6439 190.018 25.9426 189.41C26.2519 188.792 26.6839 188.317 27.2386 187.986C27.8039 187.656 28.4546 187.49 29.1906 187.49C29.9266 187.49 30.5772 187.656 31.1426 187.986C31.7079 188.317 32.1399 188.792 32.4386 189.41C32.7479 190.018 32.9026 190.728 32.9026 191.538C32.9026 192.349 32.7479 193.064 32.4386 193.682C32.1399 194.29 31.7079 194.76 31.1426 195.09C30.5772 195.421 29.9266 195.586 29.1906 195.586ZM29.1906 194.514C29.9586 194.514 30.5452 194.264 30.9506 193.762C31.3666 193.25 31.5746 192.509 31.5746 191.538C31.5746 190.589 31.3666 189.858 30.9506 189.346C30.5346 188.824 29.9479 188.562 29.1906 188.562C28.4332 188.562 27.8466 188.824 27.4306 189.346C27.0146 189.858 26.8066 190.589 26.8066 191.538C26.8066 192.498 27.0092 193.234 27.4146 193.746C27.8306 194.258 28.4226 194.514 29.1906 194.514ZM39.6146 195.554C39.4226 195.554 39.2626 195.501 39.1346 195.394C39.0172 195.277 38.9586 195.117 38.9586 194.914V184.754C38.9586 184.552 39.0172 184.397 39.1346 184.29C39.2626 184.173 39.4226 184.114 39.6146 184.114C39.7959 184.114 39.9452 184.173 40.0626 184.29C40.1906 184.397 40.2546 184.552 40.2546 184.754V194.914C40.2546 195.117 40.1906 195.277 40.0626 195.394C39.9452 195.501 39.7959 195.554 39.6146 195.554ZM43.3333 195.554C43.1413 195.554 42.9813 195.501 42.8533 195.394C42.736 195.277 42.6773 195.117 42.6773 194.914V184.754C42.6773 184.552 42.736 184.397 42.8533 184.29C42.9813 184.173 43.1413 184.114 43.3333 184.114C43.5147 184.114 43.664 184.173 43.7813 184.29C43.9093 184.397 43.9733 184.552 43.9733 184.754V194.914C43.9733 195.117 43.9093 195.277 43.7813 195.394C43.664 195.501 43.5147 195.554 43.3333 195.554ZM52.4281 193.666C52.5454 193.666 52.6467 193.714 52.7321 193.81C52.8174 193.906 52.8601 194.029 52.8601 194.178C52.8601 194.445 52.6734 194.69 52.3001 194.914C51.9161 195.138 51.5107 195.309 51.0841 195.426C50.6574 195.533 50.2414 195.586 49.8361 195.586C48.6307 195.586 47.6761 195.229 46.9721 194.514C46.2787 193.8 45.9321 192.813 45.9321 191.554C45.9321 190.754 46.0867 190.05 46.3961 189.442C46.7054 188.824 47.1374 188.344 47.6921 188.002C48.2574 187.661 48.8974 187.49 49.6121 187.49C50.6254 187.49 51.4307 187.821 52.0281 188.482C52.6254 189.144 52.9241 190.04 52.9241 191.17C52.9241 191.384 52.8814 191.538 52.7961 191.634C52.7107 191.73 52.5721 191.778 52.3801 191.778H47.2281C47.3241 193.613 48.1934 194.53 49.8361 194.53C50.2521 194.53 50.6094 194.477 50.9081 194.37C51.2067 194.253 51.5267 194.098 51.8681 193.906C52.1454 193.746 52.3321 193.666 52.4281 193.666ZM49.6281 188.498C48.9454 188.498 48.3961 188.712 47.9801 189.138C47.5747 189.565 47.3347 190.168 47.2601 190.946H51.7881C51.7667 190.157 51.5694 189.554 51.1961 189.138C50.8227 188.712 50.3001 188.498 49.6281 188.498ZM60.3558 187.922C60.4732 187.666 60.6598 187.538 60.9158 187.538C61.0758 187.538 61.2198 187.592 61.3478 187.698C61.4758 187.805 61.5398 187.938 61.5398 188.098C61.5398 188.194 61.5185 188.28 61.4758 188.354L58.3558 195.074C58.2918 195.213 58.1958 195.325 58.0678 195.41C57.9398 195.485 57.8012 195.522 57.6518 195.522C57.5132 195.522 57.3798 195.485 57.2518 195.41C57.1238 195.325 57.0225 195.213 56.9478 195.074L53.8438 188.354C53.8012 188.28 53.7798 188.2 53.7798 188.114C53.7798 187.954 53.8492 187.816 53.9878 187.698C54.1372 187.581 54.2972 187.522 54.4678 187.522C54.5745 187.522 54.6758 187.554 54.7718 187.618C54.8785 187.682 54.9585 187.773 55.0118 187.89L57.6838 193.89L60.3558 187.922ZM66.0019 187.49C67.9539 187.49 68.9299 188.514 68.9299 190.562V194.914C68.9299 195.106 68.8713 195.261 68.7539 195.378C68.6473 195.496 68.4979 195.554 68.3059 195.554C68.1139 195.554 67.9593 195.496 67.8419 195.378C67.7246 195.261 67.6659 195.106 67.6659 194.914V194.146C67.4633 194.605 67.1539 194.962 66.7379 195.218C66.3219 195.464 65.8419 195.586 65.2979 195.586C64.7966 195.586 64.3326 195.485 63.9059 195.282C63.4899 195.08 63.1593 194.797 62.9139 194.434C62.6686 194.072 62.5459 193.672 62.5459 193.234C62.5459 192.648 62.6953 192.194 62.9939 191.874C63.2926 191.544 63.7833 191.309 64.4659 191.17C65.1486 191.021 66.0979 190.946 67.3139 190.946H67.6659V190.418C67.6659 189.778 67.5326 189.309 67.2659 189.01C67.0099 188.712 66.5886 188.562 66.0019 188.562C65.2766 188.562 64.5406 188.76 63.7939 189.154C63.5059 189.336 63.3033 189.426 63.1859 189.426C63.0579 189.426 62.9513 189.378 62.8659 189.282C62.7806 189.186 62.7379 189.064 62.7379 188.914C62.7379 188.765 62.7806 188.637 62.8659 188.53C62.9619 188.413 63.1113 188.296 63.3139 188.178C63.6873 187.965 64.1086 187.8 64.5779 187.682C65.0579 187.554 65.5326 187.49 66.0019 187.49ZM65.4739 194.562C66.1139 194.562 66.6366 194.349 67.0419 193.922C67.4579 193.485 67.6659 192.925 67.6659 192.242V191.778H67.3779C66.4393 191.778 65.7246 191.821 65.2339 191.906C64.7433 191.981 64.3913 192.114 64.1779 192.306C63.9753 192.488 63.8739 192.76 63.8739 193.122C63.8739 193.538 64.0233 193.885 64.3219 194.162C64.6313 194.429 65.0153 194.562 65.4739 194.562ZM79.9743 187.49C81.7023 187.49 82.5663 188.52 82.5663 190.578V194.914C82.5663 195.117 82.5077 195.277 82.3903 195.394C82.273 195.501 82.1183 195.554 81.9263 195.554C81.7343 195.554 81.5743 195.501 81.4463 195.394C81.329 195.277 81.2703 195.117 81.2703 194.914V190.61C81.2703 189.896 81.1423 189.378 80.8863 189.058C80.6303 188.738 80.2303 188.578 79.6863 188.578C79.0357 188.578 78.5237 188.797 78.1503 189.234C77.777 189.672 77.5903 190.264 77.5903 191.01V194.914C77.5903 195.117 77.5263 195.277 77.3983 195.394C77.281 195.501 77.1263 195.554 76.9343 195.554C76.7423 195.554 76.5877 195.501 76.4703 195.394C76.353 195.277 76.2943 195.117 76.2943 194.914V190.61C76.2943 189.896 76.1663 189.378 75.9103 189.058C75.6543 188.738 75.249 188.578 74.6943 188.578C74.0543 188.578 73.5423 188.797 73.1583 189.234C72.785 189.672 72.5983 190.264 72.5983 191.01V194.914C72.5983 195.117 72.5397 195.277 72.4223 195.394C72.305 195.501 72.1503 195.554 71.9583 195.554C71.7663 195.554 71.6063 195.501 71.4783 195.394C71.361 195.277 71.3023 195.117 71.3023 194.914V188.162C71.3023 187.97 71.361 187.816 71.4783 187.698C71.6063 187.581 71.7663 187.522 71.9583 187.522C72.1397 187.522 72.289 187.581 72.4063 187.698C72.5237 187.805 72.5823 187.954 72.5823 188.146V188.914C72.817 188.456 73.1423 188.104 73.5583 187.858C73.9743 187.613 74.4543 187.49 74.9983 187.49C76.2143 187.49 77.009 188.002 77.3823 189.026C77.6063 188.557 77.9477 188.184 78.4063 187.906C78.865 187.629 79.3877 187.49 79.9743 187.49ZM88.1593 195.586C87.4233 195.586 86.7727 195.421 86.2073 195.09C85.6527 194.76 85.2207 194.29 84.9113 193.682C84.6127 193.064 84.4633 192.349 84.4633 191.538C84.4633 190.728 84.6127 190.018 84.9113 189.41C85.2207 188.792 85.6527 188.317 86.2073 187.986C86.7727 187.656 87.4233 187.49 88.1593 187.49C88.8953 187.49 89.546 187.656 90.1113 187.986C90.6767 188.317 91.1087 188.792 91.4073 189.41C91.7167 190.018 91.8713 190.728 91.8713 191.538C91.8713 192.349 91.7167 193.064 91.4073 193.682C91.1087 194.29 90.6767 194.76 90.1113 195.09C89.546 195.421 88.8953 195.586 88.1593 195.586ZM88.1593 194.514C88.9273 194.514 89.514 194.264 89.9193 193.762C90.3353 193.25 90.5433 192.509 90.5433 191.538C90.5433 190.589 90.3353 189.858 89.9193 189.346C89.5033 188.824 88.9167 188.562 88.1593 188.562C87.402 188.562 86.8153 188.824 86.3993 189.346C85.9833 189.858 85.7753 190.589 85.7753 191.538C85.7753 192.498 85.978 193.234 86.3833 193.746C86.7993 194.258 87.3913 194.514 88.1593 194.514ZM96.4263 195.586C95.9357 195.586 95.4663 195.528 95.0183 195.41C94.581 195.293 94.1917 195.128 93.8503 194.914C93.6583 194.786 93.5197 194.669 93.4343 194.562C93.3597 194.445 93.3223 194.306 93.3223 194.146C93.3223 194.008 93.3597 193.896 93.4343 193.81C93.5197 193.714 93.6263 193.666 93.7543 193.666C93.8823 193.666 94.069 193.746 94.3143 193.906C94.6343 194.098 94.949 194.253 95.2583 194.37C95.5783 194.477 95.973 194.53 96.4423 194.53C97.0183 194.53 97.4663 194.429 97.7863 194.226C98.1063 194.024 98.2663 193.73 98.2663 193.346C98.2663 193.112 98.2077 192.925 98.0903 192.786C97.973 192.637 97.7703 192.509 97.4823 192.402C97.1943 192.285 96.773 192.168 96.2183 192.05C95.2797 191.848 94.6077 191.576 94.2023 191.234C93.797 190.893 93.5943 190.429 93.5943 189.842C93.5943 189.384 93.7223 188.978 93.9783 188.626C94.2343 188.274 94.5863 187.997 95.0343 187.794C95.493 187.592 96.0103 187.49 96.5863 187.49C97.0023 187.49 97.4023 187.549 97.7863 187.666C98.181 187.773 98.5277 187.928 98.8263 188.13C99.189 188.386 99.3703 188.653 99.3703 188.93C99.3703 189.069 99.3277 189.186 99.2423 189.282C99.157 189.378 99.0557 189.426 98.9383 189.426C98.8103 189.426 98.6183 189.336 98.3623 189.154C98.0637 188.962 97.781 188.813 97.5143 188.706C97.2477 188.6 96.917 188.546 96.5223 188.546C96.021 188.546 95.6157 188.658 95.3063 188.882C95.0077 189.106 94.8583 189.405 94.8583 189.778C94.8583 190.013 94.9117 190.205 95.0183 190.354C95.1357 190.493 95.3223 190.621 95.5783 190.738C95.845 190.845 96.2237 190.952 96.7143 191.058C97.4397 191.218 97.9997 191.394 98.3943 191.586C98.7997 191.778 99.0877 192.013 99.2583 192.29C99.429 192.568 99.5143 192.92 99.5143 193.346C99.5143 194.018 99.2317 194.562 98.6663 194.978C98.101 195.384 97.3543 195.586 96.4263 195.586ZM108.799 187.49C110.751 187.49 111.727 188.514 111.727 190.562V194.914C111.727 195.106 111.668 195.261 111.551 195.378C111.444 195.496 111.295 195.554 111.103 195.554C110.911 195.554 110.756 195.496 110.639 195.378C110.521 195.261 110.463 195.106 110.463 194.914V194.146C110.26 194.605 109.951 194.962 109.535 195.218C109.119 195.464 108.639 195.586 108.095 195.586C107.593 195.586 107.129 195.485 106.703 195.282C106.287 195.08 105.956 194.797 105.711 194.434C105.465 194.072 105.343 193.672 105.343 193.234C105.343 192.648 105.492 192.194 105.791 191.874C106.089 191.544 106.58 191.309 107.263 191.17C107.945 191.021 108.895 190.946 110.111 190.946H110.463V190.418C110.463 189.778 110.329 189.309 110.063 189.01C109.807 188.712 109.385 188.562 108.799 188.562C108.073 188.562 107.337 188.76 106.591 189.154C106.303 189.336 106.1 189.426 105.983 189.426C105.855 189.426 105.748 189.378 105.663 189.282C105.577 189.186 105.535 189.064 105.535 188.914C105.535 188.765 105.577 188.637 105.663 188.53C105.759 188.413 105.908 188.296 106.111 188.178C106.484 187.965 106.905 187.8 107.375 187.682C107.855 187.554 108.329 187.49 108.799 187.49ZM108.271 194.562C108.911 194.562 109.433 194.349 109.839 193.922C110.255 193.485 110.463 192.925 110.463 192.242V191.778H110.175C109.236 191.778 108.521 191.821 108.031 191.906C107.54 191.981 107.188 192.114 106.975 192.306C106.772 192.488 106.671 192.76 106.671 193.122C106.671 193.538 106.82 193.885 107.119 194.162C107.428 194.429 107.812 194.562 108.271 194.562ZM124.48 184.114C124.683 184.114 124.843 184.173 124.96 184.29C125.078 184.408 125.136 184.557 125.136 184.738V194.914C125.136 195.106 125.078 195.261 124.96 195.378C124.843 195.496 124.683 195.554 124.48 195.554C124.278 195.554 124.118 195.496 124 195.378C123.894 195.261 123.84 195.106 123.84 194.914V194.05C123.606 194.541 123.259 194.92 122.8 195.186C122.352 195.453 121.824 195.586 121.216 195.586C120.534 195.586 119.931 195.416 119.408 195.074C118.886 194.733 118.48 194.258 118.192 193.65C117.904 193.032 117.76 192.317 117.76 191.506C117.76 190.706 117.904 190.002 118.192 189.394C118.48 188.786 118.886 188.317 119.408 187.986C119.931 187.656 120.534 187.49 121.216 187.49C121.824 187.49 122.352 187.624 122.8 187.89C123.259 188.157 123.606 188.536 123.84 189.026V184.738C123.84 184.546 123.894 184.397 124 184.29C124.118 184.173 124.278 184.114 124.48 184.114ZM121.472 194.514C122.23 194.514 122.811 194.258 123.216 193.746C123.632 193.224 123.84 192.488 123.84 191.538C123.84 190.589 123.632 189.858 123.216 189.346C122.811 188.834 122.23 188.578 121.472 188.578C120.715 188.578 120.123 188.834 119.696 189.346C119.28 189.858 119.072 190.578 119.072 191.506C119.072 192.456 119.28 193.197 119.696 193.73C120.123 194.253 120.715 194.514 121.472 194.514ZM130.769 195.586C130.033 195.586 129.382 195.421 128.817 195.09C128.262 194.76 127.83 194.29 127.521 193.682C127.222 193.064 127.073 192.349 127.073 191.538C127.073 190.728 127.222 190.018 127.521 189.41C127.83 188.792 128.262 188.317 128.817 187.986C129.382 187.656 130.033 187.49 130.769 187.49C131.505 187.49 132.155 187.656 132.721 187.986C133.286 188.317 133.718 188.792 134.017 189.41C134.326 190.018 134.481 190.728 134.481 191.538C134.481 192.349 134.326 193.064 134.017 193.682C133.718 194.29 133.286 194.76 132.721 195.09C132.155 195.421 131.505 195.586 130.769 195.586ZM130.769 194.514C131.537 194.514 132.123 194.264 132.529 193.762C132.945 193.25 133.153 192.509 133.153 191.538C133.153 190.589 132.945 189.858 132.529 189.346C132.113 188.824 131.526 188.562 130.769 188.562C130.011 188.562 129.425 188.824 129.009 189.346C128.593 189.858 128.385 190.589 128.385 191.538C128.385 192.498 128.587 193.234 128.993 193.746C129.409 194.258 130.001 194.514 130.769 194.514ZM140.332 187.49C142.198 187.49 143.132 188.52 143.132 190.578V194.914C143.132 195.117 143.073 195.277 142.956 195.394C142.849 195.501 142.694 195.554 142.492 195.554C142.289 195.554 142.129 195.501 142.012 195.394C141.894 195.277 141.836 195.117 141.836 194.914V190.658C141.836 189.933 141.692 189.405 141.404 189.074C141.126 188.744 140.678 188.578 140.06 188.578C139.345 188.578 138.774 188.797 138.348 189.234C137.921 189.672 137.708 190.264 137.708 191.01V194.914C137.708 195.117 137.649 195.277 137.532 195.394C137.425 195.501 137.27 195.554 137.068 195.554C136.865 195.554 136.705 195.501 136.588 195.394C136.47 195.277 136.412 195.117 136.412 194.914V188.162C136.412 187.97 136.47 187.816 136.588 187.698C136.705 187.581 136.865 187.522 137.068 187.522C137.26 187.522 137.409 187.581 137.516 187.698C137.633 187.816 137.692 187.965 137.692 188.146V188.962C137.948 188.482 138.305 188.12 138.764 187.874C139.222 187.618 139.745 187.49 140.332 187.49ZM151.761 184.114C151.964 184.114 152.124 184.173 152.241 184.29C152.359 184.408 152.417 184.557 152.417 184.738V194.914C152.417 195.106 152.359 195.261 152.241 195.378C152.124 195.496 151.964 195.554 151.761 195.554C151.559 195.554 151.399 195.496 151.281 195.378C151.175 195.261 151.121 195.106 151.121 194.914V194.05C150.887 194.541 150.54 194.92 150.081 195.186C149.633 195.453 149.105 195.586 148.497 195.586C147.815 195.586 147.212 195.416 146.689 195.074C146.167 194.733 145.761 194.258 145.473 193.65C145.185 193.032 145.041 192.317 145.041 191.506C145.041 190.706 145.185 190.002 145.473 189.394C145.761 188.786 146.167 188.317 146.689 187.986C147.212 187.656 147.815 187.49 148.497 187.49C149.105 187.49 149.633 187.624 150.081 187.89C150.54 188.157 150.887 188.536 151.121 189.026V184.738C151.121 184.546 151.175 184.397 151.281 184.29C151.399 184.173 151.559 184.114 151.761 184.114ZM148.753 194.514C149.511 194.514 150.092 194.258 150.497 193.746C150.913 193.224 151.121 192.488 151.121 191.538C151.121 190.589 150.913 189.858 150.497 189.346C150.092 188.834 149.511 188.578 148.753 188.578C147.996 188.578 147.404 188.834 146.977 189.346C146.561 189.858 146.353 190.578 146.353 191.506C146.353 192.456 146.561 193.197 146.977 193.73C147.404 194.253 147.996 194.514 148.753 194.514ZM160.85 193.666C160.967 193.666 161.069 193.714 161.154 193.81C161.239 193.906 161.282 194.029 161.282 194.178C161.282 194.445 161.095 194.69 160.722 194.914C160.338 195.138 159.933 195.309 159.506 195.426C159.079 195.533 158.663 195.586 158.258 195.586C157.053 195.586 156.098 195.229 155.394 194.514C154.701 193.8 154.354 192.813 154.354 191.554C154.354 190.754 154.509 190.05 154.818 189.442C155.127 188.824 155.559 188.344 156.114 188.002C156.679 187.661 157.319 187.49 158.034 187.49C159.047 187.49 159.853 187.821 160.45 188.482C161.047 189.144 161.346 190.04 161.346 191.17C161.346 191.384 161.303 191.538 161.218 191.634C161.133 191.73 160.994 191.778 160.802 191.778H155.65C155.746 193.613 156.615 194.53 158.258 194.53C158.674 194.53 159.031 194.477 159.33 194.37C159.629 194.253 159.949 194.098 160.29 193.906C160.567 193.746 160.754 193.666 160.85 193.666ZM158.05 188.498C157.367 188.498 156.818 188.712 156.402 189.138C155.997 189.565 155.757 190.168 155.682 190.946H160.21C160.189 190.157 159.991 189.554 159.618 189.138C159.245 188.712 158.722 188.498 158.05 188.498ZM173.636 187.522C173.839 187.522 173.999 187.581 174.116 187.698C174.234 187.816 174.292 187.97 174.292 188.162V197.81C174.292 197.992 174.234 198.141 174.116 198.258C173.999 198.376 173.839 198.434 173.636 198.434C173.434 198.434 173.274 198.376 173.156 198.258C173.05 198.152 172.996 198.002 172.996 197.81V194.05C172.762 194.541 172.415 194.92 171.956 195.186C171.508 195.453 170.98 195.586 170.372 195.586C169.679 195.586 169.071 195.421 168.548 195.09C168.036 194.76 167.636 194.296 167.348 193.698C167.06 193.09 166.916 192.381 166.916 191.57C166.916 190.76 167.06 190.05 167.348 189.442C167.636 188.824 168.042 188.344 168.564 188.002C169.087 187.661 169.69 187.49 170.372 187.49C170.98 187.49 171.508 187.624 171.956 187.89C172.415 188.157 172.762 188.536 172.996 189.026V188.162C172.996 187.97 173.05 187.816 173.156 187.698C173.274 187.581 173.434 187.522 173.636 187.522ZM170.628 194.514C171.386 194.514 171.967 194.258 172.372 193.746C172.788 193.224 172.996 192.488 172.996 191.538C172.996 190.589 172.788 189.858 172.372 189.346C171.967 188.834 171.386 188.578 170.628 188.578C169.871 188.578 169.279 188.845 168.852 189.378C168.436 189.901 168.228 190.632 168.228 191.57C168.228 192.509 168.436 193.234 168.852 193.746C169.279 194.258 169.871 194.514 170.628 194.514ZM182.613 187.522C182.816 187.522 182.97 187.581 183.077 187.698C183.194 187.816 183.253 187.97 183.253 188.162V194.93C183.253 195.112 183.194 195.261 183.077 195.378C182.97 195.496 182.816 195.554 182.613 195.554C182.421 195.554 182.266 195.501 182.149 195.394C182.042 195.277 181.989 195.128 181.989 194.946V194.146C181.744 194.616 181.397 194.973 180.949 195.218C180.512 195.464 180.016 195.586 179.461 195.586C178.533 195.586 177.834 195.33 177.365 194.818C176.896 194.296 176.661 193.528 176.661 192.514V188.162C176.661 187.97 176.72 187.816 176.837 187.698C176.954 187.581 177.114 187.522 177.317 187.522C177.52 187.522 177.674 187.581 177.781 187.698C177.898 187.816 177.957 187.97 177.957 188.162V192.482C177.957 193.176 178.096 193.688 178.373 194.018C178.65 194.338 179.088 194.498 179.685 194.498C180.368 194.498 180.917 194.28 181.333 193.842C181.749 193.394 181.957 192.808 181.957 192.082V188.162C181.957 187.97 182.016 187.816 182.133 187.698C182.25 187.581 182.41 187.522 182.613 187.522ZM186.318 195.554C186.126 195.554 185.966 195.501 185.838 195.394C185.72 195.277 185.662 195.117 185.662 194.914V188.162C185.662 187.96 185.72 187.805 185.838 187.698C185.966 187.581 186.126 187.522 186.318 187.522C186.51 187.522 186.664 187.581 186.782 187.698C186.899 187.805 186.958 187.96 186.958 188.162V194.914C186.958 195.128 186.899 195.288 186.782 195.394C186.664 195.501 186.51 195.554 186.318 195.554ZM186.318 185.842C186.062 185.842 185.854 185.768 185.694 185.618C185.534 185.469 185.454 185.272 185.454 185.026C185.454 184.792 185.534 184.6 185.694 184.45C185.854 184.301 186.062 184.226 186.318 184.226C186.574 184.226 186.782 184.301 186.942 184.45C187.102 184.6 187.182 184.792 187.182 185.026C187.182 185.272 187.102 185.469 186.942 185.618C186.782 185.768 186.574 185.842 186.318 185.842ZM195.412 193.666C195.53 193.666 195.631 193.714 195.716 193.81C195.802 193.906 195.844 194.029 195.844 194.178C195.844 194.445 195.658 194.69 195.284 194.914C194.9 195.138 194.495 195.309 194.068 195.426C193.642 195.533 193.226 195.586 192.82 195.586C191.615 195.586 190.66 195.229 189.956 194.514C189.263 193.8 188.916 192.813 188.916 191.554C188.916 190.754 189.071 190.05 189.38 189.442C189.69 188.824 190.122 188.344 190.676 188.002C191.242 187.661 191.882 187.49 192.596 187.49C193.61 187.49 194.415 187.821 195.012 188.482C195.61 189.144 195.908 190.04 195.908 191.17C195.908 191.384 195.866 191.538 195.78 191.634C195.695 191.73 195.556 191.778 195.364 191.778H190.212C190.308 193.613 191.178 194.53 192.82 194.53C193.236 194.53 193.594 194.477 193.892 194.37C194.191 194.253 194.511 194.098 194.852 193.906C195.13 193.746 195.316 193.666 195.412 193.666ZM192.612 188.498C191.93 188.498 191.38 188.712 190.964 189.138C190.559 189.565 190.319 190.168 190.244 190.946H194.772C194.751 190.157 194.554 189.554 194.18 189.138C193.807 188.712 193.284 188.498 192.612 188.498ZM201.674 187.522C202.122 187.49 202.346 187.672 202.346 188.066C202.346 188.237 202.298 188.376 202.202 188.482C202.106 188.578 201.941 188.637 201.706 188.658L201.226 188.706C200.511 188.77 199.978 189.026 199.626 189.474C199.285 189.912 199.114 190.429 199.114 191.026V194.914C199.114 195.128 199.055 195.288 198.938 195.394C198.821 195.501 198.666 195.554 198.474 195.554C198.282 195.554 198.122 195.501 197.994 195.394C197.877 195.277 197.818 195.117 197.818 194.914V188.162C197.818 187.96 197.882 187.805 198.01 187.698C198.138 187.581 198.293 187.522 198.474 187.522C198.645 187.522 198.789 187.581 198.906 187.698C199.023 187.805 199.082 187.954 199.082 188.146V189.042C199.306 188.573 199.621 188.216 200.026 187.97C200.442 187.725 200.917 187.581 201.45 187.538L201.674 187.522ZM206.58 187.49C208.532 187.49 209.508 188.514 209.508 190.562V194.914C209.508 195.106 209.449 195.261 209.332 195.378C209.225 195.496 209.076 195.554 208.884 195.554C208.692 195.554 208.537 195.496 208.42 195.378C208.303 195.261 208.244 195.106 208.244 194.914V194.146C208.041 194.605 207.732 194.962 207.316 195.218C206.9 195.464 206.42 195.586 205.876 195.586C205.375 195.586 204.911 195.485 204.484 195.282C204.068 195.08 203.737 194.797 203.492 194.434C203.247 194.072 203.124 193.672 203.124 193.234C203.124 192.648 203.273 192.194 203.572 191.874C203.871 191.544 204.361 191.309 205.044 191.17C205.727 191.021 206.676 190.946 207.892 190.946H208.244V190.418C208.244 189.778 208.111 189.309 207.844 189.01C207.588 188.712 207.167 188.562 206.58 188.562C205.855 188.562 205.119 188.76 204.372 189.154C204.084 189.336 203.881 189.426 203.764 189.426C203.636 189.426 203.529 189.378 203.444 189.282C203.359 189.186 203.316 189.064 203.316 188.914C203.316 188.765 203.359 188.637 203.444 188.53C203.54 188.413 203.689 188.296 203.892 188.178C204.265 187.965 204.687 187.8 205.156 187.682C205.636 187.554 206.111 187.49 206.58 187.49ZM206.052 194.562C206.692 194.562 207.215 194.349 207.62 193.922C208.036 193.485 208.244 192.925 208.244 192.242V191.778H207.956C207.017 191.778 206.303 191.821 205.812 191.906C205.321 191.981 204.969 192.114 204.756 192.306C204.553 192.488 204.452 192.76 204.452 193.122C204.452 193.538 204.601 193.885 204.9 194.162C205.209 194.429 205.593 194.562 206.052 194.562ZM214.504 195.586C214.014 195.586 213.544 195.528 213.096 195.41C212.659 195.293 212.27 195.128 211.928 194.914C211.736 194.786 211.598 194.669 211.512 194.562C211.438 194.445 211.4 194.306 211.4 194.146C211.4 194.008 211.438 193.896 211.512 193.81C211.598 193.714 211.704 193.666 211.832 193.666C211.96 193.666 212.147 193.746 212.392 193.906C212.712 194.098 213.027 194.253 213.336 194.37C213.656 194.477 214.051 194.53 214.52 194.53C215.096 194.53 215.544 194.429 215.864 194.226C216.184 194.024 216.344 193.73 216.344 193.346C216.344 193.112 216.286 192.925 216.168 192.786C216.051 192.637 215.848 192.509 215.56 192.402C215.272 192.285 214.851 192.168 214.296 192.05C213.358 191.848 212.686 191.576 212.28 191.234C211.875 190.893 211.672 190.429 211.672 189.842C211.672 189.384 211.8 188.978 212.056 188.626C212.312 188.274 212.664 187.997 213.112 187.794C213.571 187.592 214.088 187.49 214.664 187.49C215.08 187.49 215.48 187.549 215.864 187.666C216.259 187.773 216.606 187.928 216.904 188.13C217.267 188.386 217.448 188.653 217.448 188.93C217.448 189.069 217.406 189.186 217.32 189.282C217.235 189.378 217.134 189.426 217.016 189.426C216.888 189.426 216.696 189.336 216.44 189.154C216.142 188.962 215.859 188.813 215.592 188.706C215.326 188.6 214.995 188.546 214.6 188.546C214.099 188.546 213.694 188.658 213.384 188.882C213.086 189.106 212.936 189.405 212.936 189.778C212.936 190.013 212.99 190.205 213.096 190.354C213.214 190.493 213.4 190.621 213.656 190.738C213.923 190.845 214.302 190.952 214.792 191.058C215.518 191.218 216.078 191.394 216.472 191.586C216.878 191.778 217.166 192.013 217.336 192.29C217.507 192.568 217.592 192.92 217.592 193.346C217.592 194.018 217.31 194.562 216.744 194.978C216.179 195.384 215.432 195.586 214.504 195.586ZM220.13 195.554C219.874 195.554 219.66 195.474 219.49 195.314C219.319 195.144 219.234 194.925 219.234 194.658C219.234 194.392 219.319 194.173 219.49 194.002C219.66 193.832 219.874 193.746 220.13 193.746C220.375 193.746 220.578 193.832 220.738 194.002C220.908 194.173 220.994 194.392 220.994 194.658C220.994 194.925 220.908 195.144 220.738 195.314C220.578 195.474 220.375 195.554 220.13 195.554Z" fill="white"/>
<path fill-rule="evenodd" clip-rule="evenodd" d="M146.333 72.4583V42.0492L147.047 42.6367C147.882 43.3243 149.116 43.2048 149.803 42.3699C150.491 41.535 150.372 40.3009 149.537 39.6133L116.245 12.1966C115.522 11.6011 114.478 11.6011 113.755 12.1966L80.4635 39.6133C79.6286 40.3009 79.5091 41.535 80.1967 42.3699C80.8842 43.2048 82.1184 43.3243 82.9533 42.6367L83.6667 42.0492V72.4583C83.6667 77.8661 88.0506 82.25 93.4584 82.25H105.208C106.29 82.25 107.167 81.3732 107.167 80.2917V56.7917C107.167 55.7101 108.043 54.8333 109.125 54.8333H120.875C121.957 54.8333 122.833 55.7101 122.833 56.7917V80.2917C122.833 81.3732 123.71 82.25 124.792 82.25H136.542C141.95 82.25 146.333 77.8661 146.333 72.4583ZM115 16.2453L142.443 38.8453C142.426 38.9499 142.417 39.0572 142.417 39.1667V72.4583C142.417 75.703 139.786 78.3333 136.542 78.3333H126.75V56.7917C126.75 53.547 124.12 50.9167 120.875 50.9167H109.125C105.88 50.9167 103.25 53.547 103.25 56.7917V78.3333H93.4584C90.2137 78.3333 87.5834 75.703 87.5834 72.4583V39.1667C87.5834 39.0572 87.5744 38.9499 87.5571 38.8453L115 16.2453Z" fill="white"/>
<rect x="117.35" y="58.75" width="32.9" height="30.55" fill="#023986"/>
<path fill-rule="evenodd" clip-rule="evenodd" d="M150.25 70.9634V88.4187C150.25 88.9054 149.855 89.3 149.369 89.3H122.931C122.444 89.3 122.05 88.9054 122.05 88.4187V70.9634L118.588 62.3085C118.356 61.7297 118.783 61.1 119.406 61.1H137.031C137.391 61.1 137.715 61.3194 137.849 61.6539L140.556 68.4209L143.263 61.6539C143.397 61.3194 143.721 61.1 144.081 61.1H152.894C153.517 61.1 153.943 61.7297 153.712 62.3085L150.25 70.9634ZM141.437 71.675V87.5375H148.487V71.675H141.437ZM123.812 71.675H139.675V87.5375H123.812V71.675ZM123.528 69.9125H139.254L136.434 62.8625H120.708L123.528 69.9125ZM151.592 62.8625L148.772 69.9125H141.858L144.678 62.8625H151.592ZM137.912 81.3687V84.8937C137.912 85.3804 137.518 85.775 137.031 85.775H131.744C131.257 85.775 130.862 85.3804 130.862 84.8937V81.3687C130.862 80.882 131.257 80.4875 131.744 80.4875H137.031C137.518 80.4875 137.912 80.882 137.912 81.3687ZM132.625 82.25H136.15V84.0125H132.625V82.25Z" fill="white"/>
</svg>
