<svg width="231" height="221" viewBox="0 0 231 221" fill="none" xmlns="http://www.w3.org/2000/svg">
<path d="M81.7932 129.999C81.4065 129.999 81.0999 129.893 80.8732 129.679C80.6599 129.466 80.5532 129.166 80.5532 128.779V117.119C80.5532 116.733 80.6599 116.433 80.8732 116.219C81.0999 116.006 81.4065 115.899 81.7932 115.899H89.0132C89.3999 115.899 89.6999 115.986 89.9132 116.159C90.1265 116.333 90.2332 116.579 90.2332 116.899C90.2332 117.233 90.1265 117.493 89.9132 117.679C89.6999 117.853 89.3999 117.939 89.0132 117.939H83.0732V121.819H88.6132C88.9999 121.819 89.2999 121.906 89.5132 122.079C89.7265 122.253 89.8332 122.506 89.8332 122.839C89.8332 123.159 89.7265 123.406 89.5132 123.579C89.2999 123.753 88.9999 123.839 88.6132 123.839H83.0732V127.959H89.0132C89.3999 127.959 89.6999 128.053 89.9132 128.239C90.1265 128.413 90.2332 128.666 90.2332 128.999C90.2332 129.319 90.1265 129.566 89.9132 129.739C89.6999 129.913 89.3999 129.999 89.0132 129.999H81.7932ZM100.591 128.159C100.831 128.399 100.951 128.673 100.951 128.979C100.951 129.273 100.837 129.539 100.611 129.779C100.384 130.006 100.117 130.119 99.8105 130.119C99.4772 130.119 99.1905 129.979 98.9505 129.699L96.1305 126.579L93.3105 129.699C93.0572 129.966 92.7705 130.099 92.4505 130.099C92.1572 130.099 91.8972 129.986 91.6705 129.759C91.4439 129.533 91.3305 129.273 91.3305 128.979C91.3305 128.673 91.4505 128.399 91.6905 128.159L94.6105 124.979L91.8505 121.979C91.6105 121.739 91.4905 121.466 91.4905 121.159C91.4905 120.853 91.6039 120.593 91.8305 120.379C92.0572 120.153 92.3172 120.039 92.6105 120.039C92.9305 120.039 93.2172 120.173 93.4705 120.439L96.1305 123.359L98.7905 120.439C99.0439 120.173 99.3305 120.039 99.6505 120.039C99.9572 120.039 100.217 120.153 100.431 120.379C100.657 120.593 100.771 120.853 100.771 121.159C100.771 121.466 100.651 121.739 100.411 121.979L97.6505 124.979L100.591 128.159ZM108.375 119.979C109.215 119.979 109.962 120.193 110.615 120.619C111.282 121.046 111.795 121.653 112.155 122.439C112.528 123.213 112.715 124.106 112.715 125.119C112.715 126.133 112.528 127.019 112.155 127.779C111.795 128.539 111.288 129.126 110.635 129.539C109.982 129.953 109.228 130.159 108.375 130.159C107.682 130.159 107.062 130.013 106.515 129.719C105.968 129.426 105.548 129.019 105.255 128.499V132.579C105.255 132.926 105.142 133.199 104.915 133.399C104.688 133.599 104.388 133.699 104.015 133.699C103.642 133.699 103.335 133.593 103.095 133.379C102.868 133.166 102.755 132.886 102.755 132.539V121.199C102.755 120.839 102.862 120.553 103.075 120.339C103.302 120.126 103.602 120.019 103.975 120.019C104.348 120.019 104.648 120.126 104.875 120.339C105.102 120.553 105.215 120.839 105.215 121.199V121.699C105.508 121.153 105.928 120.733 106.475 120.439C107.035 120.133 107.668 119.979 108.375 119.979ZM107.715 128.219C108.502 128.219 109.115 127.953 109.555 127.419C109.995 126.873 110.215 126.106 110.215 125.119C110.215 124.106 109.995 123.319 109.555 122.759C109.115 122.199 108.502 121.919 107.715 121.919C106.915 121.919 106.295 122.193 105.855 122.739C105.428 123.286 105.215 124.066 105.215 125.079C105.215 126.079 105.428 126.853 105.855 127.399C106.295 127.946 106.915 128.219 107.715 128.219ZM120.227 120.019C120.573 119.993 120.847 120.066 121.047 120.239C121.247 120.413 121.347 120.673 121.347 121.019C121.347 121.379 121.26 121.646 121.087 121.819C120.913 121.993 120.6 122.106 120.147 122.159L119.547 122.219C118.76 122.299 118.18 122.566 117.807 123.019C117.447 123.473 117.267 124.039 117.267 124.719V128.919C117.267 129.306 117.147 129.606 116.907 129.819C116.667 130.019 116.367 130.119 116.007 130.119C115.647 130.119 115.347 130.019 115.107 129.819C114.88 129.606 114.767 129.306 114.767 128.919V121.179C114.767 120.806 114.88 120.519 115.107 120.319C115.347 120.119 115.64 120.019 115.987 120.019C116.333 120.019 116.613 120.119 116.827 120.319C117.04 120.506 117.147 120.779 117.147 121.139V121.939C117.4 121.353 117.773 120.899 118.267 120.579C118.773 120.259 119.333 120.079 119.947 120.039L120.227 120.019ZM129.968 127.319C130.194 127.319 130.374 127.406 130.508 127.579C130.654 127.753 130.728 127.986 130.728 128.279C130.728 128.693 130.481 129.039 129.988 129.319C129.534 129.573 129.021 129.779 128.448 129.939C127.874 130.086 127.328 130.159 126.808 130.159C125.234 130.159 123.988 129.706 123.068 128.799C122.148 127.893 121.688 126.653 121.688 125.079C121.688 124.079 121.888 123.193 122.288 122.419C122.688 121.646 123.248 121.046 123.968 120.619C124.701 120.193 125.528 119.979 126.448 119.979C127.328 119.979 128.094 120.173 128.748 120.559C129.401 120.946 129.908 121.493 130.268 122.199C130.628 122.906 130.808 123.739 130.808 124.699C130.808 125.273 130.554 125.559 130.048 125.559H124.148C124.228 126.479 124.488 127.159 124.928 127.599C125.368 128.026 126.008 128.239 126.848 128.239C127.274 128.239 127.648 128.186 127.968 128.079C128.301 127.973 128.674 127.826 129.088 127.639C129.488 127.426 129.781 127.319 129.968 127.319ZM126.508 121.739C125.828 121.739 125.281 121.953 124.868 122.379C124.468 122.806 124.228 123.419 124.148 124.219H128.668C128.641 123.406 128.441 122.793 128.068 122.379C127.694 121.953 127.174 121.739 126.508 121.739ZM136.393 130.159C134.939 130.159 133.766 129.873 132.873 129.299C132.446 129.046 132.233 128.686 132.233 128.219C132.233 127.953 132.306 127.739 132.453 127.579C132.599 127.406 132.779 127.319 132.993 127.319C133.219 127.319 133.533 127.426 133.933 127.639C134.359 127.839 134.746 127.993 135.093 128.099C135.453 128.206 135.906 128.259 136.453 128.259C137.013 128.259 137.446 128.166 137.753 127.979C138.073 127.793 138.233 127.533 138.233 127.199C138.233 126.973 138.166 126.793 138.033 126.659C137.913 126.526 137.686 126.406 137.353 126.299C137.033 126.179 136.539 126.046 135.873 125.899C134.686 125.659 133.833 125.319 133.313 124.879C132.806 124.439 132.553 123.833 132.553 123.059C132.553 122.473 132.726 121.946 133.073 121.479C133.419 120.999 133.893 120.633 134.493 120.379C135.106 120.113 135.799 119.979 136.573 119.979C137.133 119.979 137.673 120.053 138.193 120.199C138.713 120.333 139.179 120.533 139.593 120.799C140.019 121.066 140.233 121.419 140.233 121.859C140.233 122.126 140.159 122.353 140.013 122.539C139.866 122.713 139.686 122.799 139.473 122.799C139.326 122.799 139.179 122.773 139.033 122.719C138.899 122.653 138.726 122.559 138.513 122.439C138.126 122.239 137.793 122.093 137.513 121.999C137.233 121.893 136.886 121.839 136.473 121.839C135.979 121.839 135.586 121.939 135.293 122.139C135.013 122.339 134.873 122.613 134.873 122.959C134.873 123.293 135.019 123.546 135.313 123.719C135.606 123.893 136.173 124.066 137.013 124.239C137.906 124.426 138.606 124.639 139.113 124.879C139.619 125.119 139.979 125.419 140.193 125.779C140.419 126.139 140.533 126.599 140.533 127.159C140.533 128.066 140.153 128.793 139.393 129.339C138.646 129.886 137.646 130.159 136.393 130.159ZM146.1 130.159C144.646 130.159 143.473 129.873 142.58 129.299C142.153 129.046 141.94 128.686 141.94 128.219C141.94 127.953 142.013 127.739 142.16 127.579C142.306 127.406 142.486 127.319 142.7 127.319C142.926 127.319 143.24 127.426 143.64 127.639C144.066 127.839 144.453 127.993 144.8 128.099C145.16 128.206 145.613 128.259 146.16 128.259C146.72 128.259 147.153 128.166 147.46 127.979C147.78 127.793 147.94 127.533 147.94 127.199C147.94 126.973 147.873 126.793 147.74 126.659C147.62 126.526 147.393 126.406 147.06 126.299C146.74 126.179 146.246 126.046 145.58 125.899C144.393 125.659 143.54 125.319 143.02 124.879C142.513 124.439 142.26 123.833 142.26 123.059C142.26 122.473 142.433 121.946 142.78 121.479C143.126 120.999 143.6 120.633 144.2 120.379C144.813 120.113 145.506 119.979 146.28 119.979C146.84 119.979 147.38 120.053 147.9 120.199C148.42 120.333 148.886 120.533 149.3 120.799C149.726 121.066 149.94 121.419 149.94 121.859C149.94 122.126 149.866 122.353 149.72 122.539C149.573 122.713 149.393 122.799 149.18 122.799C149.033 122.799 148.886 122.773 148.74 122.719C148.606 122.653 148.433 122.559 148.22 122.439C147.833 122.239 147.5 122.093 147.22 121.999C146.94 121.893 146.593 121.839 146.18 121.839C145.686 121.839 145.293 121.939 145 122.139C144.72 122.339 144.58 122.613 144.58 122.959C144.58 123.293 144.726 123.546 145.02 123.719C145.313 123.893 145.88 124.066 146.72 124.239C147.613 124.426 148.313 124.639 148.82 124.879C149.326 125.119 149.686 125.419 149.9 125.779C150.126 126.139 150.24 126.599 150.24 127.159C150.24 128.066 149.86 128.793 149.1 129.339C148.353 129.886 147.353 130.159 146.1 130.159Z" fill="white"/>
<path d="M47.4632 170.474C47.2605 170.474 47.0952 170.415 46.9672 170.298C46.8499 170.18 46.7912 170.026 46.7912 169.834V159.834C46.7912 159.642 46.8499 159.487 46.9672 159.37C47.0952 159.252 47.2605 159.194 47.4632 159.194H53.4472C53.6392 159.194 53.7885 159.242 53.8952 159.338C54.0019 159.434 54.0552 159.567 54.0552 159.738C54.0552 159.908 54.0019 160.042 53.8952 160.138C53.7885 160.234 53.6392 160.282 53.4472 160.282H48.0872V164.202H53.1272C53.3192 164.202 53.4685 164.25 53.5752 164.346C53.6819 164.442 53.7352 164.575 53.7352 164.746C53.7352 164.916 53.6819 165.05 53.5752 165.146C53.4685 165.242 53.3192 165.29 53.1272 165.29H48.0872V169.386H53.4472C53.6392 169.386 53.7885 169.434 53.8952 169.53C54.0019 169.615 54.0552 169.748 54.0552 169.93C54.0552 170.1 54.0019 170.234 53.8952 170.33C53.7885 170.426 53.6392 170.474 53.4472 170.474H47.4632ZM59.8317 162.49C61.6984 162.49 62.6317 163.519 62.6317 165.578V169.914C62.6317 170.116 62.573 170.276 62.4557 170.394C62.349 170.5 62.1944 170.554 61.9917 170.554C61.789 170.554 61.629 170.5 61.5117 170.394C61.3944 170.276 61.3357 170.116 61.3357 169.914V165.658C61.3357 164.932 61.1917 164.404 60.9037 164.074C60.6264 163.743 60.1784 163.578 59.5597 163.578C58.845 163.578 58.2744 163.796 57.8477 164.234C57.421 164.671 57.2077 165.263 57.2077 166.01V169.914C57.2077 170.116 57.149 170.276 57.0317 170.394C56.925 170.5 56.7704 170.554 56.5677 170.554C56.365 170.554 56.205 170.5 56.0877 170.394C55.9704 170.276 55.9117 170.116 55.9117 169.914V163.162C55.9117 162.97 55.9704 162.815 56.0877 162.698C56.205 162.58 56.365 162.522 56.5677 162.522C56.7597 162.522 56.909 162.58 57.0157 162.698C57.133 162.815 57.1917 162.964 57.1917 163.146V163.962C57.4477 163.482 57.805 163.119 58.2637 162.874C58.7224 162.618 59.245 162.49 59.8317 162.49ZM72.7304 169.53C73.1038 169.562 73.2904 169.732 73.2904 170.042C73.2904 170.223 73.2211 170.362 73.0824 170.458C72.9544 170.543 72.7571 170.575 72.4904 170.554L72.0584 170.522C71.2051 170.458 70.5758 170.202 70.1704 169.754C69.7651 169.306 69.5624 168.628 69.5624 167.722V163.706H68.4904C68.3091 163.706 68.1651 163.663 68.0584 163.578C67.9624 163.482 67.9144 163.359 67.9144 163.21C67.9144 163.05 67.9624 162.922 68.0584 162.826C68.1651 162.73 68.3091 162.682 68.4904 162.682H69.5624V160.874C69.5624 160.671 69.6211 160.516 69.7384 160.41C69.8558 160.292 70.0158 160.234 70.2184 160.234C70.4104 160.234 70.5651 160.292 70.6824 160.41C70.7998 160.516 70.8584 160.671 70.8584 160.874V162.682H72.6344C72.8051 162.682 72.9384 162.73 73.0344 162.826C73.1411 162.922 73.1944 163.05 73.1944 163.21C73.1944 163.359 73.1411 163.482 73.0344 163.578C72.9384 163.663 72.8051 163.706 72.6344 163.706H70.8584V167.786C70.8584 168.372 70.9758 168.799 71.2104 169.066C71.4558 169.322 71.8184 169.466 72.2984 169.498L72.7304 169.53ZM75.2239 170.554C75.0319 170.554 74.8719 170.5 74.7439 170.394C74.6266 170.276 74.5679 170.116 74.5679 169.914V163.162C74.5679 162.959 74.6266 162.804 74.7439 162.698C74.8719 162.58 75.0319 162.522 75.2239 162.522C75.4159 162.522 75.5706 162.58 75.6879 162.698C75.8053 162.804 75.8639 162.959 75.8639 163.162V169.914C75.8639 170.127 75.8053 170.287 75.6879 170.394C75.5706 170.5 75.4159 170.554 75.2239 170.554ZM75.2239 160.842C74.9679 160.842 74.7599 160.767 74.5999 160.618C74.4399 160.468 74.3599 160.271 74.3599 160.026C74.3599 159.791 74.4399 159.599 74.5999 159.45C74.7599 159.3 74.9679 159.226 75.2239 159.226C75.4799 159.226 75.6879 159.3 75.8479 159.45C76.0079 159.599 76.0879 159.791 76.0879 160.026C76.0879 160.271 76.0079 160.468 75.8479 160.618C75.6879 160.767 75.4799 160.842 75.2239 160.842ZM84.3187 168.666C84.436 168.666 84.5374 168.714 84.6227 168.81C84.708 168.906 84.7507 169.028 84.7507 169.178C84.7507 169.444 84.564 169.69 84.1907 169.914C83.8067 170.138 83.4014 170.308 82.9747 170.426C82.548 170.532 82.132 170.586 81.7267 170.586C80.5214 170.586 79.5667 170.228 78.8627 169.514C78.1694 168.799 77.8227 167.812 77.8227 166.554C77.8227 165.754 77.9774 165.05 78.2867 164.442C78.596 163.823 79.028 163.343 79.5827 163.002C80.148 162.66 80.788 162.49 81.5027 162.49C82.516 162.49 83.3214 162.82 83.9187 163.482C84.516 164.143 84.8147 165.039 84.8147 166.17C84.8147 166.383 84.772 166.538 84.6867 166.634C84.6014 166.73 84.4627 166.778 84.2707 166.778H79.1187C79.2147 168.612 80.084 169.53 81.7267 169.53C82.1427 169.53 82.5 169.476 82.7987 169.37C83.0974 169.252 83.4174 169.098 83.7587 168.906C84.036 168.746 84.2227 168.666 84.3187 168.666ZM81.5187 163.498C80.836 163.498 80.2867 163.711 79.8707 164.138C79.4654 164.564 79.2254 165.167 79.1507 165.946H83.6787C83.6574 165.156 83.46 164.554 83.0867 164.138C82.7134 163.711 82.1907 163.498 81.5187 163.498ZM95.3962 162.49C97.1242 162.49 97.9882 163.519 97.9882 165.578V169.914C97.9882 170.116 97.9295 170.276 97.8122 170.394C97.6949 170.5 97.5402 170.554 97.3482 170.554C97.1562 170.554 96.9962 170.5 96.8682 170.394C96.7509 170.276 96.6922 170.116 96.6922 169.914V165.61C96.6922 164.895 96.5642 164.378 96.3082 164.058C96.0522 163.738 95.6522 163.578 95.1082 163.578C94.4575 163.578 93.9455 163.796 93.5722 164.234C93.1989 164.671 93.0122 165.263 93.0122 166.01V169.914C93.0122 170.116 92.9482 170.276 92.8202 170.394C92.7029 170.5 92.5482 170.554 92.3562 170.554C92.1642 170.554 92.0095 170.5 91.8922 170.394C91.7749 170.276 91.7162 170.116 91.7162 169.914V165.61C91.7162 164.895 91.5882 164.378 91.3322 164.058C91.0762 163.738 90.6709 163.578 90.1162 163.578C89.4762 163.578 88.9642 163.796 88.5802 164.234C88.2069 164.671 88.0202 165.263 88.0202 166.01V169.914C88.0202 170.116 87.9615 170.276 87.8442 170.394C87.7269 170.5 87.5722 170.554 87.3802 170.554C87.1882 170.554 87.0282 170.5 86.9002 170.394C86.7829 170.276 86.7242 170.116 86.7242 169.914V163.162C86.7242 162.97 86.7829 162.815 86.9002 162.698C87.0282 162.58 87.1882 162.522 87.3802 162.522C87.5615 162.522 87.7109 162.58 87.8282 162.698C87.9455 162.804 88.0042 162.954 88.0042 163.146V163.914C88.2389 163.455 88.5642 163.103 88.9802 162.858C89.3962 162.612 89.8762 162.49 90.4202 162.49C91.6362 162.49 92.4309 163.002 92.8042 164.026C93.0282 163.556 93.3695 163.183 93.8282 162.906C94.2869 162.628 94.8095 162.49 95.3962 162.49ZM104.269 162.49C104.952 162.49 105.555 162.66 106.077 163.002C106.6 163.343 107.005 163.823 107.293 164.442C107.581 165.05 107.725 165.759 107.725 166.57C107.725 167.38 107.581 168.09 107.293 168.698C107.005 169.295 106.6 169.759 106.077 170.09C105.565 170.42 104.963 170.586 104.269 170.586C103.661 170.586 103.128 170.452 102.669 170.186C102.221 169.919 101.88 169.54 101.645 169.05V172.81C101.645 173.002 101.587 173.151 101.469 173.258C101.363 173.375 101.208 173.434 101.005 173.434C100.803 173.434 100.643 173.375 100.525 173.258C100.408 173.14 100.349 172.991 100.349 172.81V163.162C100.349 162.97 100.408 162.815 100.525 162.698C100.643 162.58 100.803 162.522 101.005 162.522C101.208 162.522 101.363 162.58 101.469 162.698C101.587 162.815 101.645 162.97 101.645 163.162V164.026C101.88 163.535 102.221 163.156 102.669 162.89C103.128 162.623 103.661 162.49 104.269 162.49ZM104.013 169.514C104.771 169.514 105.357 169.258 105.773 168.746C106.189 168.234 106.397 167.508 106.397 166.57C106.397 165.631 106.189 164.9 105.773 164.378C105.357 163.844 104.771 163.578 104.013 163.578C103.256 163.578 102.669 163.834 102.253 164.346C101.848 164.858 101.645 165.588 101.645 166.538C101.645 167.487 101.848 168.223 102.253 168.746C102.669 169.258 103.256 169.514 104.013 169.514ZM112.894 170.586C112.158 170.586 111.507 170.42 110.942 170.09C110.387 169.759 109.955 169.29 109.646 168.682C109.347 168.063 109.198 167.348 109.198 166.538C109.198 165.727 109.347 165.018 109.646 164.41C109.955 163.791 110.387 163.316 110.942 162.986C111.507 162.655 112.158 162.49 112.894 162.49C113.63 162.49 114.28 162.655 114.846 162.986C115.411 163.316 115.843 163.791 116.142 164.41C116.451 165.018 116.606 165.727 116.606 166.538C116.606 167.348 116.451 168.063 116.142 168.682C115.843 169.29 115.411 169.759 114.846 170.09C114.28 170.42 113.63 170.586 112.894 170.586ZM112.894 169.514C113.662 169.514 114.248 169.263 114.654 168.762C115.07 168.25 115.278 167.508 115.278 166.538C115.278 165.588 115.07 164.858 114.654 164.346C114.238 163.823 113.651 163.562 112.894 163.562C112.136 163.562 111.55 163.823 111.134 164.346C110.718 164.858 110.51 165.588 110.51 166.538C110.51 167.498 110.712 168.234 111.118 168.746C111.534 169.258 112.126 169.514 112.894 169.514ZM126.518 162.522C126.966 162.49 127.19 162.671 127.19 163.066C127.19 163.236 127.142 163.375 127.046 163.482C126.95 163.578 126.784 163.636 126.55 163.658L126.07 163.706C125.355 163.77 124.822 164.026 124.47 164.474C124.128 164.911 123.958 165.428 123.958 166.026V169.914C123.958 170.127 123.899 170.287 123.782 170.394C123.664 170.5 123.51 170.554 123.318 170.554C123.126 170.554 122.966 170.5 122.838 170.394C122.72 170.276 122.662 170.116 122.662 169.914V163.162C122.662 162.959 122.726 162.804 122.854 162.698C122.982 162.58 123.136 162.522 123.318 162.522C123.488 162.522 123.632 162.58 123.75 162.698C123.867 162.804 123.926 162.954 123.926 163.146V164.042C124.15 163.572 124.464 163.215 124.87 162.97C125.286 162.724 125.76 162.58 126.294 162.538L126.518 162.522ZM134.178 168.666C134.295 168.666 134.397 168.714 134.482 168.81C134.567 168.906 134.61 169.028 134.61 169.178C134.61 169.444 134.423 169.69 134.05 169.914C133.666 170.138 133.261 170.308 132.834 170.426C132.407 170.532 131.991 170.586 131.586 170.586C130.381 170.586 129.426 170.228 128.722 169.514C128.029 168.799 127.682 167.812 127.682 166.554C127.682 165.754 127.837 165.05 128.146 164.442C128.455 163.823 128.887 163.343 129.442 163.002C130.007 162.66 130.647 162.49 131.362 162.49C132.375 162.49 133.181 162.82 133.778 163.482C134.375 164.143 134.674 165.039 134.674 166.17C134.674 166.383 134.631 166.538 134.546 166.634C134.461 166.73 134.322 166.778 134.13 166.778H128.978C129.074 168.612 129.943 169.53 131.586 169.53C132.002 169.53 132.359 169.476 132.658 169.37C132.957 169.252 133.277 169.098 133.618 168.906C133.895 168.746 134.082 168.666 134.178 168.666ZM131.378 163.498C130.695 163.498 130.146 163.711 129.73 164.138C129.325 164.564 129.085 165.167 129.01 165.946H133.538C133.517 165.156 133.319 164.554 132.946 164.138C132.573 163.711 132.05 163.498 131.378 163.498ZM139.8 170.586C139.074 170.586 138.429 170.42 137.864 170.09C137.309 169.759 136.877 169.29 136.568 168.682C136.269 168.074 136.12 167.37 136.12 166.57C136.12 165.77 136.274 165.06 136.584 164.442C136.904 163.823 137.346 163.343 137.912 163.002C138.477 162.66 139.128 162.49 139.864 162.49C140.269 162.49 140.669 162.548 141.064 162.666C141.469 162.772 141.821 162.932 142.12 163.146C142.312 163.274 142.445 163.402 142.52 163.53C142.605 163.647 142.648 163.78 142.648 163.93C142.648 164.079 142.605 164.202 142.52 164.298C142.445 164.394 142.344 164.442 142.216 164.442C142.141 164.442 142.061 164.42 141.976 164.378C141.89 164.335 141.816 164.292 141.752 164.25C141.698 164.207 141.661 164.18 141.64 164.17C141.362 163.988 141.096 163.844 140.84 163.738C140.594 163.631 140.29 163.578 139.928 163.578C139.149 163.578 138.541 163.844 138.104 164.378C137.677 164.9 137.464 165.631 137.464 166.57C137.464 167.508 137.677 168.234 138.104 168.746C138.541 169.258 139.149 169.514 139.928 169.514C140.29 169.514 140.6 169.46 140.856 169.354C141.122 169.247 141.389 169.103 141.656 168.922C141.773 168.847 141.885 168.783 141.992 168.73C142.098 168.676 142.189 168.65 142.264 168.65C142.381 168.65 142.477 168.698 142.552 168.794C142.637 168.89 142.68 169.012 142.68 169.162C142.68 169.3 142.642 169.428 142.568 169.546C142.493 169.652 142.354 169.775 142.152 169.914C141.853 170.116 141.49 170.282 141.064 170.41C140.648 170.527 140.226 170.586 139.8 170.586ZM147.472 170.586C146.736 170.586 146.085 170.42 145.52 170.09C144.965 169.759 144.533 169.29 144.224 168.682C143.925 168.063 143.776 167.348 143.776 166.538C143.776 165.727 143.925 165.018 144.224 164.41C144.533 163.791 144.965 163.316 145.52 162.986C146.085 162.655 146.736 162.49 147.472 162.49C148.208 162.49 148.858 162.655 149.424 162.986C149.989 163.316 150.421 163.791 150.72 164.41C151.029 165.018 151.184 165.727 151.184 166.538C151.184 167.348 151.029 168.063 150.72 168.682C150.421 169.29 149.989 169.759 149.424 170.09C148.858 170.42 148.208 170.586 147.472 170.586ZM147.472 169.514C148.24 169.514 148.826 169.263 149.232 168.762C149.648 168.25 149.856 167.508 149.856 166.538C149.856 165.588 149.648 164.858 149.232 164.346C148.816 163.823 148.229 163.562 147.472 163.562C146.714 163.562 146.128 163.823 145.712 164.346C145.296 164.858 145.088 165.588 145.088 166.538C145.088 167.498 145.29 168.234 145.696 168.746C146.112 169.258 146.704 169.514 147.472 169.514ZM156.971 162.522C157.419 162.49 157.643 162.671 157.643 163.066C157.643 163.236 157.595 163.375 157.499 163.482C157.403 163.578 157.237 163.636 157.003 163.658L156.523 163.706C155.808 163.77 155.275 164.026 154.923 164.474C154.581 164.911 154.411 165.428 154.411 166.026V169.914C154.411 170.127 154.352 170.287 154.235 170.394C154.117 170.5 153.963 170.554 153.771 170.554C153.579 170.554 153.419 170.5 153.291 170.394C153.173 170.276 153.115 170.116 153.115 169.914V163.162C153.115 162.959 153.179 162.804 153.307 162.698C153.435 162.58 153.589 162.522 153.771 162.522C153.941 162.522 154.085 162.58 154.203 162.698C154.32 162.804 154.379 162.954 154.379 163.146V164.042C154.603 163.572 154.917 163.215 155.323 162.97C155.739 162.724 156.213 162.58 156.747 162.538L156.971 162.522ZM164.855 159.114C165.058 159.114 165.218 159.172 165.335 159.29C165.453 159.407 165.511 159.556 165.511 159.738V169.914C165.511 170.106 165.453 170.26 165.335 170.378C165.218 170.495 165.058 170.554 164.855 170.554C164.653 170.554 164.493 170.495 164.375 170.378C164.269 170.26 164.215 170.106 164.215 169.914V169.05C163.981 169.54 163.634 169.919 163.175 170.186C162.727 170.452 162.199 170.586 161.591 170.586C160.909 170.586 160.306 170.415 159.783 170.074C159.261 169.732 158.855 169.258 158.567 168.65C158.279 168.031 158.135 167.316 158.135 166.506C158.135 165.706 158.279 165.002 158.567 164.394C158.855 163.786 159.261 163.316 159.783 162.986C160.306 162.655 160.909 162.49 161.591 162.49C162.199 162.49 162.727 162.623 163.175 162.89C163.634 163.156 163.981 163.535 164.215 164.026V159.738C164.215 159.546 164.269 159.396 164.375 159.29C164.493 159.172 164.653 159.114 164.855 159.114ZM161.847 169.514C162.605 169.514 163.186 169.258 163.591 168.746C164.007 168.223 164.215 167.487 164.215 166.538C164.215 165.588 164.007 164.858 163.591 164.346C163.186 163.834 162.605 163.578 161.847 163.578C161.09 163.578 160.498 163.834 160.071 164.346C159.655 164.858 159.447 165.578 159.447 166.506C159.447 167.455 159.655 168.196 160.071 168.73C160.498 169.252 161.09 169.514 161.847 169.514ZM175.637 169.53C176.01 169.562 176.197 169.732 176.197 170.042C176.197 170.223 176.127 170.362 175.989 170.458C175.861 170.543 175.663 170.575 175.397 170.554L174.965 170.522C174.111 170.458 173.482 170.202 173.077 169.754C172.671 169.306 172.469 168.628 172.469 167.722V163.706H171.397C171.215 163.706 171.071 163.663 170.965 163.578C170.869 163.482 170.821 163.359 170.821 163.21C170.821 163.05 170.869 162.922 170.965 162.826C171.071 162.73 171.215 162.682 171.397 162.682H172.469V160.874C172.469 160.671 172.527 160.516 172.645 160.41C172.762 160.292 172.922 160.234 173.125 160.234C173.317 160.234 173.471 160.292 173.589 160.41C173.706 160.516 173.765 160.671 173.765 160.874V162.682H175.541C175.711 162.682 175.845 162.73 175.941 162.826C176.047 162.922 176.101 163.05 176.101 163.21C176.101 163.359 176.047 163.482 175.941 163.578C175.845 163.663 175.711 163.706 175.541 163.706H173.765V167.786C173.765 168.372 173.882 168.799 174.117 169.066C174.362 169.322 174.725 169.466 175.205 169.498L175.637 169.53ZM183.394 162.522C183.597 162.522 183.752 162.58 183.858 162.698C183.976 162.815 184.034 162.97 184.034 163.162V169.93C184.034 170.111 183.976 170.26 183.858 170.378C183.752 170.495 183.597 170.554 183.394 170.554C183.202 170.554 183.048 170.5 182.93 170.394C182.824 170.276 182.77 170.127 182.77 169.946V169.146C182.525 169.615 182.178 169.972 181.73 170.218C181.293 170.463 180.797 170.586 180.242 170.586C179.314 170.586 178.616 170.33 178.146 169.818C177.677 169.295 177.442 168.527 177.442 167.514V163.162C177.442 162.97 177.501 162.815 177.618 162.698C177.736 162.58 177.896 162.522 178.098 162.522C178.301 162.522 178.456 162.58 178.562 162.698C178.68 162.815 178.738 162.97 178.738 163.162V167.482C178.738 168.175 178.877 168.687 179.154 169.018C179.432 169.338 179.869 169.498 180.466 169.498C181.149 169.498 181.698 169.279 182.114 168.842C182.53 168.394 182.738 167.807 182.738 167.082V163.162C182.738 162.97 182.797 162.815 182.914 162.698C183.032 162.58 183.192 162.522 183.394 162.522ZM23.0062 190.666C23.1235 190.666 23.2249 190.714 23.3102 190.81C23.3955 190.906 23.4382 191.028 23.4382 191.178C23.4382 191.444 23.2515 191.69 22.8782 191.914C22.4942 192.138 22.0889 192.308 21.6622 192.426C21.2355 192.532 20.8195 192.586 20.4142 192.586C19.2089 192.586 18.2542 192.228 17.5502 191.514C16.8569 190.799 16.5102 189.812 16.5102 188.554C16.5102 187.754 16.6649 187.05 16.9742 186.442C17.2835 185.823 17.7155 185.343 18.2702 185.002C18.8355 184.66 19.4755 184.49 20.1902 184.49C21.2035 184.49 22.0089 184.82 22.6062 185.482C23.2035 186.143 23.5022 187.039 23.5022 188.17C23.5022 188.383 23.4595 188.538 23.3742 188.634C23.2889 188.73 23.1502 188.778 22.9582 188.778H17.8062C17.9022 190.612 18.7715 191.53 20.4142 191.53C20.8302 191.53 21.1875 191.476 21.4862 191.37C21.7849 191.252 22.1049 191.098 22.4462 190.906C22.7235 190.746 22.9102 190.666 23.0062 190.666ZM20.2062 185.498C19.5235 185.498 18.9742 185.711 18.5582 186.138C18.1529 186.564 17.9129 187.167 17.8382 187.946H22.3662C22.3449 187.156 22.1475 186.554 21.7742 186.138C21.4009 185.711 20.8782 185.498 20.2062 185.498ZM29.3317 184.49C31.1984 184.49 32.1317 185.519 32.1317 187.578V191.914C32.1317 192.116 32.073 192.276 31.9557 192.394C31.849 192.5 31.6944 192.554 31.4917 192.554C31.289 192.554 31.129 192.5 31.0117 192.394C30.8944 192.276 30.8357 192.116 30.8357 191.914V187.658C30.8357 186.932 30.6917 186.404 30.4037 186.074C30.1264 185.743 29.6784 185.578 29.0597 185.578C28.345 185.578 27.7744 185.796 27.3477 186.234C26.921 186.671 26.7077 187.263 26.7077 188.01V191.914C26.7077 192.116 26.649 192.276 26.5317 192.394C26.425 192.5 26.2704 192.554 26.0677 192.554C25.865 192.554 25.705 192.5 25.5877 192.394C25.4704 192.276 25.4117 192.116 25.4117 191.914V185.162C25.4117 184.97 25.4704 184.815 25.5877 184.698C25.705 184.58 25.865 184.522 26.0677 184.522C26.2597 184.522 26.409 184.58 26.5157 184.698C26.633 184.815 26.6917 184.964 26.6917 185.146V185.962C26.9477 185.482 27.305 185.119 27.7637 184.874C28.2224 184.618 28.745 184.49 29.3317 184.49ZM37.7214 192.586C36.9961 192.586 36.3508 192.42 35.7854 192.09C35.2308 191.759 34.7988 191.29 34.4894 190.682C34.1908 190.074 34.0414 189.37 34.0414 188.57C34.0414 187.77 34.1961 187.06 34.5054 186.442C34.8254 185.823 35.2681 185.343 35.8334 185.002C36.3988 184.66 37.0494 184.49 37.7854 184.49C38.1908 184.49 38.5908 184.548 38.9854 184.666C39.3908 184.772 39.7428 184.932 40.0414 185.146C40.2334 185.274 40.3668 185.402 40.4414 185.53C40.5268 185.647 40.5694 185.78 40.5694 185.93C40.5694 186.079 40.5268 186.202 40.4414 186.298C40.3668 186.394 40.2654 186.442 40.1374 186.442C40.0628 186.442 39.9828 186.42 39.8974 186.378C39.8121 186.335 39.7374 186.292 39.6734 186.25C39.6201 186.207 39.5828 186.18 39.5614 186.17C39.2841 185.988 39.0174 185.844 38.7614 185.738C38.5161 185.631 38.2121 185.578 37.8494 185.578C37.0708 185.578 36.4628 185.844 36.0254 186.378C35.5988 186.9 35.3854 187.631 35.3854 188.57C35.3854 189.508 35.5988 190.234 36.0254 190.746C36.4628 191.258 37.0708 191.514 37.8494 191.514C38.2121 191.514 38.5214 191.46 38.7774 191.354C39.0441 191.247 39.3108 191.103 39.5774 190.922C39.6948 190.847 39.8068 190.783 39.9134 190.73C40.0201 190.676 40.1108 190.65 40.1854 190.65C40.3028 190.65 40.3988 190.698 40.4734 190.794C40.5588 190.89 40.6014 191.012 40.6014 191.162C40.6014 191.3 40.5641 191.428 40.4894 191.546C40.4148 191.652 40.2761 191.775 40.0734 191.914C39.7748 192.116 39.4121 192.282 38.9854 192.41C38.5694 192.527 38.1481 192.586 37.7214 192.586ZM45.3937 192.586C44.6577 192.586 44.007 192.42 43.4417 192.09C42.887 191.759 42.455 191.29 42.1457 190.682C41.847 190.063 41.6977 189.348 41.6977 188.538C41.6977 187.727 41.847 187.018 42.1457 186.41C42.455 185.791 42.887 185.316 43.4417 184.986C44.007 184.655 44.6577 184.49 45.3937 184.49C46.1297 184.49 46.7804 184.655 47.3457 184.986C47.911 185.316 48.343 185.791 48.6417 186.41C48.951 187.018 49.1057 187.727 49.1057 188.538C49.1057 189.348 48.951 190.063 48.6417 190.682C48.343 191.29 47.911 191.759 47.3457 192.09C46.7804 192.42 46.1297 192.586 45.3937 192.586ZM45.3937 191.514C46.1617 191.514 46.7484 191.263 47.1537 190.762C47.5697 190.25 47.7777 189.508 47.7777 188.538C47.7777 187.588 47.5697 186.858 47.1537 186.346C46.7377 185.823 46.151 185.562 45.3937 185.562C44.6364 185.562 44.0497 185.823 43.6337 186.346C43.2177 186.858 43.0097 187.588 43.0097 188.538C43.0097 189.498 43.2124 190.234 43.6177 190.746C44.0337 191.258 44.6257 191.514 45.3937 191.514ZM59.7087 184.49C61.4367 184.49 62.3007 185.519 62.3007 187.578V191.914C62.3007 192.116 62.242 192.276 62.1247 192.394C62.0074 192.5 61.8527 192.554 61.6607 192.554C61.4687 192.554 61.3087 192.5 61.1807 192.394C61.0634 192.276 61.0047 192.116 61.0047 191.914V187.61C61.0047 186.895 60.8767 186.378 60.6207 186.058C60.3647 185.738 59.9647 185.578 59.4207 185.578C58.77 185.578 58.258 185.796 57.8847 186.234C57.5114 186.671 57.3247 187.263 57.3247 188.01V191.914C57.3247 192.116 57.2607 192.276 57.1327 192.394C57.0154 192.5 56.8607 192.554 56.6687 192.554C56.4767 192.554 56.322 192.5 56.2047 192.394C56.0874 192.276 56.0287 192.116 56.0287 191.914V187.61C56.0287 186.895 55.9007 186.378 55.6447 186.058C55.3887 185.738 54.9834 185.578 54.4287 185.578C53.7887 185.578 53.2767 185.796 52.8927 186.234C52.5194 186.671 52.3327 187.263 52.3327 188.01V191.914C52.3327 192.116 52.274 192.276 52.1567 192.394C52.0394 192.5 51.8847 192.554 51.6927 192.554C51.5007 192.554 51.3407 192.5 51.2127 192.394C51.0954 192.276 51.0367 192.116 51.0367 191.914V185.162C51.0367 184.97 51.0954 184.815 51.2127 184.698C51.3407 184.58 51.5007 184.522 51.6927 184.522C51.874 184.522 52.0234 184.58 52.1407 184.698C52.258 184.804 52.3167 184.954 52.3167 185.146V185.914C52.5514 185.455 52.8767 185.103 53.2927 184.858C53.7087 184.612 54.1887 184.49 54.7327 184.49C55.9487 184.49 56.7434 185.002 57.1167 186.026C57.3407 185.556 57.682 185.183 58.1407 184.906C58.5994 184.628 59.122 184.49 59.7087 184.49ZM65.3177 192.554C65.1257 192.554 64.9657 192.5 64.8377 192.394C64.7204 192.276 64.6617 192.116 64.6617 191.914V185.162C64.6617 184.959 64.7204 184.804 64.8377 184.698C64.9657 184.58 65.1257 184.522 65.3177 184.522C65.5097 184.522 65.6644 184.58 65.7817 184.698C65.899 184.804 65.9577 184.959 65.9577 185.162V191.914C65.9577 192.127 65.899 192.287 65.7817 192.394C65.6644 192.5 65.5097 192.554 65.3177 192.554ZM65.3177 182.842C65.0617 182.842 64.8537 182.767 64.6937 182.618C64.5337 182.468 64.4537 182.271 64.4537 182.026C64.4537 181.791 64.5337 181.599 64.6937 181.45C64.8537 181.3 65.0617 181.226 65.3177 181.226C65.5737 181.226 65.7817 181.3 65.9417 181.45C66.1017 181.599 66.1817 181.791 66.1817 182.026C66.1817 182.271 66.1017 182.468 65.9417 182.618C65.7817 182.767 65.5737 182.842 65.3177 182.842ZM74.4124 190.666C74.5298 190.666 74.6311 190.714 74.7164 190.81C74.8018 190.906 74.8444 191.028 74.8444 191.178C74.8444 191.444 74.6578 191.69 74.2844 191.914C73.9004 192.138 73.4951 192.308 73.0684 192.426C72.6418 192.532 72.2258 192.586 71.8204 192.586C70.6151 192.586 69.6604 192.228 68.9564 191.514C68.2631 190.799 67.9164 189.812 67.9164 188.554C67.9164 187.754 68.0711 187.05 68.3804 186.442C68.6898 185.823 69.1218 185.343 69.6764 185.002C70.2418 184.66 70.8818 184.49 71.5964 184.49C72.6098 184.49 73.4151 184.82 74.0124 185.482C74.6098 186.143 74.9084 187.039 74.9084 188.17C74.9084 188.383 74.8658 188.538 74.7804 188.634C74.6951 188.73 74.5564 188.778 74.3644 188.778H69.2124C69.3084 190.612 70.1778 191.53 71.8204 191.53C72.2364 191.53 72.5938 191.476 72.8924 191.37C73.1911 191.252 73.5111 191.098 73.8524 190.906C74.1298 190.746 74.3164 190.666 74.4124 190.666ZM71.6124 185.498C70.9298 185.498 70.3804 185.711 69.9644 186.138C69.5591 186.564 69.3191 187.167 69.2444 187.946H73.7724C73.7511 187.156 73.5538 186.554 73.1804 186.138C72.8071 185.711 72.2844 185.498 71.6124 185.498ZM80.7379 184.49C82.6046 184.49 83.5379 185.519 83.5379 187.578V191.914C83.5379 192.116 83.4793 192.276 83.3619 192.394C83.2553 192.5 83.1006 192.554 82.8979 192.554C82.6953 192.554 82.5353 192.5 82.4179 192.394C82.3006 192.276 82.2419 192.116 82.2419 191.914V187.658C82.2419 186.932 82.0979 186.404 81.8099 186.074C81.5326 185.743 81.0846 185.578 80.4659 185.578C79.7513 185.578 79.1806 185.796 78.7539 186.234C78.3273 186.671 78.1139 187.263 78.1139 188.01V191.914C78.1139 192.116 78.0553 192.276 77.9379 192.394C77.8313 192.5 77.6766 192.554 77.4739 192.554C77.2713 192.554 77.1113 192.5 76.9939 192.394C76.8766 192.276 76.8179 192.116 76.8179 191.914V185.162C76.8179 184.97 76.8766 184.815 76.9939 184.698C77.1113 184.58 77.2713 184.522 77.4739 184.522C77.6659 184.522 77.8153 184.58 77.9219 184.698C78.0393 184.815 78.0979 184.964 78.0979 185.146V185.962C78.3539 185.482 78.7113 185.119 79.1699 184.874C79.6286 184.618 80.1513 184.49 80.7379 184.49ZM92.1677 181.114C92.3704 181.114 92.5304 181.172 92.6477 181.29C92.765 181.407 92.8237 181.556 92.8237 181.738V191.914C92.8237 192.106 92.765 192.26 92.6477 192.378C92.5304 192.495 92.3704 192.554 92.1677 192.554C91.965 192.554 91.805 192.495 91.6877 192.378C91.581 192.26 91.5277 192.106 91.5277 191.914V191.05C91.293 191.54 90.9464 191.919 90.4877 192.186C90.0397 192.452 89.5117 192.586 88.9037 192.586C88.221 192.586 87.6184 192.415 87.0957 192.074C86.573 191.732 86.1677 191.258 85.8797 190.65C85.5917 190.031 85.4477 189.316 85.4477 188.506C85.4477 187.706 85.5917 187.002 85.8797 186.394C86.1677 185.786 86.573 185.316 87.0957 184.986C87.6184 184.655 88.221 184.49 88.9037 184.49C89.5117 184.49 90.0397 184.623 90.4877 184.89C90.9464 185.156 91.293 185.535 91.5277 186.026V181.738C91.5277 181.546 91.581 181.396 91.6877 181.29C91.805 181.172 91.965 181.114 92.1677 181.114ZM89.1597 191.514C89.917 191.514 90.4984 191.258 90.9037 190.746C91.3197 190.223 91.5277 189.487 91.5277 188.538C91.5277 187.588 91.3197 186.858 90.9037 186.346C90.4984 185.834 89.917 185.578 89.1597 185.578C88.4024 185.578 87.8104 185.834 87.3837 186.346C86.9677 186.858 86.7597 187.578 86.7597 188.506C86.7597 189.455 86.9677 190.196 87.3837 190.73C87.8104 191.252 88.4024 191.514 89.1597 191.514ZM98.4082 184.49C100.36 184.49 101.336 185.514 101.336 187.562V191.914C101.336 192.106 101.278 192.26 101.16 192.378C101.054 192.495 100.904 192.554 100.712 192.554C100.52 192.554 100.366 192.495 100.248 192.378C100.131 192.26 100.072 192.106 100.072 191.914V191.146C99.8695 191.604 99.5602 191.962 99.1442 192.218C98.7282 192.463 98.2482 192.586 97.7042 192.586C97.2029 192.586 96.7389 192.484 96.3122 192.282C95.8962 192.079 95.5655 191.796 95.3202 191.434C95.0749 191.071 94.9522 190.671 94.9522 190.234C94.9522 189.647 95.1015 189.194 95.4002 188.874C95.6989 188.543 96.1895 188.308 96.8722 188.17C97.5549 188.02 98.5042 187.946 99.7202 187.946H100.072V187.418C100.072 186.778 99.9389 186.308 99.6722 186.01C99.4162 185.711 98.9949 185.562 98.4082 185.562C97.6829 185.562 96.9469 185.759 96.2002 186.154C95.9122 186.335 95.7095 186.426 95.5922 186.426C95.4642 186.426 95.3575 186.378 95.2722 186.282C95.1869 186.186 95.1442 186.063 95.1442 185.914C95.1442 185.764 95.1869 185.636 95.2722 185.53C95.3682 185.412 95.5175 185.295 95.7202 185.178C96.0935 184.964 96.5149 184.799 96.9842 184.682C97.4642 184.554 97.9389 184.49 98.4082 184.49ZM97.8802 191.562C98.5202 191.562 99.0429 191.348 99.4482 190.922C99.8642 190.484 100.072 189.924 100.072 189.242V188.778H99.7842C98.8455 188.778 98.1309 188.82 97.6402 188.906C97.1495 188.98 96.7975 189.114 96.5842 189.306C96.3815 189.487 96.2802 189.759 96.2802 190.122C96.2802 190.538 96.4295 190.884 96.7282 191.162C97.0375 191.428 97.4215 191.562 97.8802 191.562ZM113.866 190.666C113.983 190.666 114.084 190.714 114.17 190.81C114.255 190.906 114.298 191.028 114.298 191.178C114.298 191.444 114.111 191.69 113.738 191.914C113.354 192.138 112.948 192.308 112.522 192.426C112.095 192.532 111.679 192.586 111.274 192.586C110.068 192.586 109.114 192.228 108.41 191.514C107.716 190.799 107.37 189.812 107.37 188.554C107.37 187.754 107.524 187.05 107.834 186.442C108.143 185.823 108.575 185.343 109.13 185.002C109.695 184.66 110.335 184.49 111.05 184.49C112.063 184.49 112.868 184.82 113.466 185.482C114.063 186.143 114.362 187.039 114.362 188.17C114.362 188.383 114.319 188.538 114.234 188.634C114.148 188.73 114.01 188.778 113.818 188.778H108.666C108.762 190.612 109.631 191.53 111.274 191.53C111.69 191.53 112.047 191.476 112.346 191.37C112.644 191.252 112.964 191.098 113.306 190.906C113.583 190.746 113.77 190.666 113.866 190.666ZM111.066 185.498C110.383 185.498 109.834 185.711 109.418 186.138C109.012 186.564 108.772 187.167 108.698 187.946H113.226C113.204 187.156 113.007 186.554 112.634 186.138C112.26 185.711 111.738 185.498 111.066 185.498ZM118.895 192.586C118.404 192.586 117.935 192.527 117.487 192.41C117.05 192.292 116.66 192.127 116.319 191.914C116.127 191.786 115.988 191.668 115.903 191.562C115.828 191.444 115.791 191.306 115.791 191.146C115.791 191.007 115.828 190.895 115.903 190.81C115.988 190.714 116.095 190.666 116.223 190.666C116.351 190.666 116.538 190.746 116.783 190.906C117.103 191.098 117.418 191.252 117.727 191.37C118.047 191.476 118.442 191.53 118.911 191.53C119.487 191.53 119.935 191.428 120.255 191.226C120.575 191.023 120.735 190.73 120.735 190.346C120.735 190.111 120.676 189.924 120.559 189.786C120.442 189.636 120.239 189.508 119.951 189.402C119.663 189.284 119.242 189.167 118.687 189.05C117.748 188.847 117.076 188.575 116.671 188.234C116.266 187.892 116.063 187.428 116.063 186.842C116.063 186.383 116.191 185.978 116.447 185.626C116.703 185.274 117.055 184.996 117.503 184.794C117.962 184.591 118.479 184.49 119.055 184.49C119.471 184.49 119.871 184.548 120.255 184.666C120.65 184.772 120.996 184.927 121.295 185.13C121.658 185.386 121.839 185.652 121.839 185.93C121.839 186.068 121.796 186.186 121.711 186.282C121.626 186.378 121.524 186.426 121.407 186.426C121.279 186.426 121.087 186.335 120.831 186.154C120.532 185.962 120.25 185.812 119.983 185.706C119.716 185.599 119.386 185.546 118.991 185.546C118.49 185.546 118.084 185.658 117.775 185.882C117.476 186.106 117.327 186.404 117.327 186.778C117.327 187.012 117.38 187.204 117.487 187.354C117.604 187.492 117.791 187.62 118.047 187.738C118.314 187.844 118.692 187.951 119.183 188.058C119.908 188.218 120.468 188.394 120.863 188.586C121.268 188.778 121.556 189.012 121.727 189.29C121.898 189.567 121.983 189.919 121.983 190.346C121.983 191.018 121.7 191.562 121.135 191.978C120.57 192.383 119.823 192.586 118.895 192.586ZM127.48 191.53C127.854 191.562 128.04 191.732 128.04 192.042C128.04 192.223 127.971 192.362 127.832 192.458C127.704 192.543 127.507 192.575 127.24 192.554L126.808 192.522C125.955 192.458 125.326 192.202 124.92 191.754C124.515 191.306 124.312 190.628 124.312 189.722V185.706H123.24C123.059 185.706 122.915 185.663 122.808 185.578C122.712 185.482 122.664 185.359 122.664 185.21C122.664 185.05 122.712 184.922 122.808 184.826C122.915 184.73 123.059 184.682 123.24 184.682H124.312V182.874C124.312 182.671 124.371 182.516 124.488 182.41C124.606 182.292 124.766 182.234 124.968 182.234C125.16 182.234 125.315 182.292 125.432 182.41C125.55 182.516 125.608 182.671 125.608 182.874V184.682H127.384C127.555 184.682 127.688 184.73 127.784 184.826C127.891 184.922 127.944 185.05 127.944 185.21C127.944 185.359 127.891 185.482 127.784 185.578C127.688 185.663 127.555 185.706 127.384 185.706H125.608V189.786C125.608 190.372 125.726 190.799 125.96 191.066C126.206 191.322 126.568 191.466 127.048 191.498L127.48 191.53ZM132.502 184.49C134.454 184.49 135.43 185.514 135.43 187.562V191.914C135.43 192.106 135.371 192.26 135.254 192.378C135.147 192.495 134.998 192.554 134.806 192.554C134.614 192.554 134.459 192.495 134.342 192.378C134.225 192.26 134.166 192.106 134.166 191.914V191.146C133.963 191.604 133.654 191.962 133.238 192.218C132.822 192.463 132.342 192.586 131.798 192.586C131.297 192.586 130.833 192.484 130.406 192.282C129.99 192.079 129.659 191.796 129.414 191.434C129.169 191.071 129.046 190.671 129.046 190.234C129.046 189.647 129.195 189.194 129.494 188.874C129.793 188.543 130.283 188.308 130.966 188.17C131.649 188.02 132.598 187.946 133.814 187.946H134.166V187.418C134.166 186.778 134.033 186.308 133.766 186.01C133.51 185.711 133.089 185.562 132.502 185.562C131.777 185.562 131.041 185.759 130.294 186.154C130.006 186.335 129.803 186.426 129.686 186.426C129.558 186.426 129.451 186.378 129.366 186.282C129.281 186.186 129.238 186.063 129.238 185.914C129.238 185.764 129.281 185.636 129.366 185.53C129.462 185.412 129.611 185.295 129.814 185.178C130.187 184.964 130.609 184.799 131.078 184.682C131.558 184.554 132.033 184.49 132.502 184.49ZM131.974 191.562C132.614 191.562 133.137 191.348 133.542 190.922C133.958 190.484 134.166 189.924 134.166 189.242V188.778H133.878C132.939 188.778 132.225 188.82 131.734 188.906C131.243 188.98 130.891 189.114 130.678 189.306C130.475 189.487 130.374 189.759 130.374 190.122C130.374 190.538 130.523 190.884 130.822 191.162C131.131 191.428 131.515 191.562 131.974 191.562ZM132.79 183.642C132.705 183.706 132.619 183.738 132.534 183.738C132.427 183.738 132.337 183.706 132.262 183.642C132.187 183.567 132.15 183.482 132.15 183.386C132.15 183.3 132.182 183.22 132.246 183.146L134.102 180.714C134.294 180.468 134.513 180.346 134.758 180.346C134.929 180.346 135.073 180.404 135.19 180.522C135.307 180.628 135.366 180.767 135.366 180.938C135.366 181.162 135.259 181.364 135.046 181.546L132.79 183.642ZM147.959 190.666C148.077 190.666 148.178 190.714 148.263 190.81C148.349 190.906 148.391 191.028 148.391 191.178C148.391 191.444 148.205 191.69 147.831 191.914C147.447 192.138 147.042 192.308 146.615 192.426C146.189 192.532 145.773 192.586 145.367 192.586C144.162 192.586 143.207 192.228 142.503 191.514C141.81 190.799 141.463 189.812 141.463 188.554C141.463 187.754 141.618 187.05 141.927 186.442C142.237 185.823 142.669 185.343 143.223 185.002C143.789 184.66 144.429 184.49 145.143 184.49C146.157 184.49 146.962 184.82 147.559 185.482C148.157 186.143 148.455 187.039 148.455 188.17C148.455 188.383 148.413 188.538 148.327 188.634C148.242 188.73 148.103 188.778 147.911 188.778H142.759C142.855 190.612 143.725 191.53 145.367 191.53C145.783 191.53 146.141 191.476 146.439 191.37C146.738 191.252 147.058 191.098 147.399 190.906C147.677 190.746 147.863 190.666 147.959 190.666ZM145.159 185.498C144.477 185.498 143.927 185.711 143.511 186.138C143.106 186.564 142.866 187.167 142.791 187.946H147.319C147.298 187.156 147.101 186.554 146.727 186.138C146.354 185.711 145.831 185.498 145.159 185.498ZM154.285 184.49C156.151 184.49 157.085 185.519 157.085 187.578V191.914C157.085 192.116 157.026 192.276 156.909 192.394C156.802 192.5 156.647 192.554 156.445 192.554C156.242 192.554 156.082 192.5 155.965 192.394C155.847 192.276 155.789 192.116 155.789 191.914V187.658C155.789 186.932 155.645 186.404 155.357 186.074C155.079 185.743 154.631 185.578 154.013 185.578C153.298 185.578 152.727 185.796 152.301 186.234C151.874 186.671 151.661 187.263 151.661 188.01V191.914C151.661 192.116 151.602 192.276 151.485 192.394C151.378 192.5 151.223 192.554 151.021 192.554C150.818 192.554 150.658 192.5 150.541 192.394C150.423 192.276 150.365 192.116 150.365 191.914V185.162C150.365 184.97 150.423 184.815 150.541 184.698C150.658 184.58 150.818 184.522 151.021 184.522C151.213 184.522 151.362 184.58 151.469 184.698C151.586 184.815 151.645 184.964 151.645 185.146V185.962C151.901 185.482 152.258 185.119 152.717 184.874C153.175 184.618 153.698 184.49 154.285 184.49ZM169.84 181.114C170.042 181.114 170.202 181.172 170.32 181.29C170.437 181.407 170.496 181.556 170.496 181.738V191.914C170.496 192.106 170.437 192.26 170.32 192.378C170.202 192.495 170.042 192.554 169.84 192.554C169.637 192.554 169.477 192.495 169.36 192.378C169.253 192.26 169.2 192.106 169.2 191.914V191.05C168.965 191.54 168.618 191.919 168.16 192.186C167.712 192.452 167.184 192.586 166.576 192.586C165.893 192.586 165.29 192.415 164.768 192.074C164.245 191.732 163.84 191.258 163.552 190.65C163.264 190.031 163.12 189.316 163.12 188.506C163.12 187.706 163.264 187.002 163.552 186.394C163.84 185.786 164.245 185.316 164.768 184.986C165.29 184.655 165.893 184.49 166.576 184.49C167.184 184.49 167.712 184.623 168.16 184.89C168.618 185.156 168.965 185.535 169.2 186.026V181.738C169.2 181.546 169.253 181.396 169.36 181.29C169.477 181.172 169.637 181.114 169.84 181.114ZM166.832 191.514C167.589 191.514 168.17 191.258 168.576 190.746C168.992 190.223 169.2 189.487 169.2 188.538C169.2 187.588 168.992 186.858 168.576 186.346C168.17 185.834 167.589 185.578 166.832 185.578C166.074 185.578 165.482 185.834 165.056 186.346C164.64 186.858 164.432 187.578 164.432 188.506C164.432 189.455 164.64 190.196 165.056 190.73C165.482 191.252 166.074 191.514 166.832 191.514ZM178.928 190.666C179.045 190.666 179.147 190.714 179.232 190.81C179.317 190.906 179.36 191.028 179.36 191.178C179.36 191.444 179.173 191.69 178.8 191.914C178.416 192.138 178.011 192.308 177.584 192.426C177.157 192.532 176.741 192.586 176.336 192.586C175.131 192.586 174.176 192.228 173.472 191.514C172.779 190.799 172.432 189.812 172.432 188.554C172.432 187.754 172.587 187.05 172.896 186.442C173.205 185.823 173.637 185.343 174.192 185.002C174.757 184.66 175.397 184.49 176.112 184.49C177.125 184.49 177.931 184.82 178.528 185.482C179.125 186.143 179.424 187.039 179.424 188.17C179.424 188.383 179.381 188.538 179.296 188.634C179.211 188.73 179.072 188.778 178.88 188.778H173.728C173.824 190.612 174.693 191.53 176.336 191.53C176.752 191.53 177.109 191.476 177.408 191.37C177.707 191.252 178.027 191.098 178.368 190.906C178.645 190.746 178.832 190.666 178.928 190.666ZM176.128 185.498C175.445 185.498 174.896 185.711 174.48 186.138C174.075 186.564 173.835 187.167 173.76 187.946H178.288C178.267 187.156 178.069 186.554 177.696 186.138C177.323 185.711 176.8 185.498 176.128 185.498ZM183.958 192.586C183.467 192.586 182.998 192.527 182.55 192.41C182.112 192.292 181.723 192.127 181.382 191.914C181.19 191.786 181.051 191.668 180.966 191.562C180.891 191.444 180.854 191.306 180.854 191.146C180.854 191.007 180.891 190.895 180.966 190.81C181.051 190.714 181.158 190.666 181.286 190.666C181.414 190.666 181.6 190.746 181.846 190.906C182.166 191.098 182.48 191.252 182.79 191.37C183.11 191.476 183.504 191.53 183.974 191.53C184.55 191.53 184.998 191.428 185.318 191.226C185.638 191.023 185.798 190.73 185.798 190.346C185.798 190.111 185.739 189.924 185.622 189.786C185.504 189.636 185.302 189.508 185.014 189.402C184.726 189.284 184.304 189.167 183.75 189.05C182.811 188.847 182.139 188.575 181.734 188.234C181.328 187.892 181.126 187.428 181.126 186.842C181.126 186.383 181.254 185.978 181.51 185.626C181.766 185.274 182.118 184.996 182.566 184.794C183.024 184.591 183.542 184.49 184.118 184.49C184.534 184.49 184.934 184.548 185.318 184.666C185.712 184.772 186.059 184.927 186.358 185.13C186.72 185.386 186.902 185.652 186.902 185.93C186.902 186.068 186.859 186.186 186.774 186.282C186.688 186.378 186.587 186.426 186.47 186.426C186.342 186.426 186.15 186.335 185.894 186.154C185.595 185.962 185.312 185.812 185.046 185.706C184.779 185.599 184.448 185.546 184.054 185.546C183.552 185.546 183.147 185.658 182.838 185.882C182.539 186.106 182.39 186.404 182.39 186.778C182.39 187.012 182.443 187.204 182.55 187.354C182.667 187.492 182.854 187.62 183.11 187.738C183.376 187.844 183.755 187.951 184.246 188.058C184.971 188.218 185.531 188.394 185.926 188.586C186.331 188.778 186.619 189.012 186.79 189.29C186.96 189.567 187.046 189.919 187.046 190.346C187.046 191.018 186.763 191.562 186.198 191.978C185.632 192.383 184.886 192.586 183.958 192.586ZM192.543 191.53C192.916 191.562 193.103 191.732 193.103 192.042C193.103 192.223 193.034 192.362 192.895 192.458C192.767 192.543 192.57 192.575 192.303 192.554L191.871 192.522C191.018 192.458 190.388 192.202 189.983 191.754C189.578 191.306 189.375 190.628 189.375 189.722V185.706H188.303C188.122 185.706 187.978 185.663 187.871 185.578C187.775 185.482 187.727 185.359 187.727 185.21C187.727 185.05 187.775 184.922 187.871 184.826C187.978 184.73 188.122 184.682 188.303 184.682H189.375V182.874C189.375 182.671 189.434 182.516 189.551 182.41C189.668 182.292 189.828 182.234 190.031 182.234C190.223 182.234 190.378 182.292 190.495 182.41C190.612 182.516 190.671 182.671 190.671 182.874V184.682H192.447C192.618 184.682 192.751 184.73 192.847 184.826C192.954 184.922 193.007 185.05 193.007 185.21C193.007 185.359 192.954 185.482 192.847 185.578C192.751 185.663 192.618 185.706 192.447 185.706H190.671V189.786C190.671 190.372 190.788 190.799 191.023 191.066C191.268 191.322 191.631 191.466 192.111 191.498L192.543 191.53ZM195.036 192.554C194.844 192.554 194.684 192.5 194.556 192.394C194.439 192.276 194.38 192.116 194.38 191.914V185.162C194.38 184.959 194.439 184.804 194.556 184.698C194.684 184.58 194.844 184.522 195.036 184.522C195.228 184.522 195.383 184.58 195.5 184.698C195.618 184.804 195.676 184.959 195.676 185.162V191.914C195.676 192.127 195.618 192.287 195.5 192.394C195.383 192.5 195.228 192.554 195.036 192.554ZM195.036 182.842C194.78 182.842 194.572 182.767 194.412 182.618C194.252 182.468 194.172 182.271 194.172 182.026C194.172 181.791 194.252 181.599 194.412 181.45C194.572 181.3 194.78 181.226 195.036 181.226C195.292 181.226 195.5 181.3 195.66 181.45C195.82 181.599 195.9 181.791 195.9 182.026C195.9 182.271 195.82 182.468 195.66 182.618C195.5 182.767 195.292 182.842 195.036 182.842ZM202.019 184.49C203.886 184.49 204.819 185.519 204.819 187.578V191.914C204.819 192.116 204.761 192.276 204.643 192.394C204.537 192.5 204.382 192.554 204.179 192.554C203.977 192.554 203.817 192.5 203.699 192.394C203.582 192.276 203.523 192.116 203.523 191.914V187.658C203.523 186.932 203.379 186.404 203.091 186.074C202.814 185.743 202.366 185.578 201.747 185.578C201.033 185.578 200.462 185.796 200.035 186.234C199.609 186.671 199.395 187.263 199.395 188.01V191.914C199.395 192.116 199.337 192.276 199.219 192.394C199.113 192.5 198.958 192.554 198.755 192.554C198.553 192.554 198.393 192.5 198.275 192.394C198.158 192.276 198.099 192.116 198.099 191.914V185.162C198.099 184.97 198.158 184.815 198.275 184.698C198.393 184.58 198.553 184.522 198.755 184.522C198.947 184.522 199.097 184.58 199.203 184.698C199.321 184.815 199.379 184.964 199.379 185.146V185.962C199.635 185.482 199.993 185.119 200.451 184.874C200.91 184.618 201.433 184.49 202.019 184.49ZM210.425 192.586C209.689 192.586 209.038 192.42 208.473 192.09C207.918 191.759 207.486 191.29 207.177 190.682C206.878 190.063 206.729 189.348 206.729 188.538C206.729 187.727 206.878 187.018 207.177 186.41C207.486 185.791 207.918 185.316 208.473 184.986C209.038 184.655 209.689 184.49 210.425 184.49C211.161 184.49 211.812 184.655 212.377 184.986C212.942 185.316 213.374 185.791 213.673 186.41C213.982 187.018 214.137 187.727 214.137 188.538C214.137 189.348 213.982 190.063 213.673 190.682C213.374 191.29 212.942 191.759 212.377 192.09C211.812 192.42 211.161 192.586 210.425 192.586ZM210.425 191.514C211.193 191.514 211.78 191.263 212.185 190.762C212.601 190.25 212.809 189.508 212.809 188.538C212.809 187.588 212.601 186.858 212.185 186.346C211.769 185.823 211.182 185.562 210.425 185.562C209.668 185.562 209.081 185.823 208.665 186.346C208.249 186.858 208.041 187.588 208.041 188.538C208.041 189.498 208.244 190.234 208.649 190.746C209.065 191.258 209.657 191.514 210.425 191.514ZM27.7198 217.098C26.5891 214.932 26.0238 212.655 26.0238 210.266C26.0238 207.876 26.5891 205.599 27.7198 203.434C27.8584 203.188 28.0451 203.066 28.2798 203.066C28.4078 203.066 28.5144 203.108 28.5998 203.194C28.6958 203.279 28.7438 203.386 28.7438 203.514C28.7438 203.588 28.7278 203.668 28.6958 203.754C27.7998 205.866 27.3518 208.036 27.3518 210.266C27.3518 212.495 27.7998 214.666 28.6958 216.778C28.7278 216.874 28.7438 216.954 28.7438 217.018C28.7438 217.156 28.6958 217.263 28.5998 217.338C28.5144 217.423 28.4078 217.466 28.2798 217.466C28.0451 217.466 27.8584 217.343 27.7198 217.098ZM40.511 213.722C40.5537 213.807 40.575 213.898 40.575 213.994C40.575 214.154 40.511 214.287 40.383 214.394C40.2657 214.5 40.1217 214.554 39.951 214.554C39.6843 214.554 39.4977 214.426 39.391 214.17L38.255 211.578H32.223L31.071 214.17C30.9643 214.426 30.7777 214.554 30.511 214.554C30.3403 214.554 30.191 214.5 30.063 214.394C29.935 214.276 29.871 214.138 29.871 213.978C29.871 213.892 29.8923 213.807 29.935 213.722L34.511 203.546C34.575 203.396 34.671 203.284 34.799 203.21C34.927 203.135 35.0657 203.098 35.215 203.098C35.375 203.098 35.519 203.14 35.647 203.226C35.775 203.3 35.871 203.407 35.935 203.546L40.511 213.722ZM32.703 210.49H37.775L35.231 204.746L32.703 210.49ZM46.152 206.49C46.8347 206.49 47.4373 206.66 47.96 207.002C48.4827 207.343 48.888 207.823 49.176 208.442C49.464 209.05 49.608 209.759 49.608 210.57C49.608 211.38 49.464 212.09 49.176 212.698C48.888 213.295 48.4827 213.759 47.96 214.09C47.448 214.42 46.8453 214.586 46.152 214.586C45.544 214.586 45.0107 214.452 44.552 214.186C44.104 213.919 43.7627 213.54 43.528 213.05V216.81C43.528 217.002 43.4693 217.151 43.352 217.258C43.2453 217.375 43.0907 217.434 42.888 217.434C42.6853 217.434 42.5253 217.375 42.408 217.258C42.2907 217.14 42.232 216.991 42.232 216.81V207.162C42.232 206.97 42.2907 206.815 42.408 206.698C42.5253 206.58 42.6853 206.522 42.888 206.522C43.0907 206.522 43.2453 206.58 43.352 206.698C43.4693 206.815 43.528 206.97 43.528 207.162V208.026C43.7627 207.535 44.104 207.156 44.552 206.89C45.0107 206.623 45.544 206.49 46.152 206.49ZM45.896 213.514C46.6533 213.514 47.24 213.258 47.656 212.746C48.072 212.234 48.28 211.508 48.28 210.57C48.28 209.631 48.072 208.9 47.656 208.378C47.24 207.844 46.6533 207.578 45.896 207.578C45.1387 207.578 44.552 207.834 44.136 208.346C43.7307 208.858 43.528 209.588 43.528 210.538C43.528 211.487 43.7307 212.223 44.136 212.746C44.552 213.258 45.1387 213.514 45.896 213.514ZM52.2005 214.554C52.0085 214.554 51.8485 214.5 51.7205 214.394C51.6032 214.276 51.5445 214.116 51.5445 213.914V203.754C51.5445 203.551 51.6032 203.396 51.7205 203.29C51.8485 203.172 52.0085 203.114 52.2005 203.114C52.3818 203.114 52.5312 203.172 52.6485 203.29C52.7765 203.396 52.8405 203.551 52.8405 203.754V213.914C52.8405 214.116 52.7765 214.276 52.6485 214.394C52.5312 214.5 52.3818 214.554 52.2005 214.554ZM55.9193 214.554C55.7273 214.554 55.5673 214.5 55.4393 214.394C55.3219 214.276 55.2633 214.116 55.2633 213.914V207.162C55.2633 206.959 55.3219 206.804 55.4393 206.698C55.5673 206.58 55.7273 206.522 55.9193 206.522C56.1113 206.522 56.2659 206.58 56.3833 206.698C56.5006 206.804 56.5593 206.959 56.5593 207.162V213.914C56.5593 214.127 56.5006 214.287 56.3833 214.394C56.2659 214.5 56.1113 214.554 55.9193 214.554ZM55.9193 204.842C55.6633 204.842 55.4553 204.767 55.2953 204.618C55.1353 204.468 55.0553 204.271 55.0553 204.026C55.0553 203.791 55.1353 203.599 55.2953 203.45C55.4553 203.3 55.6633 203.226 55.9193 203.226C56.1753 203.226 56.3833 203.3 56.5433 203.45C56.7033 203.599 56.7833 203.791 56.7833 204.026C56.7833 204.271 56.7033 204.468 56.5433 204.618C56.3833 204.767 56.1753 204.842 55.9193 204.842ZM62.198 214.586C61.4727 214.586 60.8273 214.42 60.262 214.09C59.7073 213.759 59.2753 213.29 58.966 212.682C58.6673 212.074 58.518 211.37 58.518 210.57C58.518 209.77 58.6727 209.06 58.982 208.442C59.302 207.823 59.7447 207.343 60.31 207.002C60.8753 206.66 61.526 206.49 62.262 206.49C62.6673 206.49 63.0673 206.548 63.462 206.666C63.8673 206.772 64.2193 206.932 64.518 207.146C64.71 207.274 64.8433 207.402 64.918 207.53C65.0033 207.647 65.046 207.78 65.046 207.93C65.046 208.079 65.0033 208.202 64.918 208.298C64.8433 208.394 64.742 208.442 64.614 208.442C64.5393 208.442 64.4593 208.42 64.374 208.378C64.2887 208.335 64.214 208.292 64.15 208.25C64.0967 208.207 64.0593 208.18 64.038 208.17C63.7607 207.988 63.494 207.844 63.238 207.738C62.9927 207.631 62.6887 207.578 62.326 207.578C61.5473 207.578 60.9393 207.844 60.502 208.378C60.0753 208.9 59.862 209.631 59.862 210.57C59.862 211.508 60.0753 212.234 60.502 212.746C60.9393 213.258 61.5473 213.514 62.326 213.514C62.6887 213.514 62.998 213.46 63.254 213.354C63.5207 213.247 63.7873 213.103 64.054 212.922C64.1713 212.847 64.2833 212.783 64.39 212.73C64.4967 212.676 64.5873 212.65 64.662 212.65C64.7793 212.65 64.8753 212.698 64.95 212.794C65.0353 212.89 65.078 213.012 65.078 213.162C65.078 213.3 65.0407 213.428 64.966 213.546C64.8913 213.652 64.7527 213.775 64.55 213.914C64.2513 214.116 63.8887 214.282 63.462 214.41C63.046 214.527 62.6247 214.586 62.198 214.586ZM69.8223 206.49C71.7743 206.49 72.7503 207.514 72.7503 209.562V213.914C72.7503 214.106 72.6916 214.26 72.5743 214.378C72.4676 214.495 72.3183 214.554 72.1263 214.554C71.9343 214.554 71.7796 214.495 71.6623 214.378C71.5449 214.26 71.4863 214.106 71.4863 213.914V213.146C71.2836 213.604 70.9743 213.962 70.5583 214.218C70.1423 214.463 69.6623 214.586 69.1183 214.586C68.6169 214.586 68.1529 214.484 67.7263 214.282C67.3103 214.079 66.9796 213.796 66.7343 213.434C66.4889 213.071 66.3663 212.671 66.3663 212.234C66.3663 211.647 66.5156 211.194 66.8143 210.874C67.1129 210.543 67.6036 210.308 68.2863 210.17C68.9689 210.02 69.9183 209.946 71.1343 209.946H71.4863V209.418C71.4863 208.778 71.3529 208.308 71.0863 208.01C70.8303 207.711 70.4089 207.562 69.8223 207.562C69.0969 207.562 68.3609 207.759 67.6143 208.154C67.3263 208.335 67.1236 208.426 67.0063 208.426C66.8783 208.426 66.7716 208.378 66.6863 208.282C66.6009 208.186 66.5583 208.063 66.5583 207.914C66.5583 207.764 66.6009 207.636 66.6863 207.53C66.7823 207.412 66.9316 207.295 67.1343 207.178C67.5076 206.964 67.9289 206.799 68.3983 206.682C68.8783 206.554 69.3529 206.49 69.8223 206.49ZM69.2943 213.562C69.9343 213.562 70.4569 213.348 70.8623 212.922C71.2783 212.484 71.4863 211.924 71.4863 211.242V210.778H71.1983C70.2596 210.778 69.5449 210.82 69.0543 210.906C68.5636 210.98 68.2116 211.114 67.9983 211.306C67.7956 211.487 67.6943 211.759 67.6943 212.122C67.6943 212.538 67.8436 212.884 68.1423 213.162C68.4516 213.428 68.8356 213.562 69.2943 213.562ZM82.4316 206.49C84.3836 206.49 85.3596 207.514 85.3596 209.562V213.914C85.3596 214.106 85.301 214.26 85.1836 214.378C85.077 214.495 84.9276 214.554 84.7356 214.554C84.5436 214.554 84.389 214.495 84.2716 214.378C84.1543 214.26 84.0956 214.106 84.0956 213.914V213.146C83.893 213.604 83.5836 213.962 83.1676 214.218C82.7516 214.463 82.2716 214.586 81.7276 214.586C81.2263 214.586 80.7623 214.484 80.3356 214.282C79.9196 214.079 79.589 213.796 79.3436 213.434C79.0983 213.071 78.9756 212.671 78.9756 212.234C78.9756 211.647 79.125 211.194 79.4236 210.874C79.7223 210.543 80.213 210.308 80.8956 210.17C81.5783 210.02 82.5276 209.946 83.7436 209.946H84.0956V209.418C84.0956 208.778 83.9623 208.308 83.6956 208.01C83.4396 207.711 83.0183 207.562 82.4316 207.562C81.7063 207.562 80.9703 207.759 80.2236 208.154C79.9356 208.335 79.733 208.426 79.6156 208.426C79.4876 208.426 79.381 208.378 79.2956 208.282C79.2103 208.186 79.1676 208.063 79.1676 207.914C79.1676 207.764 79.2103 207.636 79.2956 207.53C79.3916 207.412 79.541 207.295 79.7436 207.178C80.117 206.964 80.5383 206.799 81.0076 206.682C81.4876 206.554 81.9623 206.49 82.4316 206.49ZM81.9036 213.562C82.5436 213.562 83.0663 213.348 83.4716 212.922C83.8876 212.484 84.0956 211.924 84.0956 211.242V210.778H83.8076C82.869 210.778 82.1543 210.82 81.6636 210.906C81.173 210.98 80.821 211.114 80.6076 211.306C80.405 211.487 80.3036 211.759 80.3036 212.122C80.3036 212.538 80.453 212.884 80.7516 213.162C81.061 213.428 81.445 213.562 81.9036 213.562ZM101.761 213.722C101.804 213.807 101.825 213.898 101.825 213.994C101.825 214.154 101.761 214.287 101.633 214.394C101.516 214.5 101.372 214.554 101.201 214.554C100.934 214.554 100.748 214.426 100.641 214.17L99.505 211.578H93.473L92.321 214.17C92.2143 214.426 92.0277 214.554 91.761 214.554C91.5903 214.554 91.441 214.5 91.313 214.394C91.185 214.276 91.121 214.138 91.121 213.978C91.121 213.892 91.1423 213.807 91.185 213.722L95.761 203.546C95.825 203.396 95.921 203.284 96.049 203.21C96.177 203.135 96.3157 203.098 96.465 203.098C96.625 203.098 96.769 203.14 96.897 203.226C97.025 203.3 97.121 203.407 97.185 203.546L101.761 213.722ZM93.953 210.49H99.025L96.481 204.746L93.953 210.49ZM107.18 214.602C106.38 214.602 105.612 214.484 104.876 214.25C104.151 214.004 103.57 213.679 103.132 213.274C102.972 213.124 102.892 212.938 102.892 212.714C102.892 212.564 102.935 212.436 103.02 212.33C103.106 212.212 103.207 212.154 103.324 212.154C103.463 212.154 103.612 212.212 103.772 212.33C104.764 213.098 105.895 213.482 107.164 213.482C108.082 213.482 108.786 213.306 109.276 212.954C109.767 212.602 110.012 212.1 110.012 211.45C110.012 211.076 109.895 210.778 109.66 210.554C109.426 210.319 109.116 210.132 108.732 209.994C108.348 209.855 107.831 209.711 107.18 209.562C106.306 209.359 105.586 209.146 105.02 208.922C104.466 208.698 104.012 208.378 103.66 207.962C103.319 207.546 103.148 207.002 103.148 206.33C103.148 205.69 103.319 205.124 103.66 204.634C104.012 204.132 104.498 203.748 105.116 203.482C105.746 203.204 106.46 203.066 107.26 203.066C108.007 203.066 108.7 203.183 109.34 203.418C109.991 203.642 110.535 203.967 110.972 204.394C111.143 204.564 111.228 204.751 111.228 204.954C111.228 205.103 111.186 205.236 111.1 205.354C111.015 205.46 110.914 205.514 110.796 205.514C110.679 205.514 110.524 205.455 110.332 205.338C109.81 204.911 109.324 204.612 108.876 204.442C108.428 204.271 107.89 204.186 107.26 204.186C106.375 204.186 105.687 204.372 105.196 204.746C104.706 205.108 104.46 205.62 104.46 206.282C104.46 206.847 104.674 207.274 105.1 207.562C105.538 207.839 106.204 208.084 107.1 208.298C108.071 208.532 108.834 208.751 109.388 208.954C109.943 209.146 110.402 209.439 110.764 209.834C111.138 210.228 111.324 210.756 111.324 211.418C111.324 212.047 111.148 212.602 110.796 213.082C110.455 213.562 109.97 213.935 109.34 214.202C108.711 214.468 107.991 214.602 107.18 214.602ZM117.855 214.602C116.383 214.602 115.269 214.218 114.511 213.45C113.754 212.682 113.375 211.551 113.375 210.058V203.786C113.375 203.583 113.434 203.423 113.551 203.306C113.669 203.178 113.829 203.114 114.031 203.114C114.223 203.114 114.378 203.178 114.495 203.306C114.613 203.423 114.671 203.583 114.671 203.786V210.17C114.671 211.268 114.938 212.095 115.471 212.65C116.015 213.204 116.81 213.482 117.855 213.482C118.901 213.482 119.69 213.204 120.223 212.65C120.757 212.095 121.023 211.268 121.023 210.17V203.786C121.023 203.583 121.082 203.423 121.199 203.306C121.327 203.178 121.487 203.114 121.679 203.114C121.882 203.114 122.042 203.178 122.159 203.306C122.277 203.423 122.335 203.583 122.335 203.786V210.058C122.335 211.54 121.951 212.671 121.183 213.45C120.426 214.218 119.317 214.602 117.855 214.602ZM124.381 215.05C124.338 215.188 124.269 215.295 124.173 215.37C124.077 215.444 123.97 215.482 123.853 215.482C123.704 215.482 123.57 215.428 123.453 215.322C123.336 215.215 123.277 215.082 123.277 214.922C123.277 214.858 123.293 214.783 123.325 214.698L127.101 202.89C127.144 202.751 127.213 202.644 127.309 202.57C127.405 202.495 127.512 202.458 127.629 202.458C127.778 202.458 127.912 202.511 128.029 202.618C128.146 202.724 128.205 202.863 128.205 203.034C128.205 203.066 128.194 203.135 128.173 203.242L124.381 215.05ZM134.036 214.602C132.969 214.602 132.047 214.372 131.268 213.914C130.489 213.444 129.887 212.778 129.46 211.914C129.044 211.039 128.836 210.01 128.836 208.826C128.836 207.652 129.044 206.634 129.46 205.77C129.887 204.895 130.489 204.228 131.268 203.77C132.047 203.3 132.969 203.066 134.036 203.066C134.751 203.066 135.423 203.183 136.052 203.418C136.692 203.642 137.247 203.967 137.716 204.394C137.887 204.554 137.972 204.74 137.972 204.954C137.972 205.103 137.929 205.236 137.844 205.354C137.759 205.46 137.657 205.514 137.54 205.514C137.412 205.514 137.257 205.455 137.076 205.338C136.532 204.911 136.036 204.612 135.588 204.442C135.151 204.271 134.644 204.186 134.068 204.186C132.831 204.186 131.876 204.591 131.204 205.402C130.543 206.202 130.212 207.343 130.212 208.826C130.212 210.319 130.543 211.471 131.204 212.282C131.876 213.082 132.831 213.482 134.068 213.482C134.633 213.482 135.14 213.396 135.588 213.226C136.036 213.055 136.532 212.756 137.076 212.33C137.257 212.212 137.412 212.154 137.54 212.154C137.657 212.154 137.759 212.207 137.844 212.314C137.929 212.42 137.972 212.554 137.972 212.714C137.972 212.927 137.887 213.114 137.716 213.274C137.247 213.7 136.692 214.031 136.052 214.266C135.423 214.49 134.751 214.602 134.036 214.602ZM140.752 214.474C140.55 214.474 140.384 214.415 140.256 214.298C140.139 214.18 140.08 214.026 140.08 213.834V203.834C140.08 203.642 140.139 203.487 140.256 203.37C140.384 203.252 140.55 203.194 140.752 203.194H143.872C145.675 203.194 147.067 203.684 148.048 204.666C149.04 205.636 149.536 207.023 149.536 208.826C149.536 210.628 149.04 212.02 148.048 213.002C147.056 213.983 145.664 214.474 143.872 214.474H140.752ZM143.792 213.354C146.715 213.354 148.176 211.844 148.176 208.826C148.176 205.818 146.715 204.314 143.792 204.314H141.392V213.354H143.792ZM152.58 214.474C152.378 214.474 152.212 214.415 152.084 214.298C151.967 214.18 151.908 214.026 151.908 213.834V203.834C151.908 203.642 151.967 203.487 152.084 203.37C152.212 203.252 152.378 203.194 152.58 203.194H158.564C158.756 203.194 158.906 203.242 159.012 203.338C159.119 203.434 159.172 203.567 159.172 203.738C159.172 203.908 159.119 204.042 159.012 204.138C158.906 204.234 158.756 204.282 158.564 204.282H153.204V208.202H158.244C158.436 208.202 158.586 208.25 158.692 208.346C158.799 208.442 158.852 208.575 158.852 208.746C158.852 208.916 158.799 209.05 158.692 209.146C158.586 209.242 158.436 209.29 158.244 209.29H153.204V213.386H158.564C158.756 213.386 158.906 213.434 159.012 213.53C159.119 213.615 159.172 213.748 159.172 213.93C159.172 214.1 159.119 214.234 159.012 214.33C158.906 214.426 158.756 214.474 158.564 214.474H152.58ZM161.272 215.05C161.229 215.188 161.16 215.295 161.064 215.37C160.968 215.444 160.861 215.482 160.744 215.482C160.594 215.482 160.461 215.428 160.344 215.322C160.226 215.215 160.168 215.082 160.168 214.922C160.168 214.858 160.184 214.783 160.216 214.698L163.992 202.89C164.034 202.751 164.104 202.644 164.2 202.57C164.296 202.495 164.402 202.458 164.52 202.458C164.669 202.458 164.802 202.511 164.92 202.618C165.037 202.724 165.096 202.863 165.096 203.034C165.096 203.066 165.085 203.135 165.064 203.242L161.272 215.05ZM175.699 213.722C175.741 213.807 175.763 213.898 175.763 213.994C175.763 214.154 175.699 214.287 175.571 214.394C175.453 214.5 175.309 214.554 175.139 214.554C174.872 214.554 174.685 214.426 174.579 214.17L173.443 211.578H167.411L166.259 214.17C166.152 214.426 165.965 214.554 165.699 214.554C165.528 214.554 165.379 214.5 165.251 214.394C165.123 214.276 165.059 214.138 165.059 213.978C165.059 213.892 165.08 213.807 165.123 213.722L169.699 203.546C169.763 203.396 169.859 203.284 169.987 203.21C170.115 203.135 170.253 203.098 170.403 203.098C170.563 203.098 170.707 203.14 170.835 203.226C170.963 203.3 171.059 203.407 171.123 203.546L175.699 213.722ZM167.891 210.49H172.963L170.419 204.746L167.891 210.49ZM181.118 214.602C180.318 214.602 179.55 214.484 178.814 214.25C178.088 214.004 177.507 213.679 177.07 213.274C176.91 213.124 176.83 212.938 176.83 212.714C176.83 212.564 176.872 212.436 176.958 212.33C177.043 212.212 177.144 212.154 177.262 212.154C177.4 212.154 177.55 212.212 177.71 212.33C178.702 213.098 179.832 213.482 181.102 213.482C182.019 213.482 182.723 213.306 183.214 212.954C183.704 212.602 183.95 212.1 183.95 211.45C183.95 211.076 183.832 210.778 183.598 210.554C183.363 210.319 183.054 210.132 182.67 209.994C182.286 209.855 181.768 209.711 181.118 209.562C180.243 209.359 179.523 209.146 178.958 208.922C178.403 208.698 177.95 208.378 177.598 207.962C177.256 207.546 177.086 207.002 177.086 206.33C177.086 205.69 177.256 205.124 177.598 204.634C177.95 204.132 178.435 203.748 179.054 203.482C179.683 203.204 180.398 203.066 181.198 203.066C181.944 203.066 182.638 203.183 183.278 203.418C183.928 203.642 184.472 203.967 184.91 204.394C185.08 204.564 185.166 204.751 185.166 204.954C185.166 205.103 185.123 205.236 185.038 205.354C184.952 205.46 184.851 205.514 184.734 205.514C184.616 205.514 184.462 205.455 184.27 205.338C183.747 204.911 183.262 204.612 182.814 204.442C182.366 204.271 181.827 204.186 181.198 204.186C180.312 204.186 179.624 204.372 179.134 204.746C178.643 205.108 178.398 205.62 178.398 206.282C178.398 206.847 178.611 207.274 179.038 207.562C179.475 207.839 180.142 208.084 181.038 208.298C182.008 208.532 182.771 208.751 183.326 208.954C183.88 209.146 184.339 209.439 184.702 209.834C185.075 210.228 185.262 210.756 185.262 211.418C185.262 212.047 185.086 212.602 184.734 213.082C184.392 213.562 183.907 213.935 183.278 214.202C182.648 214.468 181.928 214.602 181.118 214.602ZM191.793 214.602C190.321 214.602 189.206 214.218 188.449 213.45C187.691 212.682 187.313 211.551 187.313 210.058V203.786C187.313 203.583 187.371 203.423 187.489 203.306C187.606 203.178 187.766 203.114 187.969 203.114C188.161 203.114 188.315 203.178 188.433 203.306C188.55 203.423 188.609 203.583 188.609 203.786V210.17C188.609 211.268 188.875 212.095 189.409 212.65C189.953 213.204 190.747 213.482 191.793 213.482C192.838 213.482 193.627 213.204 194.161 212.65C194.694 212.095 194.961 211.268 194.961 210.17V203.786C194.961 203.583 195.019 203.423 195.137 203.306C195.265 203.178 195.425 203.114 195.617 203.114C195.819 203.114 195.979 203.178 196.097 203.306C196.214 203.423 196.273 203.583 196.273 203.786V210.058C196.273 211.54 195.889 212.671 195.121 213.45C194.363 214.218 193.254 214.602 191.793 214.602ZM199.275 217.098C199.136 217.343 198.944 217.466 198.699 217.466C198.571 217.466 198.459 217.423 198.363 217.338C198.278 217.263 198.235 217.162 198.235 217.034C198.235 216.991 198.256 216.906 198.299 216.778C199.184 214.655 199.627 212.484 199.627 210.266C199.627 208.047 199.184 205.876 198.299 203.754C198.256 203.626 198.235 203.54 198.235 203.498C198.235 203.37 198.278 203.268 198.363 203.194C198.459 203.108 198.571 203.066 198.699 203.066C198.944 203.066 199.136 203.188 199.275 203.434C200.395 205.61 200.955 207.887 200.955 210.266C200.955 212.644 200.395 214.922 199.275 217.098ZM204.45 214.554C204.194 214.554 203.981 214.474 203.81 214.314C203.639 214.143 203.554 213.924 203.554 213.658C203.554 213.391 203.639 213.172 203.81 213.002C203.981 212.831 204.194 212.746 204.45 212.746C204.695 212.746 204.898 212.831 205.058 213.002C205.229 213.172 205.314 213.391 205.314 213.658C205.314 213.924 205.229 214.143 205.058 214.314C204.898 214.474 204.695 214.554 204.45 214.554Z" fill="white"/>
<path fill-rule="evenodd" clip-rule="evenodd" d="M104.998 38.968C107.515 37.1205 111.066 37.2471 113.451 39.4401L117.377 43.0502C117.919 43.5487 117.954 44.3922 117.456 44.9342L113.846 48.8599C111.653 51.2446 108.124 51.6677 105.462 50.0372L104.82 50.6887C103.734 51.7903 102.59 52.7992 101.398 53.7153L108.667 60.4004C109.361 61.0389 109.191 62.1768 108.341 62.5843L95.3895 68.7886C94.8978 69.0241 94.3123 68.9366 93.911 68.5675L85.078 60.4447C85.0282 60.3989 84.9827 60.3502 84.9414 60.299C75.4751 61.3177 65.6453 58.2358 58.3343 51.0321C57.1737 49.8885 56.0997 48.6601 55.1212 47.3572C54.7896 46.9157 54.7645 46.3155 55.058 45.8478C61.4455 35.6693 72.4942 30.194 83.6944 30.4539C83.7305 30.4009 83.7709 30.3499 83.8156 30.3013L91.9384 21.4684C92.3074 21.067 92.8836 20.9309 93.3933 21.1245L106.818 26.224C107.7 26.559 107.964 27.6787 107.326 28.373L100.638 35.6456C101.922 36.4683 103.147 37.3794 104.304 38.3724L104.998 38.968ZM106.37 41.2803L106.635 47.6183C108.253 48.7604 110.506 48.5515 111.883 47.0548L114.59 44.1105L111.646 41.4029C110.149 40.0266 107.887 40.0068 106.37 41.2803ZM104.03 28.0175L98.2816 34.2682C94.6996 32.367 90.9004 31.1936 87.0659 30.7063L93.2902 23.9379L104.03 28.0175ZM99.166 55.286C95.7849 57.4607 92.0907 58.9544 88.2792 59.7657L95.0515 65.9936L105.412 61.0302L99.166 55.286ZM102.567 40.3963L103.705 41.3718L103.972 47.7499L102.92 48.8171C91.212 60.6995 72.0882 60.8407 60.2058 49.1326C59.3593 48.2985 58.5629 47.4154 57.8208 46.4879C66.8748 32.9817 85.0886 29.0342 98.9557 37.7365C100.224 38.5324 101.431 39.4214 102.567 40.3963ZM86.0941 39.6422C89.3463 42.6329 89.5583 47.6938 86.5675 50.946C83.5768 54.1982 78.5159 54.4101 75.2637 51.4194C72.0115 48.4287 71.7996 43.3678 74.7903 40.1156C77.781 36.8634 82.8419 36.6515 86.0941 39.6422ZM76.7531 41.9207C78.7469 39.7526 82.1209 39.6113 84.289 41.6051C86.4571 43.5989 86.5984 46.9728 84.6046 49.1409C82.6108 51.3091 79.2369 51.4504 77.0687 49.4565C74.9006 47.4627 74.7593 44.0888 76.7531 41.9207Z" fill="white"/>
<path fill-rule="evenodd" clip-rule="evenodd" d="M148.811 29.8125C147.951 29.8125 147.253 29.1149 147.253 28.2544C147.253 27.3939 147.951 26.6964 148.811 26.6964H153.486C156.928 26.6964 159.718 29.4867 159.718 32.9287C159.718 36.3707 156.928 39.1611 153.486 39.1611H130.114C129.254 39.1611 128.556 38.4635 128.556 37.603C128.556 36.7425 129.254 36.0449 130.114 36.0449H153.486C155.207 36.0449 156.602 34.6497 156.602 32.9287C156.602 31.2077 155.207 29.8125 153.486 29.8125H148.811ZM167.508 39.1611C166.648 39.1611 165.95 38.4635 165.95 37.603C165.95 36.7425 166.648 36.0449 167.508 36.0449H172.183C175.625 36.0449 178.415 38.8352 178.415 42.2772C178.415 45.7193 175.625 48.5096 172.183 48.5096H123.882C123.021 48.5096 122.324 47.812 122.324 46.9515C122.324 46.091 123.021 45.3934 123.882 45.3934H172.183C173.904 45.3934 175.299 43.9983 175.299 42.2772C175.299 40.5562 173.904 39.1611 172.183 39.1611H167.508ZM134.788 56.3C134.788 57.1605 135.486 57.8581 136.347 57.8581H159.718C161.439 57.8581 162.834 59.2533 162.834 60.9743C162.834 62.6953 161.439 64.0905 159.718 64.0905H155.044C154.183 64.0905 153.486 64.7881 153.486 65.6486C153.486 66.5091 154.183 67.2067 155.044 67.2067H159.718C163.16 67.2067 165.95 64.4163 165.95 60.9743C165.95 57.5323 163.16 54.7419 159.718 54.7419H136.347C135.486 54.7419 134.788 55.4395 134.788 56.3Z" fill="white"/>
</svg>
