<svg width="231" height="199" viewBox="0 0 231 199" fill="none" xmlns="http://www.w3.org/2000/svg">
<path d="M16.5877 130C16.201 130 15.901 129.893 15.6877 129.68C15.4743 129.467 15.3677 129.173 15.3677 128.8V117.08C15.3677 116.693 15.481 116.387 15.7077 116.16C15.9477 115.92 16.261 115.8 16.6477 115.8C17.0477 115.8 17.361 115.92 17.5877 116.16C17.8277 116.387 17.9477 116.693 17.9477 117.08V127.88H23.5677C24.3677 127.88 24.7677 128.233 24.7677 128.94C24.7677 129.647 24.3677 130 23.5677 130H16.5877ZM30.6428 130.16C29.6428 130.16 28.7628 129.953 28.0028 129.54C27.2561 129.127 26.6761 128.533 26.2628 127.76C25.8495 126.987 25.6428 126.087 25.6428 125.06C25.6428 124.033 25.8495 123.14 26.2628 122.38C26.6761 121.607 27.2561 121.013 28.0028 120.6C28.7628 120.187 29.6428 119.98 30.6428 119.98C31.6428 119.98 32.5161 120.187 33.2628 120.6C34.0228 121.013 34.6028 121.607 35.0028 122.38C35.4161 123.14 35.6228 124.033 35.6228 125.06C35.6228 126.087 35.4161 126.987 35.0028 127.76C34.6028 128.533 34.0228 129.127 33.2628 129.54C32.5161 129.953 31.6428 130.16 30.6428 130.16ZM30.6228 128.22C31.4361 128.22 32.0561 127.953 32.4828 127.42C32.9095 126.887 33.1228 126.1 33.1228 125.06C33.1228 124.033 32.9095 123.253 32.4828 122.72C32.0561 122.173 31.4428 121.9 30.6428 121.9C29.8428 121.9 29.2228 122.173 28.7828 122.72C28.3561 123.253 28.1428 124.033 28.1428 125.06C28.1428 126.1 28.3561 126.887 28.7828 127.42C29.2095 127.953 29.8228 128.22 30.6228 128.22ZM45.9667 120.02C46.3401 120.02 46.6401 120.127 46.8667 120.34C47.0934 120.553 47.2067 120.84 47.2067 121.2V129.1C47.2067 130.633 46.7801 131.793 45.9267 132.58C45.0734 133.367 43.8134 133.76 42.1467 133.76C40.6934 133.76 39.4801 133.487 38.5067 132.94C38.0134 132.647 37.7667 132.293 37.7667 131.88C37.7667 131.587 37.8334 131.353 37.9667 131.18C38.1134 131.007 38.3001 130.92 38.5267 130.92C38.6467 130.92 38.7934 130.947 38.9667 131C39.1401 131.067 39.3201 131.14 39.5067 131.22C39.9867 131.42 40.4134 131.573 40.7867 131.68C41.1734 131.787 41.6134 131.84 42.1067 131.84C43.8534 131.84 44.7267 130.987 44.7267 129.28V128C44.4334 128.547 44.0067 128.973 43.4467 129.28C42.8867 129.573 42.2467 129.72 41.5267 129.72C40.6734 129.72 39.9134 129.52 39.2467 129.12C38.5934 128.707 38.0801 128.133 37.7067 127.4C37.3334 126.667 37.1467 125.82 37.1467 124.86C37.1467 123.9 37.3267 123.053 37.6867 122.32C38.0601 121.573 38.5801 121 39.2467 120.6C39.9134 120.187 40.6734 119.98 41.5267 119.98C42.2467 119.98 42.8867 120.133 43.4467 120.44C44.0067 120.733 44.4334 121.153 44.7267 121.7V121.18C44.7267 120.833 44.8401 120.553 45.0667 120.34C45.2934 120.127 45.5934 120.02 45.9667 120.02ZM42.1867 127.78C42.9867 127.78 43.6067 127.52 44.0467 127C44.5001 126.48 44.7267 125.767 44.7267 124.86C44.7267 123.94 44.5001 123.22 44.0467 122.7C43.6067 122.18 42.9867 121.92 42.1867 121.92C41.4001 121.92 40.7801 122.18 40.3267 122.7C39.8734 123.22 39.6467 123.94 39.6467 124.86C39.6467 125.767 39.8734 126.48 40.3267 127C40.7801 127.52 41.4001 127.78 42.1867 127.78ZM51.0361 130.12C50.6761 130.12 50.3761 130.02 50.1361 129.82C49.9094 129.607 49.7961 129.307 49.7961 128.92V121.2C49.7961 120.813 49.9094 120.52 50.1361 120.32C50.3761 120.12 50.6761 120.02 51.0361 120.02C51.3961 120.02 51.6961 120.12 51.9361 120.32C52.1761 120.52 52.2961 120.813 52.2961 121.2V128.92C52.2961 129.307 52.1761 129.607 51.9361 129.82C51.6961 130.02 51.3961 130.12 51.0361 130.12ZM51.0361 118.24C50.5828 118.24 50.2228 118.12 49.9561 117.88C49.6894 117.627 49.5561 117.3 49.5561 116.9C49.5561 116.5 49.6894 116.18 49.9561 115.94C50.2228 115.7 50.5828 115.58 51.0361 115.58C51.4761 115.58 51.8294 115.7 52.0961 115.94C52.3761 116.18 52.5161 116.5 52.5161 116.9C52.5161 117.3 52.3828 117.627 52.1161 117.88C51.8494 118.12 51.4894 118.24 51.0361 118.24ZM58.4142 130.16C56.9609 130.16 55.7876 129.873 54.8942 129.3C54.4676 129.047 54.2542 128.687 54.2542 128.22C54.2542 127.953 54.3276 127.74 54.4742 127.58C54.6209 127.407 54.8009 127.32 55.0142 127.32C55.2409 127.32 55.5542 127.427 55.9542 127.64C56.3809 127.84 56.7676 127.993 57.1142 128.1C57.4742 128.207 57.9276 128.26 58.4742 128.26C59.0342 128.26 59.4676 128.167 59.7742 127.98C60.0942 127.793 60.2542 127.533 60.2542 127.2C60.2542 126.973 60.1876 126.793 60.0542 126.66C59.9342 126.527 59.7076 126.407 59.3742 126.3C59.0542 126.18 58.5609 126.047 57.8942 125.9C56.7076 125.66 55.8542 125.32 55.3342 124.88C54.8276 124.44 54.5742 123.833 54.5742 123.06C54.5742 122.473 54.7476 121.947 55.0942 121.48C55.4409 121 55.9142 120.633 56.5142 120.38C57.1276 120.113 57.8209 119.98 58.5942 119.98C59.1542 119.98 59.6942 120.053 60.2142 120.2C60.7342 120.333 61.2009 120.533 61.6142 120.8C62.0409 121.067 62.2542 121.42 62.2542 121.86C62.2542 122.127 62.1809 122.353 62.0342 122.54C61.8876 122.713 61.7076 122.8 61.4942 122.8C61.3476 122.8 61.2009 122.773 61.0542 122.72C60.9209 122.653 60.7476 122.56 60.5342 122.44C60.1476 122.24 59.8142 122.093 59.5342 122C59.2542 121.893 58.9076 121.84 58.4942 121.84C58.0009 121.84 57.6076 121.94 57.3142 122.14C57.0342 122.34 56.8942 122.613 56.8942 122.96C56.8942 123.293 57.0409 123.547 57.3342 123.72C57.6276 123.893 58.1942 124.067 59.0342 124.24C59.9276 124.427 60.6276 124.64 61.1342 124.88C61.6409 125.12 62.0009 125.42 62.2142 125.78C62.4409 126.14 62.5542 126.6 62.5542 127.16C62.5542 128.067 62.1742 128.793 61.4142 129.34C60.6676 129.887 59.6676 130.16 58.4142 130.16ZM69.5636 128.26C70.2303 128.3 70.5636 128.6 70.5636 129.16C70.5636 129.48 70.4303 129.727 70.1636 129.9C69.9103 130.06 69.5436 130.127 69.0636 130.1L68.5236 130.06C66.2836 129.9 65.1636 128.7 65.1636 126.46V122.1H64.1636C63.8036 122.1 63.5236 122.02 63.3236 121.86C63.1369 121.7 63.0436 121.467 63.0436 121.16C63.0436 120.853 63.1369 120.62 63.3236 120.46C63.5236 120.3 63.8036 120.22 64.1636 120.22H65.1636V118.38C65.1636 118.02 65.2769 117.733 65.5036 117.52C65.7303 117.307 66.0369 117.2 66.4236 117.2C66.7969 117.2 67.0969 117.307 67.3236 117.52C67.5503 117.733 67.6636 118.02 67.6636 118.38V120.22H69.3636C69.7236 120.22 69.9969 120.3 70.1836 120.46C70.3836 120.62 70.4836 120.853 70.4836 121.16C70.4836 121.467 70.3836 121.7 70.1836 121.86C69.9969 122.02 69.7236 122.1 69.3636 122.1H67.6636V126.64C67.6636 127.627 68.1169 128.153 69.0236 128.22L69.5636 128.26ZM73.1064 130.12C72.7464 130.12 72.4464 130.02 72.2064 129.82C71.9797 129.607 71.8664 129.307 71.8664 128.92V121.2C71.8664 120.813 71.9797 120.52 72.2064 120.32C72.4464 120.12 72.7464 120.02 73.1064 120.02C73.4664 120.02 73.7664 120.12 74.0064 120.32C74.2464 120.52 74.3664 120.813 74.3664 121.2V128.92C74.3664 129.307 74.2464 129.607 74.0064 129.82C73.7664 130.02 73.4664 130.12 73.1064 130.12ZM73.1064 118.24C72.6531 118.24 72.2931 118.12 72.0264 117.88C71.7597 117.627 71.6264 117.3 71.6264 116.9C71.6264 116.5 71.7597 116.18 72.0264 115.94C72.2931 115.7 72.6531 115.58 73.1064 115.58C73.5464 115.58 73.8997 115.7 74.1664 115.94C74.4464 116.18 74.5864 116.5 74.5864 116.9C74.5864 117.3 74.4531 117.627 74.1864 117.88C73.9197 118.12 73.5597 118.24 73.1064 118.24ZM81.2845 130.16C80.3112 130.16 79.4512 129.953 78.7045 129.54C77.9712 129.127 77.4045 128.54 77.0045 127.78C76.6045 127.02 76.4045 126.133 76.4045 125.12C76.4045 124.107 76.6112 123.213 77.0245 122.44C77.4512 121.653 78.0445 121.047 78.8045 120.62C79.5645 120.193 80.4379 119.98 81.4245 119.98C81.9445 119.98 82.4645 120.053 82.9845 120.2C83.5179 120.347 83.9845 120.547 84.3845 120.8C84.8112 121.08 85.0245 121.433 85.0245 121.86C85.0245 122.153 84.9512 122.393 84.8045 122.58C84.6712 122.753 84.4912 122.84 84.2645 122.84C84.1179 122.84 83.9645 122.807 83.8045 122.74C83.6445 122.673 83.4845 122.593 83.3245 122.5C83.0312 122.327 82.7512 122.193 82.4845 122.1C82.2179 121.993 81.9112 121.94 81.5645 121.94C80.7379 121.94 80.0979 122.213 79.6445 122.76C79.2045 123.293 78.9845 124.067 78.9845 125.08C78.9845 126.08 79.2045 126.853 79.6445 127.4C80.0979 127.933 80.7379 128.2 81.5645 128.2C81.8979 128.2 82.1912 128.153 82.4445 128.06C82.7112 127.953 83.0045 127.813 83.3245 127.64C83.5245 127.52 83.6979 127.433 83.8445 127.38C83.9912 127.313 84.1379 127.28 84.2845 127.28C84.4979 127.28 84.6779 127.373 84.8245 127.56C84.9712 127.747 85.0445 127.98 85.0445 128.26C85.0445 128.487 84.9912 128.687 84.8845 128.86C84.7912 129.02 84.6312 129.167 84.4045 129.3C83.9912 129.567 83.5112 129.78 82.9645 129.94C82.4179 130.087 81.8579 130.16 81.2845 130.16ZM90.9502 119.98C92.3102 119.98 93.3168 120.32 93.9702 121C94.6368 121.667 94.9702 122.687 94.9702 124.06V128.94C94.9702 129.3 94.8635 129.587 94.6502 129.8C94.4368 130 94.1435 130.1 93.7702 130.1C93.4235 130.1 93.1368 129.993 92.9102 129.78C92.6968 129.567 92.5902 129.287 92.5902 128.94V128.5C92.3635 129.02 92.0035 129.427 91.5102 129.72C91.0302 130.013 90.4702 130.16 89.8302 130.16C89.1768 130.16 88.5835 130.027 88.0502 129.76C87.5168 129.493 87.0968 129.127 86.7902 128.66C86.4835 128.193 86.3302 127.673 86.3302 127.1C86.3302 126.38 86.5102 125.813 86.8702 125.4C87.2435 124.987 87.8435 124.687 88.6702 124.5C89.4968 124.313 90.6368 124.22 92.0902 124.22H92.5902V123.76C92.5902 123.107 92.4502 122.633 92.1702 122.34C91.8902 122.033 91.4368 121.88 90.8102 121.88C90.4235 121.88 90.0302 121.94 89.6302 122.06C89.2302 122.167 88.7568 122.327 88.2102 122.54C87.8635 122.713 87.6102 122.8 87.4502 122.8C87.2102 122.8 87.0102 122.713 86.8502 122.54C86.7035 122.367 86.6302 122.14 86.6302 121.86C86.6302 121.633 86.6835 121.44 86.7902 121.28C86.9102 121.107 87.1035 120.947 87.3702 120.8C87.8368 120.547 88.3902 120.347 89.0302 120.2C89.6835 120.053 90.3235 119.98 90.9502 119.98ZM90.3302 128.36C90.9968 128.36 91.5368 128.14 91.9502 127.7C92.3768 127.247 92.5902 126.667 92.5902 125.96V125.54H92.2302C91.3368 125.54 90.6435 125.58 90.1502 125.66C89.6568 125.74 89.3035 125.88 89.0902 126.08C88.8768 126.28 88.7702 126.553 88.7702 126.9C88.7702 127.327 88.9168 127.68 89.2102 127.96C89.5168 128.227 89.8902 128.36 90.3302 128.36ZM110.681 127.32C110.907 127.32 111.087 127.407 111.221 127.58C111.367 127.753 111.441 127.987 111.441 128.28C111.441 128.693 111.194 129.04 110.701 129.32C110.247 129.573 109.734 129.78 109.161 129.94C108.587 130.087 108.041 130.16 107.521 130.16C105.947 130.16 104.701 129.707 103.781 128.8C102.861 127.893 102.401 126.653 102.401 125.08C102.401 124.08 102.601 123.193 103.001 122.42C103.401 121.647 103.961 121.047 104.681 120.62C105.414 120.193 106.241 119.98 107.161 119.98C108.041 119.98 108.807 120.173 109.461 120.56C110.114 120.947 110.621 121.493 110.981 122.2C111.341 122.907 111.521 123.74 111.521 124.7C111.521 125.273 111.267 125.56 110.761 125.56H104.861C104.941 126.48 105.201 127.16 105.641 127.6C106.081 128.027 106.721 128.24 107.561 128.24C107.987 128.24 108.361 128.187 108.681 128.08C109.014 127.973 109.387 127.827 109.801 127.64C110.201 127.427 110.494 127.32 110.681 127.32ZM107.221 121.74C106.541 121.74 105.994 121.953 105.581 122.38C105.181 122.807 104.941 123.42 104.861 124.22H109.381C109.354 123.407 109.154 122.793 108.781 122.38C108.407 121.953 107.887 121.74 107.221 121.74ZM114.8 125.64C114.413 125.64 114.12 125.553 113.92 125.38C113.733 125.207 113.64 124.967 113.64 124.66C113.64 124.353 113.733 124.113 113.92 123.94C114.12 123.753 114.413 123.66 114.8 123.66H118.92C119.306 123.66 119.593 123.753 119.78 123.94C119.98 124.113 120.08 124.353 120.08 124.66C120.08 124.967 119.98 125.207 119.78 125.38C119.593 125.553 119.306 125.64 118.92 125.64H114.8ZM127.124 130.16C126.151 130.16 125.291 129.953 124.544 129.54C123.811 129.127 123.244 128.54 122.844 127.78C122.444 127.02 122.244 126.133 122.244 125.12C122.244 124.107 122.451 123.213 122.864 122.44C123.291 121.653 123.884 121.047 124.644 120.62C125.404 120.193 126.278 119.98 127.264 119.98C127.784 119.98 128.304 120.053 128.824 120.2C129.358 120.347 129.824 120.547 130.224 120.8C130.651 121.08 130.864 121.433 130.864 121.86C130.864 122.153 130.791 122.393 130.644 122.58C130.511 122.753 130.331 122.84 130.104 122.84C129.958 122.84 129.804 122.807 129.644 122.74C129.484 122.673 129.324 122.593 129.164 122.5C128.871 122.327 128.591 122.193 128.324 122.1C128.058 121.993 127.751 121.94 127.404 121.94C126.578 121.94 125.938 122.213 125.484 122.76C125.044 123.293 124.824 124.067 124.824 125.08C124.824 126.08 125.044 126.853 125.484 127.4C125.938 127.933 126.578 128.2 127.404 128.2C127.738 128.2 128.031 128.153 128.284 128.06C128.551 127.953 128.844 127.813 129.164 127.64C129.364 127.52 129.538 127.433 129.684 127.38C129.831 127.313 129.978 127.28 130.124 127.28C130.338 127.28 130.518 127.373 130.664 127.56C130.811 127.747 130.884 127.98 130.884 128.26C130.884 128.487 130.831 128.687 130.724 128.86C130.631 129.02 130.471 129.167 130.244 129.3C129.831 129.567 129.351 129.78 128.804 129.94C128.258 130.087 127.698 130.16 127.124 130.16ZM137.01 130.16C136.01 130.16 135.13 129.953 134.37 129.54C133.623 129.127 133.043 128.533 132.63 127.76C132.217 126.987 132.01 126.087 132.01 125.06C132.01 124.033 132.217 123.14 132.63 122.38C133.043 121.607 133.623 121.013 134.37 120.6C135.13 120.187 136.01 119.98 137.01 119.98C138.01 119.98 138.883 120.187 139.63 120.6C140.39 121.013 140.97 121.607 141.37 122.38C141.783 123.14 141.99 124.033 141.99 125.06C141.99 126.087 141.783 126.987 141.37 127.76C140.97 128.533 140.39 129.127 139.63 129.54C138.883 129.953 138.01 130.16 137.01 130.16ZM136.99 128.22C137.803 128.22 138.423 127.953 138.85 127.42C139.277 126.887 139.49 126.1 139.49 125.06C139.49 124.033 139.277 123.253 138.85 122.72C138.423 122.173 137.81 121.9 137.01 121.9C136.21 121.9 135.59 122.173 135.15 122.72C134.723 123.253 134.51 124.033 134.51 125.06C134.51 126.1 134.723 126.887 135.15 127.42C135.577 127.953 136.19 128.22 136.99 128.22ZM155.674 119.98C156.741 119.98 157.554 120.3 158.114 120.94C158.687 121.567 158.974 122.587 158.974 124V128.92C158.974 129.307 158.854 129.607 158.614 129.82C158.387 130.02 158.087 130.12 157.714 130.12C157.354 130.12 157.054 130.02 156.814 129.82C156.587 129.607 156.474 129.307 156.474 128.92V124C156.474 123.267 156.341 122.747 156.074 122.44C155.821 122.12 155.427 121.96 154.894 121.96C154.241 121.96 153.721 122.187 153.334 122.64C152.947 123.08 152.754 123.687 152.754 124.46V128.92C152.754 129.307 152.634 129.607 152.394 129.82C152.167 130.02 151.874 130.12 151.514 130.12C151.154 130.12 150.854 130.02 150.614 129.82C150.374 129.607 150.254 129.307 150.254 128.92V124C150.254 123.267 150.121 122.747 149.854 122.44C149.601 122.12 149.207 121.96 148.674 121.96C148.021 121.96 147.501 122.187 147.114 122.64C146.741 123.08 146.554 123.687 146.554 124.46V128.92C146.554 129.307 146.434 129.607 146.194 129.82C145.954 130.02 145.654 130.12 145.294 130.12C144.934 130.12 144.634 130.02 144.394 129.82C144.167 129.607 144.054 129.307 144.054 128.92V121.18C144.054 120.807 144.174 120.52 144.414 120.32C144.654 120.12 144.954 120.02 145.314 120.02C145.661 120.02 145.941 120.12 146.154 120.32C146.381 120.507 146.494 120.78 146.494 121.14V121.62C146.801 121.087 147.207 120.68 147.714 120.4C148.234 120.12 148.827 119.98 149.494 119.98C150.961 119.98 151.941 120.593 152.434 121.82C152.727 121.26 153.161 120.813 153.734 120.48C154.307 120.147 154.954 119.98 155.674 119.98ZM173.135 119.98C174.202 119.98 175.015 120.3 175.575 120.94C176.148 121.567 176.435 122.587 176.435 124V128.92C176.435 129.307 176.315 129.607 176.075 129.82C175.848 130.02 175.548 130.12 175.175 130.12C174.815 130.12 174.515 130.02 174.275 129.82C174.048 129.607 173.935 129.307 173.935 128.92V124C173.935 123.267 173.802 122.747 173.535 122.44C173.282 122.12 172.888 121.96 172.355 121.96C171.702 121.96 171.182 122.187 170.795 122.64C170.408 123.08 170.215 123.687 170.215 124.46V128.92C170.215 129.307 170.095 129.607 169.855 129.82C169.628 130.02 169.335 130.12 168.975 130.12C168.615 130.12 168.315 130.02 168.075 129.82C167.835 129.607 167.715 129.307 167.715 128.92V124C167.715 123.267 167.582 122.747 167.315 122.44C167.062 122.12 166.668 121.96 166.135 121.96C165.482 121.96 164.962 122.187 164.575 122.64C164.202 123.08 164.015 123.687 164.015 124.46V128.92C164.015 129.307 163.895 129.607 163.655 129.82C163.415 130.02 163.115 130.12 162.755 130.12C162.395 130.12 162.095 130.02 161.855 129.82C161.628 129.607 161.515 129.307 161.515 128.92V121.18C161.515 120.807 161.635 120.52 161.875 120.32C162.115 120.12 162.415 120.02 162.775 120.02C163.122 120.02 163.402 120.12 163.615 120.32C163.842 120.507 163.955 120.78 163.955 121.14V121.62C164.262 121.087 164.668 120.68 165.175 120.4C165.695 120.12 166.288 119.98 166.955 119.98C168.422 119.98 169.402 120.593 169.895 121.82C170.188 121.26 170.622 120.813 171.195 120.48C171.768 120.147 172.415 119.98 173.135 119.98ZM186.716 127.32C186.942 127.32 187.122 127.407 187.256 127.58C187.402 127.753 187.476 127.987 187.476 128.28C187.476 128.693 187.229 129.04 186.736 129.32C186.282 129.573 185.769 129.78 185.196 129.94C184.622 130.087 184.076 130.16 183.556 130.16C181.982 130.16 180.736 129.707 179.816 128.8C178.896 127.893 178.436 126.653 178.436 125.08C178.436 124.08 178.636 123.193 179.036 122.42C179.436 121.647 179.996 121.047 180.716 120.62C181.449 120.193 182.276 119.98 183.196 119.98C184.076 119.98 184.842 120.173 185.496 120.56C186.149 120.947 186.656 121.493 187.016 122.2C187.376 122.907 187.556 123.74 187.556 124.7C187.556 125.273 187.302 125.56 186.796 125.56H180.896C180.976 126.48 181.236 127.16 181.676 127.6C182.116 128.027 182.756 128.24 183.596 128.24C184.022 128.24 184.396 128.187 184.716 128.08C185.049 127.973 185.422 127.827 185.836 127.64C186.236 127.427 186.529 127.32 186.716 127.32ZM183.256 121.74C182.576 121.74 182.029 121.953 181.616 122.38C181.216 122.807 180.976 123.42 180.896 124.22H185.416C185.389 123.407 185.189 122.793 184.816 122.38C184.442 121.953 183.922 121.74 183.256 121.74ZM195.061 120.02C195.407 119.993 195.681 120.067 195.881 120.24C196.081 120.413 196.181 120.673 196.181 121.02C196.181 121.38 196.094 121.647 195.921 121.82C195.747 121.993 195.434 122.107 194.981 122.16L194.381 122.22C193.594 122.3 193.014 122.567 192.641 123.02C192.281 123.473 192.101 124.04 192.101 124.72V128.92C192.101 129.307 191.981 129.607 191.741 129.82C191.501 130.02 191.201 130.12 190.841 130.12C190.481 130.12 190.181 130.02 189.941 129.82C189.714 129.607 189.601 129.307 189.601 128.92V121.18C189.601 120.807 189.714 120.52 189.941 120.32C190.181 120.12 190.474 120.02 190.821 120.02C191.167 120.02 191.447 120.12 191.661 120.32C191.874 120.507 191.981 120.78 191.981 121.14V121.94C192.234 121.353 192.607 120.9 193.101 120.58C193.607 120.26 194.167 120.08 194.781 120.04L195.061 120.02ZM201.402 130.16C200.428 130.16 199.568 129.953 198.822 129.54C198.088 129.127 197.522 128.54 197.122 127.78C196.722 127.02 196.522 126.133 196.522 125.12C196.522 124.107 196.728 123.213 197.142 122.44C197.568 121.653 198.162 121.047 198.922 120.62C199.682 120.193 200.555 119.98 201.542 119.98C202.062 119.98 202.582 120.053 203.102 120.2C203.635 120.347 204.102 120.547 204.502 120.8C204.928 121.08 205.142 121.433 205.142 121.86C205.142 122.153 205.068 122.393 204.922 122.58C204.788 122.753 204.608 122.84 204.382 122.84C204.235 122.84 204.082 122.807 203.922 122.74C203.762 122.673 203.602 122.593 203.442 122.5C203.148 122.327 202.868 122.193 202.602 122.1C202.335 121.993 202.028 121.94 201.682 121.94C200.855 121.94 200.215 122.213 199.762 122.76C199.322 123.293 199.102 124.067 199.102 125.08C199.102 126.08 199.322 126.853 199.762 127.4C200.215 127.933 200.855 128.2 201.682 128.2C202.015 128.2 202.308 128.153 202.562 128.06C202.828 127.953 203.122 127.813 203.442 127.64C203.642 127.52 203.815 127.433 203.962 127.38C204.108 127.313 204.255 127.28 204.402 127.28C204.615 127.28 204.795 127.373 204.942 127.56C205.088 127.747 205.162 127.98 205.162 128.26C205.162 128.487 205.108 128.687 205.002 128.86C204.908 129.02 204.748 129.167 204.522 129.3C204.108 129.567 203.628 129.78 203.082 129.94C202.535 130.087 201.975 130.16 201.402 130.16ZM214.567 127.32C214.794 127.32 214.974 127.407 215.107 127.58C215.254 127.753 215.327 127.987 215.327 128.28C215.327 128.693 215.081 129.04 214.587 129.32C214.134 129.573 213.621 129.78 213.047 129.94C212.474 130.087 211.927 130.16 211.407 130.16C209.834 130.16 208.587 129.707 207.667 128.8C206.747 127.893 206.287 126.653 206.287 125.08C206.287 124.08 206.487 123.193 206.887 122.42C207.287 121.647 207.847 121.047 208.567 120.62C209.301 120.193 210.127 119.98 211.047 119.98C211.927 119.98 212.694 120.173 213.347 120.56C214.001 120.947 214.507 121.493 214.867 122.2C215.227 122.907 215.407 123.74 215.407 124.7C215.407 125.273 215.154 125.56 214.647 125.56H208.747C208.827 126.48 209.087 127.16 209.527 127.6C209.967 128.027 210.607 128.24 211.447 128.24C211.874 128.24 212.247 128.187 212.567 128.08C212.901 127.973 213.274 127.827 213.687 127.64C214.087 127.427 214.381 127.32 214.567 127.32ZM211.107 121.74C210.427 121.74 209.881 121.953 209.467 122.38C209.067 122.807 208.827 123.42 208.747 124.22H213.267C213.241 123.407 213.041 122.793 212.667 122.38C212.294 121.953 211.774 121.74 211.107 121.74Z" fill="white"/>
<path d="M18.6596 164.602C18.8196 164.602 18.9476 164.65 19.0436 164.746C19.1502 164.842 19.2036 164.976 19.2036 165.146V169.13C19.2036 169.386 19.1609 169.578 19.0756 169.706C19.0009 169.834 18.8569 169.936 18.6436 170.01C18.2169 170.192 17.6996 170.336 17.0916 170.442C16.4836 170.549 15.8756 170.602 15.2676 170.602C14.1476 170.602 13.1822 170.373 12.3716 169.914C11.5609 169.456 10.9369 168.794 10.4996 167.93C10.0729 167.066 9.85957 166.032 9.85957 164.826C9.85957 163.642 10.0729 162.618 10.4996 161.754C10.9262 160.89 11.5396 160.229 12.3396 159.77C13.1396 159.301 14.0782 159.066 15.1556 159.066C15.9022 159.066 16.5956 159.184 17.2356 159.418C17.8756 159.642 18.4142 159.968 18.8516 160.394C19.0329 160.576 19.1236 160.762 19.1236 160.954C19.1236 161.104 19.0809 161.237 18.9956 161.354C18.9102 161.461 18.8036 161.514 18.6756 161.514C18.5476 161.514 18.3982 161.45 18.2276 161.322C17.6729 160.896 17.1716 160.602 16.7236 160.442C16.2756 160.272 15.7582 160.186 15.1716 160.186C13.9022 160.186 12.9262 160.586 12.2436 161.386C11.5716 162.186 11.2356 163.333 11.2356 164.826C11.2356 166.352 11.5769 167.514 12.2596 168.314C12.9529 169.104 13.9662 169.498 15.2996 169.498C16.2916 169.498 17.1929 169.349 18.0036 169.05V165.626H15.6676C15.4862 165.626 15.3422 165.578 15.2356 165.482C15.1289 165.386 15.0756 165.264 15.0756 165.114C15.0756 164.954 15.1289 164.832 15.2356 164.746C15.3422 164.65 15.4862 164.602 15.6676 164.602H18.6596ZM27.6937 168.666C27.811 168.666 27.9124 168.714 27.9977 168.81C28.083 168.906 28.1257 169.029 28.1257 169.178C28.1257 169.445 27.939 169.69 27.5657 169.914C27.1817 170.138 26.7764 170.309 26.3497 170.426C25.923 170.533 25.507 170.586 25.1017 170.586C23.8964 170.586 22.9417 170.229 22.2377 169.514C21.5444 168.8 21.1977 167.813 21.1977 166.554C21.1977 165.754 21.3524 165.05 21.6617 164.442C21.971 163.824 22.403 163.344 22.9577 163.002C23.523 162.661 24.163 162.49 24.8777 162.49C25.891 162.49 26.6964 162.821 27.2937 163.482C27.891 164.144 28.1897 165.04 28.1897 166.17C28.1897 166.384 28.147 166.538 28.0617 166.634C27.9764 166.73 27.8377 166.778 27.6457 166.778H22.4937C22.5897 168.613 23.459 169.53 25.1017 169.53C25.5177 169.53 25.875 169.477 26.1737 169.37C26.4724 169.253 26.7924 169.098 27.1337 168.906C27.411 168.746 27.5977 168.666 27.6937 168.666ZM24.8937 163.498C24.211 163.498 23.6617 163.712 23.2457 164.138C22.8404 164.565 22.6004 165.168 22.5257 165.946H27.0537C27.0324 165.157 26.835 164.554 26.4617 164.138C26.0884 163.712 25.5657 163.498 24.8937 163.498ZM32.7232 170.586C32.2325 170.586 31.7632 170.528 31.3152 170.41C30.8779 170.293 30.4885 170.128 30.1472 169.914C29.9552 169.786 29.8165 169.669 29.7312 169.562C29.6565 169.445 29.6192 169.306 29.6192 169.146C29.6192 169.008 29.6565 168.896 29.7312 168.81C29.8165 168.714 29.9232 168.666 30.0512 168.666C30.1792 168.666 30.3659 168.746 30.6112 168.906C30.9312 169.098 31.2459 169.253 31.5552 169.37C31.8752 169.477 32.2699 169.53 32.7392 169.53C33.3152 169.53 33.7632 169.429 34.0832 169.226C34.4032 169.024 34.5632 168.73 34.5632 168.346C34.5632 168.112 34.5045 167.925 34.3872 167.786C34.2699 167.637 34.0672 167.509 33.7792 167.402C33.4912 167.285 33.0699 167.168 32.5152 167.05C31.5765 166.848 30.9045 166.576 30.4992 166.234C30.0939 165.893 29.8912 165.429 29.8912 164.842C29.8912 164.384 30.0192 163.978 30.2752 163.626C30.5312 163.274 30.8832 162.997 31.3312 162.794C31.7899 162.592 32.3072 162.49 32.8832 162.49C33.2992 162.49 33.6992 162.549 34.0832 162.666C34.4779 162.773 34.8245 162.928 35.1232 163.13C35.4859 163.386 35.6672 163.653 35.6672 163.93C35.6672 164.069 35.6245 164.186 35.5392 164.282C35.4539 164.378 35.3525 164.426 35.2352 164.426C35.1072 164.426 34.9152 164.336 34.6592 164.154C34.3605 163.962 34.0779 163.813 33.8112 163.706C33.5445 163.6 33.2139 163.546 32.8192 163.546C32.3179 163.546 31.9125 163.658 31.6032 163.882C31.3045 164.106 31.1552 164.405 31.1552 164.778C31.1552 165.013 31.2085 165.205 31.3152 165.354C31.4325 165.493 31.6192 165.621 31.8752 165.738C32.1419 165.845 32.5205 165.952 33.0112 166.058C33.7365 166.218 34.2965 166.394 34.6912 166.586C35.0965 166.778 35.3845 167.013 35.5552 167.29C35.7259 167.568 35.8112 167.92 35.8112 168.346C35.8112 169.018 35.5285 169.562 34.9632 169.978C34.3979 170.384 33.6512 170.586 32.7232 170.586ZM41.3086 169.53C41.6819 169.562 41.8686 169.733 41.8686 170.042C41.8686 170.224 41.7992 170.362 41.6606 170.458C41.5326 170.544 41.3352 170.576 41.0686 170.554L40.6366 170.522C39.7832 170.458 39.1539 170.202 38.7486 169.754C38.3432 169.306 38.1406 168.629 38.1406 167.722V163.706H37.0686C36.8872 163.706 36.7432 163.664 36.6366 163.578C36.5406 163.482 36.4926 163.36 36.4926 163.21C36.4926 163.05 36.5406 162.922 36.6366 162.826C36.7432 162.73 36.8872 162.682 37.0686 162.682H38.1406V160.874C38.1406 160.672 38.1992 160.517 38.3166 160.41C38.4339 160.293 38.5939 160.234 38.7966 160.234C38.9886 160.234 39.1432 160.293 39.2606 160.41C39.3779 160.517 39.4366 160.672 39.4366 160.874V162.682H41.2126C41.3832 162.682 41.5166 162.73 41.6126 162.826C41.7192 162.922 41.7726 163.05 41.7726 163.21C41.7726 163.36 41.7192 163.482 41.6126 163.578C41.5166 163.664 41.3832 163.706 41.2126 163.706H39.4366V167.786C39.4366 168.373 39.5539 168.8 39.7886 169.066C40.0339 169.322 40.3966 169.466 40.8766 169.498L41.3086 169.53ZM43.8021 170.554C43.6101 170.554 43.4501 170.501 43.3221 170.394C43.2047 170.277 43.1461 170.117 43.1461 169.914V163.162C43.1461 162.96 43.2047 162.805 43.3221 162.698C43.4501 162.581 43.6101 162.522 43.8021 162.522C43.9941 162.522 44.1487 162.581 44.2661 162.698C44.3834 162.805 44.4421 162.96 44.4421 163.162V169.914C44.4421 170.128 44.3834 170.288 44.2661 170.394C44.1487 170.501 43.9941 170.554 43.8021 170.554ZM43.8021 160.842C43.5461 160.842 43.3381 160.768 43.1781 160.618C43.0181 160.469 42.9381 160.272 42.9381 160.026C42.9381 159.792 43.0181 159.6 43.1781 159.45C43.3381 159.301 43.5461 159.226 43.8021 159.226C44.0581 159.226 44.2661 159.301 44.4261 159.45C44.5861 159.6 44.6661 159.792 44.6661 160.026C44.6661 160.272 44.5861 160.469 44.4261 160.618C44.2661 160.768 44.0581 160.842 43.8021 160.842ZM50.0968 170.586C49.3608 170.586 48.7102 170.421 48.1448 170.09C47.5902 169.76 47.1582 169.29 46.8488 168.682C46.5502 168.064 46.4008 167.349 46.4008 166.538C46.4008 165.728 46.5502 165.018 46.8488 164.41C47.1582 163.792 47.5902 163.317 48.1448 162.986C48.7102 162.656 49.3608 162.49 50.0968 162.49C50.8328 162.49 51.4835 162.656 52.0488 162.986C52.6142 163.317 53.0462 163.792 53.3448 164.41C53.6542 165.018 53.8088 165.728 53.8088 166.538C53.8088 167.349 53.6542 168.064 53.3448 168.682C53.0462 169.29 52.6142 169.76 52.0488 170.09C51.4835 170.421 50.8328 170.586 50.0968 170.586ZM50.0968 169.514C50.8648 169.514 51.4515 169.264 51.8568 168.762C52.2728 168.25 52.4808 167.509 52.4808 166.538C52.4808 165.589 52.2728 164.858 51.8568 164.346C51.4408 163.824 50.8542 163.562 50.0968 163.562C49.3395 163.562 48.7528 163.824 48.3368 164.346C47.9208 164.858 47.7128 165.589 47.7128 166.538C47.7128 167.498 47.9155 168.234 48.3208 168.746C48.7368 169.258 49.3288 169.514 50.0968 169.514ZM59.6598 162.49C61.5265 162.49 62.4598 163.52 62.4598 165.578V169.914C62.4598 170.117 62.4012 170.277 62.2838 170.394C62.1772 170.501 62.0225 170.554 61.8198 170.554C61.6172 170.554 61.4572 170.501 61.3398 170.394C61.2225 170.277 61.1638 170.117 61.1638 169.914V165.658C61.1638 164.933 61.0198 164.405 60.7318 164.074C60.4545 163.744 60.0065 163.578 59.3878 163.578C58.6732 163.578 58.1025 163.797 57.6758 164.234C57.2492 164.672 57.0358 165.264 57.0358 166.01V169.914C57.0358 170.117 56.9772 170.277 56.8598 170.394C56.7532 170.501 56.5985 170.554 56.3958 170.554C56.1932 170.554 56.0332 170.501 55.9158 170.394C55.7985 170.277 55.7398 170.117 55.7398 169.914V163.162C55.7398 162.97 55.7985 162.816 55.9158 162.698C56.0332 162.581 56.1932 162.522 56.3958 162.522C56.5878 162.522 56.7372 162.581 56.8438 162.698C56.9612 162.816 57.0198 162.965 57.0198 163.146V163.962C57.2758 163.482 57.6332 163.12 58.0918 162.874C58.5505 162.618 59.0732 162.49 59.6598 162.49ZM68.0176 162.49C69.9696 162.49 70.9456 163.514 70.9456 165.562V169.914C70.9456 170.106 70.8869 170.261 70.7696 170.378C70.6629 170.496 70.5136 170.554 70.3216 170.554C70.1296 170.554 69.9749 170.496 69.8576 170.378C69.7402 170.261 69.6816 170.106 69.6816 169.914V169.146C69.4789 169.605 69.1696 169.962 68.7536 170.218C68.3376 170.464 67.8576 170.586 67.3136 170.586C66.8122 170.586 66.3482 170.485 65.9216 170.282C65.5056 170.08 65.1749 169.797 64.9296 169.434C64.6842 169.072 64.5616 168.672 64.5616 168.234C64.5616 167.648 64.7109 167.194 65.0096 166.874C65.3082 166.544 65.7989 166.309 66.4816 166.17C67.1642 166.021 68.1136 165.946 69.3296 165.946H69.6816V165.418C69.6816 164.778 69.5482 164.309 69.2816 164.01C69.0256 163.712 68.6042 163.562 68.0176 163.562C67.2922 163.562 66.5562 163.76 65.8096 164.154C65.5216 164.336 65.3189 164.426 65.2016 164.426C65.0736 164.426 64.9669 164.378 64.8816 164.282C64.7962 164.186 64.7536 164.064 64.7536 163.914C64.7536 163.765 64.7962 163.637 64.8816 163.53C64.9776 163.413 65.1269 163.296 65.3296 163.178C65.7029 162.965 66.1242 162.8 66.5936 162.682C67.0736 162.554 67.5482 162.49 68.0176 162.49ZM67.4896 169.562C68.1296 169.562 68.6522 169.349 69.0576 168.922C69.4736 168.485 69.6816 167.925 69.6816 167.242V166.778H69.3936C68.4549 166.778 67.7402 166.821 67.2496 166.906C66.7589 166.981 66.4069 167.114 66.1936 167.306C65.9909 167.488 65.8896 167.76 65.8896 168.122C65.8896 168.538 66.0389 168.885 66.3376 169.162C66.6469 169.429 67.0309 169.562 67.4896 169.562ZM81.9899 162.49C83.7179 162.49 84.5819 163.52 84.5819 165.578V169.914C84.5819 170.117 84.5233 170.277 84.4059 170.394C84.2886 170.501 84.1339 170.554 83.9419 170.554C83.7499 170.554 83.5899 170.501 83.4619 170.394C83.3446 170.277 83.2859 170.117 83.2859 169.914V165.61C83.2859 164.896 83.1579 164.378 82.9019 164.058C82.6459 163.738 82.2459 163.578 81.7019 163.578C81.0513 163.578 80.5393 163.797 80.1659 164.234C79.7926 164.672 79.6059 165.264 79.6059 166.01V169.914C79.6059 170.117 79.5419 170.277 79.4139 170.394C79.2966 170.501 79.1419 170.554 78.9499 170.554C78.7579 170.554 78.6033 170.501 78.4859 170.394C78.3686 170.277 78.3099 170.117 78.3099 169.914V165.61C78.3099 164.896 78.1819 164.378 77.9259 164.058C77.6699 163.738 77.2646 163.578 76.7099 163.578C76.0699 163.578 75.5579 163.797 75.1739 164.234C74.8006 164.672 74.6139 165.264 74.6139 166.01V169.914C74.6139 170.117 74.5553 170.277 74.4379 170.394C74.3206 170.501 74.1659 170.554 73.9739 170.554C73.7819 170.554 73.6219 170.501 73.4939 170.394C73.3766 170.277 73.3179 170.117 73.3179 169.914V163.162C73.3179 162.97 73.3766 162.816 73.4939 162.698C73.6219 162.581 73.7819 162.522 73.9739 162.522C74.1553 162.522 74.3046 162.581 74.4219 162.698C74.5393 162.805 74.5979 162.954 74.5979 163.146V163.914C74.8326 163.456 75.1579 163.104 75.5739 162.858C75.9899 162.613 76.4699 162.49 77.0139 162.49C78.2299 162.49 79.0246 163.002 79.3979 164.026C79.6219 163.557 79.9633 163.184 80.4219 162.906C80.8806 162.629 81.4033 162.49 81.9899 162.49ZM90.1749 170.586C89.4389 170.586 88.7883 170.421 88.2229 170.09C87.6683 169.76 87.2363 169.29 86.9269 168.682C86.6283 168.064 86.4789 167.349 86.4789 166.538C86.4789 165.728 86.6283 165.018 86.9269 164.41C87.2363 163.792 87.6683 163.317 88.2229 162.986C88.7883 162.656 89.4389 162.49 90.1749 162.49C90.9109 162.49 91.5616 162.656 92.1269 162.986C92.6923 163.317 93.1243 163.792 93.4229 164.41C93.7323 165.018 93.8869 165.728 93.8869 166.538C93.8869 167.349 93.7323 168.064 93.4229 168.682C93.1243 169.29 92.6923 169.76 92.1269 170.09C91.5616 170.421 90.9109 170.586 90.1749 170.586ZM90.1749 169.514C90.9429 169.514 91.5296 169.264 91.9349 168.762C92.3509 168.25 92.5589 167.509 92.5589 166.538C92.5589 165.589 92.3509 164.858 91.9349 164.346C91.5189 163.824 90.9323 163.562 90.1749 163.562C89.4176 163.562 88.8309 163.824 88.4149 164.346C87.9989 164.858 87.7909 165.589 87.7909 166.538C87.7909 167.498 87.9936 168.234 88.3989 168.746C88.8149 169.258 89.4069 169.514 90.1749 169.514ZM98.4419 170.586C97.9513 170.586 97.4819 170.528 97.0339 170.41C96.5966 170.293 96.2073 170.128 95.8659 169.914C95.6739 169.786 95.5353 169.669 95.4499 169.562C95.3753 169.445 95.3379 169.306 95.3379 169.146C95.3379 169.008 95.3753 168.896 95.4499 168.81C95.5353 168.714 95.6419 168.666 95.7699 168.666C95.8979 168.666 96.0846 168.746 96.3299 168.906C96.6499 169.098 96.9646 169.253 97.2739 169.37C97.5939 169.477 97.9886 169.53 98.4579 169.53C99.0339 169.53 99.4819 169.429 99.8019 169.226C100.122 169.024 100.282 168.73 100.282 168.346C100.282 168.112 100.223 167.925 100.106 167.786C99.9886 167.637 99.7859 167.509 99.4979 167.402C99.2099 167.285 98.7886 167.168 98.2339 167.05C97.2953 166.848 96.6233 166.576 96.2179 166.234C95.8126 165.893 95.6099 165.429 95.6099 164.842C95.6099 164.384 95.7379 163.978 95.9939 163.626C96.2499 163.274 96.6019 162.997 97.0499 162.794C97.5086 162.592 98.0259 162.49 98.6019 162.49C99.0179 162.49 99.4179 162.549 99.8019 162.666C100.197 162.773 100.543 162.928 100.842 163.13C101.205 163.386 101.386 163.653 101.386 163.93C101.386 164.069 101.343 164.186 101.258 164.282C101.173 164.378 101.071 164.426 100.954 164.426C100.826 164.426 100.634 164.336 100.378 164.154C100.079 163.962 99.7966 163.813 99.5299 163.706C99.2633 163.6 98.9326 163.546 98.5379 163.546C98.0366 163.546 97.6313 163.658 97.3219 163.882C97.0233 164.106 96.8739 164.405 96.8739 164.778C96.8739 165.013 96.9273 165.205 97.0339 165.354C97.1513 165.493 97.3379 165.621 97.5939 165.738C97.8606 165.845 98.2393 165.952 98.7299 166.058C99.4553 166.218 100.015 166.394 100.41 166.586C100.815 166.778 101.103 167.013 101.274 167.29C101.445 167.568 101.53 167.92 101.53 168.346C101.53 169.018 101.247 169.562 100.682 169.978C100.117 170.384 99.3699 170.586 98.4419 170.586ZM108.286 170.554C108.094 170.554 107.934 170.501 107.806 170.394C107.689 170.277 107.63 170.117 107.63 169.914V159.754C107.63 159.552 107.689 159.397 107.806 159.29C107.934 159.173 108.094 159.114 108.286 159.114C108.468 159.114 108.617 159.173 108.734 159.29C108.862 159.397 108.926 159.552 108.926 159.754V169.914C108.926 170.117 108.862 170.277 108.734 170.394C108.617 170.501 108.468 170.554 108.286 170.554ZM114.533 162.49C116.485 162.49 117.461 163.514 117.461 165.562V169.914C117.461 170.106 117.403 170.261 117.285 170.378C117.179 170.496 117.029 170.554 116.837 170.554C116.645 170.554 116.491 170.496 116.373 170.378C116.256 170.261 116.197 170.106 116.197 169.914V169.146C115.995 169.605 115.685 169.962 115.269 170.218C114.853 170.464 114.373 170.586 113.829 170.586C113.328 170.586 112.864 170.485 112.437 170.282C112.021 170.08 111.691 169.797 111.445 169.434C111.2 169.072 111.077 168.672 111.077 168.234C111.077 167.648 111.227 167.194 111.525 166.874C111.824 166.544 112.315 166.309 112.997 166.17C113.68 166.021 114.629 165.946 115.845 165.946H116.197V165.418C116.197 164.778 116.064 164.309 115.797 164.01C115.541 163.712 115.12 163.562 114.533 163.562C113.808 163.562 113.072 163.76 112.325 164.154C112.037 164.336 111.835 164.426 111.717 164.426C111.589 164.426 111.483 164.378 111.397 164.282C111.312 164.186 111.269 164.064 111.269 163.914C111.269 163.765 111.312 163.637 111.397 163.53C111.493 163.413 111.643 163.296 111.845 163.178C112.219 162.965 112.64 162.8 113.109 162.682C113.589 162.554 114.064 162.49 114.533 162.49ZM114.005 169.562C114.645 169.562 115.168 169.349 115.573 168.922C115.989 168.485 116.197 167.925 116.197 167.242V166.778H115.909C114.971 166.778 114.256 166.821 113.765 166.906C113.275 166.981 112.923 167.114 112.709 167.306C112.507 167.488 112.405 167.76 112.405 168.122C112.405 168.538 112.555 168.885 112.853 169.162C113.163 169.429 113.547 169.562 114.005 169.562ZM124.615 170.554C124.423 170.554 124.263 170.501 124.135 170.394C124.017 170.277 123.959 170.117 123.959 169.914V159.754C123.959 159.552 124.017 159.397 124.135 159.29C124.263 159.173 124.423 159.114 124.615 159.114C124.796 159.114 124.945 159.173 125.063 159.29C125.191 159.397 125.255 159.552 125.255 159.754V169.914C125.255 170.117 125.191 170.277 125.063 170.394C124.945 170.501 124.796 170.554 124.615 170.554ZM130.909 170.586C130.173 170.586 129.523 170.421 128.957 170.09C128.403 169.76 127.971 169.29 127.661 168.682C127.363 168.064 127.213 167.349 127.213 166.538C127.213 165.728 127.363 165.018 127.661 164.41C127.971 163.792 128.403 163.317 128.957 162.986C129.523 162.656 130.173 162.49 130.909 162.49C131.645 162.49 132.296 162.656 132.861 162.986C133.427 163.317 133.859 163.792 134.157 164.41C134.467 165.018 134.621 165.728 134.621 166.538C134.621 167.349 134.467 168.064 134.157 168.682C133.859 169.29 133.427 169.76 132.861 170.09C132.296 170.421 131.645 170.586 130.909 170.586ZM130.909 169.514C131.677 169.514 132.264 169.264 132.669 168.762C133.085 168.25 133.293 167.509 133.293 166.538C133.293 165.589 133.085 164.858 132.669 164.346C132.253 163.824 131.667 163.562 130.909 163.562C130.152 163.562 129.565 163.824 129.149 164.346C128.733 164.858 128.525 165.589 128.525 166.538C128.525 167.498 128.728 168.234 129.133 168.746C129.549 169.258 130.141 169.514 130.909 169.514ZM142.872 162.522C143.075 162.522 143.235 162.581 143.352 162.698C143.47 162.816 143.528 162.97 143.528 163.162V169.946C143.528 171.109 143.23 171.984 142.632 172.57C142.035 173.168 141.15 173.466 139.976 173.466C138.835 173.466 137.886 173.242 137.128 172.794C136.744 172.581 136.552 172.336 136.552 172.058C136.552 171.909 136.59 171.786 136.664 171.69C136.75 171.594 136.856 171.546 136.984 171.546C137.091 171.546 137.283 171.621 137.56 171.77C137.934 171.962 138.302 172.117 138.664 172.234C139.027 172.352 139.459 172.41 139.96 172.41C140.718 172.41 141.288 172.208 141.672 171.802C142.056 171.408 142.248 170.826 142.248 170.058V168.682C142.024 169.184 141.678 169.568 141.208 169.834C140.75 170.101 140.206 170.234 139.576 170.234C138.894 170.234 138.286 170.074 137.752 169.754C137.23 169.434 136.819 168.981 136.52 168.394C136.232 167.808 136.088 167.13 136.088 166.362C136.088 165.594 136.232 164.917 136.52 164.33C136.819 163.744 137.23 163.29 137.752 162.97C138.286 162.65 138.894 162.49 139.576 162.49C140.195 162.49 140.734 162.624 141.192 162.89C141.651 163.157 141.998 163.536 142.232 164.026V163.162C142.232 162.97 142.286 162.816 142.392 162.698C142.51 162.581 142.67 162.522 142.872 162.522ZM139.832 169.162C140.579 169.162 141.166 168.917 141.592 168.426C142.019 167.925 142.232 167.237 142.232 166.362C142.232 165.498 142.019 164.821 141.592 164.33C141.176 163.829 140.59 163.578 139.832 163.578C139.075 163.578 138.478 163.829 138.04 164.33C137.614 164.821 137.4 165.498 137.4 166.362C137.4 167.237 137.614 167.925 138.04 168.426C138.478 168.917 139.075 169.162 139.832 169.162ZM146.583 170.554C146.391 170.554 146.231 170.501 146.103 170.394C145.986 170.277 145.927 170.117 145.927 169.914V163.162C145.927 162.96 145.986 162.805 146.103 162.698C146.231 162.581 146.391 162.522 146.583 162.522C146.775 162.522 146.93 162.581 147.047 162.698C147.165 162.805 147.223 162.96 147.223 163.162V169.914C147.223 170.128 147.165 170.288 147.047 170.394C146.93 170.501 146.775 170.554 146.583 170.554ZM146.871 161.642C146.786 161.706 146.701 161.738 146.615 161.738C146.509 161.738 146.418 161.706 146.343 161.642C146.269 161.568 146.231 161.482 146.231 161.386C146.231 161.301 146.263 161.221 146.327 161.146L148.183 158.714C148.375 158.469 148.594 158.346 148.839 158.346C149.01 158.346 149.154 158.405 149.271 158.522C149.389 158.629 149.447 158.768 149.447 158.938C149.447 159.162 149.341 159.365 149.127 159.546L146.871 161.642ZM152.27 170.586C151.779 170.586 151.31 170.528 150.862 170.41C150.425 170.293 150.035 170.128 149.694 169.914C149.502 169.786 149.363 169.669 149.278 169.562C149.203 169.445 149.166 169.306 149.166 169.146C149.166 169.008 149.203 168.896 149.278 168.81C149.363 168.714 149.47 168.666 149.598 168.666C149.726 168.666 149.913 168.746 150.158 168.906C150.478 169.098 150.793 169.253 151.102 169.37C151.422 169.477 151.817 169.53 152.286 169.53C152.862 169.53 153.31 169.429 153.63 169.226C153.95 169.024 154.11 168.73 154.11 168.346C154.11 168.112 154.051 167.925 153.934 167.786C153.817 167.637 153.614 167.509 153.326 167.402C153.038 167.285 152.617 167.168 152.062 167.05C151.123 166.848 150.451 166.576 150.046 166.234C149.641 165.893 149.438 165.429 149.438 164.842C149.438 164.384 149.566 163.978 149.822 163.626C150.078 163.274 150.43 162.997 150.878 162.794C151.337 162.592 151.854 162.49 152.43 162.49C152.846 162.49 153.246 162.549 153.63 162.666C154.025 162.773 154.371 162.928 154.67 163.13C155.033 163.386 155.214 163.653 155.214 163.93C155.214 164.069 155.171 164.186 155.086 164.282C155.001 164.378 154.899 164.426 154.782 164.426C154.654 164.426 154.462 164.336 154.206 164.154C153.907 163.962 153.625 163.813 153.358 163.706C153.091 163.6 152.761 163.546 152.366 163.546C151.865 163.546 151.459 163.658 151.15 163.882C150.851 164.106 150.702 164.405 150.702 164.778C150.702 165.013 150.755 165.205 150.862 165.354C150.979 165.493 151.166 165.621 151.422 165.738C151.689 165.845 152.067 165.952 152.558 166.058C153.283 166.218 153.843 166.394 154.238 166.586C154.643 166.778 154.931 167.013 155.102 167.29C155.273 167.568 155.358 167.92 155.358 168.346C155.358 169.018 155.075 169.562 154.51 169.978C153.945 170.384 153.198 170.586 152.27 170.586ZM160.855 169.53C161.229 169.562 161.415 169.733 161.415 170.042C161.415 170.224 161.346 170.362 161.207 170.458C161.079 170.544 160.882 170.576 160.615 170.554L160.183 170.522C159.33 170.458 158.701 170.202 158.295 169.754C157.89 169.306 157.687 168.629 157.687 167.722V163.706H156.615C156.434 163.706 156.29 163.664 156.183 163.578C156.087 163.482 156.039 163.36 156.039 163.21C156.039 163.05 156.087 162.922 156.183 162.826C156.29 162.73 156.434 162.682 156.615 162.682H157.687V160.874C157.687 160.672 157.746 160.517 157.863 160.41C157.981 160.293 158.141 160.234 158.343 160.234C158.535 160.234 158.69 160.293 158.807 160.41C158.925 160.517 158.983 160.672 158.983 160.874V162.682H160.759C160.93 162.682 161.063 162.73 161.159 162.826C161.266 162.922 161.319 163.05 161.319 163.21C161.319 163.36 161.266 163.482 161.159 163.578C161.063 163.664 160.93 163.706 160.759 163.706H158.983V167.786C158.983 168.373 159.101 168.8 159.335 169.066C159.581 169.322 159.943 169.466 160.423 169.498L160.855 169.53ZM163.349 170.554C163.157 170.554 162.997 170.501 162.869 170.394C162.752 170.277 162.693 170.117 162.693 169.914V163.162C162.693 162.96 162.752 162.805 162.869 162.698C162.997 162.581 163.157 162.522 163.349 162.522C163.541 162.522 163.696 162.581 163.813 162.698C163.93 162.805 163.989 162.96 163.989 163.162V169.914C163.989 170.128 163.93 170.288 163.813 170.394C163.696 170.501 163.541 170.554 163.349 170.554ZM163.349 160.842C163.093 160.842 162.885 160.768 162.725 160.618C162.565 160.469 162.485 160.272 162.485 160.026C162.485 159.792 162.565 159.6 162.725 159.45C162.885 159.301 163.093 159.226 163.349 159.226C163.605 159.226 163.813 159.301 163.973 159.45C164.133 159.6 164.213 159.792 164.213 160.026C164.213 160.272 164.133 160.469 163.973 160.618C163.813 160.768 163.605 160.842 163.349 160.842ZM169.628 170.586C168.902 170.586 168.257 170.421 167.692 170.09C167.137 169.76 166.705 169.29 166.396 168.682C166.097 168.074 165.948 167.37 165.948 166.57C165.948 165.77 166.102 165.061 166.412 164.442C166.732 163.824 167.174 163.344 167.74 163.002C168.305 162.661 168.956 162.49 169.692 162.49C170.097 162.49 170.497 162.549 170.892 162.666C171.297 162.773 171.649 162.933 171.948 163.146C172.14 163.274 172.273 163.402 172.348 163.53C172.433 163.648 172.476 163.781 172.476 163.93C172.476 164.08 172.433 164.202 172.348 164.298C172.273 164.394 172.172 164.442 172.044 164.442C171.969 164.442 171.889 164.421 171.804 164.378C171.718 164.336 171.644 164.293 171.58 164.25C171.526 164.208 171.489 164.181 171.468 164.17C171.19 163.989 170.924 163.845 170.668 163.738C170.422 163.632 170.118 163.578 169.756 163.578C168.977 163.578 168.369 163.845 167.932 164.378C167.505 164.901 167.292 165.632 167.292 166.57C167.292 167.509 167.505 168.234 167.932 168.746C168.369 169.258 168.977 169.514 169.756 169.514C170.118 169.514 170.428 169.461 170.684 169.354C170.95 169.248 171.217 169.104 171.484 168.922C171.601 168.848 171.713 168.784 171.82 168.73C171.926 168.677 172.017 168.65 172.092 168.65C172.209 168.65 172.305 168.698 172.38 168.794C172.465 168.89 172.508 169.013 172.508 169.162C172.508 169.301 172.47 169.429 172.396 169.546C172.321 169.653 172.182 169.776 171.98 169.914C171.681 170.117 171.318 170.282 170.892 170.41C170.476 170.528 170.054 170.586 169.628 170.586ZM177.252 162.49C179.204 162.49 180.18 163.514 180.18 165.562V169.914C180.18 170.106 180.121 170.261 180.004 170.378C179.897 170.496 179.748 170.554 179.556 170.554C179.364 170.554 179.209 170.496 179.092 170.378C178.975 170.261 178.916 170.106 178.916 169.914V169.146C178.713 169.605 178.404 169.962 177.988 170.218C177.572 170.464 177.092 170.586 176.548 170.586C176.047 170.586 175.583 170.485 175.156 170.282C174.74 170.08 174.409 169.797 174.164 169.434C173.919 169.072 173.796 168.672 173.796 168.234C173.796 167.648 173.945 167.194 174.244 166.874C174.543 166.544 175.033 166.309 175.716 166.17C176.399 166.021 177.348 165.946 178.564 165.946H178.916V165.418C178.916 164.778 178.783 164.309 178.516 164.01C178.26 163.712 177.839 163.562 177.252 163.562C176.527 163.562 175.791 163.76 175.044 164.154C174.756 164.336 174.553 164.426 174.436 164.426C174.308 164.426 174.201 164.378 174.116 164.282C174.031 164.186 173.988 164.064 173.988 163.914C173.988 163.765 174.031 163.637 174.116 163.53C174.212 163.413 174.361 163.296 174.564 163.178C174.937 162.965 175.359 162.8 175.828 162.682C176.308 162.554 176.783 162.49 177.252 162.49ZM176.724 169.562C177.364 169.562 177.887 169.349 178.292 168.922C178.708 168.485 178.916 167.925 178.916 167.242V166.778H178.628C177.689 166.778 176.975 166.821 176.484 166.906C175.993 166.981 175.641 167.114 175.428 167.306C175.225 167.488 175.124 167.76 175.124 168.122C175.124 168.538 175.273 168.885 175.572 169.162C175.881 169.429 176.265 169.562 176.724 169.562ZM192.933 159.114C193.136 159.114 193.296 159.173 193.413 159.29C193.531 159.408 193.589 159.557 193.589 159.738V169.914C193.589 170.106 193.531 170.261 193.413 170.378C193.296 170.496 193.136 170.554 192.933 170.554C192.731 170.554 192.571 170.496 192.453 170.378C192.347 170.261 192.293 170.106 192.293 169.914V169.05C192.059 169.541 191.712 169.92 191.253 170.186C190.805 170.453 190.277 170.586 189.669 170.586C188.987 170.586 188.384 170.416 187.861 170.074C187.339 169.733 186.933 169.258 186.645 168.65C186.357 168.032 186.213 167.317 186.213 166.506C186.213 165.706 186.357 165.002 186.645 164.394C186.933 163.786 187.339 163.317 187.861 162.986C188.384 162.656 188.987 162.49 189.669 162.49C190.277 162.49 190.805 162.624 191.253 162.89C191.712 163.157 192.059 163.536 192.293 164.026V159.738C192.293 159.546 192.347 159.397 192.453 159.29C192.571 159.173 192.731 159.114 192.933 159.114ZM189.925 169.514C190.683 169.514 191.264 169.258 191.669 168.746C192.085 168.224 192.293 167.488 192.293 166.538C192.293 165.589 192.085 164.858 191.669 164.346C191.264 163.834 190.683 163.578 189.925 163.578C189.168 163.578 188.576 163.834 188.149 164.346C187.733 164.858 187.525 165.578 187.525 166.506C187.525 167.456 187.733 168.197 188.149 168.73C188.576 169.253 189.168 169.514 189.925 169.514ZM202.022 168.666C202.139 168.666 202.24 168.714 202.326 168.81C202.411 168.906 202.454 169.029 202.454 169.178C202.454 169.445 202.267 169.69 201.894 169.914C201.51 170.138 201.104 170.309 200.678 170.426C200.251 170.533 199.835 170.586 199.43 170.586C198.224 170.586 197.27 170.229 196.566 169.514C195.872 168.8 195.526 167.813 195.526 166.554C195.526 165.754 195.68 165.05 195.99 164.442C196.299 163.824 196.731 163.344 197.286 163.002C197.851 162.661 198.491 162.49 199.206 162.49C200.219 162.49 201.024 162.821 201.622 163.482C202.219 164.144 202.518 165.04 202.518 166.17C202.518 166.384 202.475 166.538 202.39 166.634C202.304 166.73 202.166 166.778 201.974 166.778H196.822C196.918 168.613 197.787 169.53 199.43 169.53C199.846 169.53 200.203 169.477 200.502 169.37C200.8 169.253 201.12 169.098 201.462 168.906C201.739 168.746 201.926 168.666 202.022 168.666ZM199.222 163.498C198.539 163.498 197.99 163.712 197.574 164.138C197.168 164.565 196.928 165.168 196.854 165.946H201.382C201.36 165.157 201.163 164.554 200.79 164.138C200.416 163.712 199.894 163.498 199.222 163.498ZM212.152 169.53C212.526 169.562 212.712 169.733 212.712 170.042C212.712 170.224 212.643 170.362 212.504 170.458C212.376 170.544 212.179 170.576 211.912 170.554L211.48 170.522C210.627 170.458 209.998 170.202 209.592 169.754C209.187 169.306 208.984 168.629 208.984 167.722V163.706H207.912C207.731 163.706 207.587 163.664 207.48 163.578C207.384 163.482 207.336 163.36 207.336 163.21C207.336 163.05 207.384 162.922 207.48 162.826C207.587 162.73 207.731 162.682 207.912 162.682H208.984V160.874C208.984 160.672 209.043 160.517 209.16 160.41C209.278 160.293 209.438 160.234 209.64 160.234C209.832 160.234 209.987 160.293 210.104 160.41C210.222 160.517 210.28 160.672 210.28 160.874V162.682H212.056C212.227 162.682 212.36 162.73 212.456 162.826C212.563 162.922 212.616 163.05 212.616 163.21C212.616 163.36 212.563 163.482 212.456 163.578C212.36 163.664 212.227 163.706 212.056 163.706H210.28V167.786C210.28 168.373 210.398 168.8 210.632 169.066C210.878 169.322 211.24 169.466 211.72 169.498L212.152 169.53ZM219.91 162.522C220.112 162.522 220.267 162.581 220.374 162.698C220.491 162.816 220.55 162.97 220.55 163.162V169.93C220.55 170.112 220.491 170.261 220.374 170.378C220.267 170.496 220.112 170.554 219.91 170.554C219.718 170.554 219.563 170.501 219.446 170.394C219.339 170.277 219.286 170.128 219.286 169.946V169.146C219.04 169.616 218.694 169.973 218.246 170.218C217.808 170.464 217.312 170.586 216.758 170.586C215.83 170.586 215.131 170.33 214.662 169.818C214.192 169.296 213.958 168.528 213.958 167.514V163.162C213.958 162.97 214.016 162.816 214.134 162.698C214.251 162.581 214.411 162.522 214.614 162.522C214.816 162.522 214.971 162.581 215.078 162.698C215.195 162.816 215.254 162.97 215.254 163.162V167.482C215.254 168.176 215.392 168.688 215.67 169.018C215.947 169.338 216.384 169.498 216.982 169.498C217.664 169.498 218.214 169.28 218.63 168.842C219.046 168.394 219.254 167.808 219.254 167.082V163.162C219.254 162.97 219.312 162.816 219.43 162.698C219.547 162.581 219.707 162.522 219.91 162.522ZM36.2614 184.49C38.128 184.49 39.0614 185.52 39.0614 187.578V191.914C39.0614 192.117 39.0027 192.277 38.8854 192.394C38.7787 192.501 38.624 192.554 38.4214 192.554C38.2187 192.554 38.0587 192.501 37.9414 192.394C37.824 192.277 37.7654 192.117 37.7654 191.914V187.658C37.7654 186.933 37.6214 186.405 37.3334 186.074C37.056 185.744 36.608 185.578 35.9894 185.578C35.2747 185.578 34.704 185.797 34.2774 186.234C33.8507 186.672 33.6374 187.264 33.6374 188.01V191.914C33.6374 192.117 33.5787 192.277 33.4614 192.394C33.3547 192.501 33.2 192.554 32.9974 192.554C32.7947 192.554 32.6347 192.501 32.5174 192.394C32.4 192.277 32.3414 192.117 32.3414 191.914V185.162C32.3414 184.97 32.4 184.816 32.5174 184.698C32.6347 184.581 32.7947 184.522 32.9974 184.522C33.1894 184.522 33.3387 184.581 33.4454 184.698C33.5627 184.816 33.6214 184.965 33.6214 185.146V185.962C33.8774 185.482 34.2347 185.12 34.6934 184.874C35.152 184.618 35.6747 184.49 36.2614 184.49ZM47.4671 190.666C47.5845 190.666 47.6858 190.714 47.7711 190.81C47.8565 190.906 47.8991 191.029 47.8991 191.178C47.8991 191.445 47.7125 191.69 47.3391 191.914C46.9551 192.138 46.5498 192.309 46.1231 192.426C45.6965 192.533 45.2805 192.586 44.8751 192.586C43.6698 192.586 42.7151 192.229 42.0111 191.514C41.3178 190.8 40.9711 189.813 40.9711 188.554C40.9711 187.754 41.1258 187.05 41.4351 186.442C41.7445 185.824 42.1765 185.344 42.7311 185.002C43.2965 184.661 43.9365 184.49 44.6511 184.49C45.6645 184.49 46.4698 184.821 47.0671 185.482C47.6645 186.144 47.9631 187.04 47.9631 188.17C47.9631 188.384 47.9205 188.538 47.8351 188.634C47.7498 188.73 47.6111 188.778 47.4191 188.778H42.2671C42.3631 190.613 43.2325 191.53 44.8751 191.53C45.2911 191.53 45.6485 191.477 45.9471 191.37C46.2458 191.253 46.5658 191.098 46.9071 190.906C47.1845 190.746 47.3711 190.666 47.4671 190.666ZM44.6671 185.498C43.9845 185.498 43.4351 185.712 43.0191 186.138C42.6138 186.565 42.3738 187.168 42.2991 187.946H46.8271C46.8058 187.157 46.6085 186.554 46.2351 186.138C45.8618 185.712 45.3391 185.498 44.6671 185.498ZM56.1926 184.522C56.3953 184.522 56.5553 184.581 56.6726 184.698C56.79 184.816 56.8486 184.97 56.8486 185.162V191.946C56.8486 193.109 56.55 193.984 55.9526 194.57C55.3553 195.168 54.47 195.466 53.2966 195.466C52.1553 195.466 51.206 195.242 50.4486 194.794C50.0646 194.581 49.8726 194.336 49.8726 194.058C49.8726 193.909 49.91 193.786 49.9846 193.69C50.07 193.594 50.1766 193.546 50.3046 193.546C50.4113 193.546 50.6033 193.621 50.8806 193.77C51.254 193.962 51.622 194.117 51.9846 194.234C52.3473 194.352 52.7793 194.41 53.2806 194.41C54.038 194.41 54.6086 194.208 54.9926 193.802C55.3766 193.408 55.5686 192.826 55.5686 192.058V190.682C55.3446 191.184 54.998 191.568 54.5286 191.834C54.07 192.101 53.526 192.234 52.8966 192.234C52.214 192.234 51.606 192.074 51.0726 191.754C50.55 191.434 50.1393 190.981 49.8406 190.394C49.5526 189.808 49.4086 189.13 49.4086 188.362C49.4086 187.594 49.5526 186.917 49.8406 186.33C50.1393 185.744 50.55 185.29 51.0726 184.97C51.606 184.65 52.214 184.49 52.8966 184.49C53.5153 184.49 54.054 184.624 54.5126 184.89C54.9713 185.157 55.318 185.536 55.5526 186.026V185.162C55.5526 184.97 55.606 184.816 55.7126 184.698C55.83 184.581 55.99 184.522 56.1926 184.522ZM53.1526 191.162C53.8993 191.162 54.486 190.917 54.9126 190.426C55.3393 189.925 55.5526 189.237 55.5526 188.362C55.5526 187.498 55.3393 186.821 54.9126 186.33C54.4966 185.829 53.91 185.578 53.1526 185.578C52.3953 185.578 51.798 185.829 51.3606 186.33C50.934 186.821 50.7206 187.498 50.7206 188.362C50.7206 189.237 50.934 189.925 51.3606 190.426C51.798 190.917 52.3953 191.162 53.1526 191.162ZM62.4796 192.586C61.7436 192.586 61.093 192.421 60.5276 192.09C59.973 191.76 59.541 191.29 59.2316 190.682C58.933 190.064 58.7836 189.349 58.7836 188.538C58.7836 187.728 58.933 187.018 59.2316 186.41C59.541 185.792 59.973 185.317 60.5276 184.986C61.093 184.656 61.7436 184.49 62.4796 184.49C63.2156 184.49 63.8663 184.656 64.4316 184.986C64.997 185.317 65.429 185.792 65.7276 186.41C66.037 187.018 66.1916 187.728 66.1916 188.538C66.1916 189.349 66.037 190.064 65.7276 190.682C65.429 191.29 64.997 191.76 64.4316 192.09C63.8663 192.421 63.2156 192.586 62.4796 192.586ZM62.4796 191.514C63.2476 191.514 63.8343 191.264 64.2396 190.762C64.6556 190.25 64.8636 189.509 64.8636 188.538C64.8636 187.589 64.6556 186.858 64.2396 186.346C63.8236 185.824 63.237 185.562 62.4796 185.562C61.7223 185.562 61.1356 185.824 60.7196 186.346C60.3036 186.858 60.0956 187.589 60.0956 188.538C60.0956 189.498 60.2983 190.234 60.7036 190.746C61.1196 191.258 61.7116 191.514 62.4796 191.514ZM71.3386 192.586C70.6133 192.586 69.968 192.421 69.4026 192.09C68.848 191.76 68.416 191.29 68.1066 190.682C67.808 190.074 67.6586 189.37 67.6586 188.57C67.6586 187.77 67.8133 187.061 68.1226 186.442C68.4426 185.824 68.8853 185.344 69.4506 185.002C70.016 184.661 70.6666 184.49 71.4026 184.49C71.808 184.49 72.208 184.549 72.6026 184.666C73.008 184.773 73.36 184.933 73.6586 185.146C73.8506 185.274 73.984 185.402 74.0586 185.53C74.144 185.648 74.1866 185.781 74.1866 185.93C74.1866 186.08 74.144 186.202 74.0586 186.298C73.984 186.394 73.8826 186.442 73.7546 186.442C73.68 186.442 73.6 186.421 73.5146 186.378C73.4293 186.336 73.3546 186.293 73.2906 186.25C73.2373 186.208 73.2 186.181 73.1786 186.17C72.9013 185.989 72.6346 185.845 72.3786 185.738C72.1333 185.632 71.8293 185.578 71.4666 185.578C70.688 185.578 70.08 185.845 69.6426 186.378C69.216 186.901 69.0026 187.632 69.0026 188.57C69.0026 189.509 69.216 190.234 69.6426 190.746C70.08 191.258 70.688 191.514 71.4666 191.514C71.8293 191.514 72.1386 191.461 72.3946 191.354C72.6613 191.248 72.928 191.104 73.1946 190.922C73.312 190.848 73.424 190.784 73.5306 190.73C73.6373 190.677 73.728 190.65 73.8026 190.65C73.92 190.65 74.016 190.698 74.0906 190.794C74.176 190.89 74.2186 191.013 74.2186 191.162C74.2186 191.301 74.1813 191.429 74.1066 191.546C74.032 191.653 73.8933 191.776 73.6906 191.914C73.392 192.117 73.0293 192.282 72.6026 192.41C72.1866 192.528 71.7653 192.586 71.3386 192.586ZM76.4349 192.554C76.2429 192.554 76.0829 192.501 75.9549 192.394C75.8375 192.277 75.7789 192.117 75.7789 191.914V185.162C75.7789 184.96 75.8375 184.805 75.9549 184.698C76.0829 184.581 76.2429 184.522 76.4349 184.522C76.6269 184.522 76.7815 184.581 76.8989 184.698C77.0162 184.805 77.0749 184.96 77.0749 185.162V191.914C77.0749 192.128 77.0162 192.288 76.8989 192.394C76.7815 192.501 76.6269 192.554 76.4349 192.554ZM76.4349 182.842C76.1789 182.842 75.9709 182.768 75.8109 182.618C75.6509 182.469 75.5709 182.272 75.5709 182.026C75.5709 181.792 75.6509 181.6 75.8109 181.45C75.9709 181.301 76.1789 181.226 76.4349 181.226C76.6909 181.226 76.8989 181.301 77.0589 181.45C77.2189 181.6 77.2989 181.792 77.2989 182.026C77.2989 182.272 77.2189 182.469 77.0589 182.618C76.8989 182.768 76.6909 182.842 76.4349 182.842ZM82.7296 192.586C81.9936 192.586 81.343 192.421 80.7776 192.09C80.223 191.76 79.791 191.29 79.4816 190.682C79.183 190.064 79.0336 189.349 79.0336 188.538C79.0336 187.728 79.183 187.018 79.4816 186.41C79.791 185.792 80.223 185.317 80.7776 184.986C81.343 184.656 81.9936 184.49 82.7296 184.49C83.4656 184.49 84.1163 184.656 84.6816 184.986C85.247 185.317 85.679 185.792 85.9776 186.41C86.287 187.018 86.4416 187.728 86.4416 188.538C86.4416 189.349 86.287 190.064 85.9776 190.682C85.679 191.29 85.247 191.76 84.6816 192.09C84.1163 192.421 83.4656 192.586 82.7296 192.586ZM82.7296 191.514C83.4976 191.514 84.0843 191.264 84.4896 190.762C84.9056 190.25 85.1136 189.509 85.1136 188.538C85.1136 187.589 84.9056 186.858 84.4896 186.346C84.0736 185.824 83.487 185.562 82.7296 185.562C81.9723 185.562 81.3856 185.824 80.9696 186.346C80.5536 186.858 80.3456 187.589 80.3456 188.538C80.3456 189.498 80.5483 190.234 80.9536 190.746C81.3696 191.258 81.9616 191.514 82.7296 191.514ZM95.7296 192.586C94.9936 192.586 94.343 192.421 93.7776 192.09C93.223 191.76 92.791 191.29 92.4816 190.682C92.183 190.064 92.0336 189.349 92.0336 188.538C92.0336 187.728 92.183 187.018 92.4816 186.41C92.791 185.792 93.223 185.317 93.7776 184.986C94.343 184.656 94.9936 184.49 95.7296 184.49C96.4656 184.49 97.1163 184.656 97.6816 184.986C98.247 185.317 98.679 185.792 98.9776 186.41C99.287 187.018 99.4416 187.728 99.4416 188.538C99.4416 189.349 99.287 190.064 98.9776 190.682C98.679 191.29 98.247 191.76 97.6816 192.09C97.1163 192.421 96.4656 192.586 95.7296 192.586ZM95.7296 191.514C96.4976 191.514 97.0843 191.264 97.4896 190.762C97.9056 190.25 98.1136 189.509 98.1136 188.538C98.1136 187.589 97.9056 186.858 97.4896 186.346C97.0736 185.824 96.487 185.562 95.7296 185.562C94.9723 185.562 94.3856 185.824 93.9696 186.346C93.5536 186.858 93.3456 187.589 93.3456 188.538C93.3456 189.498 93.5483 190.234 93.9536 190.746C94.3696 191.258 94.9616 191.514 95.7296 191.514ZM109.098 191.53C109.471 191.562 109.658 191.733 109.658 192.042C109.658 192.224 109.588 192.362 109.45 192.458C109.322 192.544 109.124 192.576 108.858 192.554L108.426 192.522C107.572 192.458 106.943 192.202 106.538 191.754C106.132 191.306 105.93 190.629 105.93 189.722V185.706H104.858C104.676 185.706 104.532 185.664 104.426 185.578C104.33 185.482 104.282 185.36 104.282 185.21C104.282 185.05 104.33 184.922 104.426 184.826C104.532 184.73 104.676 184.682 104.858 184.682H105.93V182.874C105.93 182.672 105.988 182.517 106.106 182.41C106.223 182.293 106.383 182.234 106.586 182.234C106.778 182.234 106.932 182.293 107.05 182.41C107.167 182.517 107.226 182.672 107.226 182.874V184.682H109.002C109.172 184.682 109.306 184.73 109.402 184.826C109.508 184.922 109.562 185.05 109.562 185.21C109.562 185.36 109.508 185.482 109.402 185.578C109.306 185.664 109.172 185.706 109.002 185.706H107.226V189.786C107.226 190.373 107.343 190.8 107.578 191.066C107.823 191.322 108.186 191.466 108.666 191.498L109.098 191.53ZM111.591 192.554C111.399 192.554 111.239 192.501 111.111 192.394C110.994 192.277 110.935 192.117 110.935 191.914V185.162C110.935 184.96 110.994 184.805 111.111 184.698C111.239 184.581 111.399 184.522 111.591 184.522C111.783 184.522 111.938 184.581 112.055 184.698C112.172 184.805 112.231 184.96 112.231 185.162V191.914C112.231 192.128 112.172 192.288 112.055 192.394C111.938 192.501 111.783 192.554 111.591 192.554ZM111.591 182.842C111.335 182.842 111.127 182.768 110.967 182.618C110.807 182.469 110.727 182.272 110.727 182.026C110.727 181.792 110.807 181.6 110.967 181.45C111.127 181.301 111.335 181.226 111.591 181.226C111.847 181.226 112.055 181.301 112.215 181.45C112.375 181.6 112.455 181.792 112.455 182.026C112.455 182.272 112.375 182.469 112.215 182.618C112.055 182.768 111.847 182.842 111.591 182.842ZM120.686 190.666C120.803 190.666 120.905 190.714 120.99 190.81C121.075 190.906 121.118 191.029 121.118 191.178C121.118 191.445 120.931 191.69 120.558 191.914C120.174 192.138 119.769 192.309 119.342 192.426C118.915 192.533 118.499 192.586 118.094 192.586C116.889 192.586 115.934 192.229 115.23 191.514C114.537 190.8 114.19 189.813 114.19 188.554C114.19 187.754 114.345 187.05 114.654 186.442C114.963 185.824 115.395 185.344 115.95 185.002C116.515 184.661 117.155 184.49 117.87 184.49C118.883 184.49 119.689 184.821 120.286 185.482C120.883 186.144 121.182 187.04 121.182 188.17C121.182 188.384 121.139 188.538 121.054 188.634C120.969 188.73 120.83 188.778 120.638 188.778H115.486C115.582 190.613 116.451 191.53 118.094 191.53C118.51 191.53 118.867 191.477 119.166 191.37C119.465 191.253 119.785 191.098 120.126 190.906C120.403 190.746 120.59 190.666 120.686 190.666ZM117.886 185.498C117.203 185.498 116.654 185.712 116.238 186.138C115.833 186.565 115.593 187.168 115.518 187.946H120.046C120.025 187.157 119.827 186.554 119.454 186.138C119.081 185.712 118.558 185.498 117.886 185.498ZM127.011 184.49C128.878 184.49 129.811 185.52 129.811 187.578V191.914C129.811 192.117 129.753 192.277 129.635 192.394C129.529 192.501 129.374 192.554 129.171 192.554C128.969 192.554 128.809 192.501 128.691 192.394C128.574 192.277 128.515 192.117 128.515 191.914V187.658C128.515 186.933 128.371 186.405 128.083 186.074C127.806 185.744 127.358 185.578 126.739 185.578C126.025 185.578 125.454 185.797 125.027 186.234C124.601 186.672 124.387 187.264 124.387 188.01V191.914C124.387 192.117 124.329 192.277 124.211 192.394C124.105 192.501 123.95 192.554 123.747 192.554C123.545 192.554 123.385 192.501 123.267 192.394C123.15 192.277 123.091 192.117 123.091 191.914V185.162C123.091 184.97 123.15 184.816 123.267 184.698C123.385 184.581 123.545 184.522 123.747 184.522C123.939 184.522 124.089 184.581 124.195 184.698C124.313 184.816 124.371 184.965 124.371 185.146V185.962C124.627 185.482 124.985 185.12 125.443 184.874C125.902 184.618 126.425 184.49 127.011 184.49ZM138.441 181.114C138.644 181.114 138.804 181.173 138.921 181.29C139.038 181.408 139.097 181.557 139.097 181.738V191.914C139.097 192.106 139.038 192.261 138.921 192.378C138.804 192.496 138.644 192.554 138.441 192.554C138.238 192.554 138.078 192.496 137.961 192.378C137.854 192.261 137.801 192.106 137.801 191.914V191.05C137.566 191.541 137.22 191.92 136.761 192.186C136.313 192.453 135.785 192.586 135.177 192.586C134.494 192.586 133.892 192.416 133.369 192.074C132.846 191.733 132.441 191.258 132.153 190.65C131.865 190.032 131.721 189.317 131.721 188.506C131.721 187.706 131.865 187.002 132.153 186.394C132.441 185.786 132.846 185.317 133.369 184.986C133.892 184.656 134.494 184.49 135.177 184.49C135.785 184.49 136.313 184.624 136.761 184.89C137.22 185.157 137.566 185.536 137.801 186.026V181.738C137.801 181.546 137.854 181.397 137.961 181.29C138.078 181.173 138.238 181.114 138.441 181.114ZM135.433 191.514C136.19 191.514 136.772 191.258 137.177 190.746C137.593 190.224 137.801 189.488 137.801 188.538C137.801 187.589 137.593 186.858 137.177 186.346C136.772 185.834 136.19 185.578 135.433 185.578C134.676 185.578 134.084 185.834 133.657 186.346C133.241 186.858 133.033 187.578 133.033 188.506C133.033 189.456 133.241 190.197 133.657 190.73C134.084 191.253 134.676 191.514 135.433 191.514ZM144.682 184.49C146.634 184.49 147.61 185.514 147.61 187.562V191.914C147.61 192.106 147.551 192.261 147.434 192.378C147.327 192.496 147.178 192.554 146.986 192.554C146.794 192.554 146.639 192.496 146.522 192.378C146.404 192.261 146.346 192.106 146.346 191.914V191.146C146.143 191.605 145.834 191.962 145.418 192.218C145.002 192.464 144.522 192.586 143.978 192.586C143.476 192.586 143.012 192.485 142.586 192.282C142.17 192.08 141.839 191.797 141.594 191.434C141.348 191.072 141.226 190.672 141.226 190.234C141.226 189.648 141.375 189.194 141.674 188.874C141.972 188.544 142.463 188.309 143.146 188.17C143.828 188.021 144.778 187.946 145.994 187.946H146.346V187.418C146.346 186.778 146.212 186.309 145.946 186.01C145.69 185.712 145.268 185.562 144.682 185.562C143.956 185.562 143.22 185.76 142.474 186.154C142.186 186.336 141.983 186.426 141.866 186.426C141.738 186.426 141.631 186.378 141.546 186.282C141.46 186.186 141.418 186.064 141.418 185.914C141.418 185.765 141.46 185.637 141.546 185.53C141.642 185.413 141.791 185.296 141.994 185.178C142.367 184.965 142.788 184.8 143.258 184.682C143.738 184.554 144.212 184.49 144.682 184.49ZM144.154 191.562C144.794 191.562 145.316 191.349 145.722 190.922C146.138 190.485 146.346 189.925 146.346 189.242V188.778H146.058C145.119 188.778 144.404 188.821 143.914 188.906C143.423 188.981 143.071 189.114 142.858 189.306C142.655 189.488 142.554 189.76 142.554 190.122C142.554 190.538 142.703 190.885 143.002 191.162C143.311 191.429 143.695 191.562 144.154 191.562ZM157.339 192.586C156.603 192.586 155.952 192.421 155.387 192.09C154.832 191.76 154.4 191.29 154.091 190.682C153.792 190.064 153.643 189.349 153.643 188.538C153.643 187.728 153.792 187.018 154.091 186.41C154.4 185.792 154.832 185.317 155.387 184.986C155.952 184.656 156.603 184.49 157.339 184.49C158.075 184.49 158.726 184.656 159.291 184.986C159.856 185.317 160.288 185.792 160.587 186.41C160.896 187.018 161.051 187.728 161.051 188.538C161.051 189.349 160.896 190.064 160.587 190.682C160.288 191.29 159.856 191.76 159.291 192.09C158.726 192.421 158.075 192.586 157.339 192.586ZM157.339 191.514C158.107 191.514 158.694 191.264 159.099 190.762C159.515 190.25 159.723 189.509 159.723 188.538C159.723 187.589 159.515 186.858 159.099 186.346C158.683 185.824 158.096 185.562 157.339 185.562C156.582 185.562 155.995 185.824 155.579 186.346C155.163 186.858 154.955 187.589 154.955 188.538C154.955 189.498 155.158 190.234 155.563 190.746C155.979 191.258 156.571 191.514 157.339 191.514ZM166.902 184.49C168.769 184.49 169.702 185.52 169.702 187.578V191.914C169.702 192.117 169.643 192.277 169.526 192.394C169.419 192.501 169.265 192.554 169.062 192.554C168.859 192.554 168.699 192.501 168.582 192.394C168.465 192.277 168.406 192.117 168.406 191.914V187.658C168.406 186.933 168.262 186.405 167.974 186.074C167.697 185.744 167.249 185.578 166.63 185.578C165.915 185.578 165.345 185.797 164.918 186.234C164.491 186.672 164.278 187.264 164.278 188.01V191.914C164.278 192.117 164.219 192.277 164.102 192.394C163.995 192.501 163.841 192.554 163.638 192.554C163.435 192.554 163.275 192.501 163.158 192.394C163.041 192.277 162.982 192.117 162.982 191.914V185.162C162.982 184.97 163.041 184.816 163.158 184.698C163.275 184.581 163.435 184.522 163.638 184.522C163.83 184.522 163.979 184.581 164.086 184.698C164.203 184.816 164.262 184.965 164.262 185.146V185.962C164.518 185.482 164.875 185.12 165.334 184.874C165.793 184.618 166.315 184.49 166.902 184.49ZM172.732 192.554C172.54 192.554 172.38 192.501 172.252 192.394C172.134 192.277 172.076 192.117 172.076 191.914V181.754C172.076 181.552 172.134 181.397 172.252 181.29C172.38 181.173 172.54 181.114 172.732 181.114C172.913 181.114 173.062 181.173 173.18 181.29C173.308 181.397 173.372 181.552 173.372 181.754V191.914C173.372 192.117 173.308 192.277 173.18 192.394C173.062 192.501 172.913 192.554 172.732 192.554ZM176.451 192.554C176.259 192.554 176.099 192.501 175.971 192.394C175.853 192.277 175.795 192.117 175.795 191.914V185.162C175.795 184.96 175.853 184.805 175.971 184.698C176.099 184.581 176.259 184.522 176.451 184.522C176.643 184.522 176.797 184.581 176.915 184.698C177.032 184.805 177.091 184.96 177.091 185.162V191.914C177.091 192.128 177.032 192.288 176.915 192.394C176.797 192.501 176.643 192.554 176.451 192.554ZM176.451 182.842C176.195 182.842 175.987 182.768 175.827 182.618C175.667 182.469 175.587 182.272 175.587 182.026C175.587 181.792 175.667 181.6 175.827 181.45C175.987 181.301 176.195 181.226 176.451 181.226C176.707 181.226 176.915 181.301 177.075 181.45C177.235 181.6 177.315 181.792 177.315 182.026C177.315 182.272 177.235 182.469 177.075 182.618C176.915 182.768 176.707 182.842 176.451 182.842ZM183.433 184.49C185.3 184.49 186.233 185.52 186.233 187.578V191.914C186.233 192.117 186.175 192.277 186.057 192.394C185.951 192.501 185.796 192.554 185.593 192.554C185.391 192.554 185.231 192.501 185.113 192.394C184.996 192.277 184.937 192.117 184.937 191.914V187.658C184.937 186.933 184.793 186.405 184.505 186.074C184.228 185.744 183.78 185.578 183.161 185.578C182.447 185.578 181.876 185.797 181.449 186.234C181.023 186.672 180.809 187.264 180.809 188.01V191.914C180.809 192.117 180.751 192.277 180.633 192.394C180.527 192.501 180.372 192.554 180.169 192.554C179.967 192.554 179.807 192.501 179.689 192.394C179.572 192.277 179.513 192.117 179.513 191.914V185.162C179.513 184.97 179.572 184.816 179.689 184.698C179.807 184.581 179.967 184.522 180.169 184.522C180.361 184.522 180.511 184.581 180.617 184.698C180.735 184.816 180.793 184.965 180.793 185.146V185.962C181.049 185.482 181.407 185.12 181.865 184.874C182.324 184.618 182.847 184.49 183.433 184.49ZM194.639 190.666C194.756 190.666 194.858 190.714 194.943 190.81C195.028 190.906 195.071 191.029 195.071 191.178C195.071 191.445 194.884 191.69 194.511 191.914C194.127 192.138 193.722 192.309 193.295 192.426C192.868 192.533 192.452 192.586 192.047 192.586C190.842 192.586 189.887 192.229 189.183 191.514C188.49 190.8 188.143 189.813 188.143 188.554C188.143 187.754 188.298 187.05 188.607 186.442C188.916 185.824 189.348 185.344 189.903 185.002C190.468 184.661 191.108 184.49 191.823 184.49C192.836 184.49 193.642 184.821 194.239 185.482C194.836 186.144 195.135 187.04 195.135 188.17C195.135 188.384 195.092 188.538 195.007 188.634C194.922 188.73 194.783 188.778 194.591 188.778H189.439C189.535 190.613 190.404 191.53 192.047 191.53C192.463 191.53 192.82 191.477 193.119 191.37C193.418 191.253 193.738 191.098 194.079 190.906C194.356 190.746 194.543 190.666 194.639 190.666ZM191.839 185.498C191.156 185.498 190.607 185.712 190.191 186.138C189.786 186.565 189.546 187.168 189.471 187.946H193.999C193.978 187.157 193.78 186.554 193.407 186.138C193.034 185.712 192.511 185.498 191.839 185.498ZM197.685 192.554C197.429 192.554 197.215 192.474 197.045 192.314C196.874 192.144 196.789 191.925 196.789 191.658C196.789 191.392 196.874 191.173 197.045 191.002C197.215 190.832 197.429 190.746 197.685 190.746C197.93 190.746 198.133 190.832 198.293 191.002C198.463 191.173 198.549 191.392 198.549 191.658C198.549 191.925 198.463 192.144 198.293 192.314C198.133 192.474 197.93 192.554 197.685 192.554Z" fill="white"/>
<path fill-rule="evenodd" clip-rule="evenodd" d="M84.6665 72.4584C84.6665 77.8661 89.0504 82.25 94.4582 82.25H110.125C110.259 82.25 110.39 82.2366 110.516 82.2109L120.411 93.3427C121.13 94.1511 122.368 94.2239 123.176 93.5054C123.984 92.7868 124.057 91.549 123.339 90.7407L109.729 75.4299C108.922 74.5217 108.661 73.2513 109.095 71.9477C109.384 71.0832 110.193 70.5 111.2 70.5001C112.429 70.5001 113.625 70.8844 114.623 71.599C117.246 73.4781 120.336 74.4167 123.833 74.4167C128.159 74.4167 131.667 70.9096 131.667 66.5834L131.667 43.2222C138.31 44.1724 143.417 49.8857 143.417 56.7917V92.0417C143.417 93.1233 144.293 94 145.375 94C146.456 94 147.333 93.1233 147.333 92.0417V56.7917C147.333 47.7196 140.479 40.2484 131.667 39.2743L131.667 9.79155C131.667 4.38376 127.283 -0.00012207 121.875 -0.00012207L94.4582 -0.00011973C89.0504 -0.00011973 84.6665 4.38376 84.6665 9.79155V72.4584ZM106.802 78.032C105.064 76.0767 104.502 73.3418 105.329 70.8599C106.201 68.2453 108.507 66.5834 111.106 66.5834C113.247 66.5834 115.241 67.2239 116.903 68.4149C118.843 69.8044 121.133 70.5 123.833 70.5C125.996 70.5 127.75 68.7465 127.75 66.5834L127.75 9.79155C127.75 6.54687 125.12 3.91655 121.875 3.91654L94.4582 3.91655C91.2135 3.91655 88.5832 6.54687 88.5832 9.79155V72.4584C88.5832 75.703 91.2135 78.3334 94.4582 78.3334H107.069L106.802 78.032ZM100.333 9.7917C100.333 10.8733 101.21 11.75 102.292 11.75H114.042C115.123 11.75 116 10.8733 116 9.7917C116 8.71014 115.123 7.83336 114.042 7.83336H102.292C101.21 7.83336 100.333 8.71014 100.333 9.7917ZM114.042 27.4167C119.752 27.4167 123.833 30.8176 123.833 37.2084C123.833 43.3162 118.825 49.0401 109.138 54.5753C108.536 54.9194 107.797 54.9194 107.195 54.5753C97.5082 49.0401 92.4998 43.3162 92.4998 37.2084C92.4998 30.8176 96.5809 27.4167 102.292 27.4167C104.645 27.4167 106.629 28.263 108.167 29.8744C109.704 28.263 111.688 27.4167 114.042 27.4167ZM114.042 31.3334C117.731 31.3334 119.917 33.1547 119.917 37.2084C119.917 41.3781 116.098 45.9029 108.167 50.6091C100.235 45.9029 96.4165 41.3781 96.4165 37.2084C96.4165 33.1547 98.6021 31.3334 102.292 31.3334C104.133 31.3334 105.43 32.1979 106.415 34.1675C107.137 35.6109 109.196 35.6109 109.918 34.1675C110.903 32.1979 112.2 31.3334 114.042 31.3334Z" fill="white"/>
</svg>
