<svg width="345" height="159" viewBox="0 0 345 159" fill="none" xmlns="http://www.w3.org/2000/svg">
<rect x="0.5" y="0.5" width="344" height="158" rx="5.5" fill="white" stroke="#EFF2F6"/>
<path d="M91.28 44.813C91.496 45.137 91.604 45.452 91.604 45.758C91.604 46.172 91.433 46.514 91.091 46.784C90.767 47.054 90.38 47.189 89.93 47.189C89.642 47.189 89.363 47.126 89.093 47C88.841 46.856 88.625 46.649 88.445 46.379L84.854 40.925C84.494 40.349 84.107 39.944 83.693 39.71C83.297 39.476 82.775 39.359 82.127 39.359H79.481V45.407C79.481 45.947 79.328 46.379 79.022 46.703C78.716 47.009 78.302 47.162 77.78 47.162C77.258 47.162 76.835 47.009 76.511 46.703C76.205 46.379 76.052 45.947 76.052 45.407V29.612C76.052 29.09 76.196 28.685 76.484 28.397C76.79 28.109 77.204 27.965 77.726 27.965H84.476C86.636 27.965 88.274 28.451 89.39 29.423C90.524 30.377 91.091 31.763 91.091 33.581C91.091 35.057 90.668 36.272 89.822 37.226C88.994 38.162 87.815 38.765 86.285 39.035C86.807 39.161 87.266 39.386 87.662 39.71C88.058 40.034 88.445 40.484 88.823 41.06L91.28 44.813ZM83.99 36.686C85.304 36.686 86.267 36.443 86.879 35.957C87.491 35.453 87.797 34.688 87.797 33.662C87.797 32.618 87.491 31.862 86.879 31.394C86.267 30.908 85.304 30.665 83.99 30.665H79.454V36.686H83.99ZM100.173 33.473C102.009 33.473 103.368 33.932 104.25 34.85C105.15 35.75 105.6 37.127 105.6 38.981V45.569C105.6 46.055 105.456 46.442 105.168 46.73C104.88 47 104.484 47.135 103.98 47.135C103.512 47.135 103.125 46.991 102.819 46.703C102.531 46.415 102.387 46.037 102.387 45.569V44.975C102.081 45.677 101.595 46.226 100.929 46.622C100.281 47.018 99.5253 47.216 98.6613 47.216C97.7793 47.216 96.9783 47.036 96.2583 46.676C95.5383 46.316 94.9713 45.821 94.5573 45.191C94.1433 44.561 93.9363 43.859 93.9363 43.085C93.9363 42.113 94.1793 41.348 94.6653 40.79C95.1693 40.232 95.9793 39.827 97.0953 39.575C98.2113 39.323 99.7503 39.197 101.712 39.197H102.387V38.576C102.387 37.694 102.198 37.055 101.82 36.659C101.442 36.245 100.83 36.038 99.9843 36.038C99.4623 36.038 98.9313 36.119 98.3913 36.281C97.8513 36.425 97.2123 36.641 96.4743 36.929C96.0063 37.163 95.6643 37.28 95.4483 37.28C95.1243 37.28 94.8543 37.163 94.6383 36.929C94.4403 36.695 94.3413 36.389 94.3413 36.011C94.3413 35.705 94.4133 35.444 94.5573 35.228C94.7193 34.994 94.9803 34.778 95.3403 34.58C95.9703 34.238 96.7173 33.968 97.5813 33.77C98.4633 33.572 99.3273 33.473 100.173 33.473ZM99.3363 44.786C100.236 44.786 100.965 44.489 101.523 43.895C102.099 43.283 102.387 42.5 102.387 41.546V40.979H101.901C100.695 40.979 99.7593 41.033 99.0933 41.141C98.4273 41.249 97.9503 41.438 97.6623 41.708C97.3743 41.978 97.2303 42.347 97.2303 42.815C97.2303 43.391 97.4283 43.868 97.8243 44.246C98.2383 44.606 98.7423 44.786 99.3363 44.786ZM100.848 31.988C100.65 32.132 100.452 32.204 100.254 32.204C100.002 32.204 99.7863 32.123 99.6063 31.961C99.4443 31.781 99.3633 31.574 99.3633 31.34C99.3633 31.142 99.4353 30.944 99.5793 30.746L102.198 27.263C102.612 26.723 103.089 26.453 103.629 26.453C104.025 26.453 104.358 26.597 104.628 26.885C104.916 27.155 105.06 27.479 105.06 27.857C105.06 28.361 104.817 28.793 104.331 29.153L100.848 31.988ZM116.617 33.473C117.751 33.473 118.759 33.761 119.641 34.337C120.541 34.913 121.234 35.732 121.72 36.794C122.224 37.838 122.476 39.044 122.476 40.412C122.476 41.78 122.224 42.977 121.72 44.003C121.234 45.029 120.55 45.821 119.668 46.379C118.786 46.937 117.769 47.216 116.617 47.216C115.681 47.216 114.844 47.018 114.106 46.622C113.368 46.226 112.801 45.677 112.405 44.975V50.483C112.405 50.951 112.252 51.32 111.946 51.59C111.64 51.86 111.235 51.995 110.731 51.995C110.227 51.995 109.813 51.851 109.489 51.563C109.183 51.275 109.03 50.897 109.03 50.429V35.12C109.03 34.634 109.174 34.247 109.462 33.959C109.768 33.671 110.173 33.527 110.677 33.527C111.181 33.527 111.586 33.671 111.892 33.959C112.198 34.247 112.351 34.634 112.351 35.12V35.795C112.747 35.057 113.314 34.49 114.052 34.094C114.808 33.68 115.663 33.473 116.617 33.473ZM115.726 44.597C116.788 44.597 117.616 44.237 118.21 43.517C118.804 42.779 119.101 41.744 119.101 40.412C119.101 39.044 118.804 37.982 118.21 37.226C117.616 36.47 116.788 36.092 115.726 36.092C114.646 36.092 113.809 36.461 113.215 37.199C112.639 37.937 112.351 38.99 112.351 40.358C112.351 41.708 112.639 42.752 113.215 43.49C113.809 44.228 114.646 44.597 115.726 44.597ZM126.92 47.162C126.434 47.162 126.029 47.027 125.705 46.757C125.399 46.469 125.246 46.064 125.246 45.542V35.12C125.246 34.598 125.399 34.202 125.705 33.932C126.029 33.662 126.434 33.527 126.92 33.527C127.406 33.527 127.811 33.662 128.135 33.932C128.459 34.202 128.621 34.598 128.621 35.12V45.542C128.621 46.064 128.459 46.469 128.135 46.757C127.811 47.027 127.406 47.162 126.92 47.162ZM126.92 31.124C126.308 31.124 125.822 30.962 125.462 30.638C125.102 30.296 124.922 29.855 124.922 29.315C124.922 28.775 125.102 28.343 125.462 28.019C125.822 27.695 126.308 27.533 126.92 27.533C127.514 27.533 127.991 27.695 128.351 28.019C128.729 28.343 128.918 28.775 128.918 29.315C128.918 29.855 128.738 30.296 128.378 30.638C128.018 30.962 127.532 31.124 126.92 31.124ZM143.118 27.83C143.622 27.83 144.036 27.974 144.36 28.262C144.684 28.55 144.846 28.928 144.846 29.396V45.542C144.846 46.028 144.693 46.415 144.387 46.703C144.081 46.991 143.676 47.135 143.172 47.135C142.668 47.135 142.263 46.991 141.957 46.703C141.651 46.415 141.498 46.028 141.498 45.542V44.867C141.102 45.605 140.526 46.181 139.77 46.595C139.032 47.009 138.186 47.216 137.232 47.216C136.098 47.216 135.081 46.928 134.181 46.352C133.299 45.776 132.606 44.966 132.102 43.922C131.616 42.86 131.373 41.645 131.373 40.277C131.373 38.909 131.616 37.712 132.102 36.686C132.606 35.66 133.299 34.868 134.181 34.31C135.063 33.752 136.08 33.473 137.232 33.473C138.186 33.473 139.032 33.671 139.77 34.067C140.508 34.463 141.075 35.021 141.471 35.741V29.342C141.471 28.892 141.615 28.532 141.903 28.262C142.209 27.974 142.614 27.83 143.118 27.83ZM138.123 44.597C139.203 44.597 140.031 44.228 140.607 43.49C141.201 42.752 141.498 41.699 141.498 40.331C141.498 38.963 141.201 37.919 140.607 37.199C140.031 36.461 139.212 36.092 138.15 36.092C137.07 36.092 136.233 36.452 135.639 37.172C135.045 37.892 134.748 38.927 134.748 40.277C134.748 41.645 135.045 42.707 135.639 43.463C136.233 44.219 137.061 44.597 138.123 44.597ZM154.042 33.473C155.878 33.473 157.237 33.932 158.119 34.85C159.019 35.75 159.469 37.127 159.469 38.981V45.569C159.469 46.055 159.325 46.442 159.037 46.73C158.749 47 158.353 47.135 157.849 47.135C157.381 47.135 156.994 46.991 156.688 46.703C156.4 46.415 156.256 46.037 156.256 45.569V44.975C155.95 45.677 155.464 46.226 154.798 46.622C154.15 47.018 153.394 47.216 152.53 47.216C151.648 47.216 150.847 47.036 150.126 46.676C149.407 46.316 148.84 45.821 148.426 45.191C148.012 44.561 147.805 43.859 147.805 43.085C147.805 42.113 148.048 41.348 148.534 40.79C149.038 40.232 149.848 39.827 150.964 39.575C152.08 39.323 153.619 39.197 155.581 39.197H156.256V38.576C156.256 37.694 156.067 37.055 155.689 36.659C155.311 36.245 154.699 36.038 153.853 36.038C153.331 36.038 152.8 36.119 152.26 36.281C151.72 36.425 151.081 36.641 150.343 36.929C149.875 37.163 149.533 37.28 149.317 37.28C148.993 37.28 148.723 37.163 148.507 36.929C148.309 36.695 148.21 36.389 148.21 36.011C148.21 35.705 148.282 35.444 148.426 35.228C148.588 34.994 148.849 34.778 149.209 34.58C149.839 34.238 150.586 33.968 151.45 33.77C152.332 33.572 153.196 33.473 154.042 33.473ZM153.205 44.786C154.105 44.786 154.834 44.489 155.392 43.895C155.968 43.283 156.256 42.5 156.256 41.546V40.979H155.77C154.564 40.979 153.628 41.033 152.962 41.141C152.296 41.249 151.819 41.438 151.531 41.708C151.243 41.978 151.099 42.347 151.099 42.815C151.099 43.391 151.297 43.868 151.693 44.246C152.107 44.606 152.611 44.786 153.205 44.786Z" fill="#004098"/>
<path d="M76.048 80.08C75.8453 80.08 75.6853 80.0213 75.568 79.904C75.4507 79.776 75.392 79.6107 75.392 79.408V69.36C75.392 69.168 75.4507 69.0133 75.568 68.896C75.696 68.7787 75.8613 68.72 76.064 68.72H79.856C81.04 68.72 81.9573 69.008 82.608 69.584C83.2693 70.16 83.6 70.976 83.6 72.032C83.6 73.088 83.2693 73.9093 82.608 74.496C81.9467 75.0827 81.0293 75.376 79.856 75.376H76.704V79.408C76.704 79.6107 76.6453 79.776 76.528 79.904C76.4107 80.0213 76.2507 80.08 76.048 80.08ZM79.728 74.288C81.4453 74.288 82.304 73.536 82.304 72.032C82.304 70.5493 81.4453 69.808 79.728 69.808H76.704V74.288H79.728ZM91.3388 72.048C91.5414 72.048 91.6961 72.1067 91.8028 72.224C91.9201 72.3413 91.9788 72.496 91.9788 72.688V79.456C91.9788 79.6373 91.9201 79.7867 91.8028 79.904C91.6961 80.0213 91.5414 80.08 91.3388 80.08C91.1468 80.08 90.9921 80.0267 90.8748 79.92C90.7681 79.8027 90.7148 79.6533 90.7148 79.472V78.672C90.4694 79.1413 90.1228 79.4987 89.6748 79.744C89.2374 79.9893 88.7414 80.112 88.1868 80.112C87.2588 80.112 86.5601 79.856 86.0908 79.344C85.6214 78.8213 85.3868 78.0533 85.3868 77.04V72.688C85.3868 72.496 85.4454 72.3413 85.5628 72.224C85.6801 72.1067 85.8401 72.048 86.0428 72.048C86.2454 72.048 86.4001 72.1067 86.5068 72.224C86.6241 72.3413 86.6828 72.496 86.6828 72.688V77.008C86.6828 77.7013 86.8214 78.2133 87.0988 78.544C87.3761 78.864 87.8134 79.024 88.4108 79.024C89.0934 79.024 89.6428 78.8053 90.0588 78.368C90.4748 77.92 90.6828 77.3333 90.6828 76.608V72.688C90.6828 72.496 90.7414 72.3413 90.8588 72.224C90.9761 72.1067 91.1361 72.048 91.3388 72.048ZM100.42 78.192C100.537 78.192 100.638 78.24 100.724 78.336C100.809 78.432 100.852 78.5547 100.852 78.704C100.852 78.9707 100.665 79.216 100.292 79.44C99.9075 79.664 99.5022 79.8347 99.0755 79.952C98.6488 80.0587 98.2328 80.112 97.8275 80.112C96.6222 80.112 95.6675 79.7547 94.9635 79.04C94.2702 78.3253 93.9235 77.3387 93.9235 76.08C93.9235 75.28 94.0782 74.576 94.3875 73.968C94.6968 73.3493 95.1288 72.8693 95.6835 72.528C96.2488 72.1867 96.8888 72.016 97.6035 72.016C98.6168 72.016 99.4222 72.3467 100.02 73.008C100.617 73.6693 100.916 74.5653 100.916 75.696C100.916 75.9093 100.873 76.064 100.788 76.16C100.702 76.256 100.564 76.304 100.372 76.304H95.2195C95.3155 78.1387 96.1848 79.056 97.8275 79.056C98.2435 79.056 98.6008 79.0027 98.8995 78.896C99.1982 78.7787 99.5182 78.624 99.8595 78.432C100.137 78.272 100.324 78.192 100.42 78.192ZM97.6195 73.024C96.9368 73.024 96.3875 73.2373 95.9715 73.664C95.5662 74.0907 95.3262 74.6933 95.2515 75.472H99.7795C99.7582 74.6827 99.5608 74.08 99.1875 73.664C98.8142 73.2373 98.2915 73.024 97.6195 73.024ZM109.081 68.64C109.284 68.64 109.444 68.6987 109.561 68.816C109.678 68.9333 109.737 69.0827 109.737 69.264V79.44C109.737 79.632 109.678 79.7867 109.561 79.904C109.444 80.0213 109.284 80.08 109.081 80.08C108.878 80.08 108.718 80.0213 108.601 79.904C108.494 79.7867 108.441 79.632 108.441 79.44V78.576C108.206 79.0667 107.86 79.4453 107.401 79.712C106.953 79.9787 106.425 80.112 105.817 80.112C105.134 80.112 104.532 79.9413 104.009 79.6C103.486 79.2587 103.081 78.784 102.793 78.176C102.505 77.5573 102.361 76.8427 102.361 76.032C102.361 75.232 102.505 74.528 102.793 73.92C103.081 73.312 103.486 72.8427 104.009 72.512C104.532 72.1813 105.134 72.016 105.817 72.016C106.425 72.016 106.953 72.1493 107.401 72.416C107.86 72.6827 108.206 73.0613 108.441 73.552V69.264C108.441 69.072 108.494 68.9227 108.601 68.816C108.718 68.6987 108.878 68.64 109.081 68.64ZM106.073 79.04C106.83 79.04 107.412 78.784 107.817 78.272C108.233 77.7493 108.441 77.0133 108.441 76.064C108.441 75.1147 108.233 74.384 107.817 73.872C107.412 73.36 106.83 73.104 106.073 73.104C105.316 73.104 104.724 73.36 104.297 73.872C103.881 74.384 103.673 75.104 103.673 76.032C103.673 76.9813 103.881 77.7227 104.297 78.256C104.724 78.7787 105.316 79.04 106.073 79.04ZM118.17 78.192C118.287 78.192 118.388 78.24 118.474 78.336C118.559 78.432 118.602 78.5547 118.602 78.704C118.602 78.9707 118.415 79.216 118.042 79.44C117.658 79.664 117.252 79.8347 116.826 79.952C116.399 80.0587 115.983 80.112 115.578 80.112C114.372 80.112 113.418 79.7547 112.714 79.04C112.02 78.3253 111.674 77.3387 111.674 76.08C111.674 75.28 111.828 74.576 112.138 73.968C112.447 73.3493 112.879 72.8693 113.434 72.528C113.999 72.1867 114.639 72.016 115.354 72.016C116.367 72.016 117.172 72.3467 117.77 73.008C118.367 73.6693 118.666 74.5653 118.666 75.696C118.666 75.9093 118.623 76.064 118.538 76.16C118.452 76.256 118.314 76.304 118.122 76.304H112.97C113.066 78.1387 113.935 79.056 115.578 79.056C115.994 79.056 116.351 79.0027 116.65 78.896C116.948 78.7787 117.268 78.624 117.61 78.432C117.887 78.272 118.074 78.192 118.17 78.192ZM115.37 73.024C114.687 73.024 114.138 73.2373 113.722 73.664C113.316 74.0907 113.076 74.6933 113.002 75.472H117.53C117.508 74.6827 117.311 74.08 116.938 73.664C116.564 73.2373 116.042 73.024 115.37 73.024ZM123.199 80.112C122.708 80.112 122.239 80.0533 121.791 79.936C121.354 79.8187 120.964 79.6533 120.623 79.44C120.431 79.312 120.292 79.1947 120.207 79.088C120.132 78.9707 120.095 78.832 120.095 78.672C120.095 78.5333 120.132 78.4213 120.207 78.336C120.292 78.24 120.399 78.192 120.527 78.192C120.655 78.192 120.842 78.272 121.087 78.432C121.407 78.624 121.722 78.7787 122.031 78.896C122.351 79.0027 122.746 79.056 123.215 79.056C123.791 79.056 124.239 78.9547 124.559 78.752C124.879 78.5493 125.039 78.256 125.039 77.872C125.039 77.6373 124.98 77.4507 124.863 77.312C124.746 77.1627 124.543 77.0347 124.255 76.928C123.967 76.8107 123.546 76.6933 122.991 76.576C122.052 76.3733 121.38 76.1013 120.975 75.76C120.57 75.4187 120.367 74.9547 120.367 74.368C120.367 73.9093 120.495 73.504 120.751 73.152C121.007 72.8 121.359 72.5227 121.807 72.32C122.266 72.1173 122.783 72.016 123.359 72.016C123.775 72.016 124.175 72.0747 124.559 72.192C124.954 72.2987 125.3 72.4533 125.599 72.656C125.962 72.912 126.143 73.1787 126.143 73.456C126.143 73.5947 126.1 73.712 126.015 73.808C125.93 73.904 125.828 73.952 125.711 73.952C125.583 73.952 125.391 73.8613 125.135 73.68C124.836 73.488 124.554 73.3387 124.287 73.232C124.02 73.1253 123.69 73.072 123.295 73.072C122.794 73.072 122.388 73.184 122.079 73.408C121.78 73.632 121.631 73.9307 121.631 74.304C121.631 74.5387 121.684 74.7307 121.791 74.88C121.908 75.0187 122.095 75.1467 122.351 75.264C122.618 75.3707 122.996 75.4773 123.487 75.584C124.212 75.744 124.772 75.92 125.167 76.112C125.572 76.304 125.86 76.5387 126.031 76.816C126.202 77.0933 126.287 77.4453 126.287 77.872C126.287 78.544 126.004 79.088 125.439 79.504C124.874 79.9093 124.127 80.112 123.199 80.112ZM136.244 72.048C136.692 72.016 136.916 72.1973 136.916 72.592C136.916 72.7627 136.868 72.9013 136.772 73.008C136.676 73.104 136.51 73.1627 136.276 73.184L135.796 73.232C135.081 73.296 134.548 73.552 134.196 74C133.854 74.4373 133.684 74.9547 133.684 75.552V79.44C133.684 79.6533 133.625 79.8133 133.508 79.92C133.39 80.0267 133.236 80.08 133.044 80.08C132.852 80.08 132.692 80.0267 132.564 79.92C132.446 79.8027 132.388 79.6427 132.388 79.44V72.688C132.388 72.4853 132.452 72.3307 132.58 72.224C132.708 72.1067 132.862 72.048 133.044 72.048C133.214 72.048 133.358 72.1067 133.476 72.224C133.593 72.3307 133.652 72.48 133.652 72.672V73.568C133.876 73.0987 134.19 72.7413 134.596 72.496C135.012 72.2507 135.486 72.1067 136.02 72.064L136.244 72.048ZM143.904 78.192C144.021 78.192 144.123 78.24 144.208 78.336C144.293 78.432 144.336 78.5547 144.336 78.704C144.336 78.9707 144.149 79.216 143.776 79.44C143.392 79.664 142.987 79.8347 142.56 79.952C142.133 80.0587 141.717 80.112 141.312 80.112C140.107 80.112 139.152 79.7547 138.448 79.04C137.755 78.3253 137.408 77.3387 137.408 76.08C137.408 75.28 137.563 74.576 137.872 73.968C138.181 73.3493 138.613 72.8693 139.168 72.528C139.733 72.1867 140.373 72.016 141.088 72.016C142.101 72.016 142.907 72.3467 143.504 73.008C144.101 73.6693 144.4 74.5653 144.4 75.696C144.4 75.9093 144.357 76.064 144.272 76.16C144.187 76.256 144.048 76.304 143.856 76.304H138.704C138.8 78.1387 139.669 79.056 141.312 79.056C141.728 79.056 142.085 79.0027 142.384 78.896C142.683 78.7787 143.003 78.624 143.344 78.432C143.621 78.272 143.808 78.192 143.904 78.192ZM141.104 73.024C140.421 73.024 139.872 73.2373 139.456 73.664C139.051 74.0907 138.811 74.6933 138.736 75.472H143.264C143.243 74.6827 143.045 74.08 142.672 73.664C142.299 73.2373 141.776 73.024 141.104 73.024ZM149.493 72.016C151.445 72.016 152.421 73.04 152.421 75.088V79.44C152.421 79.632 152.363 79.7867 152.245 79.904C152.139 80.0213 151.989 80.08 151.797 80.08C151.605 80.08 151.451 80.0213 151.333 79.904C151.216 79.7867 151.157 79.632 151.157 79.44V78.672C150.955 79.1307 150.645 79.488 150.229 79.744C149.813 79.9893 149.333 80.112 148.789 80.112C148.288 80.112 147.824 80.0107 147.397 79.808C146.981 79.6053 146.651 79.3227 146.405 78.96C146.16 78.5973 146.037 78.1973 146.037 77.76C146.037 77.1733 146.187 76.72 146.485 76.4C146.784 76.0693 147.275 75.8347 147.957 75.696C148.64 75.5467 149.589 75.472 150.805 75.472H151.157V74.944C151.157 74.304 151.024 73.8347 150.757 73.536C150.501 73.2373 150.08 73.088 149.493 73.088C148.768 73.088 148.032 73.2853 147.285 73.68C146.997 73.8613 146.795 73.952 146.677 73.952C146.549 73.952 146.443 73.904 146.357 73.808C146.272 73.712 146.229 73.5893 146.229 73.44C146.229 73.2907 146.272 73.1627 146.357 73.056C146.453 72.9387 146.603 72.8213 146.805 72.704C147.179 72.4907 147.6 72.3253 148.069 72.208C148.549 72.08 149.024 72.016 149.493 72.016ZM148.965 79.088C149.605 79.088 150.128 78.8747 150.533 78.448C150.949 78.0107 151.157 77.4507 151.157 76.768V76.304H150.869C149.931 76.304 149.216 76.3467 148.725 76.432C148.235 76.5067 147.883 76.64 147.669 76.832C147.467 77.0133 147.365 77.2853 147.365 77.648C147.365 78.064 147.515 78.4107 147.813 78.688C148.123 78.9547 148.507 79.088 148.965 79.088ZM155.45 80.08C155.258 80.08 155.098 80.0267 154.97 79.92C154.852 79.8027 154.794 79.6427 154.794 79.44V69.28C154.794 69.0773 154.852 68.9227 154.97 68.816C155.098 68.6987 155.258 68.64 155.45 68.64C155.631 68.64 155.78 68.6987 155.898 68.816C156.026 68.9227 156.09 69.0773 156.09 69.28V79.44C156.09 79.6427 156.026 79.8027 155.898 79.92C155.78 80.0267 155.631 80.08 155.45 80.08ZM159.169 80.08C158.977 80.08 158.817 80.0267 158.689 79.92C158.571 79.8027 158.513 79.6427 158.513 79.44V72.688C158.513 72.4853 158.571 72.3307 158.689 72.224C158.817 72.1067 158.977 72.048 159.169 72.048C159.361 72.048 159.515 72.1067 159.633 72.224C159.75 72.3307 159.809 72.4853 159.809 72.688V79.44C159.809 79.6533 159.75 79.8133 159.633 79.92C159.515 80.0267 159.361 80.08 159.169 80.08ZM159.169 70.368C158.913 70.368 158.705 70.2933 158.545 70.144C158.385 69.9947 158.305 69.7973 158.305 69.552C158.305 69.3173 158.385 69.1253 158.545 68.976C158.705 68.8267 158.913 68.752 159.169 68.752C159.425 68.752 159.633 68.8267 159.793 68.976C159.953 69.1253 160.033 69.3173 160.033 69.552C160.033 69.7973 159.953 69.9947 159.793 70.144C159.633 70.2933 159.425 70.368 159.169 70.368ZM167.959 78.976C168.141 78.976 168.279 79.024 168.375 79.12C168.471 79.2053 168.519 79.328 168.519 79.488C168.519 79.648 168.471 79.776 168.375 79.872C168.279 79.9573 168.141 80 167.959 80H162.359C162.178 80 162.029 79.9467 161.911 79.84C161.794 79.7227 161.735 79.584 161.735 79.424C161.735 79.2533 161.799 79.088 161.927 78.928L166.663 73.232H162.279C162.098 73.232 161.954 73.1893 161.847 73.104C161.751 73.008 161.703 72.8853 161.703 72.736C161.703 72.576 161.751 72.448 161.847 72.352C161.954 72.256 162.098 72.208 162.279 72.208H167.703C167.895 72.208 168.05 72.2667 168.167 72.384C168.285 72.4907 168.343 72.624 168.343 72.784C168.343 72.9547 168.279 73.12 168.151 73.28L163.399 78.976H167.959ZM173.384 72.016C175.336 72.016 176.312 73.04 176.312 75.088V79.44C176.312 79.632 176.253 79.7867 176.136 79.904C176.029 80.0213 175.88 80.08 175.688 80.08C175.496 80.08 175.341 80.0213 175.224 79.904C175.107 79.7867 175.048 79.632 175.048 79.44V78.672C174.845 79.1307 174.536 79.488 174.12 79.744C173.704 79.9893 173.224 80.112 172.68 80.112C172.179 80.112 171.715 80.0107 171.288 79.808C170.872 79.6053 170.541 79.3227 170.296 78.96C170.051 78.5973 169.928 78.1973 169.928 77.76C169.928 77.1733 170.077 76.72 170.376 76.4C170.675 76.0693 171.165 75.8347 171.848 75.696C172.531 75.5467 173.48 75.472 174.696 75.472H175.048V74.944C175.048 74.304 174.915 73.8347 174.648 73.536C174.392 73.2373 173.971 73.088 173.384 73.088C172.659 73.088 171.923 73.2853 171.176 73.68C170.888 73.8613 170.685 73.952 170.568 73.952C170.44 73.952 170.333 73.904 170.248 73.808C170.163 73.712 170.12 73.5893 170.12 73.44C170.12 73.2907 170.163 73.1627 170.248 73.056C170.344 72.9387 170.493 72.8213 170.696 72.704C171.069 72.4907 171.491 72.3253 171.96 72.208C172.44 72.08 172.915 72.016 173.384 72.016ZM172.856 79.088C173.496 79.088 174.019 78.8747 174.424 78.448C174.84 78.0107 175.048 77.4507 175.048 76.768V76.304H174.76C173.821 76.304 173.107 76.3467 172.616 76.432C172.125 76.5067 171.773 76.64 171.56 76.832C171.357 77.0133 171.256 77.2853 171.256 77.648C171.256 78.064 171.405 78.4107 171.704 78.688C172.013 78.9547 172.397 79.088 172.856 79.088ZM182.54 72.048C182.988 72.016 183.212 72.1973 183.212 72.592C183.212 72.7627 183.164 72.9013 183.068 73.008C182.972 73.104 182.807 73.1627 182.572 73.184L182.092 73.232C181.378 73.296 180.844 73.552 180.492 74C180.151 74.4373 179.98 74.9547 179.98 75.552V79.44C179.98 79.6533 179.922 79.8133 179.804 79.92C179.687 80.0267 179.532 80.08 179.34 80.08C179.148 80.08 178.988 80.0267 178.86 79.92C178.743 79.8027 178.684 79.6427 178.684 79.44V72.688C178.684 72.4853 178.748 72.3307 178.876 72.224C179.004 72.1067 179.159 72.048 179.34 72.048C179.511 72.048 179.655 72.1067 179.772 72.224C179.89 72.3307 179.948 72.48 179.948 72.672V73.568C180.172 73.0987 180.487 72.7413 180.892 72.496C181.308 72.2507 181.783 72.1067 182.316 72.064L182.54 72.048ZM189.106 80.08C188.914 80.08 188.754 80.0267 188.626 79.92C188.509 79.8027 188.45 79.6427 188.45 79.44V69.28C188.45 69.0773 188.509 68.9227 188.626 68.816C188.754 68.6987 188.914 68.64 189.106 68.64C189.287 68.64 189.437 68.6987 189.554 68.816C189.682 68.9227 189.746 69.0773 189.746 69.28V79.44C189.746 79.6427 189.682 79.8027 189.554 79.92C189.437 80.0267 189.287 80.08 189.106 80.08ZM195.353 72.016C197.305 72.016 198.281 73.04 198.281 75.088V79.44C198.281 79.632 198.222 79.7867 198.105 79.904C197.998 80.0213 197.849 80.08 197.657 80.08C197.465 80.08 197.31 80.0213 197.193 79.904C197.075 79.7867 197.017 79.632 197.017 79.44V78.672C196.814 79.1307 196.505 79.488 196.089 79.744C195.673 79.9893 195.193 80.112 194.649 80.112C194.147 80.112 193.683 80.0107 193.257 79.808C192.841 79.6053 192.51 79.3227 192.265 78.96C192.019 78.5973 191.897 78.1973 191.897 77.76C191.897 77.1733 192.046 76.72 192.345 76.4C192.643 76.0693 193.134 75.8347 193.817 75.696C194.499 75.5467 195.449 75.472 196.665 75.472H197.017V74.944C197.017 74.304 196.883 73.8347 196.617 73.536C196.361 73.2373 195.939 73.088 195.353 73.088C194.627 73.088 193.891 73.2853 193.145 73.68C192.857 73.8613 192.654 73.952 192.537 73.952C192.409 73.952 192.302 73.904 192.217 73.808C192.131 73.712 192.089 73.5893 192.089 73.44C192.089 73.2907 192.131 73.1627 192.217 73.056C192.313 72.9387 192.462 72.8213 192.665 72.704C193.038 72.4907 193.459 72.3253 193.929 72.208C194.409 72.08 194.883 72.016 195.353 72.016ZM194.825 79.088C195.465 79.088 195.987 78.8747 196.393 78.448C196.809 78.0107 197.017 77.4507 197.017 76.768V76.304H196.729C195.79 76.304 195.075 76.3467 194.585 76.432C194.094 76.5067 193.742 76.64 193.529 76.832C193.326 77.0133 193.225 77.2853 193.225 77.648C193.225 78.064 193.374 78.4107 193.673 78.688C193.982 78.9547 194.366 79.088 194.825 79.088ZM203.277 80.112C202.786 80.112 202.317 80.0533 201.869 79.936C201.432 79.8187 201.042 79.6533 200.701 79.44C200.509 79.312 200.37 79.1947 200.285 79.088C200.21 78.9707 200.173 78.832 200.173 78.672C200.173 78.5333 200.21 78.4213 200.285 78.336C200.37 78.24 200.477 78.192 200.605 78.192C200.733 78.192 200.92 78.272 201.165 78.432C201.485 78.624 201.8 78.7787 202.109 78.896C202.429 79.0027 202.824 79.056 203.293 79.056C203.869 79.056 204.317 78.9547 204.637 78.752C204.957 78.5493 205.117 78.256 205.117 77.872C205.117 77.6373 205.058 77.4507 204.941 77.312C204.824 77.1627 204.621 77.0347 204.333 76.928C204.045 76.8107 203.624 76.6933 203.069 76.576C202.13 76.3733 201.458 76.1013 201.053 75.76C200.648 75.4187 200.445 74.9547 200.445 74.368C200.445 73.9093 200.573 73.504 200.829 73.152C201.085 72.8 201.437 72.5227 201.885 72.32C202.344 72.1173 202.861 72.016 203.437 72.016C203.853 72.016 204.253 72.0747 204.637 72.192C205.032 72.2987 205.378 72.4533 205.677 72.656C206.04 72.912 206.221 73.1787 206.221 73.456C206.221 73.5947 206.178 73.712 206.093 73.808C206.008 73.904 205.906 73.952 205.789 73.952C205.661 73.952 205.469 73.8613 205.213 73.68C204.914 73.488 204.632 73.3387 204.365 73.232C204.098 73.1253 203.768 73.072 203.373 73.072C202.872 73.072 202.466 73.184 202.157 73.408C201.858 73.632 201.709 73.9307 201.709 74.304C201.709 74.5387 201.762 74.7307 201.869 74.88C201.986 75.0187 202.173 75.1467 202.429 75.264C202.696 75.3707 203.074 75.4773 203.565 75.584C204.29 75.744 204.85 75.92 205.245 76.112C205.65 76.304 205.938 76.5387 206.109 76.816C206.28 77.0933 206.365 77.4453 206.365 77.872C206.365 78.544 206.082 79.088 205.517 79.504C204.952 79.9093 204.205 80.112 203.277 80.112ZM216.066 79.056C216.439 79.088 216.626 79.2587 216.626 79.568C216.626 79.7493 216.556 79.888 216.418 79.984C216.29 80.0693 216.092 80.1013 215.826 80.08L215.394 80.048C214.54 79.984 213.911 79.728 213.506 79.28C213.1 78.832 212.898 78.1547 212.898 77.248V73.232H211.826C211.644 73.232 211.5 73.1893 211.394 73.104C211.298 73.008 211.25 72.8853 211.25 72.736C211.25 72.576 211.298 72.448 211.394 72.352C211.5 72.256 211.644 72.208 211.826 72.208H212.898V70.4C212.898 70.1973 212.956 70.0427 213.074 69.936C213.191 69.8187 213.351 69.76 213.554 69.76C213.746 69.76 213.9 69.8187 214.018 69.936C214.135 70.0427 214.194 70.1973 214.194 70.4V72.208H215.97C216.14 72.208 216.274 72.256 216.37 72.352C216.476 72.448 216.53 72.576 216.53 72.736C216.53 72.8853 216.476 73.008 216.37 73.104C216.274 73.1893 216.14 73.232 215.97 73.232H214.194V77.312C214.194 77.8987 214.311 78.3253 214.546 78.592C214.791 78.848 215.154 78.992 215.634 79.024L216.066 79.056ZM221.759 72.048C222.207 72.016 222.431 72.1973 222.431 72.592C222.431 72.7627 222.383 72.9013 222.287 73.008C222.191 73.104 222.026 73.1627 221.791 73.184L221.311 73.232C220.596 73.296 220.063 73.552 219.711 74C219.37 74.4373 219.199 74.9547 219.199 75.552V79.44C219.199 79.6533 219.14 79.8133 219.023 79.92C218.906 80.0267 218.751 80.08 218.559 80.08C218.367 80.08 218.207 80.0267 218.079 79.92C217.962 79.8027 217.903 79.6427 217.903 79.44V72.688C217.903 72.4853 217.967 72.3307 218.095 72.224C218.223 72.1067 218.378 72.048 218.559 72.048C218.73 72.048 218.874 72.1067 218.991 72.224C219.108 72.3307 219.167 72.48 219.167 72.672V73.568C219.391 73.0987 219.706 72.7413 220.111 72.496C220.527 72.2507 221.002 72.1067 221.535 72.064L221.759 72.048ZM226.665 72.016C228.617 72.016 229.593 73.04 229.593 75.088V79.44C229.593 79.632 229.535 79.7867 229.417 79.904C229.311 80.0213 229.161 80.08 228.969 80.08C228.777 80.08 228.623 80.0213 228.505 79.904C228.388 79.7867 228.329 79.632 228.329 79.44V78.672C228.127 79.1307 227.817 79.488 227.401 79.744C226.985 79.9893 226.505 80.112 225.961 80.112C225.46 80.112 224.996 80.0107 224.569 79.808C224.153 79.6053 223.823 79.3227 223.577 78.96C223.332 78.5973 223.209 78.1973 223.209 77.76C223.209 77.1733 223.359 76.72 223.657 76.4C223.956 76.0693 224.447 75.8347 225.129 75.696C225.812 75.5467 226.761 75.472 227.977 75.472H228.329V74.944C228.329 74.304 228.196 73.8347 227.929 73.536C227.673 73.2373 227.252 73.088 226.665 73.088C225.94 73.088 225.204 73.2853 224.457 73.68C224.169 73.8613 223.967 73.952 223.849 73.952C223.721 73.952 223.615 73.904 223.529 73.808C223.444 73.712 223.401 73.5893 223.401 73.44C223.401 73.2907 223.444 73.1627 223.529 73.056C223.625 72.9387 223.775 72.8213 223.977 72.704C224.351 72.4907 224.772 72.3253 225.241 72.208C225.721 72.08 226.196 72.016 226.665 72.016ZM226.137 79.088C226.777 79.088 227.3 78.8747 227.705 78.448C228.121 78.0107 228.329 77.4507 228.329 76.768V76.304H228.041C227.103 76.304 226.388 76.3467 225.897 76.432C225.407 76.5067 225.055 76.64 224.841 76.832C224.639 77.0133 224.537 77.2853 224.537 77.648C224.537 78.064 224.687 78.4107 224.985 78.688C225.295 78.9547 225.679 79.088 226.137 79.088ZM235.886 72.016C237.752 72.016 238.686 73.0453 238.686 75.104V79.44C238.686 79.6427 238.627 79.8027 238.51 79.92C238.403 80.0267 238.248 80.08 238.046 80.08C237.843 80.08 237.683 80.0267 237.566 79.92C237.448 79.8027 237.39 79.6427 237.39 79.44V75.184C237.39 74.4587 237.246 73.9307 236.958 73.6C236.68 73.2693 236.232 73.104 235.614 73.104C234.899 73.104 234.328 73.3227 233.902 73.76C233.475 74.1973 233.262 74.7893 233.262 75.536V79.44C233.262 79.6427 233.203 79.8027 233.086 79.92C232.979 80.0267 232.824 80.08 232.622 80.08C232.419 80.08 232.259 80.0267 232.142 79.92C232.024 79.8027 231.966 79.6427 231.966 79.44V72.688C231.966 72.496 232.024 72.3413 232.142 72.224C232.259 72.1067 232.419 72.048 232.622 72.048C232.814 72.048 232.963 72.1067 233.07 72.224C233.187 72.3413 233.246 72.4907 233.246 72.672V73.488C233.502 73.008 233.859 72.6453 234.318 72.4C234.776 72.144 235.299 72.016 235.886 72.016ZM243.683 80.112C243.193 80.112 242.723 80.0533 242.275 79.936C241.838 79.8187 241.449 79.6533 241.107 79.44C240.915 79.312 240.777 79.1947 240.691 79.088C240.617 78.9707 240.579 78.832 240.579 78.672C240.579 78.5333 240.617 78.4213 240.691 78.336C240.777 78.24 240.883 78.192 241.011 78.192C241.139 78.192 241.326 78.272 241.571 78.432C241.891 78.624 242.206 78.7787 242.515 78.896C242.835 79.0027 243.23 79.056 243.699 79.056C244.275 79.056 244.723 78.9547 245.043 78.752C245.363 78.5493 245.523 78.256 245.523 77.872C245.523 77.6373 245.465 77.4507 245.347 77.312C245.23 77.1627 245.027 77.0347 244.739 76.928C244.451 76.8107 244.03 76.6933 243.475 76.576C242.537 76.3733 241.865 76.1013 241.459 75.76C241.054 75.4187 240.851 74.9547 240.851 74.368C240.851 73.9093 240.979 73.504 241.235 73.152C241.491 72.8 241.843 72.5227 242.291 72.32C242.75 72.1173 243.267 72.016 243.843 72.016C244.259 72.016 244.659 72.0747 245.043 72.192C245.438 72.2987 245.785 72.4533 246.083 72.656C246.446 72.912 246.627 73.1787 246.627 73.456C246.627 73.5947 246.585 73.712 246.499 73.808C246.414 73.904 246.313 73.952 246.195 73.952C246.067 73.952 245.875 73.8613 245.619 73.68C245.321 73.488 245.038 73.3387 244.771 73.232C244.505 73.1253 244.174 73.072 243.779 73.072C243.278 73.072 242.873 73.184 242.563 73.408C242.265 73.632 242.115 73.9307 242.115 74.304C242.115 74.5387 242.169 74.7307 242.275 74.88C242.393 75.0187 242.579 75.1467 242.835 75.264C243.102 75.3707 243.481 75.4773 243.971 75.584C244.697 75.744 245.257 75.92 245.651 76.112C246.057 76.304 246.345 76.5387 246.515 76.816C246.686 77.0933 246.771 77.4453 246.771 77.872C246.771 78.544 246.489 79.088 245.923 79.504C245.358 79.9093 244.611 80.112 243.683 80.112ZM252.187 69.744C251.622 69.7867 251.195 69.968 250.907 70.288C250.619 70.5973 250.475 71.0667 250.475 71.696V72.208H252.251C252.432 72.208 252.571 72.256 252.667 72.352C252.763 72.448 252.811 72.576 252.811 72.736C252.811 72.896 252.763 73.0187 252.667 73.104C252.571 73.1893 252.432 73.232 252.251 73.232H250.475V79.44C250.475 79.6427 250.411 79.8027 250.283 79.92C250.166 80.0267 250.016 80.08 249.835 80.08C249.643 80.08 249.483 80.0267 249.355 79.92C249.238 79.8027 249.179 79.6427 249.179 79.44V73.232H248.107C247.926 73.232 247.782 73.1893 247.675 73.104C247.579 73.008 247.531 72.8853 247.531 72.736C247.531 72.576 247.579 72.448 247.675 72.352C247.782 72.256 247.926 72.208 248.107 72.208H249.179V71.92C249.179 70.96 249.419 70.208 249.899 69.664C250.379 69.1093 251.067 68.8 251.963 68.736L252.379 68.704C252.656 68.6827 252.854 68.7093 252.971 68.784C253.099 68.8587 253.163 68.992 253.163 69.184C253.163 69.4933 252.976 69.6693 252.603 69.712L252.187 69.744ZM259.951 78.192C260.068 78.192 260.169 78.24 260.255 78.336C260.34 78.432 260.383 78.5547 260.383 78.704C260.383 78.9707 260.196 79.216 259.823 79.44C259.439 79.664 259.033 79.8347 258.607 79.952C258.18 80.0587 257.764 80.112 257.359 80.112C256.153 80.112 255.199 79.7547 254.495 79.04C253.801 78.3253 253.455 77.3387 253.455 76.08C253.455 75.28 253.609 74.576 253.919 73.968C254.228 73.3493 254.66 72.8693 255.215 72.528C255.78 72.1867 256.42 72.016 257.135 72.016C258.148 72.016 258.953 72.3467 259.551 73.008C260.148 73.6693 260.447 74.5653 260.447 75.696C260.447 75.9093 260.404 76.064 260.319 76.16C260.233 76.256 260.095 76.304 259.903 76.304H254.751C254.847 78.1387 255.716 79.056 257.359 79.056C257.775 79.056 258.132 79.0027 258.431 78.896C258.729 78.7787 259.049 78.624 259.391 78.432C259.668 78.272 259.855 78.192 259.951 78.192ZM257.151 73.024C256.468 73.024 255.919 73.2373 255.503 73.664C255.097 74.0907 254.857 74.6933 254.783 75.472H259.311C259.289 74.6827 259.092 74.08 258.719 73.664C258.345 73.2373 257.823 73.024 257.151 73.024ZM266.212 72.048C266.66 72.016 266.884 72.1973 266.884 72.592C266.884 72.7627 266.836 72.9013 266.74 73.008C266.644 73.104 266.479 73.1627 266.244 73.184L265.764 73.232C265.05 73.296 264.516 73.552 264.164 74C263.823 74.4373 263.652 74.9547 263.652 75.552V79.44C263.652 79.6533 263.594 79.8133 263.476 79.92C263.359 80.0267 263.204 80.08 263.012 80.08C262.82 80.08 262.66 80.0267 262.532 79.92C262.415 79.8027 262.356 79.6427 262.356 79.44V72.688C262.356 72.4853 262.42 72.3307 262.548 72.224C262.676 72.1067 262.831 72.048 263.012 72.048C263.183 72.048 263.327 72.1067 263.444 72.224C263.562 72.3307 263.62 72.48 263.62 72.672V73.568C263.844 73.0987 264.159 72.7413 264.564 72.496C264.98 72.2507 265.455 72.1067 265.988 72.064L266.212 72.048ZM273.873 78.192C273.99 78.192 274.091 78.24 274.177 78.336C274.262 78.432 274.305 78.5547 274.305 78.704C274.305 78.9707 274.118 79.216 273.745 79.44C273.361 79.664 272.955 79.8347 272.529 79.952C272.102 80.0587 271.686 80.112 271.281 80.112C270.075 80.112 269.121 79.7547 268.417 79.04C267.723 78.3253 267.377 77.3387 267.377 76.08C267.377 75.28 267.531 74.576 267.841 73.968C268.15 73.3493 268.582 72.8693 269.137 72.528C269.702 72.1867 270.342 72.016 271.057 72.016C272.07 72.016 272.875 72.3467 273.473 73.008C274.07 73.6693 274.369 74.5653 274.369 75.696C274.369 75.9093 274.326 76.064 274.241 76.16C274.155 76.256 274.017 76.304 273.825 76.304H268.673C268.769 78.1387 269.638 79.056 271.281 79.056C271.697 79.056 272.054 79.0027 272.353 78.896C272.651 78.7787 272.971 78.624 273.313 78.432C273.59 78.272 273.777 78.192 273.873 78.192ZM271.073 73.024C270.39 73.024 269.841 73.2373 269.425 73.664C269.019 74.0907 268.779 74.6933 268.705 75.472H273.233C273.211 74.6827 273.014 74.08 272.641 73.664C272.267 73.2373 271.745 73.024 271.073 73.024ZM280.198 72.016C282.065 72.016 282.998 73.0453 282.998 75.104V79.44C282.998 79.6427 282.939 79.8027 282.822 79.92C282.715 80.0267 282.561 80.08 282.358 80.08C282.155 80.08 281.995 80.0267 281.878 79.92C281.761 79.8027 281.702 79.6427 281.702 79.44V75.184C281.702 74.4587 281.558 73.9307 281.27 73.6C280.993 73.2693 280.545 73.104 279.926 73.104C279.211 73.104 278.641 73.3227 278.214 73.76C277.787 74.1973 277.574 74.7893 277.574 75.536V79.44C277.574 79.6427 277.515 79.8027 277.398 79.92C277.291 80.0267 277.137 80.08 276.934 80.08C276.731 80.08 276.571 80.0267 276.454 79.92C276.337 79.8027 276.278 79.6427 276.278 79.44V72.688C276.278 72.496 276.337 72.3413 276.454 72.224C276.571 72.1067 276.731 72.048 276.934 72.048C277.126 72.048 277.275 72.1067 277.382 72.224C277.499 72.3413 277.558 72.4907 277.558 72.672V73.488C277.814 73.008 278.171 72.6453 278.63 72.4C279.089 72.144 279.611 72.016 280.198 72.016ZM288.588 80.112C287.863 80.112 287.217 79.9467 286.652 79.616C286.097 79.2853 285.665 78.816 285.356 78.208C285.057 77.6 284.908 76.896 284.908 76.096C284.908 75.296 285.063 74.5867 285.372 73.968C285.692 73.3493 286.135 72.8693 286.7 72.528C287.265 72.1867 287.916 72.016 288.652 72.016C289.057 72.016 289.457 72.0747 289.852 72.192C290.257 72.2987 290.609 72.4587 290.908 72.672C291.1 72.8 291.233 72.928 291.308 73.056C291.393 73.1733 291.436 73.3067 291.436 73.456C291.436 73.6053 291.393 73.728 291.308 73.824C291.233 73.92 291.132 73.968 291.004 73.968C290.929 73.968 290.849 73.9467 290.764 73.904C290.679 73.8613 290.604 73.8187 290.54 73.776C290.487 73.7333 290.449 73.7067 290.428 73.696C290.151 73.5147 289.884 73.3707 289.628 73.264C289.383 73.1573 289.079 73.104 288.716 73.104C287.937 73.104 287.329 73.3707 286.892 73.904C286.465 74.4267 286.252 75.1573 286.252 76.096C286.252 77.0347 286.465 77.76 286.892 78.272C287.329 78.784 287.937 79.04 288.716 79.04C289.079 79.04 289.388 78.9867 289.644 78.88C289.911 78.7733 290.177 78.6293 290.444 78.448C290.561 78.3733 290.673 78.3093 290.78 78.256C290.887 78.2027 290.977 78.176 291.052 78.176C291.169 78.176 291.265 78.224 291.34 78.32C291.425 78.416 291.468 78.5387 291.468 78.688C291.468 78.8267 291.431 78.9547 291.356 79.072C291.281 79.1787 291.143 79.3013 290.94 79.44C290.641 79.6427 290.279 79.808 289.852 79.936C289.436 80.0533 289.015 80.112 288.588 80.112ZM293.684 80.08C293.492 80.08 293.332 80.0267 293.204 79.92C293.087 79.8027 293.028 79.6427 293.028 79.44V72.688C293.028 72.4853 293.087 72.3307 293.204 72.224C293.332 72.1067 293.492 72.048 293.684 72.048C293.876 72.048 294.031 72.1067 294.148 72.224C294.265 72.3307 294.324 72.4853 294.324 72.688V79.44C294.324 79.6533 294.265 79.8133 294.148 79.92C294.031 80.0267 293.876 80.08 293.684 80.08ZM293.684 70.368C293.428 70.368 293.22 70.2933 293.06 70.144C292.9 69.9947 292.82 69.7973 292.82 69.552C292.82 69.3173 292.9 69.1253 293.06 68.976C293.22 68.8267 293.428 68.752 293.684 68.752C293.94 68.752 294.148 68.8267 294.308 68.976C294.468 69.1253 294.548 69.3173 294.548 69.552C294.548 69.7973 294.468 69.9947 294.308 70.144C294.148 70.2933 293.94 70.368 293.684 70.368ZM299.931 72.016C301.883 72.016 302.859 73.04 302.859 75.088V79.44C302.859 79.632 302.8 79.7867 302.683 79.904C302.576 80.0213 302.427 80.08 302.235 80.08C302.043 80.08 301.888 80.0213 301.771 79.904C301.654 79.7867 301.595 79.632 301.595 79.44V78.672C301.392 79.1307 301.083 79.488 300.667 79.744C300.251 79.9893 299.771 80.112 299.227 80.112C298.726 80.112 298.262 80.0107 297.835 79.808C297.419 79.6053 297.088 79.3227 296.843 78.96C296.598 78.5973 296.475 78.1973 296.475 77.76C296.475 77.1733 296.624 76.72 296.923 76.4C297.222 76.0693 297.712 75.8347 298.395 75.696C299.078 75.5467 300.027 75.472 301.243 75.472H301.595V74.944C301.595 74.304 301.462 73.8347 301.195 73.536C300.939 73.2373 300.518 73.088 299.931 73.088C299.206 73.088 298.47 73.2853 297.723 73.68C297.435 73.8613 297.232 73.952 297.115 73.952C296.987 73.952 296.88 73.904 296.795 73.808C296.71 73.712 296.667 73.5893 296.667 73.44C296.667 73.2907 296.71 73.1627 296.795 73.056C296.891 72.9387 297.04 72.8213 297.243 72.704C297.616 72.4907 298.038 72.3253 298.507 72.208C298.987 72.08 299.462 72.016 299.931 72.016ZM299.403 79.088C300.043 79.088 300.566 78.8747 300.971 78.448C301.387 78.0107 301.595 77.4507 301.595 76.768V76.304H301.307C300.368 76.304 299.654 76.3467 299.163 76.432C298.672 76.5067 298.32 76.64 298.107 76.832C297.904 77.0133 297.803 77.2853 297.803 77.648C297.803 78.064 297.952 78.4107 298.251 78.688C298.56 78.9547 298.944 79.088 299.403 79.088ZM307.855 80.112C307.365 80.112 306.895 80.0533 306.447 79.936C306.01 79.8187 305.621 79.6533 305.279 79.44C305.087 79.312 304.949 79.1947 304.863 79.088C304.789 78.9707 304.751 78.832 304.751 78.672C304.751 78.5333 304.789 78.4213 304.863 78.336C304.949 78.24 305.055 78.192 305.183 78.192C305.311 78.192 305.498 78.272 305.743 78.432C306.063 78.624 306.378 78.7787 306.687 78.896C307.007 79.0027 307.402 79.056 307.871 79.056C308.447 79.056 308.895 78.9547 309.215 78.752C309.535 78.5493 309.695 78.256 309.695 77.872C309.695 77.6373 309.637 77.4507 309.519 77.312C309.402 77.1627 309.199 77.0347 308.911 76.928C308.623 76.8107 308.202 76.6933 307.647 76.576C306.709 76.3733 306.037 76.1013 305.631 75.76C305.226 75.4187 305.023 74.9547 305.023 74.368C305.023 73.9093 305.151 73.504 305.407 73.152C305.663 72.8 306.015 72.5227 306.463 72.32C306.922 72.1173 307.439 72.016 308.015 72.016C308.431 72.016 308.831 72.0747 309.215 72.192C309.61 72.2987 309.957 72.4533 310.255 72.656C310.618 72.912 310.799 73.1787 310.799 73.456C310.799 73.5947 310.757 73.712 310.671 73.808C310.586 73.904 310.485 73.952 310.367 73.952C310.239 73.952 310.047 73.8613 309.791 73.68C309.493 73.488 309.21 73.3387 308.943 73.232C308.677 73.1253 308.346 73.072 307.951 73.072C307.45 73.072 307.045 73.184 306.735 73.408C306.437 73.632 306.287 73.9307 306.287 74.304C306.287 74.5387 306.341 74.7307 306.447 74.88C306.565 75.0187 306.751 75.1467 307.007 75.264C307.274 75.3707 307.653 75.4773 308.143 75.584C308.869 75.744 309.429 75.92 309.823 76.112C310.229 76.304 310.517 76.5387 310.687 76.816C310.858 77.0933 310.943 77.4453 310.943 77.872C310.943 78.544 310.661 79.088 310.095 79.504C309.53 79.9093 308.783 80.112 307.855 80.112ZM81.232 100.192C81.3493 100.192 81.4507 100.24 81.536 100.336C81.6213 100.432 81.664 100.555 81.664 100.704C81.664 100.971 81.4773 101.216 81.104 101.44C80.72 101.664 80.3147 101.835 79.888 101.952C79.4613 102.059 79.0453 102.112 78.64 102.112C77.4347 102.112 76.48 101.755 75.776 101.04C75.0827 100.325 74.736 99.3387 74.736 98.08C74.736 97.28 74.8907 96.576 75.2 95.968C75.5093 95.3493 75.9413 94.8693 76.496 94.528C77.0613 94.1867 77.7013 94.016 78.416 94.016C79.4293 94.016 80.2347 94.3467 80.832 95.008C81.4293 95.6693 81.728 96.5653 81.728 97.696C81.728 97.9093 81.6853 98.064 81.6 98.16C81.5147 98.256 81.376 98.304 81.184 98.304H76.032C76.128 100.139 76.9973 101.056 78.64 101.056C79.056 101.056 79.4133 101.003 79.712 100.896C80.0107 100.779 80.3307 100.624 80.672 100.432C80.9493 100.272 81.136 100.192 81.232 100.192ZM78.432 95.024C77.7493 95.024 77.2 95.2373 76.784 95.664C76.3787 96.0907 76.1387 96.6933 76.064 97.472H80.592C80.5707 96.6827 80.3733 96.08 80 95.664C79.6267 95.2373 79.104 95.024 78.432 95.024ZM87.5575 94.016C89.4242 94.016 90.3575 95.0453 90.3575 97.104V101.44C90.3575 101.643 90.2988 101.803 90.1815 101.92C90.0748 102.027 89.9202 102.08 89.7175 102.08C89.5148 102.08 89.3548 102.027 89.2375 101.92C89.1202 101.803 89.0615 101.643 89.0615 101.44V97.184C89.0615 96.4587 88.9175 95.9307 88.6295 95.6C88.3522 95.2693 87.9042 95.104 87.2855 95.104C86.5708 95.104 86.0002 95.3227 85.5735 95.76C85.1468 96.1973 84.9335 96.7893 84.9335 97.536V101.44C84.9335 101.643 84.8748 101.803 84.7575 101.92C84.6508 102.027 84.4962 102.08 84.2935 102.08C84.0908 102.08 83.9308 102.027 83.8135 101.92C83.6962 101.803 83.6375 101.643 83.6375 101.44V94.688C83.6375 94.496 83.6962 94.3413 83.8135 94.224C83.9308 94.1067 84.0908 94.048 84.2935 94.048C84.4855 94.048 84.6348 94.1067 84.7415 94.224C84.8588 94.3413 84.9175 94.4907 84.9175 94.672V95.488C85.1735 95.008 85.5308 94.6453 85.9895 94.4C86.4482 94.144 86.9708 94.016 87.5575 94.016ZM105.528 94.016C107.256 94.016 108.12 95.0453 108.12 97.104V101.44C108.12 101.643 108.062 101.803 107.944 101.92C107.827 102.027 107.672 102.08 107.48 102.08C107.288 102.08 107.128 102.027 107 101.92C106.883 101.803 106.824 101.643 106.824 101.44V97.136C106.824 96.4213 106.696 95.904 106.44 95.584C106.184 95.264 105.784 95.104 105.24 95.104C104.59 95.104 104.078 95.3227 103.704 95.76C103.331 96.1973 103.144 96.7893 103.144 97.536V101.44C103.144 101.643 103.08 101.803 102.952 101.92C102.835 102.027 102.68 102.08 102.488 102.08C102.296 102.08 102.142 102.027 102.024 101.92C101.907 101.803 101.848 101.643 101.848 101.44V97.136C101.848 96.4213 101.72 95.904 101.464 95.584C101.208 95.264 100.803 95.104 100.248 95.104C99.6083 95.104 99.0963 95.3227 98.7123 95.76C98.3389 96.1973 98.1523 96.7893 98.1523 97.536V101.44C98.1523 101.643 98.0936 101.803 97.9763 101.92C97.8589 102.027 97.7043 102.08 97.5123 102.08C97.3203 102.08 97.1603 102.027 97.0323 101.92C96.9149 101.803 96.8563 101.643 96.8563 101.44V94.688C96.8563 94.496 96.9149 94.3413 97.0323 94.224C97.1603 94.1067 97.3203 94.048 97.5123 94.048C97.6936 94.048 97.8429 94.1067 97.9603 94.224C98.0776 94.3307 98.1363 94.48 98.1363 94.672V95.44C98.3709 94.9813 98.6963 94.6293 99.1123 94.384C99.5283 94.1387 100.008 94.016 100.552 94.016C101.768 94.016 102.563 94.528 102.936 95.552C103.16 95.0827 103.502 94.7093 103.96 94.432C104.419 94.1547 104.942 94.016 105.528 94.016ZM111.137 102.08C110.945 102.08 110.785 102.027 110.657 101.92C110.54 101.803 110.481 101.643 110.481 101.44V94.688C110.481 94.4853 110.54 94.3307 110.657 94.224C110.785 94.1067 110.945 94.048 111.137 94.048C111.329 94.048 111.484 94.1067 111.601 94.224C111.719 94.3307 111.777 94.4853 111.777 94.688V101.44C111.777 101.653 111.719 101.813 111.601 101.92C111.484 102.027 111.329 102.08 111.137 102.08ZM111.137 92.368C110.881 92.368 110.673 92.2933 110.513 92.144C110.353 91.9947 110.273 91.7973 110.273 91.552C110.273 91.3173 110.353 91.1253 110.513 90.976C110.673 90.8267 110.881 90.752 111.137 90.752C111.393 90.752 111.601 90.8267 111.761 90.976C111.921 91.1253 112.001 91.3173 112.001 91.552C112.001 91.7973 111.921 91.9947 111.761 92.144C111.601 92.2933 111.393 92.368 111.137 92.368ZM118.12 94.016C119.987 94.016 120.92 95.0453 120.92 97.104V101.44C120.92 101.643 120.861 101.803 120.744 101.92C120.637 102.027 120.483 102.08 120.28 102.08C120.077 102.08 119.917 102.027 119.8 101.92C119.683 101.803 119.624 101.643 119.624 101.44V97.184C119.624 96.4587 119.48 95.9307 119.192 95.6C118.915 95.2693 118.467 95.104 117.848 95.104C117.133 95.104 116.563 95.3227 116.136 95.76C115.709 96.1973 115.496 96.7893 115.496 97.536V101.44C115.496 101.643 115.437 101.803 115.32 101.92C115.213 102.027 115.059 102.08 114.856 102.08C114.653 102.08 114.493 102.027 114.376 101.92C114.259 101.803 114.2 101.643 114.2 101.44V94.688C114.2 94.496 114.259 94.3413 114.376 94.224C114.493 94.1067 114.653 94.048 114.856 94.048C115.048 94.048 115.197 94.1067 115.304 94.224C115.421 94.3413 115.48 94.4907 115.48 94.672V95.488C115.736 95.008 116.093 94.6453 116.552 94.4C117.011 94.144 117.533 94.016 118.12 94.016ZM129.214 94.048C129.416 94.048 129.571 94.1067 129.678 94.224C129.795 94.3413 129.854 94.496 129.854 94.688V101.456C129.854 101.637 129.795 101.787 129.678 101.904C129.571 102.021 129.416 102.08 129.214 102.08C129.022 102.08 128.867 102.027 128.75 101.92C128.643 101.803 128.59 101.653 128.59 101.472V100.672C128.344 101.141 127.998 101.499 127.55 101.744C127.112 101.989 126.616 102.112 126.062 102.112C125.134 102.112 124.435 101.856 123.966 101.344C123.496 100.821 123.262 100.053 123.262 99.04V94.688C123.262 94.496 123.32 94.3413 123.438 94.224C123.555 94.1067 123.715 94.048 123.918 94.048C124.12 94.048 124.275 94.1067 124.382 94.224C124.499 94.3413 124.558 94.496 124.558 94.688V99.008C124.558 99.7013 124.696 100.213 124.974 100.544C125.251 100.864 125.688 101.024 126.286 101.024C126.968 101.024 127.518 100.805 127.934 100.368C128.35 99.92 128.558 99.3333 128.558 98.608V94.688C128.558 94.496 128.616 94.3413 128.734 94.224C128.851 94.1067 129.011 94.048 129.214 94.048ZM135.863 101.056C136.236 101.088 136.423 101.259 136.423 101.568C136.423 101.749 136.353 101.888 136.215 101.984C136.087 102.069 135.889 102.101 135.623 102.08L135.191 102.048C134.337 101.984 133.708 101.728 133.303 101.28C132.897 100.832 132.695 100.155 132.695 99.248V95.232H131.623C131.441 95.232 131.297 95.1893 131.191 95.104C131.095 95.008 131.046 94.8853 131.046 94.736C131.046 94.576 131.095 94.448 131.191 94.352C131.297 94.256 131.441 94.208 131.623 94.208H132.695V92.4C132.695 92.1973 132.753 92.0427 132.871 91.936C132.988 91.8187 133.148 91.76 133.351 91.76C133.543 91.76 133.697 91.8187 133.815 91.936C133.932 92.0427 133.991 92.1973 133.991 92.4V94.208H135.766C135.937 94.208 136.071 94.256 136.167 94.352C136.273 94.448 136.327 94.576 136.327 94.736C136.327 94.8853 136.273 95.008 136.167 95.104C136.071 95.1893 135.937 95.232 135.766 95.232H133.991V99.312C133.991 99.8987 134.108 100.325 134.343 100.592C134.588 100.848 134.951 100.992 135.431 101.024L135.863 101.056ZM140.932 102.112C140.196 102.112 139.545 101.947 138.98 101.616C138.425 101.285 137.993 100.816 137.684 100.208C137.385 99.5893 137.236 98.8747 137.236 98.064C137.236 97.2533 137.385 96.544 137.684 95.936C137.993 95.3173 138.425 94.8427 138.98 94.512C139.545 94.1813 140.196 94.016 140.932 94.016C141.668 94.016 142.319 94.1813 142.884 94.512C143.449 94.8427 143.881 95.3173 144.18 95.936C144.489 96.544 144.644 97.2533 144.644 98.064C144.644 98.8747 144.489 99.5893 144.18 100.208C143.881 100.816 143.449 101.285 142.884 101.616C142.319 101.947 141.668 102.112 140.932 102.112ZM140.932 101.04C141.7 101.04 142.287 100.789 142.692 100.288C143.108 99.776 143.316 99.0347 143.316 98.064C143.316 97.1147 143.108 96.384 142.692 95.872C142.276 95.3493 141.689 95.088 140.932 95.088C140.175 95.088 139.588 95.3493 139.172 95.872C138.756 96.384 138.548 97.1147 138.548 98.064C138.548 99.024 138.751 99.76 139.156 100.272C139.572 100.784 140.164 101.04 140.932 101.04ZM149.199 102.112C148.708 102.112 148.239 102.053 147.791 101.936C147.354 101.819 146.964 101.653 146.623 101.44C146.431 101.312 146.292 101.195 146.207 101.088C146.132 100.971 146.095 100.832 146.095 100.672C146.095 100.533 146.132 100.421 146.207 100.336C146.292 100.24 146.399 100.192 146.527 100.192C146.655 100.192 146.842 100.272 147.087 100.432C147.407 100.624 147.722 100.779 148.031 100.896C148.351 101.003 148.746 101.056 149.215 101.056C149.791 101.056 150.239 100.955 150.559 100.752C150.879 100.549 151.039 100.256 151.039 99.872C151.039 99.6373 150.98 99.4507 150.863 99.312C150.746 99.1627 150.543 99.0347 150.255 98.928C149.967 98.8107 149.546 98.6933 148.991 98.576C148.052 98.3733 147.38 98.1013 146.975 97.76C146.57 97.4187 146.367 96.9547 146.367 96.368C146.367 95.9093 146.495 95.504 146.751 95.152C147.007 94.8 147.359 94.5227 147.807 94.32C148.266 94.1173 148.783 94.016 149.359 94.016C149.775 94.016 150.175 94.0747 150.559 94.192C150.954 94.2987 151.3 94.4533 151.599 94.656C151.962 94.912 152.143 95.1787 152.143 95.456C152.143 95.5947 152.1 95.712 152.015 95.808C151.93 95.904 151.828 95.952 151.711 95.952C151.583 95.952 151.391 95.8613 151.135 95.68C150.836 95.488 150.554 95.3387 150.287 95.232C150.02 95.1253 149.69 95.072 149.295 95.072C148.794 95.072 148.388 95.184 148.079 95.408C147.78 95.632 147.631 95.9307 147.631 96.304C147.631 96.5387 147.684 96.7307 147.791 96.88C147.908 97.0187 148.095 97.1467 148.351 97.264C148.618 97.3707 148.996 97.4773 149.487 97.584C150.212 97.744 150.772 97.92 151.167 98.112C151.572 98.304 151.86 98.5387 152.031 98.816C152.202 99.0933 152.287 99.4453 152.287 99.872C152.287 100.544 152.004 101.088 151.439 101.504C150.874 101.909 150.127 102.112 149.199 102.112ZM164.644 90.64C164.846 90.64 165.006 90.6987 165.124 90.816C165.241 90.9333 165.3 91.0827 165.3 91.264V101.44C165.3 101.632 165.241 101.787 165.124 101.904C165.006 102.021 164.846 102.08 164.644 102.08C164.441 102.08 164.281 102.021 164.164 101.904C164.057 101.787 164.004 101.632 164.004 101.44V100.576C163.769 101.067 163.422 101.445 162.964 101.712C162.516 101.979 161.988 102.112 161.38 102.112C160.697 102.112 160.094 101.941 159.572 101.6C159.049 101.259 158.644 100.784 158.356 100.176C158.068 99.5573 157.924 98.8427 157.924 98.032C157.924 97.232 158.068 96.528 158.356 95.92C158.644 95.312 159.049 94.8427 159.572 94.512C160.094 94.1813 160.697 94.016 161.38 94.016C161.988 94.016 162.516 94.1493 162.964 94.416C163.422 94.6827 163.769 95.0613 164.004 95.552V91.264C164.004 91.072 164.057 90.9227 164.164 90.816C164.281 90.6987 164.441 90.64 164.644 90.64ZM161.636 101.04C162.393 101.04 162.974 100.784 163.38 100.272C163.796 99.7493 164.004 99.0133 164.004 98.064C164.004 97.1147 163.796 96.384 163.38 95.872C162.974 95.36 162.393 95.104 161.636 95.104C160.878 95.104 160.286 95.36 159.86 95.872C159.444 96.384 159.236 97.104 159.236 98.032C159.236 98.9813 159.444 99.7227 159.86 100.256C160.286 100.779 160.878 101.04 161.636 101.04ZM173.732 100.192C173.849 100.192 173.951 100.24 174.036 100.336C174.121 100.432 174.164 100.555 174.164 100.704C174.164 100.971 173.977 101.216 173.604 101.44C173.22 101.664 172.815 101.835 172.388 101.952C171.961 102.059 171.545 102.112 171.14 102.112C169.935 102.112 168.98 101.755 168.276 101.04C167.583 100.325 167.236 99.3387 167.236 98.08C167.236 97.28 167.391 96.576 167.7 95.968C168.009 95.3493 168.441 94.8693 168.996 94.528C169.561 94.1867 170.201 94.016 170.916 94.016C171.929 94.016 172.735 94.3467 173.332 95.008C173.929 95.6693 174.228 96.5653 174.228 97.696C174.228 97.9093 174.185 98.064 174.1 98.16C174.015 98.256 173.876 98.304 173.684 98.304H168.532C168.628 100.139 169.497 101.056 171.14 101.056C171.556 101.056 171.913 101.003 172.212 100.896C172.511 100.779 172.831 100.624 173.172 100.432C173.449 100.272 173.636 100.192 173.732 100.192ZM170.932 95.024C170.249 95.024 169.7 95.2373 169.284 95.664C168.879 96.0907 168.639 96.6933 168.564 97.472H173.092C173.071 96.6827 172.873 96.08 172.5 95.664C172.127 95.2373 171.604 95.024 170.932 95.024ZM178.762 102.112C178.271 102.112 177.802 102.053 177.354 101.936C176.916 101.819 176.527 101.653 176.186 101.44C175.994 101.312 175.855 101.195 175.77 101.088C175.695 100.971 175.658 100.832 175.658 100.672C175.658 100.533 175.695 100.421 175.77 100.336C175.855 100.24 175.962 100.192 176.09 100.192C176.218 100.192 176.404 100.272 176.65 100.432C176.97 100.624 177.284 100.779 177.594 100.896C177.914 101.003 178.308 101.056 178.778 101.056C179.354 101.056 179.802 100.955 180.122 100.752C180.442 100.549 180.602 100.256 180.602 99.872C180.602 99.6373 180.543 99.4507 180.426 99.312C180.308 99.1627 180.106 99.0347 179.818 98.928C179.53 98.8107 179.108 98.6933 178.554 98.576C177.615 98.3733 176.943 98.1013 176.538 97.76C176.132 97.4187 175.93 96.9547 175.93 96.368C175.93 95.9093 176.058 95.504 176.314 95.152C176.57 94.8 176.922 94.5227 177.37 94.32C177.828 94.1173 178.346 94.016 178.922 94.016C179.338 94.016 179.738 94.0747 180.122 94.192C180.516 94.2987 180.863 94.4533 181.162 94.656C181.524 94.912 181.706 95.1787 181.706 95.456C181.706 95.5947 181.663 95.712 181.578 95.808C181.492 95.904 181.391 95.952 181.274 95.952C181.146 95.952 180.954 95.8613 180.698 95.68C180.399 95.488 180.116 95.3387 179.85 95.232C179.583 95.1253 179.252 95.072 178.858 95.072C178.356 95.072 177.951 95.184 177.642 95.408C177.343 95.632 177.194 95.9307 177.194 96.304C177.194 96.5387 177.247 96.7307 177.354 96.88C177.471 97.0187 177.658 97.1467 177.914 97.264C178.18 97.3707 178.559 97.4773 179.049 97.584C179.775 97.744 180.335 97.92 180.73 98.112C181.135 98.304 181.423 98.5387 181.594 98.816C181.764 99.0933 181.85 99.4453 181.85 99.872C181.85 100.544 181.567 101.088 181.002 101.504C180.436 101.909 179.69 102.112 178.762 102.112ZM190.081 90.64C190.284 90.64 190.444 90.6987 190.561 90.816C190.678 90.9333 190.737 91.0827 190.737 91.264V101.44C190.737 101.632 190.678 101.787 190.561 101.904C190.444 102.021 190.284 102.08 190.081 102.08C189.878 102.08 189.718 102.021 189.601 101.904C189.494 101.787 189.441 101.632 189.441 101.44V100.576C189.206 101.067 188.86 101.445 188.401 101.712C187.953 101.979 187.425 102.112 186.817 102.112C186.134 102.112 185.532 101.941 185.009 101.6C184.486 101.259 184.081 100.784 183.793 100.176C183.505 99.5573 183.361 98.8427 183.361 98.032C183.361 97.232 183.505 96.528 183.793 95.92C184.081 95.312 184.486 94.8427 185.009 94.512C185.532 94.1813 186.134 94.016 186.817 94.016C187.425 94.016 187.953 94.1493 188.401 94.416C188.86 94.6827 189.206 95.0613 189.441 95.552V91.264C189.441 91.072 189.494 90.9227 189.601 90.816C189.718 90.6987 189.878 90.64 190.081 90.64ZM187.073 101.04C187.83 101.04 188.412 100.784 188.817 100.272C189.233 99.7493 189.441 99.0133 189.441 98.064C189.441 97.1147 189.233 96.384 188.817 95.872C188.412 95.36 187.83 95.104 187.073 95.104C186.316 95.104 185.724 95.36 185.297 95.872C184.881 96.384 184.673 97.104 184.673 98.032C184.673 98.9813 184.881 99.7227 185.297 100.256C185.724 100.779 186.316 101.04 187.073 101.04ZM199.17 100.192C199.287 100.192 199.388 100.24 199.474 100.336C199.559 100.432 199.602 100.555 199.602 100.704C199.602 100.971 199.415 101.216 199.042 101.44C198.658 101.664 198.252 101.835 197.826 101.952C197.399 102.059 196.983 102.112 196.578 102.112C195.372 102.112 194.418 101.755 193.714 101.04C193.02 100.325 192.674 99.3387 192.674 98.08C192.674 97.28 192.828 96.576 193.138 95.968C193.447 95.3493 193.879 94.8693 194.434 94.528C194.999 94.1867 195.639 94.016 196.354 94.016C197.367 94.016 198.172 94.3467 198.77 95.008C199.367 95.6693 199.666 96.5653 199.666 97.696C199.666 97.9093 199.623 98.064 199.538 98.16C199.452 98.256 199.314 98.304 199.122 98.304H193.97C194.066 100.139 194.935 101.056 196.578 101.056C196.994 101.056 197.351 101.003 197.65 100.896C197.948 100.779 198.268 100.624 198.61 100.432C198.887 100.272 199.074 100.192 199.17 100.192ZM196.37 95.024C195.687 95.024 195.138 95.2373 194.722 95.664C194.316 96.0907 194.076 96.6933 194.002 97.472H198.53C198.508 96.6827 198.311 96.08 197.938 95.664C197.564 95.2373 197.042 95.024 196.37 95.024ZM208.916 102.112C208.191 102.112 207.545 101.947 206.98 101.616C206.425 101.285 205.993 100.816 205.684 100.208C205.385 99.6 205.236 98.896 205.236 98.096C205.236 97.296 205.391 96.5867 205.7 95.968C206.02 95.3493 206.463 94.8693 207.028 94.528C207.593 94.1867 208.244 94.016 208.98 94.016C209.385 94.016 209.785 94.0747 210.18 94.192C210.585 94.2987 210.937 94.4587 211.236 94.672C211.428 94.8 211.561 94.928 211.636 95.056C211.721 95.1733 211.764 95.3067 211.764 95.456C211.764 95.6053 211.721 95.728 211.636 95.824C211.561 95.92 211.46 95.968 211.332 95.968C211.257 95.968 211.177 95.9467 211.092 95.904C211.007 95.8613 210.932 95.8187 210.868 95.776C210.815 95.7333 210.777 95.7067 210.756 95.696C210.479 95.5147 210.212 95.3707 209.956 95.264C209.711 95.1573 209.407 95.104 209.044 95.104C208.265 95.104 207.657 95.3707 207.22 95.904C206.793 96.4267 206.58 97.1573 206.58 98.096C206.58 99.0347 206.793 99.76 207.22 100.272C207.657 100.784 208.265 101.04 209.044 101.04C209.407 101.04 209.716 100.987 209.972 100.88C210.239 100.773 210.505 100.629 210.772 100.448C210.889 100.373 211.001 100.309 211.108 100.256C211.215 100.203 211.305 100.176 211.38 100.176C211.497 100.176 211.593 100.224 211.668 100.32C211.753 100.416 211.796 100.539 211.796 100.688C211.796 100.827 211.759 100.955 211.684 101.072C211.609 101.179 211.471 101.301 211.268 101.44C210.969 101.643 210.607 101.808 210.18 101.936C209.764 102.053 209.343 102.112 208.916 102.112ZM219.276 94.048C219.479 94.048 219.634 94.1067 219.74 94.224C219.858 94.3413 219.916 94.496 219.916 94.688V101.456C219.916 101.637 219.858 101.787 219.74 101.904C219.634 102.021 219.479 102.08 219.276 102.08C219.084 102.08 218.93 102.027 218.812 101.92C218.706 101.803 218.652 101.653 218.652 101.472V100.672C218.407 101.141 218.06 101.499 217.612 101.744C217.175 101.989 216.679 102.112 216.124 102.112C215.196 102.112 214.498 101.856 214.028 101.344C213.559 100.821 213.324 100.053 213.324 99.04V94.688C213.324 94.496 213.383 94.3413 213.5 94.224C213.618 94.1067 213.778 94.048 213.98 94.048C214.183 94.048 214.338 94.1067 214.444 94.224C214.562 94.3413 214.62 94.496 214.62 94.688V99.008C214.62 99.7013 214.759 100.213 215.036 100.544C215.314 100.864 215.751 101.024 216.348 101.024C217.031 101.024 217.58 100.805 217.996 100.368C218.412 99.92 218.62 99.3333 218.62 98.608V94.688C218.62 94.496 218.679 94.3413 218.796 94.224C218.914 94.1067 219.074 94.048 219.276 94.048ZM225.509 94.016C227.461 94.016 228.437 95.04 228.437 97.088V101.44C228.437 101.632 228.378 101.787 228.261 101.904C228.154 102.021 228.005 102.08 227.813 102.08C227.621 102.08 227.466 102.021 227.349 101.904C227.232 101.787 227.173 101.632 227.173 101.44V100.672C226.97 101.131 226.661 101.488 226.245 101.744C225.829 101.989 225.349 102.112 224.805 102.112C224.304 102.112 223.84 102.011 223.413 101.808C222.997 101.605 222.666 101.323 222.421 100.96C222.176 100.597 222.053 100.197 222.053 99.76C222.053 99.1733 222.202 98.72 222.501 98.4C222.8 98.0693 223.29 97.8347 223.973 97.696C224.656 97.5467 225.605 97.472 226.821 97.472H227.173V96.944C227.173 96.304 227.04 95.8347 226.773 95.536C226.517 95.2373 226.096 95.088 225.509 95.088C224.784 95.088 224.048 95.2853 223.301 95.68C223.013 95.8613 222.81 95.952 222.693 95.952C222.565 95.952 222.458 95.904 222.373 95.808C222.288 95.712 222.245 95.5893 222.245 95.44C222.245 95.2907 222.288 95.1627 222.373 95.056C222.469 94.9387 222.618 94.8213 222.821 94.704C223.194 94.4907 223.616 94.3253 224.085 94.208C224.565 94.08 225.04 94.016 225.509 94.016ZM224.981 101.088C225.621 101.088 226.144 100.875 226.549 100.448C226.965 100.011 227.173 99.4507 227.173 98.768V98.304H226.885C225.946 98.304 225.232 98.3467 224.741 98.432C224.25 98.5067 223.898 98.64 223.685 98.832C223.482 99.0133 223.381 99.2853 223.381 99.648C223.381 100.064 223.53 100.411 223.829 100.688C224.138 100.955 224.522 101.088 224.981 101.088ZM231.465 102.08C231.273 102.08 231.113 102.027 230.985 101.92C230.868 101.803 230.809 101.643 230.809 101.44V91.28C230.809 91.0773 230.868 90.9227 230.985 90.816C231.113 90.6987 231.273 90.64 231.465 90.64C231.647 90.64 231.796 90.6987 231.913 90.816C232.041 90.9227 232.105 91.0773 232.105 91.28V101.44C232.105 101.643 232.041 101.803 231.913 101.92C231.796 102.027 231.647 102.08 231.465 102.08ZM240.784 94.048C240.987 94.048 241.147 94.1067 241.264 94.224C241.381 94.3413 241.44 94.496 241.44 94.688V104.336C241.44 104.517 241.381 104.667 241.264 104.784C241.147 104.901 240.987 104.96 240.784 104.96C240.581 104.96 240.421 104.901 240.304 104.784C240.197 104.677 240.144 104.528 240.144 104.336V100.576C239.909 101.067 239.563 101.445 239.104 101.712C238.656 101.979 238.128 102.112 237.52 102.112C236.827 102.112 236.219 101.947 235.696 101.616C235.184 101.285 234.784 100.821 234.496 100.224C234.208 99.616 234.064 98.9067 234.064 98.096C234.064 97.2853 234.208 96.576 234.496 95.968C234.784 95.3493 235.189 94.8693 235.712 94.528C236.235 94.1867 236.837 94.016 237.52 94.016C238.128 94.016 238.656 94.1493 239.104 94.416C239.563 94.6827 239.909 95.0613 240.144 95.552V94.688C240.144 94.496 240.197 94.3413 240.304 94.224C240.421 94.1067 240.581 94.048 240.784 94.048ZM237.776 101.04C238.533 101.04 239.115 100.784 239.52 100.272C239.936 99.7493 240.144 99.0133 240.144 98.064C240.144 97.1147 239.936 96.384 239.52 95.872C239.115 95.36 238.533 95.104 237.776 95.104C237.019 95.104 236.427 95.3707 236 95.904C235.584 96.4267 235.376 97.1573 235.376 98.096C235.376 99.0347 235.584 99.76 236 100.272C236.427 100.784 237.019 101.04 237.776 101.04ZM249.761 94.048C249.963 94.048 250.118 94.1067 250.225 94.224C250.342 94.3413 250.401 94.496 250.401 94.688V101.456C250.401 101.637 250.342 101.787 250.225 101.904C250.118 102.021 249.963 102.08 249.761 102.08C249.569 102.08 249.414 102.027 249.297 101.92C249.19 101.803 249.137 101.653 249.137 101.472V100.672C248.891 101.141 248.545 101.499 248.097 101.744C247.659 101.989 247.163 102.112 246.609 102.112C245.681 102.112 244.982 101.856 244.513 101.344C244.043 100.821 243.809 100.053 243.809 99.04V94.688C243.809 94.496 243.867 94.3413 243.985 94.224C244.102 94.1067 244.262 94.048 244.465 94.048C244.667 94.048 244.822 94.1067 244.929 94.224C245.046 94.3413 245.105 94.496 245.105 94.688V99.008C245.105 99.7013 245.243 100.213 245.521 100.544C245.798 100.864 246.235 101.024 246.833 101.024C247.515 101.024 248.065 100.805 248.481 100.368C248.897 99.92 249.105 99.3333 249.105 98.608V94.688C249.105 94.496 249.163 94.3413 249.281 94.224C249.398 94.1067 249.558 94.048 249.761 94.048ZM253.465 102.08C253.273 102.08 253.113 102.027 252.985 101.92C252.868 101.803 252.809 101.643 252.809 101.44V94.688C252.809 94.4853 252.868 94.3307 252.985 94.224C253.113 94.1067 253.273 94.048 253.465 94.048C253.657 94.048 253.812 94.1067 253.929 94.224C254.047 94.3307 254.105 94.4853 254.105 94.688V101.44C254.105 101.653 254.047 101.813 253.929 101.92C253.812 102.027 253.657 102.08 253.465 102.08ZM253.465 92.368C253.209 92.368 253.001 92.2933 252.841 92.144C252.681 91.9947 252.601 91.7973 252.601 91.552C252.601 91.3173 252.681 91.1253 252.841 90.976C253.001 90.8267 253.209 90.752 253.465 90.752C253.721 90.752 253.929 90.8267 254.089 90.976C254.249 91.1253 254.329 91.3173 254.329 91.552C254.329 91.7973 254.249 91.9947 254.089 92.144C253.929 92.2933 253.721 92.368 253.465 92.368ZM262.56 100.192C262.677 100.192 262.779 100.24 262.864 100.336C262.949 100.432 262.992 100.555 262.992 100.704C262.992 100.971 262.805 101.216 262.432 101.44C262.048 101.664 261.643 101.835 261.216 101.952C260.789 102.059 260.373 102.112 259.968 102.112C258.763 102.112 257.808 101.755 257.104 101.04C256.411 100.325 256.064 99.3387 256.064 98.08C256.064 97.28 256.219 96.576 256.528 95.968C256.837 95.3493 257.269 94.8693 257.824 94.528C258.389 94.1867 259.029 94.016 259.744 94.016C260.757 94.016 261.563 94.3467 262.16 95.008C262.757 95.6693 263.056 96.5653 263.056 97.696C263.056 97.9093 263.013 98.064 262.928 98.16C262.843 98.256 262.704 98.304 262.512 98.304H257.36C257.456 100.139 258.325 101.056 259.968 101.056C260.384 101.056 260.741 101.003 261.04 100.896C261.339 100.779 261.659 100.624 262 100.432C262.277 100.272 262.464 100.192 262.56 100.192ZM259.76 95.024C259.077 95.024 258.528 95.2373 258.112 95.664C257.707 96.0907 257.467 96.6933 257.392 97.472H261.92C261.899 96.6827 261.701 96.08 261.328 95.664C260.955 95.2373 260.432 95.024 259.76 95.024ZM268.822 94.048C269.27 94.016 269.494 94.1973 269.494 94.592C269.494 94.7627 269.446 94.9013 269.35 95.008C269.254 95.104 269.088 95.1627 268.854 95.184L268.374 95.232C267.659 95.296 267.126 95.552 266.774 96C266.432 96.4373 266.262 96.9547 266.262 97.552V101.44C266.262 101.653 266.203 101.813 266.086 101.92C265.968 102.027 265.814 102.08 265.622 102.08C265.43 102.08 265.27 102.027 265.142 101.92C265.024 101.803 264.966 101.643 264.966 101.44V94.688C264.966 94.4853 265.03 94.3307 265.158 94.224C265.286 94.1067 265.44 94.048 265.622 94.048C265.792 94.048 265.936 94.1067 266.054 94.224C266.171 94.3307 266.23 94.48 266.23 94.672V95.568C266.454 95.0987 266.768 94.7413 267.174 94.496C267.59 94.2507 268.064 94.1067 268.598 94.064L268.822 94.048ZM278.651 94.016C279.334 94.016 279.937 94.1867 280.459 94.528C280.982 94.8693 281.387 95.3493 281.675 95.968C281.963 96.576 282.107 97.2853 282.107 98.096C282.107 98.9067 281.963 99.616 281.675 100.224C281.387 100.821 280.982 101.285 280.459 101.616C279.947 101.947 279.345 102.112 278.651 102.112C278.043 102.112 277.51 101.979 277.051 101.712C276.603 101.445 276.262 101.067 276.027 100.576V104.336C276.027 104.528 275.969 104.677 275.851 104.784C275.745 104.901 275.59 104.96 275.387 104.96C275.185 104.96 275.025 104.901 274.907 104.784C274.79 104.667 274.731 104.517 274.731 104.336V94.688C274.731 94.496 274.79 94.3413 274.907 94.224C275.025 94.1067 275.185 94.048 275.387 94.048C275.59 94.048 275.745 94.1067 275.851 94.224C275.969 94.3413 276.027 94.496 276.027 94.688V95.552C276.262 95.0613 276.603 94.6827 277.051 94.416C277.51 94.1493 278.043 94.016 278.651 94.016ZM278.395 101.04C279.153 101.04 279.739 100.784 280.155 100.272C280.571 99.76 280.779 99.0347 280.779 98.096C280.779 97.1573 280.571 96.4267 280.155 95.904C279.739 95.3707 279.153 95.104 278.395 95.104C277.638 95.104 277.051 95.36 276.635 95.872C276.23 96.384 276.027 97.1147 276.027 98.064C276.027 99.0133 276.23 99.7493 276.635 100.272C277.051 100.784 277.638 101.04 278.395 101.04ZM287.228 94.016C289.18 94.016 290.156 95.04 290.156 97.088V101.44C290.156 101.632 290.097 101.787 289.98 101.904C289.873 102.021 289.724 102.08 289.532 102.08C289.34 102.08 289.185 102.021 289.068 101.904C288.95 101.787 288.892 101.632 288.892 101.44V100.672C288.689 101.131 288.38 101.488 287.964 101.744C287.548 101.989 287.068 102.112 286.524 102.112C286.022 102.112 285.558 102.011 285.132 101.808C284.716 101.605 284.385 101.323 284.14 100.96C283.894 100.597 283.772 100.197 283.772 99.76C283.772 99.1733 283.921 98.72 284.22 98.4C284.518 98.0693 285.009 97.8347 285.692 97.696C286.374 97.5467 287.324 97.472 288.54 97.472H288.892V96.944C288.892 96.304 288.758 95.8347 288.492 95.536C288.236 95.2373 287.814 95.088 287.228 95.088C286.502 95.088 285.766 95.2853 285.02 95.68C284.732 95.8613 284.529 95.952 284.412 95.952C284.284 95.952 284.177 95.904 284.092 95.808C284.006 95.712 283.964 95.5893 283.964 95.44C283.964 95.2907 284.006 95.1627 284.092 95.056C284.188 94.9387 284.337 94.8213 284.54 94.704C284.913 94.4907 285.334 94.3253 285.804 94.208C286.284 94.08 286.758 94.016 287.228 94.016ZM286.7 101.088C287.34 101.088 287.862 100.875 288.268 100.448C288.684 100.011 288.892 99.4507 288.892 98.768V98.304H288.604C287.665 98.304 286.95 98.3467 286.46 98.432C285.969 98.5067 285.617 98.64 285.404 98.832C285.201 99.0133 285.1 99.2853 285.1 99.648C285.1 100.064 285.249 100.411 285.548 100.688C285.857 100.955 286.241 101.088 286.7 101.088ZM296.384 94.048C296.832 94.016 297.056 94.1973 297.056 94.592C297.056 94.7627 297.008 94.9013 296.912 95.008C296.816 95.104 296.651 95.1627 296.416 95.184L295.936 95.232C295.221 95.296 294.688 95.552 294.336 96C293.995 96.4373 293.824 96.9547 293.824 97.552V101.44C293.824 101.653 293.765 101.813 293.648 101.92C293.531 102.027 293.376 102.08 293.184 102.08C292.992 102.08 292.832 102.027 292.704 101.92C292.587 101.803 292.528 101.643 292.528 101.44V94.688C292.528 94.4853 292.592 94.3307 292.72 94.224C292.848 94.1067 293.003 94.048 293.184 94.048C293.355 94.048 293.499 94.1067 293.616 94.224C293.733 94.3307 293.792 94.48 293.792 94.672V95.568C294.016 95.0987 294.331 94.7413 294.736 94.496C295.152 94.2507 295.627 94.1067 296.16 94.064L296.384 94.048ZM302.394 101.056C302.767 101.088 302.954 101.259 302.954 101.568C302.954 101.749 302.884 101.888 302.746 101.984C302.618 102.069 302.42 102.101 302.154 102.08L301.722 102.048C300.868 101.984 300.239 101.728 299.834 101.28C299.428 100.832 299.226 100.155 299.226 99.248V95.232H298.154C297.972 95.232 297.828 95.1893 297.722 95.104C297.626 95.008 297.578 94.8853 297.578 94.736C297.578 94.576 297.626 94.448 297.722 94.352C297.828 94.256 297.972 94.208 298.154 94.208H299.226V92.4C299.226 92.1973 299.284 92.0427 299.402 91.936C299.519 91.8187 299.679 91.76 299.882 91.76C300.074 91.76 300.228 91.8187 300.346 91.936C300.463 92.0427 300.522 92.1973 300.522 92.4V94.208H302.298C302.468 94.208 302.602 94.256 302.698 94.352C302.804 94.448 302.858 94.576 302.858 94.736C302.858 94.8853 302.804 95.008 302.698 95.104C302.602 95.1893 302.468 95.232 302.298 95.232H300.522V99.312C300.522 99.8987 300.639 100.325 300.874 100.592C301.119 100.848 301.482 100.992 301.962 101.024L302.394 101.056ZM310.263 100.192C310.381 100.192 310.482 100.24 310.567 100.336C310.653 100.432 310.695 100.555 310.695 100.704C310.695 100.971 310.509 101.216 310.135 101.44C309.751 101.664 309.346 101.835 308.919 101.952C308.493 102.059 308.077 102.112 307.671 102.112C306.466 102.112 305.511 101.755 304.807 101.04C304.114 100.325 303.767 99.3387 303.767 98.08C303.767 97.28 303.922 96.576 304.231 95.968C304.541 95.3493 304.973 94.8693 305.527 94.528C306.093 94.1867 306.733 94.016 307.447 94.016C308.461 94.016 309.266 94.3467 309.863 95.008C310.461 95.6693 310.759 96.5653 310.759 97.696C310.759 97.9093 310.717 98.064 310.631 98.16C310.546 98.256 310.407 98.304 310.215 98.304H305.063C305.159 100.139 306.029 101.056 307.671 101.056C308.087 101.056 308.445 101.003 308.743 100.896C309.042 100.779 309.362 100.624 309.703 100.432C309.981 100.272 310.167 100.192 310.263 100.192ZM307.463 95.024C306.781 95.024 306.231 95.2373 305.815 95.664C305.41 96.0907 305.17 96.6933 305.095 97.472H309.623C309.602 96.6827 309.405 96.08 309.031 95.664C308.658 95.2373 308.135 95.024 307.463 95.024ZM81.456 112.64C81.6587 112.64 81.8187 112.699 81.936 112.816C82.0533 112.933 82.112 113.083 82.112 113.264V123.44C82.112 123.632 82.0533 123.787 81.936 123.904C81.8187 124.021 81.6587 124.08 81.456 124.08C81.2533 124.08 81.0933 124.021 80.976 123.904C80.8693 123.787 80.816 123.632 80.816 123.44V122.576C80.5813 123.067 80.2347 123.445 79.776 123.712C79.328 123.979 78.8 124.112 78.192 124.112C77.5093 124.112 76.9067 123.941 76.384 123.6C75.8613 123.259 75.456 122.784 75.168 122.176C74.88 121.557 74.736 120.843 74.736 120.032C74.736 119.232 74.88 118.528 75.168 117.92C75.456 117.312 75.8613 116.843 76.384 116.512C76.9067 116.181 77.5093 116.016 78.192 116.016C78.8 116.016 79.328 116.149 79.776 116.416C80.2347 116.683 80.5813 117.061 80.816 117.552V113.264C80.816 113.072 80.8693 112.923 80.976 112.816C81.0933 112.699 81.2533 112.64 81.456 112.64ZM78.448 123.04C79.2053 123.04 79.7867 122.784 80.192 122.272C80.608 121.749 80.816 121.013 80.816 120.064C80.816 119.115 80.608 118.384 80.192 117.872C79.7867 117.36 79.2053 117.104 78.448 117.104C77.6907 117.104 77.0987 117.36 76.672 117.872C76.256 118.384 76.048 119.104 76.048 120.032C76.048 120.981 76.256 121.723 76.672 122.256C77.0987 122.779 77.6907 123.04 78.448 123.04ZM90.5445 122.192C90.6618 122.192 90.7632 122.24 90.8485 122.336C90.9338 122.432 90.9765 122.555 90.9765 122.704C90.9765 122.971 90.7898 123.216 90.4165 123.44C90.0325 123.664 89.6272 123.835 89.2005 123.952C88.7738 124.059 88.3578 124.112 87.9525 124.112C86.7472 124.112 85.7925 123.755 85.0885 123.04C84.3952 122.325 84.0485 121.339 84.0485 120.08C84.0485 119.28 84.2032 118.576 84.5125 117.968C84.8218 117.349 85.2538 116.869 85.8085 116.528C86.3738 116.187 87.0138 116.016 87.7285 116.016C88.7418 116.016 89.5472 116.347 90.1445 117.008C90.7418 117.669 91.0405 118.565 91.0405 119.696C91.0405 119.909 90.9978 120.064 90.9125 120.16C90.8272 120.256 90.6885 120.304 90.4965 120.304H85.3445C85.4405 122.139 86.3098 123.056 87.9525 123.056C88.3685 123.056 88.7258 123.003 89.0245 122.896C89.3232 122.779 89.6432 122.624 89.9845 122.432C90.2618 122.272 90.4485 122.192 90.5445 122.192ZM87.7445 117.024C87.0618 117.024 86.5125 117.237 86.0965 117.664C85.6912 118.091 85.4512 118.693 85.3765 119.472H89.9045C89.8832 118.683 89.6858 118.08 89.3125 117.664C88.9392 117.237 88.4165 117.024 87.7445 117.024ZM93.606 124.08C93.414 124.08 93.254 124.027 93.126 123.92C93.0087 123.803 92.95 123.643 92.95 123.44V113.28C92.95 113.077 93.0087 112.923 93.126 112.816C93.254 112.699 93.414 112.64 93.606 112.64C93.7873 112.64 93.9367 112.699 94.054 112.816C94.182 112.923 94.246 113.077 94.246 113.28V123.44C94.246 123.643 94.182 123.803 94.054 123.92C93.9367 124.027 93.7873 124.08 93.606 124.08ZM104.714 116.016C105.396 116.016 105.999 116.187 106.522 116.528C107.044 116.869 107.45 117.349 107.738 117.968C108.026 118.576 108.17 119.285 108.17 120.096C108.17 120.907 108.026 121.616 107.738 122.224C107.45 122.821 107.044 123.285 106.522 123.616C106.01 123.947 105.407 124.112 104.714 124.112C104.106 124.112 103.572 123.979 103.114 123.712C102.666 123.445 102.324 123.067 102.09 122.576V126.336C102.09 126.528 102.031 126.677 101.914 126.784C101.807 126.901 101.652 126.96 101.45 126.96C101.247 126.96 101.087 126.901 100.97 126.784C100.852 126.667 100.794 126.517 100.794 126.336V116.688C100.794 116.496 100.852 116.341 100.97 116.224C101.087 116.107 101.247 116.048 101.45 116.048C101.652 116.048 101.807 116.107 101.914 116.224C102.031 116.341 102.09 116.496 102.09 116.688V117.552C102.324 117.061 102.666 116.683 103.114 116.416C103.572 116.149 104.106 116.016 104.714 116.016ZM104.458 123.04C105.215 123.04 105.802 122.784 106.218 122.272C106.634 121.76 106.842 121.035 106.842 120.096C106.842 119.157 106.634 118.427 106.218 117.904C105.802 117.371 105.215 117.104 104.458 117.104C103.7 117.104 103.114 117.36 102.698 117.872C102.292 118.384 102.09 119.115 102.09 120.064C102.09 121.013 102.292 121.749 102.698 122.272C103.114 122.784 103.7 123.04 104.458 123.04ZM113.29 116.016C115.242 116.016 116.218 117.04 116.218 119.088V123.44C116.218 123.632 116.16 123.787 116.042 123.904C115.936 124.021 115.786 124.08 115.594 124.08C115.402 124.08 115.248 124.021 115.13 123.904C115.013 123.787 114.954 123.632 114.954 123.44V122.672C114.752 123.131 114.442 123.488 114.026 123.744C113.61 123.989 113.13 124.112 112.586 124.112C112.085 124.112 111.621 124.011 111.194 123.808C110.778 123.605 110.448 123.323 110.202 122.96C109.957 122.597 109.834 122.197 109.834 121.76C109.834 121.173 109.984 120.72 110.282 120.4C110.581 120.069 111.072 119.835 111.754 119.696C112.437 119.547 113.386 119.472 114.602 119.472H114.954V118.944C114.954 118.304 114.821 117.835 114.554 117.536C114.298 117.237 113.877 117.088 113.29 117.088C112.565 117.088 111.829 117.285 111.082 117.68C110.794 117.861 110.592 117.952 110.474 117.952C110.346 117.952 110.24 117.904 110.154 117.808C110.069 117.712 110.026 117.589 110.026 117.44C110.026 117.291 110.069 117.163 110.154 117.056C110.25 116.939 110.4 116.821 110.602 116.704C110.976 116.491 111.397 116.325 111.866 116.208C112.346 116.08 112.821 116.016 113.29 116.016ZM112.762 123.088C113.402 123.088 113.925 122.875 114.33 122.448C114.746 122.011 114.954 121.451 114.954 120.768V120.304H114.666C113.728 120.304 113.013 120.347 112.522 120.432C112.032 120.507 111.68 120.64 111.466 120.832C111.264 121.013 111.162 121.285 111.162 121.648C111.162 122.064 111.312 122.411 111.61 122.688C111.92 122.955 112.304 123.088 112.762 123.088ZM119.247 124.08C119.055 124.08 118.895 124.027 118.767 123.92C118.649 123.803 118.591 123.643 118.591 123.44V116.688C118.591 116.485 118.649 116.331 118.767 116.224C118.895 116.107 119.055 116.048 119.247 116.048C119.439 116.048 119.593 116.107 119.711 116.224C119.828 116.331 119.887 116.485 119.887 116.688V123.44C119.887 123.653 119.828 123.813 119.711 123.92C119.593 124.027 119.439 124.08 119.247 124.08ZM119.535 115.168C119.449 115.232 119.364 115.264 119.279 115.264C119.172 115.264 119.081 115.232 119.007 115.168C118.932 115.093 118.895 115.008 118.895 114.912C118.895 114.827 118.927 114.747 118.991 114.672L120.847 112.24C121.039 111.995 121.257 111.872 121.503 111.872C121.673 111.872 121.817 111.931 121.935 112.048C122.052 112.155 122.111 112.293 122.111 112.464C122.111 112.688 122.004 112.891 121.791 113.072L119.535 115.168ZM124.933 124.112C124.443 124.112 123.973 124.053 123.525 123.936C123.088 123.819 122.699 123.653 122.357 123.44C122.165 123.312 122.027 123.195 121.941 123.088C121.867 122.971 121.829 122.832 121.829 122.672C121.829 122.533 121.867 122.421 121.941 122.336C122.027 122.24 122.133 122.192 122.261 122.192C122.389 122.192 122.576 122.272 122.821 122.432C123.141 122.624 123.456 122.779 123.765 122.896C124.085 123.003 124.48 123.056 124.949 123.056C125.525 123.056 125.973 122.955 126.293 122.752C126.613 122.549 126.773 122.256 126.773 121.872C126.773 121.637 126.715 121.451 126.597 121.312C126.48 121.163 126.277 121.035 125.989 120.928C125.701 120.811 125.28 120.693 124.725 120.576C123.787 120.373 123.115 120.101 122.709 119.76C122.304 119.419 122.101 118.955 122.101 118.368C122.101 117.909 122.229 117.504 122.485 117.152C122.741 116.8 123.093 116.523 123.541 116.32C124 116.117 124.517 116.016 125.093 116.016C125.509 116.016 125.909 116.075 126.293 116.192C126.688 116.299 127.035 116.453 127.333 116.656C127.696 116.912 127.877 117.179 127.877 117.456C127.877 117.595 127.835 117.712 127.749 117.808C127.664 117.904 127.563 117.952 127.445 117.952C127.317 117.952 127.125 117.861 126.869 117.68C126.571 117.488 126.288 117.339 126.021 117.232C125.755 117.125 125.424 117.072 125.029 117.072C124.528 117.072 124.123 117.184 123.813 117.408C123.515 117.632 123.365 117.931 123.365 118.304C123.365 118.539 123.419 118.731 123.525 118.88C123.643 119.019 123.829 119.147 124.085 119.264C124.352 119.371 124.731 119.477 125.221 119.584C125.947 119.744 126.507 119.92 126.901 120.112C127.307 120.304 127.595 120.539 127.765 120.816C127.936 121.093 128.021 121.445 128.021 121.872C128.021 122.544 127.739 123.088 127.173 123.504C126.608 123.909 125.861 124.112 124.933 124.112ZM139.738 116.448C139.855 116.192 140.042 116.064 140.298 116.064C140.458 116.064 140.602 116.117 140.73 116.224C140.858 116.331 140.922 116.464 140.922 116.624C140.922 116.72 140.901 116.805 140.858 116.88L136.362 126.576C136.309 126.693 136.229 126.784 136.122 126.848C136.026 126.912 135.925 126.944 135.818 126.944C135.658 126.944 135.514 126.891 135.386 126.784C135.269 126.688 135.21 126.56 135.21 126.4C135.21 126.315 135.231 126.229 135.274 126.144L136.394 123.728L133.226 116.88C133.183 116.805 133.162 116.725 133.162 116.64C133.162 116.48 133.231 116.341 133.37 116.224C133.519 116.107 133.679 116.048 133.85 116.048C133.957 116.048 134.058 116.08 134.154 116.144C134.261 116.208 134.341 116.299 134.394 116.416L137.066 122.416L139.738 116.448ZM152.722 112.64C152.924 112.64 153.084 112.699 153.202 112.816C153.319 112.933 153.378 113.083 153.378 113.264V123.44C153.378 123.632 153.319 123.787 153.202 123.904C153.084 124.021 152.924 124.08 152.722 124.08C152.519 124.08 152.359 124.021 152.242 123.904C152.135 123.787 152.082 123.632 152.082 123.44V122.576C151.847 123.067 151.5 123.445 151.042 123.712C150.594 123.979 150.066 124.112 149.458 124.112C148.775 124.112 148.172 123.941 147.65 123.6C147.127 123.259 146.722 122.784 146.434 122.176C146.146 121.557 146.002 120.843 146.002 120.032C146.002 119.232 146.146 118.528 146.434 117.92C146.722 117.312 147.127 116.843 147.65 116.512C148.172 116.181 148.775 116.016 149.458 116.016C150.066 116.016 150.594 116.149 151.042 116.416C151.5 116.683 151.847 117.061 152.082 117.552V113.264C152.082 113.072 152.135 112.923 152.242 112.816C152.359 112.699 152.519 112.64 152.722 112.64ZM149.714 123.04C150.471 123.04 151.052 122.784 151.458 122.272C151.874 121.749 152.082 121.013 152.082 120.064C152.082 119.115 151.874 118.384 151.458 117.872C151.052 117.36 150.471 117.104 149.714 117.104C148.956 117.104 148.364 117.36 147.938 117.872C147.522 118.384 147.314 119.104 147.314 120.032C147.314 120.981 147.522 121.723 147.938 122.256C148.364 122.779 148.956 123.04 149.714 123.04ZM161.81 122.192C161.927 122.192 162.029 122.24 162.114 122.336C162.199 122.432 162.242 122.555 162.242 122.704C162.242 122.971 162.055 123.216 161.682 123.44C161.298 123.664 160.893 123.835 160.466 123.952C160.039 124.059 159.623 124.112 159.218 124.112C158.013 124.112 157.058 123.755 156.354 123.04C155.661 122.325 155.314 121.339 155.314 120.08C155.314 119.28 155.469 118.576 155.778 117.968C156.087 117.349 156.519 116.869 157.074 116.528C157.639 116.187 158.279 116.016 158.994 116.016C160.007 116.016 160.813 116.347 161.41 117.008C162.007 117.669 162.306 118.565 162.306 119.696C162.306 119.909 162.263 120.064 162.178 120.16C162.093 120.256 161.954 120.304 161.762 120.304H156.61C156.706 122.139 157.575 123.056 159.218 123.056C159.634 123.056 159.991 123.003 160.29 122.896C160.589 122.779 160.909 122.624 161.25 122.432C161.527 122.272 161.714 122.192 161.81 122.192ZM159.01 117.024C158.327 117.024 157.778 117.237 157.362 117.664C156.957 118.091 156.717 118.693 156.642 119.472H161.17C161.149 118.683 160.951 118.08 160.578 117.664C160.205 117.237 159.682 117.024 159.01 117.024ZM164.872 124.08C164.68 124.08 164.52 124.027 164.392 123.92C164.274 123.803 164.216 123.643 164.216 123.44V113.28C164.216 113.077 164.274 112.923 164.392 112.816C164.52 112.699 164.68 112.64 164.872 112.64C165.053 112.64 165.202 112.699 165.32 112.816C165.448 112.923 165.512 113.077 165.512 113.28V123.44C165.512 123.643 165.448 123.803 165.32 123.92C165.202 124.027 165.053 124.08 164.872 124.08ZM180.731 116.016C182.459 116.016 183.323 117.045 183.323 119.104V123.44C183.323 123.643 183.265 123.803 183.147 123.92C183.03 124.027 182.875 124.08 182.683 124.08C182.491 124.08 182.331 124.027 182.203 123.92C182.086 123.803 182.027 123.643 182.027 123.44V119.136C182.027 118.421 181.899 117.904 181.643 117.584C181.387 117.264 180.987 117.104 180.443 117.104C179.793 117.104 179.281 117.323 178.907 117.76C178.534 118.197 178.347 118.789 178.347 119.536V123.44C178.347 123.643 178.283 123.803 178.155 123.92C178.038 124.027 177.883 124.08 177.691 124.08C177.499 124.08 177.345 124.027 177.227 123.92C177.11 123.803 177.051 123.643 177.051 123.44V119.136C177.051 118.421 176.923 117.904 176.667 117.584C176.411 117.264 176.006 117.104 175.451 117.104C174.811 117.104 174.299 117.323 173.915 117.76C173.542 118.197 173.355 118.789 173.355 119.536V123.44C173.355 123.643 173.297 123.803 173.179 123.92C173.062 124.027 172.907 124.08 172.715 124.08C172.523 124.08 172.363 124.027 172.235 123.92C172.118 123.803 172.059 123.643 172.059 123.44V116.688C172.059 116.496 172.118 116.341 172.235 116.224C172.363 116.107 172.523 116.048 172.715 116.048C172.897 116.048 173.046 116.107 173.163 116.224C173.281 116.331 173.339 116.48 173.339 116.672V117.44C173.574 116.981 173.899 116.629 174.315 116.384C174.731 116.139 175.211 116.016 175.755 116.016C176.971 116.016 177.766 116.528 178.139 117.552C178.363 117.083 178.705 116.709 179.163 116.432C179.622 116.155 180.145 116.016 180.731 116.016ZM191.604 116.048C191.807 116.048 191.962 116.107 192.068 116.224C192.186 116.341 192.244 116.496 192.244 116.688V123.456C192.244 123.637 192.186 123.787 192.068 123.904C191.962 124.021 191.807 124.08 191.604 124.08C191.412 124.08 191.258 124.027 191.14 123.92C191.034 123.803 190.98 123.653 190.98 123.472V122.672C190.735 123.141 190.388 123.499 189.94 123.744C189.503 123.989 189.007 124.112 188.452 124.112C187.524 124.112 186.826 123.856 186.356 123.344C185.887 122.821 185.652 122.053 185.652 121.04V116.688C185.652 116.496 185.711 116.341 185.828 116.224C185.946 116.107 186.106 116.048 186.308 116.048C186.511 116.048 186.666 116.107 186.772 116.224C186.89 116.341 186.948 116.496 186.948 116.688V121.008C186.948 121.701 187.087 122.213 187.364 122.544C187.642 122.864 188.079 123.024 188.676 123.024C189.359 123.024 189.908 122.805 190.324 122.368C190.74 121.92 190.948 121.333 190.948 120.608V116.688C190.948 116.496 191.007 116.341 191.124 116.224C191.242 116.107 191.402 116.048 191.604 116.048ZM198.573 116.016C200.44 116.016 201.373 117.045 201.373 119.104V123.44C201.373 123.643 201.314 123.803 201.197 123.92C201.09 124.027 200.936 124.08 200.733 124.08C200.53 124.08 200.37 124.027 200.253 123.92C200.136 123.803 200.077 123.643 200.077 123.44V119.184C200.077 118.459 199.933 117.931 199.645 117.6C199.368 117.269 198.92 117.104 198.301 117.104C197.586 117.104 197.016 117.323 196.589 117.76C196.162 118.197 195.949 118.789 195.949 119.536V123.44C195.949 123.643 195.89 123.803 195.773 123.92C195.666 124.027 195.512 124.08 195.309 124.08C195.106 124.08 194.946 124.027 194.829 123.92C194.712 123.803 194.653 123.643 194.653 123.44V116.688C194.653 116.496 194.712 116.341 194.829 116.224C194.946 116.107 195.106 116.048 195.309 116.048C195.501 116.048 195.65 116.107 195.757 116.224C195.874 116.341 195.933 116.491 195.933 116.672V117.488C196.189 117.008 196.546 116.645 197.005 116.4C197.464 116.144 197.986 116.016 198.573 116.016ZM210.003 112.64C210.206 112.64 210.366 112.699 210.483 112.816C210.6 112.933 210.659 113.083 210.659 113.264V123.44C210.659 123.632 210.6 123.787 210.483 123.904C210.366 124.021 210.206 124.08 210.003 124.08C209.8 124.08 209.64 124.021 209.523 123.904C209.416 123.787 209.363 123.632 209.363 123.44V122.576C209.128 123.067 208.782 123.445 208.323 123.712C207.875 123.979 207.347 124.112 206.739 124.112C206.056 124.112 205.454 123.941 204.931 123.6C204.408 123.259 204.003 122.784 203.715 122.176C203.427 121.557 203.283 120.843 203.283 120.032C203.283 119.232 203.427 118.528 203.715 117.92C204.003 117.312 204.408 116.843 204.931 116.512C205.454 116.181 206.056 116.016 206.739 116.016C207.347 116.016 207.875 116.149 208.323 116.416C208.782 116.683 209.128 117.061 209.363 117.552V113.264C209.363 113.072 209.416 112.923 209.523 112.816C209.64 112.699 209.8 112.64 210.003 112.64ZM206.995 123.04C207.752 123.04 208.334 122.784 208.739 122.272C209.155 121.749 209.363 121.013 209.363 120.064C209.363 119.115 209.155 118.384 208.739 117.872C208.334 117.36 207.752 117.104 206.995 117.104C206.238 117.104 205.646 117.36 205.219 117.872C204.803 118.384 204.595 119.104 204.595 120.032C204.595 120.981 204.803 121.723 205.219 122.256C205.646 122.779 206.238 123.04 206.995 123.04ZM216.291 124.112C215.555 124.112 214.905 123.947 214.339 123.616C213.785 123.285 213.353 122.816 213.043 122.208C212.745 121.589 212.595 120.875 212.595 120.064C212.595 119.253 212.745 118.544 213.043 117.936C213.353 117.317 213.785 116.843 214.339 116.512C214.905 116.181 215.555 116.016 216.291 116.016C217.027 116.016 217.678 116.181 218.243 116.512C218.809 116.843 219.241 117.317 219.539 117.936C219.849 118.544 220.003 119.253 220.003 120.064C220.003 120.875 219.849 121.589 219.539 122.208C219.241 122.816 218.809 123.285 218.243 123.616C217.678 123.947 217.027 124.112 216.291 124.112ZM216.291 123.04C217.059 123.04 217.646 122.789 218.051 122.288C218.467 121.776 218.675 121.035 218.675 120.064C218.675 119.115 218.467 118.384 218.051 117.872C217.635 117.349 217.049 117.088 216.291 117.088C215.534 117.088 214.947 117.349 214.531 117.872C214.115 118.384 213.907 119.115 213.907 120.064C213.907 121.024 214.11 121.76 214.515 122.272C214.931 122.784 215.523 123.04 216.291 123.04ZM222.309 124.08C222.053 124.08 221.839 124 221.669 123.84C221.498 123.669 221.413 123.451 221.413 123.184C221.413 122.917 221.498 122.699 221.669 122.528C221.839 122.357 222.053 122.272 222.309 122.272C222.554 122.272 222.757 122.357 222.917 122.528C223.087 122.699 223.173 122.917 223.173 123.184C223.173 123.451 223.087 123.669 222.917 123.84C222.757 124 222.554 124.08 222.309 124.08Z" fill="#8792A4"/>
<circle cx="38.5" cy="44.5" r="24.5" fill="#004098" fill-opacity="0.13"/>
<path fill-rule="evenodd" clip-rule="evenodd" d="M35.9531 50.9847C35.7274 52.1334 34.7149 53 33.5 53H31.5C31.2239 53 31 52.7762 31 52.5V50.5C31 49.2851 31.8666 48.2726 33.0153 48.047L33.0272 47.7042C33.0471 47.1245 33.1068 46.5557 33.2035 46H29.5C29.1463 46 28.9044 45.6428 29.0358 45.3143L31.0358 40.3143C31.1117 40.1245 31.2956 40 31.5 40H36C36.0254 40 36.0503 40.0019 36.0747 40.0056C38.4291 37.3215 41.9247 35.677 45.7713 35.8096C46.382 35.8307 46.9902 35.8971 47.591 36.0084C47.7946 36.0461 47.9539 36.2054 47.9916 36.409C48.8122 40.8399 47.1523 45.1558 43.9947 47.9271C43.9982 47.9509 44 47.9753 44 48V52.5C44 52.7045 43.8755 52.8883 43.6857 52.9643L38.6857 54.9643C38.3573 55.0956 38 54.8537 38 54.5V50.795C37.4368 50.8937 36.8674 50.9532 36.2959 50.9729L35.9531 50.9847ZM34.9875 50.6946L33.3054 49.0125C32.5689 49.1079 32 49.7375 32 50.5V52H33.5C34.2625 52 34.8921 51.4311 34.9875 50.6946ZM39 53.7615V50.577C40.4714 50.1926 41.8179 49.5521 43 48.7132V52.1615L39 53.7615ZM33.4208 45C33.802 43.5415 34.4426 42.1915 35.2887 41H31.8385L30.2385 45H33.4208ZM36.2614 49.9735L35.6999 49.9928L34.0072 48.3001L34.0266 47.7386C34.2421 41.4868 39.485 36.5934 45.7368 36.809C46.1822 36.8244 46.6262 36.866 47.0665 36.9337C47.9957 42.96 43.9702 48.6729 37.9335 49.7908C37.3814 49.8931 36.8225 49.9541 36.2614 49.9735ZM41 46C39.3432 46 38 44.6569 38 43C38 41.3432 39.3432 40 41 40C42.6569 40 44 41.3432 44 43C44 44.6569 42.6569 46 41 46ZM43 43C43 44.1046 42.1046 45 41 45C39.8954 45 39 44.1046 39 43C39 41.8954 39.8954 41 41 41C42.1046 41 43 41.8954 43 43Z" fill="#004098"/>
</svg>
