<svg width="345" height="159" viewBox="0 0 345 159" fill="none" xmlns="http://www.w3.org/2000/svg">
<rect x="0.5" y="0.5" width="344" height="158" rx="5.5" fill="white" stroke="#EFF2F6"/>
<path d="M77.78 47.162C77.258 47.162 76.835 47 76.511 46.676C76.205 46.352 76.052 45.929 76.052 45.407V29.612C76.052 29.09 76.196 28.685 76.484 28.397C76.79 28.109 77.204 27.965 77.726 27.965H87.203C88.301 27.965 88.85 28.433 88.85 29.369C88.85 30.287 88.301 30.746 87.203 30.746H79.481V35.93H86.663C87.761 35.93 88.31 36.398 88.31 37.334C88.31 38.252 87.761 38.711 86.663 38.711H79.481V45.407C79.481 45.929 79.328 46.352 79.022 46.676C78.716 47 78.302 47.162 77.78 47.162ZM96.3765 33.473C98.2125 33.473 99.5715 33.932 100.453 34.85C101.353 35.75 101.803 37.127 101.803 38.981V45.569C101.803 46.055 101.659 46.442 101.371 46.73C101.083 47 100.687 47.135 100.183 47.135C99.7155 47.135 99.3285 46.991 99.0225 46.703C98.7345 46.415 98.5905 46.037 98.5905 45.569V44.975C98.2845 45.677 97.7985 46.226 97.1325 46.622C96.4845 47.018 95.7285 47.216 94.8645 47.216C93.9825 47.216 93.1815 47.036 92.4615 46.676C91.7415 46.316 91.1745 45.821 90.7605 45.191C90.3465 44.561 90.1395 43.859 90.1395 43.085C90.1395 42.113 90.3825 41.348 90.8685 40.79C91.3725 40.232 92.1825 39.827 93.2985 39.575C94.4145 39.323 95.9535 39.197 97.9155 39.197H98.5905V38.576C98.5905 37.694 98.4015 37.055 98.0235 36.659C97.6455 36.245 97.0335 36.038 96.1875 36.038C95.6655 36.038 95.1345 36.119 94.5945 36.281C94.0545 36.425 93.4155 36.641 92.6775 36.929C92.2095 37.163 91.8675 37.28 91.6515 37.28C91.3275 37.28 91.0575 37.163 90.8415 36.929C90.6435 36.695 90.5445 36.389 90.5445 36.011C90.5445 35.705 90.6165 35.444 90.7605 35.228C90.9225 34.994 91.1835 34.778 91.5435 34.58C92.1735 34.238 92.9205 33.968 93.7845 33.77C94.6665 33.572 95.5305 33.473 96.3765 33.473ZM95.5395 44.786C96.4395 44.786 97.1685 44.489 97.7265 43.895C98.3025 43.283 98.5905 42.5 98.5905 41.546V40.979H98.1045C96.8985 40.979 95.9625 41.033 95.2965 41.141C94.6305 41.249 94.1535 41.438 93.8655 41.708C93.5775 41.978 93.4335 42.347 93.4335 42.815C93.4335 43.391 93.6315 43.868 94.0275 44.246C94.4415 44.606 94.9455 44.786 95.5395 44.786ZM97.0515 31.988C96.8535 32.132 96.6555 32.204 96.4575 32.204C96.2055 32.204 95.9895 32.123 95.8095 31.961C95.6475 31.781 95.5665 31.574 95.5665 31.34C95.5665 31.142 95.6385 30.944 95.7825 30.746L98.4015 27.263C98.8155 26.723 99.2925 26.453 99.8325 26.453C100.228 26.453 100.561 26.597 100.831 26.885C101.119 27.155 101.263 27.479 101.263 27.857C101.263 28.361 101.02 28.793 100.534 29.153L97.0515 31.988ZM111.093 47.216C109.779 47.216 108.618 46.937 107.61 46.379C106.62 45.821 105.855 45.029 105.315 44.003C104.775 42.977 104.505 41.78 104.505 40.412C104.505 39.044 104.784 37.838 105.342 36.794C105.918 35.732 106.719 34.913 107.745 34.337C108.771 33.761 109.95 33.473 111.282 33.473C111.984 33.473 112.686 33.572 113.388 33.77C114.108 33.968 114.738 34.238 115.278 34.58C115.854 34.958 116.142 35.435 116.142 36.011C116.142 36.407 116.043 36.731 115.845 36.983C115.665 37.217 115.422 37.334 115.116 37.334C114.918 37.334 114.711 37.289 114.495 37.199C114.279 37.109 114.063 37.001 113.847 36.875C113.451 36.641 113.073 36.461 112.713 36.335C112.353 36.191 111.939 36.119 111.471 36.119C110.355 36.119 109.491 36.488 108.879 37.226C108.285 37.946 107.988 38.99 107.988 40.358C107.988 41.708 108.285 42.752 108.879 43.49C109.491 44.21 110.355 44.57 111.471 44.57C111.921 44.57 112.317 44.507 112.659 44.381C113.019 44.237 113.415 44.048 113.847 43.814C114.117 43.652 114.351 43.535 114.549 43.463C114.747 43.373 114.945 43.328 115.143 43.328C115.431 43.328 115.674 43.454 115.872 43.706C116.07 43.958 116.169 44.273 116.169 44.651C116.169 44.957 116.097 45.227 115.953 45.461C115.827 45.677 115.611 45.875 115.305 46.055C114.747 46.415 114.099 46.703 113.361 46.919C112.623 47.117 111.867 47.216 111.093 47.216ZM120.091 47.162C119.605 47.162 119.2 47.027 118.876 46.757C118.57 46.469 118.417 46.064 118.417 45.542V35.12C118.417 34.598 118.57 34.202 118.876 33.932C119.2 33.662 119.605 33.527 120.091 33.527C120.577 33.527 120.982 33.662 121.306 33.932C121.63 34.202 121.792 34.598 121.792 35.12V45.542C121.792 46.064 121.63 46.469 121.306 46.757C120.982 47.027 120.577 47.162 120.091 47.162ZM120.091 31.124C119.479 31.124 118.993 30.962 118.633 30.638C118.273 30.296 118.093 29.855 118.093 29.315C118.093 28.775 118.273 28.343 118.633 28.019C118.993 27.695 119.479 27.533 120.091 27.533C120.685 27.533 121.162 27.695 121.522 28.019C121.9 28.343 122.089 28.775 122.089 29.315C122.089 29.855 121.909 30.296 121.549 30.638C121.189 30.962 120.703 31.124 120.091 31.124ZM126.947 47.162C126.461 47.162 126.056 47.027 125.732 46.757C125.426 46.469 125.273 46.064 125.273 45.542V29.423C125.273 28.901 125.426 28.505 125.732 28.235C126.056 27.965 126.461 27.83 126.947 27.83C127.433 27.83 127.838 27.965 128.162 28.235C128.486 28.505 128.648 28.901 128.648 29.423V45.542C128.648 46.064 128.486 46.469 128.162 46.757C127.838 47.027 127.433 47.162 126.947 47.162Z" fill="#004098"/>
<path d="M79.792 80.128C78.32 80.128 77.2053 79.744 76.448 78.976C75.6907 78.208 75.312 77.0773 75.312 75.584V69.312C75.312 69.1093 75.3707 68.9493 75.488 68.832C75.6053 68.704 75.7653 68.64 75.968 68.64C76.16 68.64 76.3147 68.704 76.432 68.832C76.5493 68.9493 76.608 69.1093 76.608 69.312V75.696C76.608 76.7947 76.8747 77.6213 77.408 78.176C77.952 78.7307 78.7467 79.008 79.792 79.008C80.8373 79.008 81.6267 78.7307 82.16 78.176C82.6933 77.6213 82.96 76.7947 82.96 75.696V69.312C82.96 69.1093 83.0187 68.9493 83.136 68.832C83.264 68.704 83.424 68.64 83.616 68.64C83.8187 68.64 83.9787 68.704 84.096 68.832C84.2133 68.9493 84.272 69.1093 84.272 69.312V75.584C84.272 77.0667 83.888 78.1973 83.12 78.976C82.3627 79.744 81.2533 80.128 79.792 80.128ZM90.3781 79.056C90.7515 79.088 90.9381 79.2587 90.9381 79.568C90.9381 79.7493 90.8688 79.888 90.7301 79.984C90.6021 80.0693 90.4048 80.1013 90.1381 80.08L89.7061 80.048C88.8528 79.984 88.2235 79.728 87.8181 79.28C87.4128 78.832 87.2101 78.1547 87.2101 77.248V73.232H86.1381C85.9568 73.232 85.8128 73.1893 85.7061 73.104C85.6101 73.008 85.5621 72.8853 85.5621 72.736C85.5621 72.576 85.6101 72.448 85.7061 72.352C85.8128 72.256 85.9568 72.208 86.1381 72.208H87.2101V70.4C87.2101 70.1973 87.2688 70.0427 87.3861 69.936C87.5035 69.8187 87.6635 69.76 87.8661 69.76C88.0581 69.76 88.2128 69.8187 88.3301 69.936C88.4475 70.0427 88.5061 70.1973 88.5061 70.4V72.208H90.2821C90.4528 72.208 90.5861 72.256 90.6821 72.352C90.7888 72.448 90.8421 72.576 90.8421 72.736C90.8421 72.8853 90.7888 73.008 90.6821 73.104C90.5861 73.1893 90.4528 73.232 90.2821 73.232H88.5061V77.312C88.5061 77.8987 88.6235 78.3253 88.8581 78.592C89.1035 78.848 89.4661 78.992 89.9461 79.024L90.3781 79.056ZM92.8716 80.08C92.6796 80.08 92.5196 80.0267 92.3916 79.92C92.2743 79.8027 92.2156 79.6427 92.2156 79.44V72.688C92.2156 72.4853 92.2743 72.3307 92.3916 72.224C92.5196 72.1067 92.6796 72.048 92.8716 72.048C93.0636 72.048 93.2183 72.1067 93.3356 72.224C93.453 72.3307 93.5116 72.4853 93.5116 72.688V79.44C93.5116 79.6533 93.453 79.8133 93.3356 79.92C93.2183 80.0267 93.0636 80.08 92.8716 80.08ZM92.8716 70.368C92.6156 70.368 92.4076 70.2933 92.2476 70.144C92.0876 69.9947 92.0076 69.7973 92.0076 69.552C92.0076 69.3173 92.0876 69.1253 92.2476 68.976C92.4076 68.8267 92.6156 68.752 92.8716 68.752C93.1276 68.752 93.3356 68.8267 93.4956 68.976C93.6556 69.1253 93.7356 69.3173 93.7356 69.552C93.7356 69.7973 93.6556 69.9947 93.4956 70.144C93.3356 70.2933 93.1276 70.368 92.8716 70.368ZM96.5904 80.08C96.3984 80.08 96.2384 80.0267 96.1104 79.92C95.993 79.8027 95.9344 79.6427 95.9344 79.44V69.28C95.9344 69.0773 95.993 68.9227 96.1104 68.816C96.2384 68.6987 96.3984 68.64 96.5904 68.64C96.7717 68.64 96.921 68.6987 97.0384 68.816C97.1664 68.9227 97.2304 69.0773 97.2304 69.28V79.44C97.2304 79.6427 97.1664 79.8027 97.0384 79.92C96.921 80.0267 96.7717 80.08 96.5904 80.08ZM100.309 80.08C100.117 80.08 99.9571 80.0267 99.8291 79.92C99.7118 79.8027 99.6531 79.6427 99.6531 79.44V72.688C99.6531 72.4853 99.7118 72.3307 99.8291 72.224C99.9571 72.1067 100.117 72.048 100.309 72.048C100.501 72.048 100.656 72.1067 100.773 72.224C100.89 72.3307 100.949 72.4853 100.949 72.688V79.44C100.949 79.6533 100.89 79.8133 100.773 79.92C100.656 80.0267 100.501 80.08 100.309 80.08ZM100.309 70.368C100.053 70.368 99.8451 70.2933 99.6851 70.144C99.5251 69.9947 99.4451 69.7973 99.4451 69.552C99.4451 69.3173 99.5251 69.1253 99.6851 68.976C99.8451 68.8267 100.053 68.752 100.309 68.752C100.565 68.752 100.773 68.8267 100.933 68.976C101.093 69.1253 101.173 69.3173 101.173 69.552C101.173 69.7973 101.093 69.9947 100.933 70.144C100.773 70.2933 100.565 70.368 100.309 70.368ZM109.1 78.976C109.281 78.976 109.42 79.024 109.516 79.12C109.612 79.2053 109.66 79.328 109.66 79.488C109.66 79.648 109.612 79.776 109.516 79.872C109.42 79.9573 109.281 80 109.1 80H103.5C103.319 80 103.169 79.9467 103.052 79.84C102.935 79.7227 102.876 79.584 102.876 79.424C102.876 79.2533 102.94 79.088 103.068 78.928L107.804 73.232H103.42C103.239 73.232 103.095 73.1893 102.988 73.104C102.892 73.008 102.844 72.8853 102.844 72.736C102.844 72.576 102.892 72.448 102.988 72.352C103.095 72.256 103.239 72.208 103.42 72.208H108.844C109.036 72.208 109.191 72.2667 109.308 72.384C109.425 72.4907 109.484 72.624 109.484 72.784C109.484 72.9547 109.42 73.12 109.292 73.28L104.54 78.976H109.1ZM114.525 72.016C116.477 72.016 117.453 73.04 117.453 75.088V79.44C117.453 79.632 117.394 79.7867 117.277 79.904C117.17 80.0213 117.021 80.08 116.829 80.08C116.637 80.08 116.482 80.0213 116.365 79.904C116.247 79.7867 116.189 79.632 116.189 79.44V78.672C115.986 79.1307 115.677 79.488 115.261 79.744C114.845 79.9893 114.365 80.112 113.821 80.112C113.319 80.112 112.855 80.0107 112.429 79.808C112.013 79.6053 111.682 79.3227 111.437 78.96C111.191 78.5973 111.069 78.1973 111.069 77.76C111.069 77.1733 111.218 76.72 111.517 76.4C111.815 76.0693 112.306 75.8347 112.989 75.696C113.671 75.5467 114.621 75.472 115.837 75.472H116.189V74.944C116.189 74.304 116.055 73.8347 115.789 73.536C115.533 73.2373 115.111 73.088 114.525 73.088C113.799 73.088 113.063 73.2853 112.317 73.68C112.029 73.8613 111.826 73.952 111.709 73.952C111.581 73.952 111.474 73.904 111.389 73.808C111.303 73.712 111.261 73.5893 111.261 73.44C111.261 73.2907 111.303 73.1627 111.389 73.056C111.485 72.9387 111.634 72.8213 111.837 72.704C112.21 72.4907 112.631 72.3253 113.101 72.208C113.581 72.08 114.055 72.016 114.525 72.016ZM113.997 79.088C114.637 79.088 115.159 78.8747 115.565 78.448C115.981 78.0107 116.189 77.4507 116.189 76.768V76.304H115.901C114.962 76.304 114.247 76.3467 113.757 76.432C113.266 76.5067 112.914 76.64 112.701 76.832C112.498 77.0133 112.397 77.2853 112.397 77.648C112.397 78.064 112.546 78.4107 112.845 78.688C113.154 78.9547 113.538 79.088 113.997 79.088ZM123.681 72.048C124.129 72.016 124.353 72.1973 124.353 72.592C124.353 72.7627 124.305 72.9013 124.209 73.008C124.113 73.104 123.948 73.1627 123.713 73.184L123.233 73.232C122.518 73.296 121.985 73.552 121.633 74C121.292 74.4373 121.121 74.9547 121.121 75.552V79.44C121.121 79.6533 121.062 79.8133 120.945 79.92C120.828 80.0267 120.673 80.08 120.481 80.08C120.289 80.08 120.129 80.0267 120.001 79.92C119.884 79.8027 119.825 79.6427 119.825 79.44V72.688C119.825 72.4853 119.889 72.3307 120.017 72.224C120.145 72.1067 120.3 72.048 120.481 72.048C120.652 72.048 120.796 72.1067 120.913 72.224C121.03 72.3307 121.089 72.48 121.089 72.672V73.568C121.313 73.0987 121.628 72.7413 122.033 72.496C122.449 72.2507 122.924 72.1067 123.457 72.064L123.681 72.048ZM135.511 72.048C135.713 72.048 135.868 72.1067 135.975 72.224C136.092 72.3413 136.151 72.496 136.151 72.688V79.456C136.151 79.6373 136.092 79.7867 135.975 79.904C135.868 80.0213 135.713 80.08 135.511 80.08C135.319 80.08 135.164 80.0267 135.047 79.92C134.94 79.8027 134.887 79.6533 134.887 79.472V78.672C134.641 79.1413 134.295 79.4987 133.847 79.744C133.409 79.9893 132.913 80.112 132.359 80.112C131.431 80.112 130.732 79.856 130.263 79.344C129.793 78.8213 129.559 78.0533 129.559 77.04V72.688C129.559 72.496 129.617 72.3413 129.735 72.224C129.852 72.1067 130.012 72.048 130.215 72.048C130.417 72.048 130.572 72.1067 130.679 72.224C130.796 72.3413 130.855 72.496 130.855 72.688V77.008C130.855 77.7013 130.993 78.2133 131.271 78.544C131.548 78.864 131.985 79.024 132.583 79.024C133.265 79.024 133.815 78.8053 134.231 78.368C134.647 77.92 134.855 77.3333 134.855 76.608V72.688C134.855 72.496 134.913 72.3413 135.031 72.224C135.148 72.1067 135.308 72.048 135.511 72.048ZM142.479 72.016C144.346 72.016 145.279 73.0453 145.279 75.104V79.44C145.279 79.6427 145.221 79.8027 145.103 79.92C144.997 80.0267 144.842 80.08 144.639 80.08C144.437 80.08 144.277 80.0267 144.159 79.92C144.042 79.8027 143.983 79.6427 143.983 79.44V75.184C143.983 74.4587 143.839 73.9307 143.551 73.6C143.274 73.2693 142.826 73.104 142.207 73.104C141.493 73.104 140.922 73.3227 140.495 73.76C140.069 74.1973 139.855 74.7893 139.855 75.536V79.44C139.855 79.6427 139.797 79.8027 139.679 79.92C139.573 80.0267 139.418 80.08 139.215 80.08C139.013 80.08 138.853 80.0267 138.735 79.92C138.618 79.8027 138.559 79.6427 138.559 79.44V72.688C138.559 72.496 138.618 72.3413 138.735 72.224C138.853 72.1067 139.013 72.048 139.215 72.048C139.407 72.048 139.557 72.1067 139.663 72.224C139.781 72.3413 139.839 72.4907 139.839 72.672V73.488C140.095 73.008 140.453 72.6453 140.911 72.4C141.37 72.144 141.893 72.016 142.479 72.016ZM150.837 72.016C152.789 72.016 153.765 73.04 153.765 75.088V79.44C153.765 79.632 153.706 79.7867 153.589 79.904C153.482 80.0213 153.333 80.08 153.141 80.08C152.949 80.08 152.794 80.0213 152.677 79.904C152.56 79.7867 152.501 79.632 152.501 79.44V78.672C152.298 79.1307 151.989 79.488 151.573 79.744C151.157 79.9893 150.677 80.112 150.133 80.112C149.632 80.112 149.168 80.0107 148.741 79.808C148.325 79.6053 147.994 79.3227 147.749 78.96C147.504 78.5973 147.381 78.1973 147.381 77.76C147.381 77.1733 147.53 76.72 147.829 76.4C148.128 76.0693 148.618 75.8347 149.301 75.696C149.984 75.5467 150.933 75.472 152.149 75.472H152.501V74.944C152.501 74.304 152.368 73.8347 152.101 73.536C151.845 73.2373 151.424 73.088 150.837 73.088C150.112 73.088 149.376 73.2853 148.629 73.68C148.341 73.8613 148.138 73.952 148.021 73.952C147.893 73.952 147.786 73.904 147.701 73.808C147.616 73.712 147.573 73.5893 147.573 73.44C147.573 73.2907 147.616 73.1627 147.701 73.056C147.797 72.9387 147.946 72.8213 148.149 72.704C148.522 72.4907 148.944 72.3253 149.413 72.208C149.893 72.08 150.368 72.016 150.837 72.016ZM150.309 79.088C150.949 79.088 151.472 78.8747 151.877 78.448C152.293 78.0107 152.501 77.4507 152.501 76.768V76.304H152.213C151.274 76.304 150.56 76.3467 150.069 76.432C149.578 76.5067 149.226 76.64 149.013 76.832C148.81 77.0133 148.709 77.2853 148.709 77.648C148.709 78.064 148.858 78.4107 149.157 78.688C149.466 78.9547 149.85 79.088 150.309 79.088ZM163.447 72.016C165.399 72.016 166.375 73.04 166.375 75.088V79.44C166.375 79.632 166.316 79.7867 166.199 79.904C166.092 80.0213 165.943 80.08 165.751 80.08C165.559 80.08 165.404 80.0213 165.287 79.904C165.169 79.7867 165.111 79.632 165.111 79.44V78.672C164.908 79.1307 164.599 79.488 164.183 79.744C163.767 79.9893 163.287 80.112 162.743 80.112C162.241 80.112 161.777 80.0107 161.351 79.808C160.935 79.6053 160.604 79.3227 160.359 78.96C160.113 78.5973 159.991 78.1973 159.991 77.76C159.991 77.1733 160.14 76.72 160.439 76.4C160.737 76.0693 161.228 75.8347 161.911 75.696C162.593 75.5467 163.543 75.472 164.759 75.472H165.111V74.944C165.111 74.304 164.977 73.8347 164.711 73.536C164.455 73.2373 164.033 73.088 163.447 73.088C162.721 73.088 161.985 73.2853 161.239 73.68C160.951 73.8613 160.748 73.952 160.631 73.952C160.503 73.952 160.396 73.904 160.311 73.808C160.225 73.712 160.183 73.5893 160.183 73.44C160.183 73.2907 160.225 73.1627 160.311 73.056C160.407 72.9387 160.556 72.8213 160.759 72.704C161.132 72.4907 161.553 72.3253 162.023 72.208C162.503 72.08 162.977 72.016 163.447 72.016ZM162.919 79.088C163.559 79.088 164.081 78.8747 164.487 78.448C164.903 78.0107 165.111 77.4507 165.111 76.768V76.304H164.823C163.884 76.304 163.169 76.3467 162.679 76.432C162.188 76.5067 161.836 76.64 161.623 76.832C161.42 77.0133 161.319 77.2853 161.319 77.648C161.319 78.064 161.468 78.4107 161.767 78.688C162.076 78.9547 162.46 79.088 162.919 79.088ZM175.067 72.048C175.27 72.048 175.43 72.1067 175.547 72.224C175.664 72.3413 175.723 72.496 175.723 72.688V79.472C175.723 80.6347 175.424 81.5093 174.827 82.096C174.23 82.6933 173.344 82.992 172.171 82.992C171.03 82.992 170.08 82.768 169.323 82.32C168.939 82.1067 168.747 81.8613 168.747 81.584C168.747 81.4347 168.784 81.312 168.859 81.216C168.944 81.12 169.051 81.072 169.179 81.072C169.286 81.072 169.478 81.1467 169.755 81.296C170.128 81.488 170.496 81.6427 170.859 81.76C171.222 81.8773 171.654 81.936 172.155 81.936C172.912 81.936 173.483 81.7333 173.867 81.328C174.251 80.9333 174.443 80.352 174.443 79.584V78.208C174.219 78.7093 173.872 79.0933 173.403 79.36C172.944 79.6267 172.4 79.76 171.771 79.76C171.088 79.76 170.48 79.6 169.947 79.28C169.424 78.96 169.014 78.5067 168.715 77.92C168.427 77.3333 168.283 76.656 168.283 75.888C168.283 75.12 168.427 74.4427 168.715 73.856C169.014 73.2693 169.424 72.816 169.947 72.496C170.48 72.176 171.088 72.016 171.771 72.016C172.39 72.016 172.928 72.1493 173.387 72.416C173.846 72.6827 174.192 73.0613 174.427 73.552V72.688C174.427 72.496 174.48 72.3413 174.587 72.224C174.704 72.1067 174.864 72.048 175.067 72.048ZM172.027 78.688C172.774 78.688 173.36 78.4427 173.787 77.952C174.214 77.4507 174.427 76.7627 174.427 75.888C174.427 75.024 174.214 74.3467 173.787 73.856C173.371 73.3547 172.784 73.104 172.027 73.104C171.27 73.104 170.672 73.3547 170.235 73.856C169.808 74.3467 169.595 75.024 169.595 75.888C169.595 76.7627 169.808 77.4507 170.235 77.952C170.672 78.4427 171.27 78.688 172.027 78.688ZM184.154 78.192C184.271 78.192 184.373 78.24 184.458 78.336C184.543 78.432 184.586 78.5547 184.586 78.704C184.586 78.9707 184.399 79.216 184.026 79.44C183.642 79.664 183.237 79.8347 182.81 79.952C182.383 80.0587 181.967 80.112 181.562 80.112C180.357 80.112 179.402 79.7547 178.698 79.04C178.005 78.3253 177.658 77.3387 177.658 76.08C177.658 75.28 177.813 74.576 178.122 73.968C178.431 73.3493 178.863 72.8693 179.418 72.528C179.983 72.1867 180.623 72.016 181.338 72.016C182.351 72.016 183.157 72.3467 183.754 73.008C184.351 73.6693 184.65 74.5653 184.65 75.696C184.65 75.9093 184.607 76.064 184.522 76.16C184.437 76.256 184.298 76.304 184.106 76.304H178.954C179.05 78.1387 179.919 79.056 181.562 79.056C181.978 79.056 182.335 79.0027 182.634 78.896C182.933 78.7787 183.253 78.624 183.594 78.432C183.871 78.272 184.058 78.192 184.154 78.192ZM181.354 73.024C180.671 73.024 180.122 73.2373 179.706 73.664C179.301 74.0907 179.061 74.6933 178.986 75.472H183.514C183.493 74.6827 183.295 74.08 182.922 73.664C182.549 73.2373 182.026 73.024 181.354 73.024ZM190.479 72.016C192.346 72.016 193.279 73.0453 193.279 75.104V79.44C193.279 79.6427 193.221 79.8027 193.103 79.92C192.997 80.0267 192.842 80.08 192.639 80.08C192.437 80.08 192.277 80.0267 192.159 79.92C192.042 79.8027 191.983 79.6427 191.983 79.44V75.184C191.983 74.4587 191.839 73.9307 191.551 73.6C191.274 73.2693 190.826 73.104 190.207 73.104C189.493 73.104 188.922 73.3227 188.495 73.76C188.069 74.1973 187.855 74.7893 187.855 75.536V79.44C187.855 79.6427 187.797 79.8027 187.679 79.92C187.573 80.0267 187.418 80.08 187.215 80.08C187.013 80.08 186.853 80.0267 186.735 79.92C186.618 79.8027 186.559 79.6427 186.559 79.44V72.688C186.559 72.496 186.618 72.3413 186.735 72.224C186.853 72.1067 187.013 72.048 187.215 72.048C187.407 72.048 187.557 72.1067 187.663 72.224C187.781 72.3413 187.839 72.4907 187.839 72.672V73.488C188.095 73.008 188.453 72.6453 188.911 72.4C189.37 72.144 189.893 72.016 190.479 72.016ZM198.869 80.112C198.144 80.112 197.498 79.9467 196.933 79.616C196.378 79.2853 195.946 78.816 195.637 78.208C195.338 77.6 195.189 76.896 195.189 76.096C195.189 75.296 195.344 74.5867 195.653 73.968C195.973 73.3493 196.416 72.8693 196.981 72.528C197.546 72.1867 198.197 72.016 198.933 72.016C199.338 72.016 199.738 72.0747 200.133 72.192C200.538 72.2987 200.89 72.4587 201.189 72.672C201.381 72.8 201.514 72.928 201.589 73.056C201.674 73.1733 201.717 73.3067 201.717 73.456C201.717 73.6053 201.674 73.728 201.589 73.824C201.514 73.92 201.413 73.968 201.285 73.968C201.21 73.968 201.13 73.9467 201.045 73.904C200.96 73.8613 200.885 73.8187 200.821 73.776C200.768 73.7333 200.73 73.7067 200.709 73.696C200.432 73.5147 200.165 73.3707 199.909 73.264C199.664 73.1573 199.36 73.104 198.997 73.104C198.218 73.104 197.61 73.3707 197.173 73.904C196.746 74.4267 196.533 75.1573 196.533 76.096C196.533 77.0347 196.746 77.76 197.173 78.272C197.61 78.784 198.218 79.04 198.997 79.04C199.36 79.04 199.669 78.9867 199.925 78.88C200.192 78.7733 200.458 78.6293 200.725 78.448C200.842 78.3733 200.954 78.3093 201.061 78.256C201.168 78.2027 201.258 78.176 201.333 78.176C201.45 78.176 201.546 78.224 201.621 78.32C201.706 78.416 201.749 78.5387 201.749 78.688C201.749 78.8267 201.712 78.9547 201.637 79.072C201.562 79.1787 201.424 79.3013 201.221 79.44C200.922 79.6427 200.56 79.808 200.133 79.936C199.717 80.0533 199.296 80.112 198.869 80.112ZM203.965 80.08C203.773 80.08 203.613 80.0267 203.485 79.92C203.368 79.8027 203.309 79.6427 203.309 79.44V72.688C203.309 72.4853 203.368 72.3307 203.485 72.224C203.613 72.1067 203.773 72.048 203.965 72.048C204.157 72.048 204.312 72.1067 204.429 72.224C204.547 72.3307 204.605 72.4853 204.605 72.688V79.44C204.605 79.6533 204.547 79.8133 204.429 79.92C204.312 80.0267 204.157 80.08 203.965 80.08ZM203.965 70.368C203.709 70.368 203.501 70.2933 203.341 70.144C203.181 69.9947 203.101 69.7973 203.101 69.552C203.101 69.3173 203.181 69.1253 203.341 68.976C203.501 68.8267 203.709 68.752 203.965 68.752C204.221 68.752 204.429 68.8267 204.589 68.976C204.749 69.1253 204.829 69.3173 204.829 69.552C204.829 69.7973 204.749 69.9947 204.589 70.144C204.429 70.2933 204.221 70.368 203.965 70.368ZM210.212 72.016C212.164 72.016 213.14 73.04 213.14 75.088V79.44C213.14 79.632 213.081 79.7867 212.964 79.904C212.857 80.0213 212.708 80.08 212.516 80.08C212.324 80.08 212.169 80.0213 212.052 79.904C211.935 79.7867 211.876 79.632 211.876 79.44V78.672C211.673 79.1307 211.364 79.488 210.948 79.744C210.532 79.9893 210.052 80.112 209.508 80.112C209.007 80.112 208.543 80.0107 208.116 79.808C207.7 79.6053 207.369 79.3227 207.124 78.96C206.879 78.5973 206.756 78.1973 206.756 77.76C206.756 77.1733 206.905 76.72 207.204 76.4C207.503 76.0693 207.993 75.8347 208.676 75.696C209.359 75.5467 210.308 75.472 211.524 75.472H211.876V74.944C211.876 74.304 211.743 73.8347 211.476 73.536C211.22 73.2373 210.799 73.088 210.212 73.088C209.487 73.088 208.751 73.2853 208.004 73.68C207.716 73.8613 207.513 73.952 207.396 73.952C207.268 73.952 207.161 73.904 207.076 73.808C206.991 73.712 206.948 73.5893 206.948 73.44C206.948 73.2907 206.991 73.1627 207.076 73.056C207.172 72.9387 207.321 72.8213 207.524 72.704C207.897 72.4907 208.319 72.3253 208.788 72.208C209.268 72.08 209.743 72.016 210.212 72.016ZM209.684 79.088C210.324 79.088 210.847 78.8747 211.252 78.448C211.668 78.0107 211.876 77.4507 211.876 76.768V76.304H211.588C210.649 76.304 209.935 76.3467 209.444 76.432C208.953 76.5067 208.601 76.64 208.388 76.832C208.185 77.0133 208.084 77.2853 208.084 77.648C208.084 78.064 208.233 78.4107 208.532 78.688C208.841 78.9547 209.225 79.088 209.684 79.088ZM228.262 68.64C228.454 68.64 228.603 68.704 228.71 68.832C228.816 68.9493 228.87 69.1093 228.87 69.312V79.408C228.87 79.6107 228.811 79.776 228.694 79.904C228.587 80.0213 228.432 80.08 228.23 80.08C228.027 80.08 227.851 79.9893 227.702 79.808L221.062 70.928V79.408C221.062 79.6107 221.003 79.776 220.886 79.904C220.779 80.0213 220.63 80.08 220.438 80.08C220.246 80.08 220.096 80.0213 219.99 79.904C219.883 79.776 219.83 79.6107 219.83 79.408V69.312C219.83 69.1093 219.883 68.9493 219.99 68.832C220.107 68.704 220.267 68.64 220.47 68.64C220.683 68.64 220.864 68.7307 221.014 68.912L227.638 77.792V69.312C227.638 69.1093 227.691 68.9493 227.798 68.832C227.915 68.704 228.07 68.64 228.262 68.64ZM235.258 80.128C234.458 80.128 233.69 80.0107 232.954 79.776C232.228 79.5307 231.647 79.2053 231.21 78.8C231.05 78.6507 230.97 78.464 230.97 78.24C230.97 78.0907 231.012 77.9627 231.098 77.856C231.183 77.7387 231.284 77.68 231.402 77.68C231.54 77.68 231.69 77.7387 231.85 77.856C232.842 78.624 233.972 79.008 235.242 79.008C236.159 79.008 236.863 78.832 237.354 78.48C237.844 78.128 238.09 77.6267 238.09 76.976C238.09 76.6027 237.972 76.304 237.738 76.08C237.503 75.8453 237.194 75.6587 236.81 75.52C236.426 75.3813 235.908 75.2373 235.258 75.088C234.383 74.8853 233.663 74.672 233.098 74.448C232.543 74.224 232.09 73.904 231.738 73.488C231.396 73.072 231.226 72.528 231.226 71.856C231.226 71.216 231.396 70.6507 231.738 70.16C232.09 69.6587 232.575 69.2747 233.194 69.008C233.823 68.7307 234.538 68.592 235.338 68.592C236.084 68.592 236.778 68.7093 237.418 68.944C238.068 69.168 238.612 69.4933 239.05 69.92C239.22 70.0907 239.306 70.2773 239.306 70.48C239.306 70.6293 239.263 70.7627 239.178 70.88C239.092 70.9867 238.991 71.04 238.874 71.04C238.756 71.04 238.602 70.9813 238.41 70.864C237.887 70.4373 237.402 70.1387 236.954 69.968C236.506 69.7973 235.967 69.712 235.338 69.712C234.452 69.712 233.764 69.8987 233.274 70.272C232.783 70.6347 232.538 71.1467 232.538 71.808C232.538 72.3733 232.751 72.8 233.178 73.088C233.615 73.3653 234.282 73.6107 235.178 73.824C236.148 74.0587 236.911 74.2773 237.466 74.48C238.02 74.672 238.479 74.9653 238.842 75.36C239.215 75.7547 239.402 76.2827 239.402 76.944C239.402 77.5733 239.226 78.128 238.874 78.608C238.532 79.088 238.047 79.4613 237.418 79.728C236.788 79.9947 236.068 80.128 235.258 80.128ZM251.198 79.248C251.24 79.3333 251.262 79.424 251.262 79.52C251.262 79.68 251.198 79.8133 251.07 79.92C250.952 80.0267 250.808 80.08 250.638 80.08C250.371 80.08 250.184 79.952 250.078 79.696L248.942 77.104H242.91L241.758 79.696C241.651 79.952 241.464 80.08 241.198 80.08C241.027 80.08 240.878 80.0267 240.75 79.92C240.622 79.8027 240.558 79.664 240.558 79.504C240.558 79.4187 240.579 79.3333 240.622 79.248L245.198 69.072C245.262 68.9227 245.358 68.8107 245.486 68.736C245.614 68.6613 245.752 68.624 245.902 68.624C246.062 68.624 246.206 68.6667 246.334 68.752C246.462 68.8267 246.558 68.9333 246.622 69.072L251.198 79.248ZM243.39 76.016H248.462L245.918 70.272L243.39 76.016ZM260.276 80.112C259.54 80.112 258.889 79.9467 258.324 79.616C257.769 79.2853 257.337 78.816 257.028 78.208C256.729 77.5893 256.58 76.8747 256.58 76.064C256.58 75.2533 256.729 74.544 257.028 73.936C257.337 73.3173 257.769 72.8427 258.324 72.512C258.889 72.1813 259.54 72.016 260.276 72.016C261.012 72.016 261.662 72.1813 262.228 72.512C262.793 72.8427 263.225 73.3173 263.524 73.936C263.833 74.544 263.988 75.2533 263.988 76.064C263.988 76.8747 263.833 77.5893 263.524 78.208C263.225 78.816 262.793 79.2853 262.228 79.616C261.662 79.9467 261.012 80.112 260.276 80.112ZM260.276 79.04C261.044 79.04 261.63 78.7893 262.036 78.288C262.452 77.776 262.66 77.0347 262.66 76.064C262.66 75.1147 262.452 74.384 262.036 73.872C261.62 73.3493 261.033 73.088 260.276 73.088C259.518 73.088 258.932 73.3493 258.516 73.872C258.1 74.384 257.892 75.1147 257.892 76.064C257.892 77.024 258.094 77.76 258.5 78.272C258.916 78.784 259.508 79.04 260.276 79.04ZM270.7 80.08C270.508 80.08 270.348 80.0267 270.22 79.92C270.102 79.8027 270.044 79.6427 270.044 79.44V69.28C270.044 69.0773 270.102 68.9227 270.22 68.816C270.348 68.6987 270.508 68.64 270.7 68.64C270.881 68.64 271.03 68.6987 271.148 68.816C271.276 68.9227 271.34 69.0773 271.34 69.28V79.44C271.34 79.6427 271.276 79.8027 271.148 79.92C271.03 80.0267 270.881 80.08 270.7 80.08ZM276.947 72.016C278.899 72.016 279.875 73.04 279.875 75.088V79.44C279.875 79.632 279.816 79.7867 279.699 79.904C279.592 80.0213 279.443 80.08 279.251 80.08C279.059 80.08 278.904 80.0213 278.787 79.904C278.669 79.7867 278.611 79.632 278.611 79.44V78.672C278.408 79.1307 278.099 79.488 277.683 79.744C277.267 79.9893 276.787 80.112 276.243 80.112C275.741 80.112 275.277 80.0107 274.851 79.808C274.435 79.6053 274.104 79.3227 273.859 78.96C273.613 78.5973 273.491 78.1973 273.491 77.76C273.491 77.1733 273.64 76.72 273.939 76.4C274.237 76.0693 274.728 75.8347 275.411 75.696C276.093 75.5467 277.043 75.472 278.259 75.472H278.611V74.944C278.611 74.304 278.477 73.8347 278.211 73.536C277.955 73.2373 277.533 73.088 276.947 73.088C276.221 73.088 275.485 73.2853 274.739 73.68C274.451 73.8613 274.248 73.952 274.131 73.952C274.003 73.952 273.896 73.904 273.811 73.808C273.725 73.712 273.683 73.5893 273.683 73.44C273.683 73.2907 273.725 73.1627 273.811 73.056C273.907 72.9387 274.056 72.8213 274.259 72.704C274.632 72.4907 275.053 72.3253 275.523 72.208C276.003 72.08 276.477 72.016 276.947 72.016ZM276.419 79.088C277.059 79.088 277.581 78.8747 277.987 78.448C278.403 78.0107 278.611 77.4507 278.611 76.768V76.304H278.323C277.384 76.304 276.669 76.3467 276.179 76.432C275.688 76.5067 275.336 76.64 275.123 76.832C274.92 77.0133 274.819 77.2853 274.819 77.648C274.819 78.064 274.968 78.4107 275.267 78.688C275.576 78.9547 275.96 79.088 276.419 79.088ZM290.228 72.048C290.676 72.016 290.9 72.1973 290.9 72.592C290.9 72.7627 290.852 72.9013 290.756 73.008C290.66 73.104 290.495 73.1627 290.26 73.184L289.78 73.232C289.065 73.296 288.532 73.552 288.18 74C287.839 74.4373 287.668 74.9547 287.668 75.552V79.44C287.668 79.6533 287.609 79.8133 287.492 79.92C287.375 80.0267 287.22 80.08 287.028 80.08C286.836 80.08 286.676 80.0267 286.548 79.92C286.431 79.8027 286.372 79.6427 286.372 79.44V72.688C286.372 72.4853 286.436 72.3307 286.564 72.224C286.692 72.1067 286.847 72.048 287.028 72.048C287.199 72.048 287.343 72.1067 287.46 72.224C287.577 72.3307 287.636 72.48 287.636 72.672V73.568C287.86 73.0987 288.175 72.7413 288.58 72.496C288.996 72.2507 289.471 72.1067 290.004 72.064L290.228 72.048ZM297.888 78.192C298.006 78.192 298.107 78.24 298.192 78.336C298.278 78.432 298.32 78.5547 298.32 78.704C298.32 78.9707 298.134 79.216 297.76 79.44C297.376 79.664 296.971 79.8347 296.544 79.952C296.118 80.0587 295.702 80.112 295.296 80.112C294.091 80.112 293.136 79.7547 292.432 79.04C291.739 78.3253 291.392 77.3387 291.392 76.08C291.392 75.28 291.547 74.576 291.856 73.968C292.166 73.3493 292.598 72.8693 293.152 72.528C293.718 72.1867 294.358 72.016 295.072 72.016C296.086 72.016 296.891 72.3467 297.488 73.008C298.086 73.6693 298.384 74.5653 298.384 75.696C298.384 75.9093 298.342 76.064 298.256 76.16C298.171 76.256 298.032 76.304 297.84 76.304H292.688C292.784 78.1387 293.654 79.056 295.296 79.056C295.712 79.056 296.07 79.0027 296.368 78.896C296.667 78.7787 296.987 78.624 297.328 78.432C297.606 78.272 297.792 78.192 297.888 78.192ZM295.088 73.024C294.406 73.024 293.856 73.2373 293.44 73.664C293.035 74.0907 292.795 74.6933 292.72 75.472H297.248C297.227 74.6827 297.03 74.08 296.656 73.664C296.283 73.2373 295.76 73.024 295.088 73.024ZM306.55 68.64C306.752 68.64 306.912 68.6987 307.03 68.816C307.147 68.9333 307.206 69.0827 307.206 69.264V79.44C307.206 79.632 307.147 79.7867 307.03 79.904C306.912 80.0213 306.752 80.08 306.55 80.08C306.347 80.08 306.187 80.0213 306.07 79.904C305.963 79.7867 305.91 79.632 305.91 79.44V78.576C305.675 79.0667 305.328 79.4453 304.87 79.712C304.422 79.9787 303.894 80.112 303.286 80.112C302.603 80.112 302 79.9413 301.478 79.6C300.955 79.2587 300.55 78.784 300.262 78.176C299.974 77.5573 299.83 76.8427 299.83 76.032C299.83 75.232 299.974 74.528 300.262 73.92C300.55 73.312 300.955 72.8427 301.478 72.512C302 72.1813 302.603 72.016 303.286 72.016C303.894 72.016 304.422 72.1493 304.87 72.416C305.328 72.6827 305.675 73.0613 305.91 73.552V69.264C305.91 69.072 305.963 68.9227 306.07 68.816C306.187 68.6987 306.347 68.64 306.55 68.64ZM303.542 79.04C304.299 79.04 304.88 78.784 305.286 78.272C305.702 77.7493 305.91 77.0133 305.91 76.064C305.91 75.1147 305.702 74.384 305.286 73.872C304.88 73.36 304.299 73.104 303.542 73.104C302.784 73.104 302.192 73.36 301.766 73.872C301.35 74.384 301.142 75.104 301.142 76.032C301.142 76.9813 301.35 77.7227 301.766 78.256C302.192 78.7787 302.784 79.04 303.542 79.04ZM81.456 90.64C81.6587 90.64 81.8187 90.6987 81.936 90.816C82.0533 90.9333 82.112 91.0827 82.112 91.264V101.44C82.112 101.632 82.0533 101.787 81.936 101.904C81.8187 102.021 81.6587 102.08 81.456 102.08C81.2533 102.08 81.0933 102.021 80.976 101.904C80.8693 101.787 80.816 101.632 80.816 101.44V100.576C80.5813 101.067 80.2347 101.445 79.776 101.712C79.328 101.979 78.8 102.112 78.192 102.112C77.5093 102.112 76.9067 101.941 76.384 101.6C75.8613 101.259 75.456 100.784 75.168 100.176C74.88 99.5573 74.736 98.8427 74.736 98.032C74.736 97.232 74.88 96.528 75.168 95.92C75.456 95.312 75.8613 94.8427 76.384 94.512C76.9067 94.1813 77.5093 94.016 78.192 94.016C78.8 94.016 79.328 94.1493 79.776 94.416C80.2347 94.6827 80.5813 95.0613 80.816 95.552V91.264C80.816 91.072 80.8693 90.9227 80.976 90.816C81.0933 90.6987 81.2533 90.64 81.456 90.64ZM78.448 101.04C79.2053 101.04 79.7867 100.784 80.192 100.272C80.608 99.7493 80.816 99.0133 80.816 98.064C80.816 97.1147 80.608 96.384 80.192 95.872C79.7867 95.36 79.2053 95.104 78.448 95.104C77.6907 95.104 77.0987 95.36 76.672 95.872C76.256 96.384 76.048 97.104 76.048 98.032C76.048 98.9813 76.256 99.7227 76.672 100.256C77.0987 100.779 77.6907 101.04 78.448 101.04ZM90.5445 100.192C90.6618 100.192 90.7632 100.24 90.8485 100.336C90.9338 100.432 90.9765 100.555 90.9765 100.704C90.9765 100.971 90.7898 101.216 90.4165 101.44C90.0325 101.664 89.6272 101.835 89.2005 101.952C88.7738 102.059 88.3578 102.112 87.9525 102.112C86.7472 102.112 85.7925 101.755 85.0885 101.04C84.3952 100.325 84.0485 99.3387 84.0485 98.08C84.0485 97.28 84.2032 96.576 84.5125 95.968C84.8218 95.3493 85.2538 94.8693 85.8085 94.528C86.3738 94.1867 87.0138 94.016 87.7285 94.016C88.7418 94.016 89.5472 94.3467 90.1445 95.008C90.7418 95.6693 91.0405 96.5653 91.0405 97.696C91.0405 97.9093 90.9978 98.064 90.9125 98.16C90.8272 98.256 90.6885 98.304 90.4965 98.304H85.3445C85.4405 100.139 86.3098 101.056 87.9525 101.056C88.3685 101.056 88.7258 101.003 89.0245 100.896C89.3232 100.779 89.6432 100.624 89.9845 100.432C90.2618 100.272 90.4485 100.192 90.5445 100.192ZM87.7445 95.024C87.0618 95.024 86.5125 95.2373 86.0965 95.664C85.6912 96.0907 85.4512 96.6933 85.3765 97.472H89.9045C89.8832 96.6827 89.6858 96.08 89.3125 95.664C88.9392 95.2373 88.4165 95.024 87.7445 95.024ZM111.683 91.04C111.726 90.9013 111.8 90.8 111.907 90.736C112.014 90.6613 112.131 90.624 112.259 90.624C112.43 90.624 112.574 90.6773 112.691 90.784C112.819 90.88 112.883 91.0133 112.883 91.184C112.883 91.2587 112.867 91.344 112.835 91.44L109.219 101.632C109.166 101.781 109.075 101.899 108.947 101.984C108.819 102.059 108.675 102.096 108.515 102.096C108.366 102.096 108.227 102.059 108.099 101.984C107.971 101.899 107.88 101.781 107.827 101.632L104.691 92.768L101.523 101.632C101.47 101.781 101.379 101.899 101.251 101.984C101.123 102.059 100.984 102.096 100.835 102.096C100.686 102.096 100.547 102.059 100.419 101.984C100.291 101.899 100.2 101.781 100.147 101.632L96.515 91.44C96.483 91.3547 96.467 91.2747 96.467 91.2C96.467 91.0293 96.531 90.8907 96.659 90.784C96.7977 90.6773 96.9523 90.624 97.123 90.624C97.251 90.624 97.3683 90.6613 97.475 90.736C97.5923 90.8 97.6723 90.9013 97.715 91.04L100.867 100.128L104.067 91.136C104.12 90.976 104.206 90.8587 104.323 90.784C104.44 90.6987 104.568 90.656 104.707 90.656C104.846 90.656 104.974 90.6987 105.091 90.784C105.208 90.8693 105.294 90.992 105.347 91.152L108.499 100.16L111.683 91.04ZM119.826 100.192C119.943 100.192 120.044 100.24 120.13 100.336C120.215 100.432 120.258 100.555 120.258 100.704C120.258 100.971 120.071 101.216 119.698 101.44C119.314 101.664 118.908 101.835 118.482 101.952C118.055 102.059 117.639 102.112 117.234 102.112C116.028 102.112 115.074 101.755 114.37 101.04C113.676 100.325 113.33 99.3387 113.33 98.08C113.33 97.28 113.484 96.576 113.794 95.968C114.103 95.3493 114.535 94.8693 115.09 94.528C115.655 94.1867 116.295 94.016 117.01 94.016C118.023 94.016 118.828 94.3467 119.426 95.008C120.023 95.6693 120.322 96.5653 120.322 97.696C120.322 97.9093 120.279 98.064 120.194 98.16C120.108 98.256 119.97 98.304 119.778 98.304H114.626C114.722 100.139 115.591 101.056 117.234 101.056C117.65 101.056 118.007 101.003 118.306 100.896C118.604 100.779 118.924 100.624 119.266 100.432C119.543 100.272 119.73 100.192 119.826 100.192ZM117.026 95.024C116.343 95.024 115.794 95.2373 115.378 95.664C114.972 96.0907 114.732 96.6933 114.658 97.472H119.186C119.164 96.6827 118.967 96.08 118.594 95.664C118.22 95.2373 117.698 95.024 117.026 95.024ZM124.855 102.112C124.365 102.112 123.895 102.053 123.447 101.936C123.01 101.819 122.621 101.653 122.279 101.44C122.087 101.312 121.949 101.195 121.863 101.088C121.789 100.971 121.751 100.832 121.751 100.672C121.751 100.533 121.789 100.421 121.863 100.336C121.949 100.24 122.055 100.192 122.183 100.192C122.311 100.192 122.498 100.272 122.743 100.432C123.063 100.624 123.378 100.779 123.687 100.896C124.007 101.003 124.402 101.056 124.871 101.056C125.447 101.056 125.895 100.955 126.215 100.752C126.535 100.549 126.695 100.256 126.695 99.872C126.695 99.6373 126.637 99.4507 126.519 99.312C126.402 99.1627 126.199 99.0347 125.911 98.928C125.623 98.8107 125.202 98.6933 124.647 98.576C123.709 98.3733 123.037 98.1013 122.631 97.76C122.226 97.4187 122.023 96.9547 122.023 96.368C122.023 95.9093 122.151 95.504 122.407 95.152C122.663 94.8 123.015 94.5227 123.463 94.32C123.922 94.1173 124.439 94.016 125.015 94.016C125.431 94.016 125.831 94.0747 126.215 94.192C126.61 94.2987 126.957 94.4533 127.255 94.656C127.618 94.912 127.799 95.1787 127.799 95.456C127.799 95.5947 127.757 95.712 127.671 95.808C127.586 95.904 127.485 95.952 127.367 95.952C127.239 95.952 127.047 95.8613 126.791 95.68C126.493 95.488 126.21 95.3387 125.943 95.232C125.677 95.1253 125.346 95.072 124.951 95.072C124.45 95.072 124.045 95.184 123.735 95.408C123.437 95.632 123.287 95.9307 123.287 96.304C123.287 96.5387 123.341 96.7307 123.447 96.88C123.565 97.0187 123.751 97.1467 124.007 97.264C124.274 97.3707 124.653 97.4773 125.143 97.584C125.869 97.744 126.429 97.92 126.823 98.112C127.229 98.304 127.517 98.5387 127.687 98.816C127.858 99.0933 127.943 99.4453 127.943 99.872C127.943 100.544 127.661 101.088 127.095 101.504C126.53 101.909 125.783 102.112 124.855 102.112ZM133.441 101.056C133.814 101.088 134.001 101.259 134.001 101.568C134.001 101.749 133.931 101.888 133.793 101.984C133.665 102.069 133.467 102.101 133.201 102.08L132.769 102.048C131.915 101.984 131.286 101.728 130.881 101.28C130.475 100.832 130.273 100.155 130.273 99.248V95.232H129.201C129.019 95.232 128.875 95.1893 128.769 95.104C128.673 95.008 128.625 94.8853 128.625 94.736C128.625 94.576 128.673 94.448 128.769 94.352C128.875 94.256 129.019 94.208 129.201 94.208H130.273V92.4C130.273 92.1973 130.331 92.0427 130.449 91.936C130.566 91.8187 130.726 91.76 130.929 91.76C131.121 91.76 131.275 91.8187 131.393 91.936C131.51 92.0427 131.569 92.1973 131.569 92.4V94.208H133.345C133.515 94.208 133.649 94.256 133.745 94.352C133.851 94.448 133.905 94.576 133.905 94.736C133.905 94.8853 133.851 95.008 133.745 95.104C133.649 95.1893 133.515 95.232 133.345 95.232H131.569V99.312C131.569 99.8987 131.686 100.325 131.921 100.592C132.166 100.848 132.529 100.992 133.009 101.024L133.441 101.056ZM141.31 100.192C141.427 100.192 141.529 100.24 141.614 100.336C141.699 100.432 141.742 100.555 141.742 100.704C141.742 100.971 141.555 101.216 141.182 101.44C140.798 101.664 140.393 101.835 139.966 101.952C139.539 102.059 139.123 102.112 138.718 102.112C137.513 102.112 136.558 101.755 135.854 101.04C135.161 100.325 134.814 99.3387 134.814 98.08C134.814 97.28 134.969 96.576 135.278 95.968C135.587 95.3493 136.019 94.8693 136.574 94.528C137.139 94.1867 137.779 94.016 138.494 94.016C139.507 94.016 140.313 94.3467 140.91 95.008C141.507 95.6693 141.806 96.5653 141.806 97.696C141.806 97.9093 141.763 98.064 141.678 98.16C141.593 98.256 141.454 98.304 141.262 98.304H136.11C136.206 100.139 137.075 101.056 138.718 101.056C139.134 101.056 139.491 101.003 139.79 100.896C140.089 100.779 140.409 100.624 140.75 100.432C141.027 100.272 141.214 100.192 141.31 100.192ZM138.51 95.024C137.827 95.024 137.278 95.2373 136.862 95.664C136.457 96.0907 136.217 96.6933 136.142 97.472H140.67C140.649 96.6827 140.451 96.08 140.078 95.664C139.705 95.2373 139.182 95.024 138.51 95.024ZM147.572 94.048C148.02 94.016 148.244 94.1973 148.244 94.592C148.244 94.7627 148.196 94.9013 148.1 95.008C148.004 95.104 147.838 95.1627 147.604 95.184L147.124 95.232C146.409 95.296 145.876 95.552 145.524 96C145.182 96.4373 145.012 96.9547 145.012 97.552V101.44C145.012 101.653 144.953 101.813 144.836 101.92C144.718 102.027 144.564 102.08 144.372 102.08C144.18 102.08 144.02 102.027 143.892 101.92C143.774 101.803 143.716 101.643 143.716 101.44V94.688C143.716 94.4853 143.78 94.3307 143.908 94.224C144.036 94.1067 144.19 94.048 144.372 94.048C144.542 94.048 144.686 94.1067 144.804 94.224C144.921 94.3307 144.98 94.48 144.98 94.672V95.568C145.204 95.0987 145.518 94.7413 145.924 94.496C146.34 94.2507 146.814 94.1067 147.348 94.064L147.572 94.048ZM153.276 94.016C155.143 94.016 156.076 95.0453 156.076 97.104V101.44C156.076 101.643 156.018 101.803 155.9 101.92C155.794 102.027 155.639 102.08 155.436 102.08C155.234 102.08 155.074 102.027 154.956 101.92C154.839 101.803 154.78 101.643 154.78 101.44V97.184C154.78 96.4587 154.636 95.9307 154.348 95.6C154.071 95.2693 153.623 95.104 153.004 95.104C152.29 95.104 151.719 95.3227 151.292 95.76C150.866 96.1973 150.652 96.7893 150.652 97.536V101.44C150.652 101.643 150.594 101.803 150.476 101.92C150.37 102.027 150.215 102.08 150.012 102.08C149.81 102.08 149.65 102.027 149.532 101.92C149.415 101.803 149.356 101.643 149.356 101.44V94.688C149.356 94.496 149.415 94.3413 149.532 94.224C149.65 94.1067 149.81 94.048 150.012 94.048C150.204 94.048 150.354 94.1067 150.46 94.224C150.578 94.3413 150.636 94.4907 150.636 94.672V95.488C150.892 95.008 151.25 94.6453 151.708 94.4C152.167 94.144 152.69 94.016 153.276 94.016ZM167.167 102.128C165.695 102.128 164.58 101.744 163.823 100.976C163.066 100.208 162.687 99.0773 162.687 97.584V91.312C162.687 91.1093 162.746 90.9493 162.863 90.832C162.98 90.704 163.14 90.64 163.343 90.64C163.535 90.64 163.69 90.704 163.807 90.832C163.924 90.9493 163.983 91.1093 163.983 91.312V97.696C163.983 98.7947 164.25 99.6213 164.783 100.176C165.327 100.731 166.122 101.008 167.167 101.008C168.212 101.008 169.002 100.731 169.535 100.176C170.068 99.6213 170.335 98.7947 170.335 97.696V91.312C170.335 91.1093 170.394 90.9493 170.511 90.832C170.639 90.704 170.799 90.64 170.991 90.64C171.194 90.64 171.354 90.704 171.471 90.832C171.588 90.9493 171.647 91.1093 171.647 91.312V97.584C171.647 99.0667 171.263 100.197 170.495 100.976C169.738 101.744 168.628 102.128 167.167 102.128ZM178.073 94.016C179.94 94.016 180.873 95.0453 180.873 97.104V101.44C180.873 101.643 180.814 101.803 180.697 101.92C180.59 102.027 180.436 102.08 180.233 102.08C180.03 102.08 179.87 102.027 179.753 101.92C179.636 101.803 179.577 101.643 179.577 101.44V97.184C179.577 96.4587 179.433 95.9307 179.145 95.6C178.868 95.2693 178.42 95.104 177.801 95.104C177.086 95.104 176.516 95.3227 176.089 95.76C175.662 96.1973 175.449 96.7893 175.449 97.536V101.44C175.449 101.643 175.39 101.803 175.273 101.92C175.166 102.027 175.012 102.08 174.809 102.08C174.606 102.08 174.446 102.027 174.329 101.92C174.212 101.803 174.153 101.643 174.153 101.44V94.688C174.153 94.496 174.212 94.3413 174.329 94.224C174.446 94.1067 174.606 94.048 174.809 94.048C175.001 94.048 175.15 94.1067 175.257 94.224C175.374 94.3413 175.433 94.4907 175.433 94.672V95.488C175.689 95.008 176.046 94.6453 176.505 94.4C176.964 94.144 177.486 94.016 178.073 94.016ZM183.903 102.08C183.711 102.08 183.551 102.027 183.423 101.92C183.306 101.803 183.247 101.643 183.247 101.44V94.688C183.247 94.4853 183.306 94.3307 183.423 94.224C183.551 94.1067 183.711 94.048 183.903 94.048C184.095 94.048 184.25 94.1067 184.367 94.224C184.484 94.3307 184.543 94.4853 184.543 94.688V101.44C184.543 101.653 184.484 101.813 184.367 101.92C184.25 102.027 184.095 102.08 183.903 102.08ZM183.903 92.368C183.647 92.368 183.439 92.2933 183.279 92.144C183.119 91.9947 183.039 91.7973 183.039 91.552C183.039 91.3173 183.119 91.1253 183.279 90.976C183.439 90.8267 183.647 90.752 183.903 90.752C184.159 90.752 184.367 90.8267 184.527 90.976C184.687 91.1253 184.767 91.3173 184.767 91.552C184.767 91.7973 184.687 91.9947 184.527 92.144C184.367 92.2933 184.159 92.368 183.903 92.368ZM190.198 102.112C189.462 102.112 188.811 101.947 188.246 101.616C187.691 101.285 187.259 100.816 186.95 100.208C186.651 99.5893 186.502 98.8747 186.502 98.064C186.502 97.2533 186.651 96.544 186.95 95.936C187.259 95.3173 187.691 94.8427 188.246 94.512C188.811 94.1813 189.462 94.016 190.198 94.016C190.934 94.016 191.584 94.1813 192.15 94.512C192.715 94.8427 193.147 95.3173 193.446 95.936C193.755 96.544 193.91 97.2533 193.91 98.064C193.91 98.8747 193.755 99.5893 193.446 100.208C193.147 100.816 192.715 101.285 192.15 101.616C191.584 101.947 190.934 102.112 190.198 102.112ZM190.198 101.04C190.966 101.04 191.552 100.789 191.958 100.288C192.374 99.776 192.582 99.0347 192.582 98.064C192.582 97.1147 192.374 96.384 191.958 95.872C191.542 95.3493 190.955 95.088 190.198 95.088C189.44 95.088 188.854 95.3493 188.438 95.872C188.022 96.384 187.814 97.1147 187.814 98.064C187.814 99.024 188.016 99.76 188.422 100.272C188.838 100.784 189.43 101.04 190.198 101.04ZM199.761 94.016C201.627 94.016 202.561 95.0453 202.561 97.104V101.44C202.561 101.643 202.502 101.803 202.385 101.92C202.278 102.027 202.123 102.08 201.921 102.08C201.718 102.08 201.558 102.027 201.441 101.92C201.323 101.803 201.265 101.643 201.265 101.44V97.184C201.265 96.4587 201.121 95.9307 200.833 95.6C200.555 95.2693 200.107 95.104 199.489 95.104C198.774 95.104 198.203 95.3227 197.777 95.76C197.35 96.1973 197.137 96.7893 197.137 97.536V101.44C197.137 101.643 197.078 101.803 196.961 101.92C196.854 102.027 196.699 102.08 196.497 102.08C196.294 102.08 196.134 102.027 196.017 101.92C195.899 101.803 195.841 101.643 195.841 101.44V94.688C195.841 94.496 195.899 94.3413 196.017 94.224C196.134 94.1067 196.294 94.048 196.497 94.048C196.689 94.048 196.838 94.1067 196.945 94.224C197.062 94.3413 197.121 94.4907 197.121 94.672V95.488C197.377 95.008 197.734 94.6453 198.193 94.4C198.651 94.144 199.174 94.016 199.761 94.016ZM212.275 102.112C211.55 102.112 210.905 101.947 210.339 101.616C209.785 101.285 209.353 100.816 209.043 100.208C208.745 99.6 208.595 98.896 208.595 98.096C208.595 97.296 208.75 96.5867 209.059 95.968C209.379 95.3493 209.822 94.8693 210.387 94.528C210.953 94.1867 211.603 94.016 212.339 94.016C212.745 94.016 213.145 94.0747 213.539 94.192C213.945 94.2987 214.297 94.4587 214.595 94.672C214.787 94.8 214.921 94.928 214.995 95.056C215.081 95.1733 215.123 95.3067 215.123 95.456C215.123 95.6053 215.081 95.728 214.995 95.824C214.921 95.92 214.819 95.968 214.691 95.968C214.617 95.968 214.537 95.9467 214.451 95.904C214.366 95.8613 214.291 95.8187 214.227 95.776C214.174 95.7333 214.137 95.7067 214.115 95.696C213.838 95.5147 213.571 95.3707 213.315 95.264C213.07 95.1573 212.766 95.104 212.403 95.104C211.625 95.104 211.017 95.3707 210.579 95.904C210.153 96.4267 209.939 97.1573 209.939 98.096C209.939 99.0347 210.153 99.76 210.579 100.272C211.017 100.784 211.625 101.04 212.403 101.04C212.766 101.04 213.075 100.987 213.331 100.88C213.598 100.773 213.865 100.629 214.131 100.448C214.249 100.373 214.361 100.309 214.467 100.256C214.574 100.203 214.665 100.176 214.739 100.176C214.857 100.176 214.953 100.224 215.027 100.32C215.113 100.416 215.155 100.539 215.155 100.688C215.155 100.827 215.118 100.955 215.043 101.072C214.969 101.179 214.83 101.301 214.627 101.44C214.329 101.643 213.966 101.808 213.539 101.936C213.123 102.053 212.702 102.112 212.275 102.112ZM222.748 100.192C222.865 100.192 222.966 100.24 223.052 100.336C223.137 100.432 223.18 100.555 223.18 100.704C223.18 100.971 222.993 101.216 222.62 101.44C222.236 101.664 221.83 101.835 221.404 101.952C220.977 102.059 220.561 102.112 220.156 102.112C218.95 102.112 217.996 101.755 217.292 101.04C216.598 100.325 216.252 99.3387 216.252 98.08C216.252 97.28 216.406 96.576 216.716 95.968C217.025 95.3493 217.457 94.8693 218.012 94.528C218.577 94.1867 219.217 94.016 219.932 94.016C220.945 94.016 221.75 94.3467 222.348 95.008C222.945 95.6693 223.244 96.5653 223.244 97.696C223.244 97.9093 223.201 98.064 223.116 98.16C223.03 98.256 222.892 98.304 222.7 98.304H217.548C217.644 100.139 218.513 101.056 220.156 101.056C220.572 101.056 220.929 101.003 221.228 100.896C221.526 100.779 221.846 100.624 222.188 100.432C222.465 100.272 222.652 100.192 222.748 100.192ZM219.948 95.024C219.265 95.024 218.716 95.2373 218.3 95.664C217.894 96.0907 217.654 96.6933 217.58 97.472H222.108C222.086 96.6827 221.889 96.08 221.516 95.664C221.142 95.2373 220.62 95.024 219.948 95.024ZM229.009 94.048C229.457 94.016 229.681 94.1973 229.681 94.592C229.681 94.7627 229.633 94.9013 229.537 95.008C229.441 95.104 229.276 95.1627 229.041 95.184L228.561 95.232C227.846 95.296 227.313 95.552 226.961 96C226.62 96.4373 226.449 96.9547 226.449 97.552V101.44C226.449 101.653 226.39 101.813 226.273 101.92C226.156 102.027 226.001 102.08 225.809 102.08C225.617 102.08 225.457 102.027 225.329 101.92C225.212 101.803 225.153 101.643 225.153 101.44V94.688C225.153 94.4853 225.217 94.3307 225.345 94.224C225.473 94.1067 225.628 94.048 225.809 94.048C225.98 94.048 226.124 94.1067 226.241 94.224C226.358 94.3307 226.417 94.48 226.417 94.672V95.568C226.641 95.0987 226.956 94.7413 227.361 94.496C227.777 94.2507 228.252 94.1067 228.785 94.064L229.009 94.048ZM233.854 102.112C233.128 102.112 232.483 101.947 231.918 101.616C231.363 101.285 230.931 100.816 230.622 100.208C230.323 99.6 230.174 98.896 230.174 98.096C230.174 97.296 230.328 96.5867 230.638 95.968C230.958 95.3493 231.4 94.8693 231.966 94.528C232.531 94.1867 233.182 94.016 233.918 94.016C234.323 94.016 234.723 94.0747 235.118 94.192C235.523 94.2987 235.875 94.4587 236.174 94.672C236.366 94.8 236.499 94.928 236.574 95.056C236.659 95.1733 236.702 95.3067 236.702 95.456C236.702 95.6053 236.659 95.728 236.574 95.824C236.499 95.92 236.398 95.968 236.27 95.968C236.195 95.968 236.115 95.9467 236.03 95.904C235.944 95.8613 235.87 95.8187 235.806 95.776C235.752 95.7333 235.715 95.7067 235.694 95.696C235.416 95.5147 235.15 95.3707 234.894 95.264C234.648 95.1573 234.344 95.104 233.982 95.104C233.203 95.104 232.595 95.3707 232.158 95.904C231.731 96.4267 231.518 97.1573 231.518 98.096C231.518 99.0347 231.731 99.76 232.158 100.272C232.595 100.784 233.203 101.04 233.982 101.04C234.344 101.04 234.654 100.987 234.91 100.88C235.176 100.773 235.443 100.629 235.71 100.448C235.827 100.373 235.939 100.309 236.046 100.256C236.152 100.203 236.243 100.176 236.318 100.176C236.435 100.176 236.531 100.224 236.606 100.32C236.691 100.416 236.734 100.539 236.734 100.688C236.734 100.827 236.696 100.955 236.622 101.072C236.547 101.179 236.408 101.301 236.206 101.44C235.907 101.643 235.544 101.808 235.118 101.936C234.702 102.053 234.28 102.112 233.854 102.112ZM241.478 94.016C243.43 94.016 244.406 95.04 244.406 97.088V101.44C244.406 101.632 244.347 101.787 244.23 101.904C244.123 102.021 243.974 102.08 243.782 102.08C243.59 102.08 243.435 102.021 243.318 101.904C243.2 101.787 243.142 101.632 243.142 101.44V100.672C242.939 101.131 242.63 101.488 242.214 101.744C241.798 101.989 241.318 102.112 240.774 102.112C240.272 102.112 239.808 102.011 239.382 101.808C238.966 101.605 238.635 101.323 238.39 100.96C238.144 100.597 238.022 100.197 238.022 99.76C238.022 99.1733 238.171 98.72 238.47 98.4C238.768 98.0693 239.259 97.8347 239.942 97.696C240.624 97.5467 241.574 97.472 242.79 97.472H243.142V96.944C243.142 96.304 243.008 95.8347 242.742 95.536C242.486 95.2373 242.064 95.088 241.478 95.088C240.752 95.088 240.016 95.2853 239.27 95.68C238.982 95.8613 238.779 95.952 238.662 95.952C238.534 95.952 238.427 95.904 238.342 95.808C238.256 95.712 238.214 95.5893 238.214 95.44C238.214 95.2907 238.256 95.1627 238.342 95.056C238.438 94.9387 238.587 94.8213 238.79 94.704C239.163 94.4907 239.584 94.3253 240.054 94.208C240.534 94.08 241.008 94.016 241.478 94.016ZM240.95 101.088C241.59 101.088 242.112 100.875 242.518 100.448C242.934 100.011 243.142 99.4507 243.142 98.768V98.304H242.854C241.915 98.304 241.2 98.3467 240.71 98.432C240.219 98.5067 239.867 98.64 239.654 98.832C239.451 99.0133 239.35 99.2853 239.35 99.648C239.35 100.064 239.499 100.411 239.798 100.688C240.107 100.955 240.491 101.088 240.95 101.088ZM250.698 94.016C252.565 94.016 253.498 95.0453 253.498 97.104V101.44C253.498 101.643 253.439 101.803 253.322 101.92C253.215 102.027 253.061 102.08 252.858 102.08C252.655 102.08 252.495 102.027 252.378 101.92C252.261 101.803 252.202 101.643 252.202 101.44V97.184C252.202 96.4587 252.058 95.9307 251.77 95.6C251.493 95.2693 251.045 95.104 250.426 95.104C249.711 95.104 249.141 95.3227 248.714 95.76C248.287 96.1973 248.074 96.7893 248.074 97.536V101.44C248.074 101.643 248.015 101.803 247.898 101.92C247.791 102.027 247.637 102.08 247.434 102.08C247.231 102.08 247.071 102.027 246.954 101.92C246.837 101.803 246.778 101.643 246.778 101.44V94.688C246.778 94.496 246.837 94.3413 246.954 94.224C247.071 94.1067 247.231 94.048 247.434 94.048C247.626 94.048 247.775 94.1067 247.882 94.224C247.999 94.3413 248.058 94.4907 248.058 94.672V95.488C248.314 95.008 248.671 94.6453 249.13 94.4C249.589 94.144 250.111 94.016 250.698 94.016ZM259.056 94.016C261.008 94.016 261.984 95.04 261.984 97.088V101.44C261.984 101.632 261.925 101.787 261.808 101.904C261.701 102.021 261.552 102.08 261.36 102.08C261.168 102.08 261.013 102.021 260.896 101.904C260.779 101.787 260.72 101.632 260.72 101.44V100.672C260.517 101.131 260.208 101.488 259.792 101.744C259.376 101.989 258.896 102.112 258.352 102.112C257.851 102.112 257.387 102.011 256.96 101.808C256.544 101.605 256.213 101.323 255.968 100.96C255.723 100.597 255.6 100.197 255.6 99.76C255.6 99.1733 255.749 98.72 256.048 98.4C256.347 98.0693 256.837 97.8347 257.52 97.696C258.203 97.5467 259.152 97.472 260.368 97.472H260.72V96.944C260.72 96.304 260.587 95.8347 260.32 95.536C260.064 95.2373 259.643 95.088 259.056 95.088C258.331 95.088 257.595 95.2853 256.848 95.68C256.56 95.8613 256.357 95.952 256.24 95.952C256.112 95.952 256.005 95.904 255.92 95.808C255.835 95.712 255.792 95.5893 255.792 95.44C255.792 95.2907 255.835 95.1627 255.92 95.056C256.016 94.9387 256.165 94.8213 256.368 94.704C256.741 94.4907 257.163 94.3253 257.632 94.208C258.112 94.08 258.587 94.016 259.056 94.016ZM258.528 101.088C259.168 101.088 259.691 100.875 260.096 100.448C260.512 100.011 260.72 99.4507 260.72 98.768V98.304H260.432C259.493 98.304 258.779 98.3467 258.288 98.432C257.797 98.5067 257.445 98.64 257.232 98.832C257.029 99.0133 256.928 99.2853 256.928 99.648C256.928 100.064 257.077 100.411 257.376 100.688C257.685 100.955 258.069 101.088 258.528 101.088ZM272.401 94.016C273.084 94.016 273.687 94.1867 274.209 94.528C274.732 94.8693 275.137 95.3493 275.425 95.968C275.713 96.576 275.857 97.2853 275.857 98.096C275.857 98.9067 275.713 99.616 275.425 100.224C275.137 100.821 274.732 101.285 274.209 101.616C273.697 101.947 273.095 102.112 272.401 102.112C271.793 102.112 271.26 101.979 270.801 101.712C270.353 101.445 270.012 101.067 269.777 100.576V104.336C269.777 104.528 269.719 104.677 269.601 104.784C269.495 104.901 269.34 104.96 269.137 104.96C268.935 104.96 268.775 104.901 268.657 104.784C268.54 104.667 268.481 104.517 268.481 104.336V94.688C268.481 94.496 268.54 94.3413 268.657 94.224C268.775 94.1067 268.935 94.048 269.137 94.048C269.34 94.048 269.495 94.1067 269.601 94.224C269.719 94.3413 269.777 94.496 269.777 94.688V95.552C270.012 95.0613 270.353 94.6827 270.801 94.416C271.26 94.1493 271.793 94.016 272.401 94.016ZM272.145 101.04C272.903 101.04 273.489 100.784 273.905 100.272C274.321 99.76 274.529 99.0347 274.529 98.096C274.529 97.1573 274.321 96.4267 273.905 95.904C273.489 95.3707 272.903 95.104 272.145 95.104C271.388 95.104 270.801 95.36 270.385 95.872C269.98 96.384 269.777 97.1147 269.777 98.064C269.777 99.0133 269.98 99.7493 270.385 100.272C270.801 100.784 271.388 101.04 272.145 101.04ZM280.978 94.016C282.93 94.016 283.906 95.04 283.906 97.088V101.44C283.906 101.632 283.847 101.787 283.73 101.904C283.623 102.021 283.474 102.08 283.282 102.08C283.09 102.08 282.935 102.021 282.818 101.904C282.7 101.787 282.642 101.632 282.642 101.44V100.672C282.439 101.131 282.13 101.488 281.714 101.744C281.298 101.989 280.818 102.112 280.274 102.112C279.772 102.112 279.308 102.011 278.882 101.808C278.466 101.605 278.135 101.323 277.89 100.96C277.644 100.597 277.522 100.197 277.522 99.76C277.522 99.1733 277.671 98.72 277.97 98.4C278.268 98.0693 278.759 97.8347 279.442 97.696C280.124 97.5467 281.074 97.472 282.29 97.472H282.642V96.944C282.642 96.304 282.508 95.8347 282.242 95.536C281.986 95.2373 281.564 95.088 280.978 95.088C280.252 95.088 279.516 95.2853 278.77 95.68C278.482 95.8613 278.279 95.952 278.162 95.952C278.034 95.952 277.927 95.904 277.842 95.808C277.756 95.712 277.714 95.5893 277.714 95.44C277.714 95.2907 277.756 95.1627 277.842 95.056C277.938 94.9387 278.087 94.8213 278.29 94.704C278.663 94.4907 279.084 94.3253 279.554 94.208C280.034 94.08 280.508 94.016 280.978 94.016ZM280.45 101.088C281.09 101.088 281.612 100.875 282.018 100.448C282.434 100.011 282.642 99.4507 282.642 98.768V98.304H282.354C281.415 98.304 280.7 98.3467 280.21 98.432C279.719 98.5067 279.367 98.64 279.154 98.832C278.951 99.0133 278.85 99.2853 278.85 99.648C278.85 100.064 278.999 100.411 279.298 100.688C279.607 100.955 279.991 101.088 280.45 101.088ZM290.134 94.048C290.582 94.016 290.806 94.1973 290.806 94.592C290.806 94.7627 290.758 94.9013 290.662 95.008C290.566 95.104 290.401 95.1627 290.166 95.184L289.686 95.232C288.971 95.296 288.438 95.552 288.086 96C287.745 96.4373 287.574 96.9547 287.574 97.552V101.44C287.574 101.653 287.515 101.813 287.398 101.92C287.281 102.027 287.126 102.08 286.934 102.08C286.742 102.08 286.582 102.027 286.454 101.92C286.337 101.803 286.278 101.643 286.278 101.44V94.688C286.278 94.4853 286.342 94.3307 286.47 94.224C286.598 94.1067 286.753 94.048 286.934 94.048C287.105 94.048 287.249 94.1067 287.366 94.224C287.483 94.3307 287.542 94.48 287.542 94.672V95.568C287.766 95.0987 288.081 94.7413 288.486 94.496C288.902 94.2507 289.377 94.1067 289.91 94.064L290.134 94.048ZM295.04 94.016C296.992 94.016 297.968 95.04 297.968 97.088V101.44C297.968 101.632 297.91 101.787 297.792 101.904C297.686 102.021 297.536 102.08 297.344 102.08C297.152 102.08 296.998 102.021 296.88 101.904C296.763 101.787 296.704 101.632 296.704 101.44V100.672C296.502 101.131 296.192 101.488 295.776 101.744C295.36 101.989 294.88 102.112 294.336 102.112C293.835 102.112 293.371 102.011 292.944 101.808C292.528 101.605 292.198 101.323 291.952 100.96C291.707 100.597 291.584 100.197 291.584 99.76C291.584 99.1733 291.734 98.72 292.032 98.4C292.331 98.0693 292.822 97.8347 293.504 97.696C294.187 97.5467 295.136 97.472 296.352 97.472H296.704V96.944C296.704 96.304 296.571 95.8347 296.304 95.536C296.048 95.2373 295.627 95.088 295.04 95.088C294.315 95.088 293.579 95.2853 292.832 95.68C292.544 95.8613 292.342 95.952 292.224 95.952C292.096 95.952 291.99 95.904 291.904 95.808C291.819 95.712 291.776 95.5893 291.776 95.44C291.776 95.2907 291.819 95.1627 291.904 95.056C292 94.9387 292.15 94.8213 292.352 94.704C292.726 94.4907 293.147 94.3253 293.616 94.208C294.096 94.08 294.571 94.016 295.04 94.016ZM294.512 101.088C295.152 101.088 295.675 100.875 296.08 100.448C296.496 100.011 296.704 99.4507 296.704 98.768V98.304H296.416C295.478 98.304 294.763 98.3467 294.272 98.432C293.782 98.5067 293.43 98.64 293.216 98.832C293.014 99.0133 292.912 99.2853 292.912 99.648C292.912 100.064 293.062 100.411 293.36 100.688C293.67 100.955 294.054 101.088 294.512 101.088ZM79.056 116.048C79.504 116.016 79.728 116.197 79.728 116.592C79.728 116.763 79.68 116.901 79.584 117.008C79.488 117.104 79.3227 117.163 79.088 117.184L78.608 117.232C77.8933 117.296 77.36 117.552 77.008 118C76.6667 118.437 76.496 118.955 76.496 119.552V123.44C76.496 123.653 76.4373 123.813 76.32 123.92C76.2027 124.027 76.048 124.08 75.856 124.08C75.664 124.08 75.504 124.027 75.376 123.92C75.2587 123.803 75.2 123.643 75.2 123.44V116.688C75.2 116.485 75.264 116.331 75.392 116.224C75.52 116.107 75.6747 116.048 75.856 116.048C76.0267 116.048 76.1707 116.107 76.288 116.224C76.4053 116.331 76.464 116.48 76.464 116.672V117.568C76.688 117.099 77.0027 116.741 77.408 116.496C77.824 116.251 78.2987 116.107 78.832 116.064L79.056 116.048ZM86.7164 122.192C86.8337 122.192 86.935 122.24 87.0204 122.336C87.1057 122.432 87.1484 122.555 87.1484 122.704C87.1484 122.971 86.9617 123.216 86.5884 123.44C86.2044 123.664 85.799 123.835 85.3724 123.952C84.9457 124.059 84.5297 124.112 84.1244 124.112C82.919 124.112 81.9644 123.755 81.2604 123.04C80.567 122.325 80.2204 121.339 80.2204 120.08C80.2204 119.28 80.375 118.576 80.6844 117.968C80.9937 117.349 81.4257 116.869 81.9804 116.528C82.5457 116.187 83.1857 116.016 83.9004 116.016C84.9137 116.016 85.719 116.347 86.3164 117.008C86.9137 117.669 87.2124 118.565 87.2124 119.696C87.2124 119.909 87.1697 120.064 87.0844 120.16C86.999 120.256 86.8604 120.304 86.6684 120.304H81.5164C81.6124 122.139 82.4817 123.056 84.1244 123.056C84.5404 123.056 84.8977 123.003 85.1964 122.896C85.495 122.779 85.815 122.624 86.1564 122.432C86.4337 122.272 86.6204 122.192 86.7164 122.192ZM83.9164 117.024C83.2337 117.024 82.6844 117.237 82.2684 117.664C81.863 118.091 81.623 118.693 81.5484 119.472H86.0764C86.055 118.683 85.8577 118.08 85.4844 117.664C85.111 117.237 84.5884 117.024 83.9164 117.024ZM92.3059 116.016C94.2579 116.016 95.2339 117.04 95.2339 119.088V123.44C95.2339 123.632 95.1752 123.787 95.0579 123.904C94.9512 124.021 94.8019 124.08 94.6099 124.08C94.4179 124.08 94.2632 124.021 94.1459 123.904C94.0285 123.787 93.9699 123.632 93.9699 123.44V122.672C93.7672 123.131 93.4579 123.488 93.0419 123.744C92.6259 123.989 92.1459 124.112 91.6019 124.112C91.1005 124.112 90.6365 124.011 90.2099 123.808C89.7939 123.605 89.4632 123.323 89.2179 122.96C88.9725 122.597 88.8499 122.197 88.8499 121.76C88.8499 121.173 88.9992 120.72 89.2979 120.4C89.5965 120.069 90.0872 119.835 90.7699 119.696C91.4525 119.547 92.4019 119.472 93.6179 119.472H93.9699V118.944C93.9699 118.304 93.8365 117.835 93.5699 117.536C93.3139 117.237 92.8925 117.088 92.3059 117.088C91.5805 117.088 90.8445 117.285 90.0979 117.68C89.8099 117.861 89.6072 117.952 89.4899 117.952C89.3619 117.952 89.2552 117.904 89.1699 117.808C89.0845 117.712 89.0419 117.589 89.0419 117.44C89.0419 117.291 89.0845 117.163 89.1699 117.056C89.2659 116.939 89.4152 116.821 89.6179 116.704C89.9912 116.491 90.4125 116.325 90.8819 116.208C91.3619 116.08 91.8365 116.016 92.3059 116.016ZM91.7779 123.088C92.4179 123.088 92.9405 122.875 93.3459 122.448C93.7619 122.011 93.9699 121.451 93.9699 120.768V120.304H93.6819C92.7432 120.304 92.0285 120.347 91.5379 120.432C91.0472 120.507 90.6952 120.64 90.4819 120.832C90.2792 121.013 90.1779 121.285 90.1779 121.648C90.1779 122.064 90.3272 122.411 90.6259 122.688C90.9352 122.955 91.3192 123.088 91.7779 123.088ZM98.2623 124.08C98.0703 124.08 97.9103 124.027 97.7823 123.92C97.6649 123.803 97.6063 123.643 97.6063 123.44V113.28C97.6063 113.077 97.6649 112.923 97.7823 112.816C97.9103 112.699 98.0703 112.64 98.2623 112.64C98.4436 112.64 98.5929 112.699 98.7103 112.816C98.8383 112.923 98.9023 113.077 98.9023 113.28V123.44C98.9023 123.643 98.8383 123.803 98.7103 123.92C98.5929 124.027 98.4436 124.08 98.2623 124.08ZM101.981 124.08C101.789 124.08 101.629 124.027 101.501 123.92C101.384 123.803 101.325 123.643 101.325 123.44V116.688C101.325 116.485 101.384 116.331 101.501 116.224C101.629 116.107 101.789 116.048 101.981 116.048C102.173 116.048 102.328 116.107 102.445 116.224C102.562 116.331 102.621 116.485 102.621 116.688V123.44C102.621 123.653 102.562 123.813 102.445 123.92C102.328 124.027 102.173 124.08 101.981 124.08ZM101.981 114.368C101.725 114.368 101.517 114.293 101.357 114.144C101.197 113.995 101.117 113.797 101.117 113.552C101.117 113.317 101.197 113.125 101.357 112.976C101.517 112.827 101.725 112.752 101.981 112.752C102.237 112.752 102.445 112.827 102.605 112.976C102.765 113.125 102.845 113.317 102.845 113.552C102.845 113.797 102.765 113.995 102.605 114.144C102.445 114.293 102.237 114.368 101.981 114.368ZM110.772 122.976C110.953 122.976 111.092 123.024 111.188 123.12C111.284 123.205 111.332 123.328 111.332 123.488C111.332 123.648 111.284 123.776 111.188 123.872C111.092 123.957 110.953 124 110.772 124H105.172C104.99 124 104.841 123.947 104.724 123.84C104.606 123.723 104.548 123.584 104.548 123.424C104.548 123.253 104.612 123.088 104.74 122.928L109.476 117.232H105.092C104.91 117.232 104.766 117.189 104.66 117.104C104.564 117.008 104.516 116.885 104.516 116.736C104.516 116.576 104.564 116.448 104.66 116.352C104.766 116.256 104.91 116.208 105.092 116.208H110.516C110.708 116.208 110.862 116.267 110.98 116.384C111.097 116.491 111.156 116.624 111.156 116.784C111.156 116.955 111.092 117.12 110.964 117.28L106.212 122.976H110.772ZM116.197 116.016C118.149 116.016 119.125 117.04 119.125 119.088V123.44C119.125 123.632 119.066 123.787 118.949 123.904C118.842 124.021 118.693 124.08 118.501 124.08C118.309 124.08 118.154 124.021 118.037 123.904C117.919 123.787 117.861 123.632 117.861 123.44V122.672C117.658 123.131 117.349 123.488 116.933 123.744C116.517 123.989 116.037 124.112 115.493 124.112C114.991 124.112 114.527 124.011 114.101 123.808C113.685 123.605 113.354 123.323 113.109 122.96C112.863 122.597 112.741 122.197 112.741 121.76C112.741 121.173 112.89 120.72 113.189 120.4C113.487 120.069 113.978 119.835 114.661 119.696C115.343 119.547 116.293 119.472 117.509 119.472H117.861V118.944C117.861 118.304 117.727 117.835 117.461 117.536C117.205 117.237 116.783 117.088 116.197 117.088C115.471 117.088 114.735 117.285 113.989 117.68C113.701 117.861 113.498 117.952 113.381 117.952C113.253 117.952 113.146 117.904 113.061 117.808C112.975 117.712 112.933 117.589 112.933 117.44C112.933 117.291 112.975 117.163 113.061 117.056C113.157 116.939 113.306 116.821 113.509 116.704C113.882 116.491 114.303 116.325 114.773 116.208C115.253 116.08 115.727 116.016 116.197 116.016ZM115.669 123.088C116.309 123.088 116.831 122.875 117.237 122.448C117.653 122.011 117.861 121.451 117.861 120.768V120.304H117.573C116.634 120.304 115.919 120.347 115.429 120.432C114.938 120.507 114.586 120.64 114.373 120.832C114.17 121.013 114.069 121.285 114.069 121.648C114.069 122.064 114.218 122.411 114.517 122.688C114.826 122.955 115.21 123.088 115.669 123.088ZM125.353 116.048C125.801 116.016 126.025 116.197 126.025 116.592C126.025 116.763 125.977 116.901 125.881 117.008C125.785 117.104 125.62 117.163 125.385 117.184L124.905 117.232C124.19 117.296 123.657 117.552 123.305 118C122.964 118.437 122.793 118.955 122.793 119.552V123.44C122.793 123.653 122.734 123.813 122.617 123.92C122.5 124.027 122.345 124.08 122.153 124.08C121.961 124.08 121.801 124.027 121.673 123.92C121.556 123.803 121.497 123.643 121.497 123.44V116.688C121.497 116.485 121.561 116.331 121.689 116.224C121.817 116.107 121.972 116.048 122.153 116.048C122.324 116.048 122.468 116.107 122.585 116.224C122.702 116.331 122.761 116.48 122.761 116.672V117.568C122.985 117.099 123.3 116.741 123.705 116.496C124.121 116.251 124.596 116.107 125.129 116.064L125.353 116.048ZM134.863 123.056C135.236 123.088 135.423 123.259 135.423 123.568C135.423 123.749 135.353 123.888 135.215 123.984C135.087 124.069 134.889 124.101 134.623 124.08L134.191 124.048C133.337 123.984 132.708 123.728 132.303 123.28C131.897 122.832 131.695 122.155 131.695 121.248V117.232H130.623C130.441 117.232 130.297 117.189 130.191 117.104C130.095 117.008 130.046 116.885 130.046 116.736C130.046 116.576 130.095 116.448 130.191 116.352C130.297 116.256 130.441 116.208 130.623 116.208H131.695V114.4C131.695 114.197 131.753 114.043 131.871 113.936C131.988 113.819 132.148 113.76 132.351 113.76C132.543 113.76 132.697 113.819 132.815 113.936C132.932 114.043 132.991 114.197 132.991 114.4V116.208H134.766C134.937 116.208 135.071 116.256 135.167 116.352C135.273 116.448 135.327 116.576 135.327 116.736C135.327 116.885 135.273 117.008 135.167 117.104C135.071 117.189 134.937 117.232 134.766 117.232H132.991V121.312C132.991 121.899 133.108 122.325 133.343 122.592C133.588 122.848 133.951 122.992 134.431 123.024L134.863 123.056ZM142.62 116.048C142.823 116.048 142.977 116.107 143.084 116.224C143.201 116.341 143.26 116.496 143.26 116.688V123.456C143.26 123.637 143.201 123.787 143.084 123.904C142.977 124.021 142.823 124.08 142.62 124.08C142.428 124.08 142.273 124.027 142.156 123.92C142.049 123.803 141.996 123.653 141.996 123.472V122.672C141.751 123.141 141.404 123.499 140.956 123.744C140.519 123.989 140.023 124.112 139.468 124.112C138.54 124.112 137.841 123.856 137.372 123.344C136.903 122.821 136.668 122.053 136.668 121.04V116.688C136.668 116.496 136.727 116.341 136.844 116.224C136.961 116.107 137.121 116.048 137.324 116.048C137.527 116.048 137.681 116.107 137.788 116.224C137.905 116.341 137.964 116.496 137.964 116.688V121.008C137.964 121.701 138.103 122.213 138.38 122.544C138.657 122.864 139.095 123.024 139.692 123.024C140.375 123.024 140.924 122.805 141.34 122.368C141.756 121.92 141.964 121.333 141.964 120.608V116.688C141.964 116.496 142.023 116.341 142.14 116.224C142.257 116.107 142.417 116.048 142.62 116.048ZM148.293 124.112C147.802 124.112 147.333 124.053 146.885 123.936C146.447 123.819 146.058 123.653 145.717 123.44C145.525 123.312 145.386 123.195 145.301 123.088C145.226 122.971 145.189 122.832 145.189 122.672C145.189 122.533 145.226 122.421 145.301 122.336C145.386 122.24 145.493 122.192 145.621 122.192C145.749 122.192 145.935 122.272 146.181 122.432C146.501 122.624 146.815 122.779 147.125 122.896C147.445 123.003 147.839 123.056 148.309 123.056C148.885 123.056 149.333 122.955 149.653 122.752C149.973 122.549 150.133 122.256 150.133 121.872C150.133 121.637 150.074 121.451 149.957 121.312C149.839 121.163 149.637 121.035 149.349 120.928C149.061 120.811 148.639 120.693 148.085 120.576C147.146 120.373 146.474 120.101 146.069 119.76C145.663 119.419 145.461 118.955 145.461 118.368C145.461 117.909 145.589 117.504 145.845 117.152C146.101 116.8 146.453 116.523 146.901 116.32C147.359 116.117 147.877 116.016 148.453 116.016C148.869 116.016 149.269 116.075 149.653 116.192C150.047 116.299 150.394 116.453 150.693 116.656C151.055 116.912 151.237 117.179 151.237 117.456C151.237 117.595 151.194 117.712 151.109 117.808C151.023 117.904 150.922 117.952 150.805 117.952C150.677 117.952 150.485 117.861 150.229 117.68C149.93 117.488 149.647 117.339 149.381 117.232C149.114 117.125 148.783 117.072 148.389 117.072C147.887 117.072 147.482 117.184 147.173 117.408C146.874 117.632 146.725 117.931 146.725 118.304C146.725 118.539 146.778 118.731 146.885 118.88C147.002 119.019 147.189 119.147 147.445 119.264C147.711 119.371 148.09 119.477 148.581 119.584C149.306 119.744 149.866 119.92 150.261 120.112C150.666 120.304 150.954 120.539 151.125 120.816C151.295 121.093 151.381 121.445 151.381 121.872C151.381 122.544 151.098 123.088 150.533 123.504C149.967 123.909 149.221 124.112 148.293 124.112ZM161.081 123.056C161.455 123.088 161.641 123.259 161.641 123.568C161.641 123.749 161.572 123.888 161.433 123.984C161.305 124.069 161.108 124.101 160.841 124.08L160.409 124.048C159.556 123.984 158.927 123.728 158.521 123.28C158.116 122.832 157.913 122.155 157.913 121.248V117.232H156.841C156.66 117.232 156.516 117.189 156.409 117.104C156.313 117.008 156.265 116.885 156.265 116.736C156.265 116.576 156.313 116.448 156.409 116.352C156.516 116.256 156.66 116.208 156.841 116.208H157.913V114.4C157.913 114.197 157.972 114.043 158.089 113.936C158.207 113.819 158.367 113.76 158.569 113.76C158.761 113.76 158.916 113.819 159.033 113.936C159.151 114.043 159.209 114.197 159.209 114.4V116.208H160.985C161.156 116.208 161.289 116.256 161.385 116.352C161.492 116.448 161.545 116.576 161.545 116.736C161.545 116.885 161.492 117.008 161.385 117.104C161.289 117.189 161.156 117.232 160.985 117.232H159.209V121.312C159.209 121.899 159.327 122.325 159.561 122.592C159.807 122.848 160.169 122.992 160.649 123.024L161.081 123.056ZM166.775 116.048C167.223 116.016 167.447 116.197 167.447 116.592C167.447 116.763 167.399 116.901 167.303 117.008C167.207 117.104 167.041 117.163 166.807 117.184L166.327 117.232C165.612 117.296 165.079 117.552 164.727 118C164.385 118.437 164.215 118.955 164.215 119.552V123.44C164.215 123.653 164.156 123.813 164.039 123.92C163.921 124.027 163.767 124.08 163.575 124.08C163.383 124.08 163.223 124.027 163.095 123.92C162.977 123.803 162.919 123.643 162.919 123.44V116.688C162.919 116.485 162.983 116.331 163.111 116.224C163.239 116.107 163.393 116.048 163.575 116.048C163.745 116.048 163.889 116.107 164.007 116.224C164.124 116.331 164.183 116.48 164.183 116.672V117.568C164.407 117.099 164.721 116.741 165.127 116.496C165.543 116.251 166.017 116.107 166.551 116.064L166.775 116.048ZM171.681 116.016C173.633 116.016 174.609 117.04 174.609 119.088V123.44C174.609 123.632 174.55 123.787 174.433 123.904C174.326 124.021 174.177 124.08 173.985 124.08C173.793 124.08 173.638 124.021 173.521 123.904C173.404 123.787 173.345 123.632 173.345 123.44V122.672C173.142 123.131 172.833 123.488 172.417 123.744C172.001 123.989 171.521 124.112 170.977 124.112C170.476 124.112 170.012 124.011 169.585 123.808C169.169 123.605 168.838 123.323 168.593 122.96C168.348 122.597 168.225 122.197 168.225 121.76C168.225 121.173 168.374 120.72 168.673 120.4C168.972 120.069 169.462 119.835 170.145 119.696C170.828 119.547 171.777 119.472 172.993 119.472H173.345V118.944C173.345 118.304 173.212 117.835 172.945 117.536C172.689 117.237 172.268 117.088 171.681 117.088C170.956 117.088 170.22 117.285 169.473 117.68C169.185 117.861 168.982 117.952 168.865 117.952C168.737 117.952 168.63 117.904 168.545 117.808C168.46 117.712 168.417 117.589 168.417 117.44C168.417 117.291 168.46 117.163 168.545 117.056C168.641 116.939 168.79 116.821 168.993 116.704C169.366 116.491 169.788 116.325 170.257 116.208C170.737 116.08 171.212 116.016 171.681 116.016ZM171.153 123.088C171.793 123.088 172.316 122.875 172.721 122.448C173.137 122.011 173.345 121.451 173.345 120.768V120.304H173.057C172.118 120.304 171.404 120.347 170.913 120.432C170.422 120.507 170.07 120.64 169.857 120.832C169.654 121.013 169.553 121.285 169.553 121.648C169.553 122.064 169.702 122.411 170.001 122.688C170.31 122.955 170.694 123.088 171.153 123.088ZM180.901 116.016C182.768 116.016 183.701 117.045 183.701 119.104V123.44C183.701 123.643 183.643 123.803 183.525 123.92C183.419 124.027 183.264 124.08 183.061 124.08C182.859 124.08 182.699 124.027 182.581 123.92C182.464 123.803 182.405 123.643 182.405 123.44V119.184C182.405 118.459 182.261 117.931 181.973 117.6C181.696 117.269 181.248 117.104 180.629 117.104C179.915 117.104 179.344 117.323 178.917 117.76C178.491 118.197 178.277 118.789 178.277 119.536V123.44C178.277 123.643 178.219 123.803 178.101 123.92C177.995 124.027 177.84 124.08 177.637 124.08C177.435 124.08 177.275 124.027 177.157 123.92C177.04 123.803 176.981 123.643 176.981 123.44V116.688C176.981 116.496 177.04 116.341 177.157 116.224C177.275 116.107 177.435 116.048 177.637 116.048C177.829 116.048 177.979 116.107 178.085 116.224C178.203 116.341 178.261 116.491 178.261 116.672V117.488C178.517 117.008 178.875 116.645 179.333 116.4C179.792 116.144 180.315 116.016 180.901 116.016ZM188.699 124.112C188.208 124.112 187.739 124.053 187.291 123.936C186.854 123.819 186.464 123.653 186.123 123.44C185.931 123.312 185.792 123.195 185.707 123.088C185.632 122.971 185.595 122.832 185.595 122.672C185.595 122.533 185.632 122.421 185.707 122.336C185.792 122.24 185.899 122.192 186.027 122.192C186.155 122.192 186.342 122.272 186.587 122.432C186.907 122.624 187.222 122.779 187.531 122.896C187.851 123.003 188.246 123.056 188.715 123.056C189.291 123.056 189.739 122.955 190.059 122.752C190.379 122.549 190.539 122.256 190.539 121.872C190.539 121.637 190.48 121.451 190.363 121.312C190.246 121.163 190.043 121.035 189.755 120.928C189.467 120.811 189.046 120.693 188.491 120.576C187.552 120.373 186.88 120.101 186.475 119.76C186.07 119.419 185.867 118.955 185.867 118.368C185.867 117.909 185.995 117.504 186.251 117.152C186.507 116.8 186.859 116.523 187.307 116.32C187.766 116.117 188.283 116.016 188.859 116.016C189.275 116.016 189.675 116.075 190.059 116.192C190.454 116.299 190.8 116.453 191.099 116.656C191.462 116.912 191.643 117.179 191.643 117.456C191.643 117.595 191.6 117.712 191.515 117.808C191.43 117.904 191.328 117.952 191.211 117.952C191.083 117.952 190.891 117.861 190.635 117.68C190.336 117.488 190.054 117.339 189.787 117.232C189.52 117.125 189.19 117.072 188.795 117.072C188.294 117.072 187.888 117.184 187.579 117.408C187.28 117.632 187.131 117.931 187.131 118.304C187.131 118.539 187.184 118.731 187.291 118.88C187.408 119.019 187.595 119.147 187.851 119.264C188.118 119.371 188.496 119.477 188.987 119.584C189.712 119.744 190.272 119.92 190.667 120.112C191.072 120.304 191.36 120.539 191.531 120.816C191.702 121.093 191.787 121.445 191.787 121.872C191.787 122.544 191.504 123.088 190.939 123.504C190.374 123.909 189.627 124.112 188.699 124.112ZM197.203 113.744C196.637 113.787 196.211 113.968 195.923 114.288C195.635 114.597 195.491 115.067 195.491 115.696V116.208H197.266C197.448 116.208 197.587 116.256 197.683 116.352C197.779 116.448 197.827 116.576 197.827 116.736C197.827 116.896 197.779 117.019 197.683 117.104C197.587 117.189 197.448 117.232 197.266 117.232H195.491V123.44C195.491 123.643 195.427 123.803 195.299 123.92C195.181 124.027 195.032 124.08 194.851 124.08C194.659 124.08 194.499 124.027 194.371 123.92C194.253 123.803 194.195 123.643 194.195 123.44V117.232H193.123C192.941 117.232 192.797 117.189 192.691 117.104C192.595 117.008 192.546 116.885 192.546 116.736C192.546 116.576 192.595 116.448 192.691 116.352C192.797 116.256 192.941 116.208 193.123 116.208H194.195V115.92C194.195 114.96 194.435 114.208 194.914 113.664C195.395 113.109 196.083 112.8 196.979 112.736L197.395 112.704C197.672 112.683 197.869 112.709 197.987 112.784C198.115 112.859 198.179 112.992 198.179 113.184C198.179 113.493 197.992 113.669 197.619 113.712L197.203 113.744ZM204.966 122.192C205.084 122.192 205.185 122.24 205.27 122.336C205.356 122.432 205.398 122.555 205.398 122.704C205.398 122.971 205.212 123.216 204.838 123.44C204.454 123.664 204.049 123.835 203.622 123.952C203.196 124.059 202.78 124.112 202.374 124.112C201.169 124.112 200.214 123.755 199.51 123.04C198.817 122.325 198.47 121.339 198.47 120.08C198.47 119.28 198.625 118.576 198.934 117.968C199.244 117.349 199.676 116.869 200.23 116.528C200.796 116.187 201.436 116.016 202.15 116.016C203.164 116.016 203.969 116.347 204.566 117.008C205.164 117.669 205.462 118.565 205.462 119.696C205.462 119.909 205.42 120.064 205.334 120.16C205.249 120.256 205.11 120.304 204.918 120.304H199.766C199.862 122.139 200.732 123.056 202.374 123.056C202.79 123.056 203.148 123.003 203.446 122.896C203.745 122.779 204.065 122.624 204.406 122.432C204.684 122.272 204.87 122.192 204.966 122.192ZM202.166 117.024C201.484 117.024 200.934 117.237 200.518 117.664C200.113 118.091 199.873 118.693 199.798 119.472H204.326C204.305 118.683 204.108 118.08 203.734 117.664C203.361 117.237 202.838 117.024 202.166 117.024ZM211.228 116.048C211.676 116.016 211.9 116.197 211.9 116.592C211.9 116.763 211.852 116.901 211.756 117.008C211.66 117.104 211.495 117.163 211.26 117.184L210.78 117.232C210.065 117.296 209.532 117.552 209.18 118C208.839 118.437 208.668 118.955 208.668 119.552V123.44C208.668 123.653 208.609 123.813 208.492 123.92C208.375 124.027 208.22 124.08 208.028 124.08C207.836 124.08 207.676 124.027 207.548 123.92C207.431 123.803 207.372 123.643 207.372 123.44V116.688C207.372 116.485 207.436 116.331 207.564 116.224C207.692 116.107 207.847 116.048 208.028 116.048C208.199 116.048 208.343 116.107 208.46 116.224C208.577 116.331 208.636 116.48 208.636 116.672V117.568C208.86 117.099 209.175 116.741 209.58 116.496C209.996 116.251 210.471 116.107 211.004 116.064L211.228 116.048ZM218.888 122.192C219.006 122.192 219.107 122.24 219.192 122.336C219.278 122.432 219.32 122.555 219.32 122.704C219.32 122.971 219.134 123.216 218.76 123.44C218.376 123.664 217.971 123.835 217.544 123.952C217.118 124.059 216.702 124.112 216.296 124.112C215.091 124.112 214.136 123.755 213.432 123.04C212.739 122.325 212.392 121.339 212.392 120.08C212.392 119.28 212.547 118.576 212.856 117.968C213.166 117.349 213.598 116.869 214.152 116.528C214.718 116.187 215.358 116.016 216.072 116.016C217.086 116.016 217.891 116.347 218.488 117.008C219.086 117.669 219.384 118.565 219.384 119.696C219.384 119.909 219.342 120.064 219.256 120.16C219.171 120.256 219.032 120.304 218.84 120.304H213.688C213.784 122.139 214.654 123.056 216.296 123.056C216.712 123.056 217.07 123.003 217.368 122.896C217.667 122.779 217.987 122.624 218.328 122.432C218.606 122.272 218.792 122.192 218.888 122.192ZM216.088 117.024C215.406 117.024 214.856 117.237 214.44 117.664C214.035 118.091 213.795 118.693 213.72 119.472H218.248C218.227 118.683 218.03 118.08 217.656 117.664C217.283 117.237 216.76 117.024 216.088 117.024ZM225.214 116.016C227.08 116.016 228.014 117.045 228.014 119.104V123.44C228.014 123.643 227.955 123.803 227.838 123.92C227.731 124.027 227.576 124.08 227.374 124.08C227.171 124.08 227.011 124.027 226.894 123.92C226.776 123.803 226.718 123.643 226.718 123.44V119.184C226.718 118.459 226.574 117.931 226.286 117.6C226.008 117.269 225.56 117.104 224.942 117.104C224.227 117.104 223.656 117.323 223.23 117.76C222.803 118.197 222.59 118.789 222.59 119.536V123.44C222.59 123.643 222.531 123.803 222.414 123.92C222.307 124.027 222.152 124.08 221.95 124.08C221.747 124.08 221.587 124.027 221.47 123.92C221.352 123.803 221.294 123.643 221.294 123.44V116.688C221.294 116.496 221.352 116.341 221.47 116.224C221.587 116.107 221.747 116.048 221.95 116.048C222.142 116.048 222.291 116.107 222.398 116.224C222.515 116.341 222.574 116.491 222.574 116.672V117.488C222.83 117.008 223.187 116.645 223.646 116.4C224.104 116.144 224.627 116.016 225.214 116.016ZM233.604 124.112C232.878 124.112 232.233 123.947 231.668 123.616C231.113 123.285 230.681 122.816 230.372 122.208C230.073 121.6 229.924 120.896 229.924 120.096C229.924 119.296 230.078 118.587 230.388 117.968C230.708 117.349 231.15 116.869 231.716 116.528C232.281 116.187 232.932 116.016 233.668 116.016C234.073 116.016 234.473 116.075 234.868 116.192C235.273 116.299 235.625 116.459 235.924 116.672C236.116 116.8 236.249 116.928 236.324 117.056C236.409 117.173 236.452 117.307 236.452 117.456C236.452 117.605 236.409 117.728 236.324 117.824C236.249 117.92 236.148 117.968 236.02 117.968C235.945 117.968 235.865 117.947 235.78 117.904C235.694 117.861 235.62 117.819 235.556 117.776C235.502 117.733 235.465 117.707 235.444 117.696C235.166 117.515 234.9 117.371 234.644 117.264C234.398 117.157 234.094 117.104 233.732 117.104C232.953 117.104 232.345 117.371 231.908 117.904C231.481 118.427 231.268 119.157 231.268 120.096C231.268 121.035 231.481 121.76 231.908 122.272C232.345 122.784 232.953 123.04 233.732 123.04C234.094 123.04 234.404 122.987 234.66 122.88C234.926 122.773 235.193 122.629 235.46 122.448C235.577 122.373 235.689 122.309 235.796 122.256C235.902 122.203 235.993 122.176 236.068 122.176C236.185 122.176 236.281 122.224 236.356 122.32C236.441 122.416 236.484 122.539 236.484 122.688C236.484 122.827 236.446 122.955 236.372 123.072C236.297 123.179 236.158 123.301 235.956 123.44C235.657 123.643 235.294 123.808 234.868 123.936C234.452 124.053 234.03 124.112 233.604 124.112ZM238.7 124.08C238.508 124.08 238.348 124.027 238.22 123.92C238.102 123.803 238.044 123.643 238.044 123.44V116.688C238.044 116.485 238.102 116.331 238.22 116.224C238.348 116.107 238.508 116.048 238.7 116.048C238.892 116.048 239.046 116.107 239.164 116.224C239.281 116.331 239.34 116.485 239.34 116.688V123.44C239.34 123.653 239.281 123.813 239.164 123.92C239.046 124.027 238.892 124.08 238.7 124.08ZM238.7 114.368C238.444 114.368 238.236 114.293 238.076 114.144C237.916 113.995 237.836 113.797 237.836 113.552C237.836 113.317 237.916 113.125 238.076 112.976C238.236 112.827 238.444 112.752 238.7 112.752C238.956 112.752 239.164 112.827 239.324 112.976C239.484 113.125 239.564 113.317 239.564 113.552C239.564 113.797 239.484 113.995 239.324 114.144C239.164 114.293 238.956 114.368 238.7 114.368ZM244.947 116.016C246.899 116.016 247.875 117.04 247.875 119.088V123.44C247.875 123.632 247.816 123.787 247.699 123.904C247.592 124.021 247.443 124.08 247.251 124.08C247.059 124.08 246.904 124.021 246.787 123.904C246.669 123.787 246.611 123.632 246.611 123.44V122.672C246.408 123.131 246.099 123.488 245.683 123.744C245.267 123.989 244.787 124.112 244.243 124.112C243.741 124.112 243.277 124.011 242.851 123.808C242.435 123.605 242.104 123.323 241.859 122.96C241.613 122.597 241.491 122.197 241.491 121.76C241.491 121.173 241.64 120.72 241.939 120.4C242.237 120.069 242.728 119.835 243.411 119.696C244.093 119.547 245.043 119.472 246.259 119.472H246.611V118.944C246.611 118.304 246.477 117.835 246.211 117.536C245.955 117.237 245.533 117.088 244.947 117.088C244.221 117.088 243.485 117.285 242.739 117.68C242.451 117.861 242.248 117.952 242.131 117.952C242.003 117.952 241.896 117.904 241.811 117.808C241.725 117.712 241.683 117.589 241.683 117.44C241.683 117.291 241.725 117.163 241.811 117.056C241.907 116.939 242.056 116.821 242.259 116.704C242.632 116.491 243.053 116.325 243.523 116.208C244.003 116.08 244.477 116.016 244.947 116.016ZM244.419 123.088C245.059 123.088 245.581 122.875 245.987 122.448C246.403 122.011 246.611 121.451 246.611 120.768V120.304H246.323C245.384 120.304 244.669 120.347 244.179 120.432C243.688 120.507 243.336 120.64 243.123 120.832C242.92 121.013 242.819 121.285 242.819 121.648C242.819 122.064 242.968 122.411 243.267 122.688C243.576 122.955 243.96 123.088 244.419 123.088ZM252.871 124.112C252.38 124.112 251.911 124.053 251.463 123.936C251.026 123.819 250.636 123.653 250.295 123.44C250.103 123.312 249.964 123.195 249.879 123.088C249.804 122.971 249.767 122.832 249.767 122.672C249.767 122.533 249.804 122.421 249.879 122.336C249.964 122.24 250.071 122.192 250.199 122.192C250.327 122.192 250.514 122.272 250.759 122.432C251.079 122.624 251.394 122.779 251.703 122.896C252.023 123.003 252.418 123.056 252.887 123.056C253.463 123.056 253.911 122.955 254.231 122.752C254.551 122.549 254.711 122.256 254.711 121.872C254.711 121.637 254.652 121.451 254.535 121.312C254.418 121.163 254.215 121.035 253.927 120.928C253.639 120.811 253.218 120.693 252.663 120.576C251.724 120.373 251.052 120.101 250.647 119.76C250.242 119.419 250.039 118.955 250.039 118.368C250.039 117.909 250.167 117.504 250.423 117.152C250.679 116.8 251.031 116.523 251.479 116.32C251.938 116.117 252.455 116.016 253.031 116.016C253.447 116.016 253.847 116.075 254.231 116.192C254.626 116.299 254.972 116.453 255.271 116.656C255.634 116.912 255.815 117.179 255.815 117.456C255.815 117.595 255.772 117.712 255.687 117.808C255.602 117.904 255.5 117.952 255.383 117.952C255.255 117.952 255.063 117.861 254.807 117.68C254.508 117.488 254.226 117.339 253.959 117.232C253.692 117.125 253.362 117.072 252.967 117.072C252.466 117.072 252.06 117.184 251.751 117.408C251.452 117.632 251.303 117.931 251.303 118.304C251.303 118.539 251.356 118.731 251.463 118.88C251.58 119.019 251.767 119.147 252.023 119.264C252.29 119.371 252.668 119.477 253.159 119.584C253.884 119.744 254.444 119.92 254.839 120.112C255.244 120.304 255.532 120.539 255.703 120.816C255.874 121.093 255.959 121.445 255.959 121.872C255.959 122.544 255.676 123.088 255.111 123.504C254.546 123.909 253.799 124.112 252.871 124.112ZM258.496 124.08C258.24 124.08 258.027 124 257.856 123.84C257.686 123.669 257.6 123.451 257.6 123.184C257.6 122.917 257.686 122.699 257.856 122.528C258.027 122.357 258.24 122.272 258.496 122.272C258.742 122.272 258.944 122.357 259.104 122.528C259.275 122.699 259.36 122.917 259.36 123.184C259.36 123.451 259.275 123.669 259.104 123.84C258.944 124 258.742 124.08 258.496 124.08Z" fill="#8792A4"/>
<circle cx="38.5" cy="44.5" r="24.5" fill="#004098" fill-opacity="0.13"/>
<path fill-rule="evenodd" clip-rule="evenodd" d="M45.2944 42.2697C45.3209 42.243 45.3439 42.2142 45.3632 42.1836L47.2687 40.2752C47.2891 40.2547 47.3074 40.2329 47.3236 40.2101C47.743 39.7629 47.9999 39.1615 47.9999 38.5C47.9999 37.1193 46.8807 36 45.4999 36C44.8338 36 44.2285 36.2605 43.7804 36.6853C43.758 36.7012 43.7367 36.7192 43.7167 36.7393L30.7493 49.7203C29.7695 50.7016 29.7705 52.2898 30.7518 53.2729C31.7317 54.2506 33.3174 54.2488 34.2944 53.2697L45.1104 42.4369C45.1738 42.3847 45.2352 42.329 45.2944 42.2697ZM42.5149 39.3573C42.498 39.3818 42.4786 39.4052 42.4568 39.427C41.8671 40.0176 41.8677 40.9735 42.4588 41.5657C43.001 42.1067 43.8527 42.1481 44.4423 41.6907L45.1554 40.9765C44.0514 40.8243 43.1775 39.9513 43.0239 38.8477L42.5149 39.3573ZM41.0383 40.8355L31.4568 50.427C30.8671 51.0176 30.8677 51.9735 31.4588 52.5657C32.047 53.1526 32.9996 53.1515 33.5866 52.5632L43.1565 42.9785C42.6427 42.9032 42.1478 42.668 41.7518 42.2729C41.3478 41.8681 41.1099 41.3608 41.0383 40.8355ZM43.9999 49H44.4999C44.7761 49 44.9999 49.2239 44.9999 49.5C44.9999 49.7761 44.7761 50 44.4999 50H43.9999V50.5616C43.9999 50.8377 43.7761 51.0616 43.4999 51.0616C43.2238 51.0616 42.9999 50.8377 42.9999 50.5616V50H42.4999C42.2238 50 41.9999 49.7761 41.9999 49.5C41.9999 49.2239 42.2238 49 42.4999 49H42.9999V48.5C42.9999 48.2239 43.2238 48 43.4999 48C43.7761 48 43.9999 48.2239 43.9999 48.5V49ZM36.9999 36.5V37H36.4999C36.2238 37 35.9999 37.2239 35.9999 37.5C35.9999 37.7761 36.2238 38 36.4999 38H36.9999V38.5C36.9999 38.7761 37.2238 39 37.4999 39C37.7761 39 37.9999 38.7761 37.9999 38.5V38H38.4999C38.7761 38 38.9999 37.7761 38.9999 37.5C38.9999 37.2239 38.7761 37 38.4999 37H37.9999V36.5C37.9999 36.2239 37.7761 36 37.4999 36C37.2238 36 36.9999 36.2239 36.9999 36.5ZM48.9999 45H49.4999C49.7761 45 49.9999 45.2239 49.9999 45.5C49.9999 45.7761 49.7761 46 49.4999 46H48.9999V46.5C48.9999 46.7761 48.7761 47 48.4999 47C48.2238 47 47.9999 46.7761 47.9999 46.5V46H47.4999C47.2238 46 46.9999 45.7761 46.9999 45.5C46.9999 45.2239 47.2238 45 47.4999 45H47.9999V44.5C47.9999 44.2239 48.2238 44 48.4999 44C48.7761 44 48.9999 44.2239 48.9999 44.5V45ZM46.9999 38.5C46.9999 39.3284 46.3284 40 45.4999 40C44.6715 40 43.9999 39.3284 43.9999 38.5C43.9999 37.6716 44.6715 37 45.4999 37C46.3284 37 46.9999 37.6716 46.9999 38.5Z" fill="#004098"/>
</svg>
