<svg width="345" height="159" viewBox="0 0 345 159" fill="none" xmlns="http://www.w3.org/2000/svg">
<rect x="0.5" y="0.5" width="344" height="158" rx="5.5" fill="white" stroke="#EFF2F6"/>
<path d="M82.64 47.243C81.254 47.243 79.94 47.063 78.698 46.703C77.474 46.325 76.475 45.821 75.701 45.191C75.287 44.885 75.08 44.453 75.08 43.895C75.08 43.517 75.188 43.193 75.404 42.923C75.638 42.635 75.908 42.491 76.214 42.491C76.538 42.491 76.907 42.617 77.321 42.869C78.095 43.427 78.905 43.832 79.751 44.084C80.597 44.336 81.533 44.462 82.559 44.462C83.873 44.462 84.881 44.237 85.583 43.787C86.285 43.319 86.636 42.644 86.636 41.762C86.636 41.078 86.303 40.556 85.637 40.196C84.989 39.818 83.9 39.458 82.37 39.116C80.786 38.774 79.499 38.378 78.509 37.928C77.519 37.478 76.772 36.902 76.268 36.2C75.764 35.498 75.512 34.607 75.512 33.527C75.512 32.411 75.827 31.412 76.457 30.53C77.087 29.648 77.96 28.964 79.076 28.478C80.21 27.974 81.479 27.722 82.883 27.722C85.457 27.722 87.554 28.406 89.174 29.774C89.408 29.972 89.57 30.17 89.66 30.368C89.768 30.548 89.822 30.782 89.822 31.07C89.822 31.448 89.705 31.781 89.471 32.069C89.255 32.339 88.994 32.474 88.688 32.474C88.508 32.474 88.337 32.447 88.175 32.393C88.031 32.339 87.833 32.24 87.581 32.096C86.843 31.556 86.123 31.16 85.421 30.908C84.737 30.638 83.891 30.503 82.883 30.503C81.659 30.503 80.687 30.755 79.967 31.259C79.265 31.745 78.914 32.429 78.914 33.311C78.914 34.049 79.229 34.616 79.859 35.012C80.489 35.408 81.56 35.777 83.072 36.119C84.674 36.479 85.97 36.884 86.96 37.334C87.968 37.766 88.733 38.324 89.255 39.008C89.795 39.692 90.065 40.547 90.065 41.573C90.065 42.689 89.75 43.679 89.12 44.543C88.508 45.389 87.635 46.055 86.501 46.541C85.385 47.009 84.098 47.243 82.64 47.243ZM103.422 43.382C103.728 43.382 103.971 43.499 104.151 43.733C104.349 43.967 104.448 44.282 104.448 44.678C104.448 45.236 104.115 45.704 103.449 46.082C102.837 46.424 102.144 46.703 101.37 46.919C100.596 47.117 99.8578 47.216 99.1558 47.216C97.0318 47.216 95.3488 46.604 94.1068 45.38C92.8648 44.156 92.2438 42.482 92.2438 40.358C92.2438 39.008 92.5138 37.811 93.0538 36.767C93.5938 35.723 94.3498 34.913 95.3218 34.337C96.3118 33.761 97.4278 33.473 98.6698 33.473C99.8578 33.473 100.893 33.734 101.775 34.256C102.657 34.778 103.341 35.516 103.827 36.47C104.313 37.424 104.556 38.549 104.556 39.845C104.556 40.619 104.214 41.006 103.53 41.006H95.5648C95.6728 42.248 96.0238 43.166 96.6178 43.76C97.2118 44.336 98.0758 44.624 99.2098 44.624C99.7858 44.624 100.29 44.552 100.722 44.408C101.172 44.264 101.676 44.066 102.234 43.814C102.774 43.526 103.17 43.382 103.422 43.382ZM98.7508 35.849C97.8328 35.849 97.0948 36.137 96.5368 36.713C95.9968 37.289 95.6728 38.117 95.5648 39.197H101.667C101.631 38.099 101.361 37.271 100.857 36.713C100.353 36.137 99.6508 35.849 98.7508 35.849ZM118.495 33.527C118.999 33.527 119.404 33.671 119.71 33.959C120.016 34.247 120.169 34.634 120.169 35.12V45.785C120.169 47.855 119.593 49.421 118.441 50.483C117.289 51.545 115.588 52.076 113.338 52.076C111.376 52.076 109.738 51.707 108.424 50.969C107.758 50.573 107.425 50.096 107.425 49.538C107.425 49.142 107.515 48.827 107.695 48.593C107.893 48.359 108.145 48.242 108.451 48.242C108.613 48.242 108.811 48.278 109.045 48.35C109.279 48.44 109.522 48.539 109.774 48.647C110.422 48.917 110.998 49.124 111.502 49.268C112.024 49.412 112.618 49.484 113.284 49.484C115.642 49.484 116.821 48.332 116.821 46.028V44.3C116.425 45.038 115.849 45.614 115.093 46.028C114.337 46.424 113.473 46.622 112.501 46.622C111.349 46.622 110.323 46.352 109.423 45.812C108.541 45.254 107.848 44.48 107.344 43.49C106.84 42.5 106.588 41.357 106.588 40.061C106.588 38.765 106.831 37.622 107.317 36.632C107.821 35.624 108.523 34.85 109.423 34.31C110.323 33.752 111.349 33.473 112.501 33.473C113.473 33.473 114.337 33.68 115.093 34.094C115.849 34.49 116.425 35.057 116.821 35.795V35.093C116.821 34.625 116.974 34.247 117.28 33.959C117.586 33.671 117.991 33.527 118.495 33.527ZM113.392 44.003C114.472 44.003 115.309 43.652 115.903 42.95C116.515 42.248 116.821 41.285 116.821 40.061C116.821 38.819 116.515 37.847 115.903 37.145C115.309 36.443 114.472 36.092 113.392 36.092C112.33 36.092 111.493 36.443 110.881 37.145C110.269 37.847 109.963 38.819 109.963 40.061C109.963 41.285 110.269 42.248 110.881 42.95C111.493 43.652 112.33 44.003 113.392 44.003ZM134.086 33.527C134.608 33.527 135.022 33.671 135.328 33.959C135.634 34.247 135.787 34.634 135.787 35.12V45.596C135.787 46.064 135.625 46.442 135.301 46.73C134.995 47.018 134.59 47.162 134.086 47.162C133.6 47.162 133.213 47.027 132.925 46.757C132.637 46.487 132.493 46.118 132.493 45.65V44.975C132.079 45.695 131.521 46.253 130.819 46.649C130.117 47.027 129.325 47.216 128.443 47.216C125.203 47.216 123.583 45.398 123.583 41.762V35.12C123.583 34.634 123.736 34.247 124.042 33.959C124.348 33.671 124.753 33.527 125.257 33.527C125.779 33.527 126.193 33.671 126.499 33.959C126.805 34.247 126.958 34.634 126.958 35.12V41.789C126.958 42.725 127.147 43.418 127.525 43.868C127.903 44.318 128.497 44.543 129.307 44.543C130.243 44.543 130.99 44.237 131.548 43.625C132.124 42.995 132.412 42.167 132.412 41.141V35.12C132.412 34.634 132.565 34.247 132.871 33.959C133.177 33.671 133.582 33.527 134.086 33.527ZM146.671 33.527C147.139 33.491 147.508 33.59 147.778 33.824C148.048 34.058 148.183 34.409 148.183 34.877C148.183 35.363 148.066 35.723 147.832 35.957C147.598 36.191 147.175 36.344 146.563 36.416L145.753 36.497C144.691 36.605 143.908 36.965 143.404 37.577C142.918 38.189 142.675 38.954 142.675 39.872V45.542C142.675 46.064 142.513 46.469 142.189 46.757C141.865 47.027 141.46 47.162 140.974 47.162C140.488 47.162 140.083 47.027 139.759 46.757C139.453 46.469 139.3 46.064 139.3 45.542V35.093C139.3 34.589 139.453 34.202 139.759 33.932C140.083 33.662 140.479 33.527 140.947 33.527C141.415 33.527 141.793 33.662 142.081 33.932C142.369 34.184 142.513 34.553 142.513 35.039V36.119C142.855 35.327 143.359 34.715 144.025 34.283C144.709 33.851 145.465 33.608 146.293 33.554L146.671 33.527ZM155.307 33.473C157.143 33.473 158.502 33.932 159.384 34.85C160.284 35.75 160.734 37.127 160.734 38.981V45.569C160.734 46.055 160.59 46.442 160.302 46.73C160.014 47 159.618 47.135 159.114 47.135C158.646 47.135 158.259 46.991 157.953 46.703C157.665 46.415 157.521 46.037 157.521 45.569V44.975C157.215 45.677 156.729 46.226 156.063 46.622C155.415 47.018 154.659 47.216 153.795 47.216C152.913 47.216 152.112 47.036 151.392 46.676C150.672 46.316 150.105 45.821 149.691 45.191C149.277 44.561 149.07 43.859 149.07 43.085C149.07 42.113 149.313 41.348 149.799 40.79C150.303 40.232 151.113 39.827 152.229 39.575C153.345 39.323 154.884 39.197 156.846 39.197H157.521V38.576C157.521 37.694 157.332 37.055 156.954 36.659C156.576 36.245 155.964 36.038 155.118 36.038C154.596 36.038 154.065 36.119 153.525 36.281C152.985 36.425 152.346 36.641 151.608 36.929C151.14 37.163 150.798 37.28 150.582 37.28C150.258 37.28 149.988 37.163 149.772 36.929C149.574 36.695 149.475 36.389 149.475 36.011C149.475 35.705 149.547 35.444 149.691 35.228C149.853 34.994 150.114 34.778 150.474 34.58C151.104 34.238 151.851 33.968 152.715 33.77C153.597 33.572 154.461 33.473 155.307 33.473ZM154.47 44.786C155.37 44.786 156.099 44.489 156.657 43.895C157.233 43.283 157.521 42.5 157.521 41.546V40.979H157.035C155.829 40.979 154.893 41.033 154.227 41.141C153.561 41.249 153.084 41.438 152.796 41.708C152.508 41.978 152.364 42.347 152.364 42.815C152.364 43.391 152.562 43.868 152.958 44.246C153.372 44.606 153.876 44.786 154.47 44.786Z" fill="#004098"/>
<path d="M80.176 80.128C79.1093 80.128 78.1867 79.8987 77.408 79.44C76.6293 78.9707 76.0267 78.304 75.6 77.44C75.184 76.5653 74.976 75.536 74.976 74.352C74.976 73.1787 75.184 72.16 75.6 71.296C76.0267 70.4213 76.6293 69.7547 77.408 69.296C78.1867 68.8267 79.1093 68.592 80.176 68.592C80.8907 68.592 81.5627 68.7093 82.192 68.944C82.832 69.168 83.3867 69.4933 83.856 69.92C84.0267 70.08 84.112 70.2667 84.112 70.48C84.112 70.6293 84.0693 70.7627 83.984 70.88C83.8987 70.9867 83.7973 71.04 83.68 71.04C83.552 71.04 83.3973 70.9813 83.216 70.864C82.672 70.4373 82.176 70.1387 81.728 69.968C81.2907 69.7973 80.784 69.712 80.208 69.712C78.9707 69.712 78.016 70.1173 77.344 70.928C76.6827 71.728 76.352 72.8693 76.352 74.352C76.352 75.8453 76.6827 76.9973 77.344 77.808C78.016 78.608 78.9707 79.008 80.208 79.008C80.7733 79.008 81.28 78.9227 81.728 78.752C82.176 78.5813 82.672 78.2827 83.216 77.856C83.3973 77.7387 83.552 77.68 83.68 77.68C83.7973 77.68 83.8987 77.7333 83.984 77.84C84.0693 77.9467 84.112 78.08 84.112 78.24C84.112 78.4533 84.0267 78.64 83.856 78.8C83.3867 79.2267 82.832 79.5573 82.192 79.792C81.5627 80.016 80.8907 80.128 80.176 80.128ZM89.1039 80.112C88.3679 80.112 87.7172 79.9467 87.1519 79.616C86.5972 79.2853 86.1652 78.816 85.8559 78.208C85.5572 77.5893 85.4079 76.8747 85.4079 76.064C85.4079 75.2533 85.5572 74.544 85.8559 73.936C86.1652 73.3173 86.5972 72.8427 87.1519 72.512C87.7172 72.1813 88.3679 72.016 89.1039 72.016C89.8399 72.016 90.4905 72.1813 91.0559 72.512C91.6212 72.8427 92.0532 73.3173 92.3519 73.936C92.6612 74.544 92.8159 75.2533 92.8159 76.064C92.8159 76.8747 92.6612 77.5893 92.3519 78.208C92.0532 78.816 91.6212 79.2853 91.0559 79.616C90.4905 79.9467 89.8399 80.112 89.1039 80.112ZM89.1039 79.04C89.8719 79.04 90.4585 78.7893 90.8639 78.288C91.2799 77.776 91.4879 77.0347 91.4879 76.064C91.4879 75.1147 91.2799 74.384 90.8639 73.872C90.4479 73.3493 89.8612 73.088 89.1039 73.088C88.3465 73.088 87.7599 73.3493 87.3439 73.872C86.9279 74.384 86.7199 75.1147 86.7199 76.064C86.7199 77.024 86.9225 77.76 87.3279 78.272C87.7439 78.784 88.3359 79.04 89.1039 79.04ZM98.6669 72.016C100.534 72.016 101.467 73.0453 101.467 75.104V79.44C101.467 79.6427 101.408 79.8027 101.291 79.92C101.184 80.0267 101.03 80.08 100.827 80.08C100.624 80.08 100.464 80.0267 100.347 79.92C100.23 79.8027 100.171 79.6427 100.171 79.44V75.184C100.171 74.4587 100.027 73.9307 99.7389 73.6C99.4615 73.2693 99.0135 73.104 98.3949 73.104C97.6802 73.104 97.1095 73.3227 96.6829 73.76C96.2562 74.1973 96.0429 74.7893 96.0429 75.536V79.44C96.0429 79.6427 95.9842 79.8027 95.8669 79.92C95.7602 80.0267 95.6055 80.08 95.4029 80.08C95.2002 80.08 95.0402 80.0267 94.9229 79.92C94.8055 79.8027 94.7469 79.6427 94.7469 79.44V72.688C94.7469 72.496 94.8055 72.3413 94.9229 72.224C95.0402 72.1067 95.2002 72.048 95.4029 72.048C95.5949 72.048 95.7442 72.1067 95.8509 72.224C95.9682 72.3413 96.0269 72.4907 96.0269 72.672V73.488C96.2829 73.008 96.6402 72.6453 97.0989 72.4C97.5575 72.144 98.0802 72.016 98.6669 72.016ZM122.574 69.04C122.616 68.9013 122.691 68.8 122.798 68.736C122.904 68.6613 123.022 68.624 123.15 68.624C123.32 68.624 123.464 68.6773 123.582 68.784C123.71 68.88 123.774 69.0133 123.774 69.184C123.774 69.2587 123.758 69.344 123.726 69.44L120.11 79.632C120.056 79.7813 119.966 79.8987 119.838 79.984C119.71 80.0587 119.566 80.096 119.406 80.096C119.256 80.096 119.118 80.0587 118.99 79.984C118.862 79.8987 118.771 79.7813 118.718 79.632L115.582 70.768L112.414 79.632C112.36 79.7813 112.27 79.8987 112.142 79.984C112.014 80.0587 111.875 80.096 111.726 80.096C111.576 80.096 111.438 80.0587 111.31 79.984C111.182 79.8987 111.091 79.7813 111.038 79.632L107.406 69.44C107.374 69.3547 107.358 69.2747 107.358 69.2C107.358 69.0293 107.422 68.8907 107.55 68.784C107.688 68.6773 107.843 68.624 108.014 68.624C108.142 68.624 108.259 68.6613 108.366 68.736C108.483 68.8 108.563 68.9013 108.606 69.04L111.758 78.128L114.958 69.136C115.011 68.976 115.096 68.8587 115.214 68.784C115.331 68.6987 115.459 68.656 115.598 68.656C115.736 68.656 115.864 68.6987 115.982 68.784C116.099 68.8693 116.184 68.992 116.238 69.152L119.39 78.16L122.574 69.04ZM130.716 78.192C130.834 78.192 130.935 78.24 131.02 78.336C131.106 78.432 131.148 78.5547 131.148 78.704C131.148 78.9707 130.962 79.216 130.588 79.44C130.204 79.664 129.799 79.8347 129.372 79.952C128.946 80.0587 128.53 80.112 128.124 80.112C126.919 80.112 125.964 79.7547 125.26 79.04C124.567 78.3253 124.22 77.3387 124.22 76.08C124.22 75.28 124.375 74.576 124.684 73.968C124.994 73.3493 125.426 72.8693 125.98 72.528C126.546 72.1867 127.186 72.016 127.9 72.016C128.914 72.016 129.719 72.3467 130.316 73.008C130.914 73.6693 131.212 74.5653 131.212 75.696C131.212 75.9093 131.17 76.064 131.084 76.16C130.999 76.256 130.86 76.304 130.668 76.304H125.516C125.612 78.1387 126.482 79.056 128.124 79.056C128.54 79.056 128.898 79.0027 129.196 78.896C129.495 78.7787 129.815 78.624 130.156 78.432C130.434 78.272 130.62 78.192 130.716 78.192ZM127.916 73.024C127.234 73.024 126.684 73.2373 126.268 73.664C125.863 74.0907 125.623 74.6933 125.548 75.472H130.076C130.055 74.6827 129.858 74.08 129.484 73.664C129.111 73.2373 128.588 73.024 127.916 73.024ZM135.746 80.112C135.255 80.112 134.786 80.0533 134.338 79.936C133.901 79.8187 133.511 79.6533 133.17 79.44C132.978 79.312 132.839 79.1947 132.754 79.088C132.679 78.9707 132.642 78.832 132.642 78.672C132.642 78.5333 132.679 78.4213 132.754 78.336C132.839 78.24 132.946 78.192 133.074 78.192C133.202 78.192 133.389 78.272 133.634 78.432C133.954 78.624 134.269 78.7787 134.578 78.896C134.898 79.0027 135.293 79.056 135.762 79.056C136.338 79.056 136.786 78.9547 137.106 78.752C137.426 78.5493 137.586 78.256 137.586 77.872C137.586 77.6373 137.527 77.4507 137.41 77.312C137.293 77.1627 137.09 77.0347 136.802 76.928C136.514 76.8107 136.093 76.6933 135.538 76.576C134.599 76.3733 133.927 76.1013 133.522 75.76C133.117 75.4187 132.914 74.9547 132.914 74.368C132.914 73.9093 133.042 73.504 133.298 73.152C133.554 72.8 133.906 72.5227 134.354 72.32C134.813 72.1173 135.33 72.016 135.906 72.016C136.322 72.016 136.722 72.0747 137.106 72.192C137.501 72.2987 137.847 72.4533 138.146 72.656C138.509 72.912 138.69 73.1787 138.69 73.456C138.69 73.5947 138.647 73.712 138.562 73.808C138.477 73.904 138.375 73.952 138.258 73.952C138.13 73.952 137.938 73.8613 137.682 73.68C137.383 73.488 137.101 73.3387 136.834 73.232C136.567 73.1253 136.237 73.072 135.842 73.072C135.341 73.072 134.935 73.184 134.626 73.408C134.327 73.632 134.178 73.9307 134.178 74.304C134.178 74.5387 134.231 74.7307 134.338 74.88C134.455 75.0187 134.642 75.1467 134.898 75.264C135.165 75.3707 135.543 75.4773 136.034 75.584C136.759 75.744 137.319 75.92 137.714 76.112C138.119 76.304 138.407 76.5387 138.578 76.816C138.749 77.0933 138.834 77.4453 138.834 77.872C138.834 78.544 138.551 79.088 137.986 79.504C137.421 79.9093 136.674 80.112 135.746 80.112ZM144.331 79.056C144.705 79.088 144.891 79.2587 144.891 79.568C144.891 79.7493 144.822 79.888 144.683 79.984C144.555 80.0693 144.358 80.1013 144.091 80.08L143.659 80.048C142.806 79.984 142.177 79.728 141.771 79.28C141.366 78.832 141.163 78.1547 141.163 77.248V73.232H140.091C139.91 73.232 139.766 73.1893 139.659 73.104C139.563 73.008 139.515 72.8853 139.515 72.736C139.515 72.576 139.563 72.448 139.659 72.352C139.766 72.256 139.91 72.208 140.091 72.208H141.163V70.4C141.163 70.1973 141.222 70.0427 141.339 69.936C141.457 69.8187 141.617 69.76 141.819 69.76C142.011 69.76 142.166 69.8187 142.283 69.936C142.401 70.0427 142.459 70.1973 142.459 70.4V72.208H144.235C144.406 72.208 144.539 72.256 144.635 72.352C144.742 72.448 144.795 72.576 144.795 72.736C144.795 72.8853 144.742 73.008 144.635 73.104C144.539 73.1893 144.406 73.232 144.235 73.232H142.459V77.312C142.459 77.8987 142.577 78.3253 142.811 78.592C143.057 78.848 143.419 78.992 143.899 79.024L144.331 79.056ZM152.201 78.192C152.318 78.192 152.419 78.24 152.505 78.336C152.59 78.432 152.633 78.5547 152.633 78.704C152.633 78.9707 152.446 79.216 152.073 79.44C151.689 79.664 151.283 79.8347 150.857 79.952C150.43 80.0587 150.014 80.112 149.609 80.112C148.403 80.112 147.449 79.7547 146.745 79.04C146.051 78.3253 145.705 77.3387 145.705 76.08C145.705 75.28 145.859 74.576 146.169 73.968C146.478 73.3493 146.91 72.8693 147.465 72.528C148.03 72.1867 148.67 72.016 149.385 72.016C150.398 72.016 151.203 72.3467 151.801 73.008C152.398 73.6693 152.697 74.5653 152.697 75.696C152.697 75.9093 152.654 76.064 152.569 76.16C152.483 76.256 152.345 76.304 152.153 76.304H147.001C147.097 78.1387 147.966 79.056 149.609 79.056C150.025 79.056 150.382 79.0027 150.681 78.896C150.979 78.7787 151.299 78.624 151.641 78.432C151.918 78.272 152.105 78.192 152.201 78.192ZM149.401 73.024C148.718 73.024 148.169 73.2373 147.753 73.664C147.347 74.0907 147.107 74.6933 147.033 75.472H151.561C151.539 74.6827 151.342 74.08 150.969 73.664C150.595 73.2373 150.073 73.024 149.401 73.024ZM158.462 72.048C158.91 72.016 159.134 72.1973 159.134 72.592C159.134 72.7627 159.086 72.9013 158.99 73.008C158.894 73.104 158.729 73.1627 158.494 73.184L158.014 73.232C157.3 73.296 156.766 73.552 156.414 74C156.073 74.4373 155.902 74.9547 155.902 75.552V79.44C155.902 79.6533 155.844 79.8133 155.726 79.92C155.609 80.0267 155.454 80.08 155.262 80.08C155.07 80.08 154.91 80.0267 154.782 79.92C154.665 79.8027 154.606 79.6427 154.606 79.44V72.688C154.606 72.4853 154.67 72.3307 154.798 72.224C154.926 72.1067 155.081 72.048 155.262 72.048C155.433 72.048 155.577 72.1067 155.694 72.224C155.812 72.3307 155.87 72.48 155.87 72.672V73.568C156.094 73.0987 156.409 72.7413 156.814 72.496C157.23 72.2507 157.705 72.1067 158.238 72.064L158.462 72.048ZM164.167 72.016C166.034 72.016 166.967 73.0453 166.967 75.104V79.44C166.967 79.6427 166.908 79.8027 166.791 79.92C166.684 80.0267 166.53 80.08 166.327 80.08C166.124 80.08 165.964 80.0267 165.847 79.92C165.73 79.8027 165.671 79.6427 165.671 79.44V75.184C165.671 74.4587 165.527 73.9307 165.239 73.6C164.962 73.2693 164.514 73.104 163.895 73.104C163.18 73.104 162.61 73.3227 162.183 73.76C161.756 74.1973 161.543 74.7893 161.543 75.536V79.44C161.543 79.6427 161.484 79.8027 161.367 79.92C161.26 80.0267 161.106 80.08 160.903 80.08C160.7 80.08 160.54 80.0267 160.423 79.92C160.306 79.8027 160.247 79.6427 160.247 79.44V72.688C160.247 72.496 160.306 72.3413 160.423 72.224C160.54 72.1067 160.7 72.048 160.903 72.048C161.095 72.048 161.244 72.1067 161.351 72.224C161.468 72.3413 161.527 72.4907 161.527 72.672V73.488C161.783 73.008 162.14 72.6453 162.599 72.4C163.058 72.144 163.58 72.016 164.167 72.016ZM179.386 72.048C179.588 72.048 179.743 72.1067 179.85 72.224C179.967 72.3413 180.026 72.496 180.026 72.688V79.456C180.026 79.6373 179.967 79.7867 179.85 79.904C179.743 80.0213 179.588 80.08 179.386 80.08C179.194 80.08 179.039 80.0267 178.922 79.92C178.815 79.8027 178.762 79.6533 178.762 79.472V78.672C178.516 79.1413 178.17 79.4987 177.722 79.744C177.284 79.9893 176.788 80.112 176.234 80.112C175.306 80.112 174.607 79.856 174.138 79.344C173.668 78.8213 173.434 78.0533 173.434 77.04V72.688C173.434 72.496 173.492 72.3413 173.61 72.224C173.727 72.1067 173.887 72.048 174.09 72.048C174.292 72.048 174.447 72.1067 174.554 72.224C174.671 72.3413 174.73 72.496 174.73 72.688V77.008C174.73 77.7013 174.868 78.2133 175.146 78.544C175.423 78.864 175.86 79.024 176.458 79.024C177.14 79.024 177.69 78.8053 178.106 78.368C178.522 77.92 178.73 77.3333 178.73 76.608V72.688C178.73 72.496 178.788 72.3413 178.906 72.224C179.023 72.1067 179.183 72.048 179.386 72.048ZM186.354 72.016C188.221 72.016 189.154 73.0453 189.154 75.104V79.44C189.154 79.6427 189.096 79.8027 188.978 79.92C188.872 80.0267 188.717 80.08 188.514 80.08C188.312 80.08 188.152 80.0267 188.034 79.92C187.917 79.8027 187.858 79.6427 187.858 79.44V75.184C187.858 74.4587 187.714 73.9307 187.426 73.6C187.149 73.2693 186.701 73.104 186.082 73.104C185.368 73.104 184.797 73.3227 184.37 73.76C183.944 74.1973 183.73 74.7893 183.73 75.536V79.44C183.73 79.6427 183.672 79.8027 183.554 79.92C183.448 80.0267 183.293 80.08 183.09 80.08C182.888 80.08 182.728 80.0267 182.61 79.92C182.493 79.8027 182.434 79.6427 182.434 79.44V72.688C182.434 72.496 182.493 72.3413 182.61 72.224C182.728 72.1067 182.888 72.048 183.09 72.048C183.282 72.048 183.432 72.1067 183.538 72.224C183.656 72.3413 183.714 72.4907 183.714 72.672V73.488C183.97 73.008 184.328 72.6453 184.786 72.4C185.245 72.144 185.768 72.016 186.354 72.016ZM192.184 80.08C191.992 80.08 191.832 80.0267 191.704 79.92C191.587 79.8027 191.528 79.6427 191.528 79.44V72.688C191.528 72.4853 191.587 72.3307 191.704 72.224C191.832 72.1067 191.992 72.048 192.184 72.048C192.376 72.048 192.531 72.1067 192.648 72.224C192.765 72.3307 192.824 72.4853 192.824 72.688V79.44C192.824 79.6533 192.765 79.8133 192.648 79.92C192.531 80.0267 192.376 80.08 192.184 80.08ZM192.184 70.368C191.928 70.368 191.72 70.2933 191.56 70.144C191.4 69.9947 191.32 69.7973 191.32 69.552C191.32 69.3173 191.4 69.1253 191.56 68.976C191.72 68.8267 191.928 68.752 192.184 68.752C192.44 68.752 192.648 68.8267 192.808 68.976C192.968 69.1253 193.048 69.3173 193.048 69.552C193.048 69.7973 192.968 69.9947 192.808 70.144C192.648 70.2933 192.44 70.368 192.184 70.368ZM198.479 80.112C197.743 80.112 197.092 79.9467 196.527 79.616C195.972 79.2853 195.54 78.816 195.231 78.208C194.932 77.5893 194.783 76.8747 194.783 76.064C194.783 75.2533 194.932 74.544 195.231 73.936C195.54 73.3173 195.972 72.8427 196.527 72.512C197.092 72.1813 197.743 72.016 198.479 72.016C199.215 72.016 199.866 72.1813 200.431 72.512C200.996 72.8427 201.428 73.3173 201.727 73.936C202.036 74.544 202.191 75.2533 202.191 76.064C202.191 76.8747 202.036 77.5893 201.727 78.208C201.428 78.816 200.996 79.2853 200.431 79.616C199.866 79.9467 199.215 80.112 198.479 80.112ZM198.479 79.04C199.247 79.04 199.834 78.7893 200.239 78.288C200.655 77.776 200.863 77.0347 200.863 76.064C200.863 75.1147 200.655 74.384 200.239 73.872C199.823 73.3493 199.236 73.088 198.479 73.088C197.722 73.088 197.135 73.3493 196.719 73.872C196.303 74.384 196.095 75.1147 196.095 76.064C196.095 77.024 196.298 77.76 196.703 78.272C197.119 78.784 197.711 79.04 198.479 79.04ZM208.042 72.016C209.909 72.016 210.842 73.0453 210.842 75.104V79.44C210.842 79.6427 210.783 79.8027 210.666 79.92C210.559 80.0267 210.405 80.08 210.202 80.08C209.999 80.08 209.839 80.0267 209.722 79.92C209.605 79.8027 209.546 79.6427 209.546 79.44V75.184C209.546 74.4587 209.402 73.9307 209.114 73.6C208.837 73.2693 208.389 73.104 207.77 73.104C207.055 73.104 206.485 73.3227 206.058 73.76C205.631 74.1973 205.418 74.7893 205.418 75.536V79.44C205.418 79.6427 205.359 79.8027 205.242 79.92C205.135 80.0267 204.981 80.08 204.778 80.08C204.575 80.08 204.415 80.0267 204.298 79.92C204.181 79.8027 204.122 79.6427 204.122 79.44V72.688C204.122 72.496 204.181 72.3413 204.298 72.224C204.415 72.1067 204.575 72.048 204.778 72.048C204.97 72.048 205.119 72.1067 205.226 72.224C205.343 72.3413 205.402 72.4907 205.402 72.672V73.488C205.658 73.008 206.015 72.6453 206.474 72.4C206.933 72.144 207.455 72.016 208.042 72.016ZM223.661 72.048C223.863 72.048 224.023 72.1067 224.141 72.224C224.258 72.3413 224.317 72.496 224.317 72.688V79.472C224.317 80.6347 224.018 81.5093 223.421 82.096C222.823 82.6933 221.938 82.992 220.765 82.992C219.623 82.992 218.674 82.768 217.917 82.32C217.533 82.1067 217.341 81.8613 217.341 81.584C217.341 81.4347 217.378 81.312 217.453 81.216C217.538 81.12 217.645 81.072 217.773 81.072C217.879 81.072 218.071 81.1467 218.349 81.296C218.722 81.488 219.09 81.6427 219.453 81.76C219.815 81.8773 220.247 81.936 220.749 81.936C221.506 81.936 222.077 81.7333 222.461 81.328C222.845 80.9333 223.037 80.352 223.037 79.584V78.208C222.813 78.7093 222.466 79.0933 221.997 79.36C221.538 79.6267 220.994 79.76 220.365 79.76C219.682 79.76 219.074 79.6 218.541 79.28C218.018 78.96 217.607 78.5067 217.309 77.92C217.021 77.3333 216.877 76.656 216.877 75.888C216.877 75.12 217.021 74.4427 217.309 73.856C217.607 73.2693 218.018 72.816 218.541 72.496C219.074 72.176 219.682 72.016 220.365 72.016C220.983 72.016 221.522 72.1493 221.981 72.416C222.439 72.6827 222.786 73.0613 223.021 73.552V72.688C223.021 72.496 223.074 72.3413 223.181 72.224C223.298 72.1067 223.458 72.048 223.661 72.048ZM220.621 78.688C221.367 78.688 221.954 78.4427 222.381 77.952C222.807 77.4507 223.021 76.7627 223.021 75.888C223.021 75.024 222.807 74.3467 222.381 73.856C221.965 73.3547 221.378 73.104 220.621 73.104C219.863 73.104 219.266 73.3547 218.829 73.856C218.402 74.3467 218.189 75.024 218.189 75.888C218.189 76.7627 218.402 77.4507 218.829 77.952C219.266 78.4427 219.863 78.688 220.621 78.688ZM229.9 72.016C231.852 72.016 232.828 73.04 232.828 75.088V79.44C232.828 79.632 232.769 79.7867 232.652 79.904C232.545 80.0213 232.396 80.08 232.204 80.08C232.012 80.08 231.857 80.0213 231.74 79.904C231.622 79.7867 231.564 79.632 231.564 79.44V78.672C231.361 79.1307 231.052 79.488 230.636 79.744C230.22 79.9893 229.74 80.112 229.196 80.112C228.694 80.112 228.23 80.0107 227.804 79.808C227.388 79.6053 227.057 79.3227 226.812 78.96C226.566 78.5973 226.444 78.1973 226.444 77.76C226.444 77.1733 226.593 76.72 226.892 76.4C227.19 76.0693 227.681 75.8347 228.364 75.696C229.046 75.5467 229.996 75.472 231.212 75.472H231.564V74.944C231.564 74.304 231.43 73.8347 231.164 73.536C230.908 73.2373 230.486 73.088 229.9 73.088C229.174 73.088 228.438 73.2853 227.692 73.68C227.404 73.8613 227.201 73.952 227.084 73.952C226.956 73.952 226.849 73.904 226.764 73.808C226.678 73.712 226.636 73.5893 226.636 73.44C226.636 73.2907 226.678 73.1627 226.764 73.056C226.86 72.9387 227.009 72.8213 227.212 72.704C227.585 72.4907 228.006 72.3253 228.476 72.208C228.956 72.08 229.43 72.016 229.9 72.016ZM229.372 79.088C230.012 79.088 230.534 78.8747 230.94 78.448C231.356 78.0107 231.564 77.4507 231.564 76.768V76.304H231.276C230.337 76.304 229.622 76.3467 229.132 76.432C228.641 76.5067 228.289 76.64 228.076 76.832C227.873 77.0133 227.772 77.2853 227.772 77.648C227.772 78.064 227.921 78.4107 228.22 78.688C228.529 78.9547 228.913 79.088 229.372 79.088ZM239.056 72.048C239.504 72.016 239.728 72.1973 239.728 72.592C239.728 72.7627 239.68 72.9013 239.584 73.008C239.488 73.104 239.323 73.1627 239.088 73.184L238.608 73.232C237.893 73.296 237.36 73.552 237.008 74C236.667 74.4373 236.496 74.9547 236.496 75.552V79.44C236.496 79.6533 236.437 79.8133 236.32 79.92C236.203 80.0267 236.048 80.08 235.856 80.08C235.664 80.08 235.504 80.0267 235.376 79.92C235.259 79.8027 235.2 79.6427 235.2 79.44V72.688C235.2 72.4853 235.264 72.3307 235.392 72.224C235.52 72.1067 235.675 72.048 235.856 72.048C236.027 72.048 236.171 72.1067 236.288 72.224C236.405 72.3307 236.464 72.48 236.464 72.672V73.568C236.688 73.0987 237.003 72.7413 237.408 72.496C237.824 72.2507 238.299 72.1067 238.832 72.064L239.056 72.048ZM243.962 72.016C245.914 72.016 246.89 73.04 246.89 75.088V79.44C246.89 79.632 246.831 79.7867 246.714 79.904C246.607 80.0213 246.458 80.08 246.266 80.08C246.074 80.08 245.919 80.0213 245.802 79.904C245.685 79.7867 245.626 79.632 245.626 79.44V78.672C245.423 79.1307 245.114 79.488 244.698 79.744C244.282 79.9893 243.802 80.112 243.258 80.112C242.757 80.112 242.293 80.0107 241.866 79.808C241.45 79.6053 241.119 79.3227 240.874 78.96C240.629 78.5973 240.506 78.1973 240.506 77.76C240.506 77.1733 240.655 76.72 240.954 76.4C241.253 76.0693 241.743 75.8347 242.426 75.696C243.109 75.5467 244.058 75.472 245.274 75.472H245.626V74.944C245.626 74.304 245.493 73.8347 245.226 73.536C244.97 73.2373 244.549 73.088 243.962 73.088C243.237 73.088 242.501 73.2853 241.754 73.68C241.466 73.8613 241.263 73.952 241.146 73.952C241.018 73.952 240.911 73.904 240.826 73.808C240.741 73.712 240.698 73.5893 240.698 73.44C240.698 73.2907 240.741 73.1627 240.826 73.056C240.922 72.9387 241.071 72.8213 241.274 72.704C241.647 72.4907 242.069 72.3253 242.538 72.208C243.018 72.08 243.493 72.016 243.962 72.016ZM243.434 79.088C244.074 79.088 244.597 78.8747 245.002 78.448C245.418 78.0107 245.626 77.4507 245.626 76.768V76.304H245.338C244.399 76.304 243.685 76.3467 243.194 76.432C242.703 76.5067 242.351 76.64 242.138 76.832C241.935 77.0133 241.834 77.2853 241.834 77.648C241.834 78.064 241.983 78.4107 242.282 78.688C242.591 78.9547 242.975 79.088 243.434 79.088ZM253.183 72.016C255.049 72.016 255.983 73.0453 255.983 75.104V79.44C255.983 79.6427 255.924 79.8027 255.807 79.92C255.7 80.0267 255.545 80.08 255.343 80.08C255.14 80.08 254.98 80.0267 254.863 79.92C254.745 79.8027 254.687 79.6427 254.687 79.44V75.184C254.687 74.4587 254.543 73.9307 254.255 73.6C253.977 73.2693 253.529 73.104 252.911 73.104C252.196 73.104 251.625 73.3227 251.199 73.76C250.772 74.1973 250.559 74.7893 250.559 75.536V79.44C250.559 79.6427 250.5 79.8027 250.383 79.92C250.276 80.0267 250.121 80.08 249.919 80.08C249.716 80.08 249.556 80.0267 249.439 79.92C249.321 79.8027 249.263 79.6427 249.263 79.44V72.688C249.263 72.496 249.321 72.3413 249.439 72.224C249.556 72.1067 249.716 72.048 249.919 72.048C250.111 72.048 250.26 72.1067 250.367 72.224C250.484 72.3413 250.543 72.4907 250.543 72.672V73.488C250.799 73.008 251.156 72.6453 251.615 72.4C252.073 72.144 252.596 72.016 253.183 72.016ZM261.956 79.056C262.33 79.088 262.516 79.2587 262.516 79.568C262.516 79.7493 262.447 79.888 262.308 79.984C262.18 80.0693 261.983 80.1013 261.716 80.08L261.284 80.048C260.431 79.984 259.802 79.728 259.396 79.28C258.991 78.832 258.788 78.1547 258.788 77.248V73.232H257.716C257.535 73.232 257.391 73.1893 257.284 73.104C257.188 73.008 257.14 72.8853 257.14 72.736C257.14 72.576 257.188 72.448 257.284 72.352C257.391 72.256 257.535 72.208 257.716 72.208H258.788V70.4C258.788 70.1973 258.847 70.0427 258.964 69.936C259.082 69.8187 259.242 69.76 259.444 69.76C259.636 69.76 259.791 69.8187 259.908 69.936C260.026 70.0427 260.084 70.1973 260.084 70.4V72.208H261.86C262.031 72.208 262.164 72.256 262.26 72.352C262.367 72.448 262.42 72.576 262.42 72.736C262.42 72.8853 262.367 73.008 262.26 73.104C262.164 73.1893 262.031 73.232 261.86 73.232H260.084V77.312C260.084 77.8987 260.202 78.3253 260.436 78.592C260.682 78.848 261.044 78.992 261.524 79.024L261.956 79.056ZM264.45 80.08C264.258 80.08 264.098 80.0267 263.97 79.92C263.852 79.8027 263.794 79.6427 263.794 79.44V72.688C263.794 72.4853 263.852 72.3307 263.97 72.224C264.098 72.1067 264.258 72.048 264.45 72.048C264.642 72.048 264.796 72.1067 264.914 72.224C265.031 72.3307 265.09 72.4853 265.09 72.688V79.44C265.09 79.6533 265.031 79.8133 264.914 79.92C264.796 80.0267 264.642 80.08 264.45 80.08ZM264.45 70.368C264.194 70.368 263.986 70.2933 263.826 70.144C263.666 69.9947 263.586 69.7973 263.586 69.552C263.586 69.3173 263.666 69.1253 263.826 68.976C263.986 68.8267 264.194 68.752 264.45 68.752C264.706 68.752 264.914 68.8267 265.074 68.976C265.234 69.1253 265.314 69.3173 265.314 69.552C265.314 69.7973 265.234 69.9947 265.074 70.144C264.914 70.2933 264.706 70.368 264.45 70.368ZM273.241 78.976C273.422 78.976 273.561 79.024 273.657 79.12C273.753 79.2053 273.801 79.328 273.801 79.488C273.801 79.648 273.753 79.776 273.657 79.872C273.561 79.9573 273.422 80 273.241 80H267.641C267.459 80 267.31 79.9467 267.193 79.84C267.075 79.7227 267.017 79.584 267.017 79.424C267.017 79.2533 267.081 79.088 267.209 78.928L271.945 73.232H267.561C267.379 73.232 267.235 73.1893 267.129 73.104C267.033 73.008 266.985 72.8853 266.985 72.736C266.985 72.576 267.033 72.448 267.129 72.352C267.235 72.256 267.379 72.208 267.561 72.208H272.985C273.177 72.208 273.331 72.2667 273.449 72.384C273.566 72.4907 273.625 72.624 273.625 72.784C273.625 72.9547 273.561 73.12 273.433 73.28L268.681 78.976H273.241ZM278.665 72.016C280.617 72.016 281.593 73.04 281.593 75.088V79.44C281.593 79.632 281.535 79.7867 281.417 79.904C281.311 80.0213 281.161 80.08 280.969 80.08C280.777 80.08 280.623 80.0213 280.505 79.904C280.388 79.7867 280.329 79.632 280.329 79.44V78.672C280.127 79.1307 279.817 79.488 279.401 79.744C278.985 79.9893 278.505 80.112 277.961 80.112C277.46 80.112 276.996 80.0107 276.569 79.808C276.153 79.6053 275.823 79.3227 275.577 78.96C275.332 78.5973 275.209 78.1973 275.209 77.76C275.209 77.1733 275.359 76.72 275.657 76.4C275.956 76.0693 276.447 75.8347 277.129 75.696C277.812 75.5467 278.761 75.472 279.977 75.472H280.329V74.944C280.329 74.304 280.196 73.8347 279.929 73.536C279.673 73.2373 279.252 73.088 278.665 73.088C277.94 73.088 277.204 73.2853 276.457 73.68C276.169 73.8613 275.967 73.952 275.849 73.952C275.721 73.952 275.615 73.904 275.529 73.808C275.444 73.712 275.401 73.5893 275.401 73.44C275.401 73.2907 275.444 73.1627 275.529 73.056C275.625 72.9387 275.775 72.8213 275.977 72.704C276.351 72.4907 276.772 72.3253 277.241 72.208C277.721 72.08 278.196 72.016 278.665 72.016ZM278.137 79.088C278.777 79.088 279.3 78.8747 279.705 78.448C280.121 78.0107 280.329 77.4507 280.329 76.768V76.304H280.041C279.103 76.304 278.388 76.3467 277.897 76.432C277.407 76.5067 277.055 76.64 276.841 76.832C276.639 77.0133 276.537 77.2853 276.537 77.648C276.537 78.064 276.687 78.4107 276.985 78.688C277.295 78.9547 277.679 79.088 278.137 79.088ZM288.747 80.08C288.555 80.08 288.395 80.0267 288.267 79.92C288.149 79.8027 288.091 79.6427 288.091 79.44V69.28C288.091 69.0773 288.149 68.9227 288.267 68.816C288.395 68.6987 288.555 68.64 288.747 68.64C288.928 68.64 289.077 68.6987 289.195 68.816C289.323 68.9227 289.387 69.0773 289.387 69.28V79.44C289.387 79.6427 289.323 79.8027 289.195 79.92C289.077 80.0267 288.928 80.08 288.747 80.08ZM294.993 72.016C296.945 72.016 297.921 73.04 297.921 75.088V79.44C297.921 79.632 297.863 79.7867 297.745 79.904C297.639 80.0213 297.489 80.08 297.297 80.08C297.105 80.08 296.951 80.0213 296.833 79.904C296.716 79.7867 296.657 79.632 296.657 79.44V78.672C296.455 79.1307 296.145 79.488 295.729 79.744C295.313 79.9893 294.833 80.112 294.289 80.112C293.788 80.112 293.324 80.0107 292.897 79.808C292.481 79.6053 292.151 79.3227 291.905 78.96C291.66 78.5973 291.537 78.1973 291.537 77.76C291.537 77.1733 291.687 76.72 291.985 76.4C292.284 76.0693 292.775 75.8347 293.457 75.696C294.14 75.5467 295.089 75.472 296.305 75.472H296.657V74.944C296.657 74.304 296.524 73.8347 296.257 73.536C296.001 73.2373 295.58 73.088 294.993 73.088C294.268 73.088 293.532 73.2853 292.785 73.68C292.497 73.8613 292.295 73.952 292.177 73.952C292.049 73.952 291.943 73.904 291.857 73.808C291.772 73.712 291.729 73.5893 291.729 73.44C291.729 73.2907 291.772 73.1627 291.857 73.056C291.953 72.9387 292.103 72.8213 292.305 72.704C292.679 72.4907 293.1 72.3253 293.569 72.208C294.049 72.08 294.524 72.016 294.993 72.016ZM294.465 79.088C295.105 79.088 295.628 78.8747 296.033 78.448C296.449 78.0107 296.657 77.4507 296.657 76.768V76.304H296.369C295.431 76.304 294.716 76.3467 294.225 76.432C293.735 76.5067 293.383 76.64 293.169 76.832C292.967 77.0133 292.865 77.2853 292.865 77.648C292.865 78.064 293.015 78.4107 293.313 78.688C293.623 78.9547 294.007 79.088 294.465 79.088ZM77.824 102.112C77.3333 102.112 76.864 102.053 76.416 101.936C75.9787 101.819 75.5893 101.653 75.248 101.44C75.056 101.312 74.9173 101.195 74.832 101.088C74.7573 100.971 74.72 100.832 74.72 100.672C74.72 100.533 74.7573 100.421 74.832 100.336C74.9173 100.24 75.024 100.192 75.152 100.192C75.28 100.192 75.4667 100.272 75.712 100.432C76.032 100.624 76.3467 100.779 76.656 100.896C76.976 101.003 77.3707 101.056 77.84 101.056C78.416 101.056 78.864 100.955 79.184 100.752C79.504 100.549 79.664 100.256 79.664 99.872C79.664 99.6373 79.6053 99.4507 79.488 99.312C79.3707 99.1627 79.168 99.0347 78.88 98.928C78.592 98.8107 78.1707 98.6933 77.616 98.576C76.6773 98.3733 76.0053 98.1013 75.6 97.76C75.1947 97.4187 74.992 96.9547 74.992 96.368C74.992 95.9093 75.12 95.504 75.376 95.152C75.632 94.8 75.984 94.5227 76.432 94.32C76.8907 94.1173 77.408 94.016 77.984 94.016C78.4 94.016 78.8 94.0747 79.184 94.192C79.5787 94.2987 79.9253 94.4533 80.224 94.656C80.5867 94.912 80.768 95.1787 80.768 95.456C80.768 95.5947 80.7253 95.712 80.64 95.808C80.5547 95.904 80.4533 95.952 80.336 95.952C80.208 95.952 80.016 95.8613 79.76 95.68C79.4613 95.488 79.1787 95.3387 78.912 95.232C78.6453 95.1253 78.3147 95.072 77.92 95.072C77.4187 95.072 77.0133 95.184 76.704 95.408C76.4053 95.632 76.256 95.9307 76.256 96.304C76.256 96.5387 76.3093 96.7307 76.416 96.88C76.5333 97.0187 76.72 97.1467 76.976 97.264C77.2427 97.3707 77.6213 97.4773 78.112 97.584C78.8373 97.744 79.3973 97.92 79.792 98.112C80.1973 98.304 80.4853 98.5387 80.656 98.816C80.8267 99.0933 80.912 99.4453 80.912 99.872C80.912 100.544 80.6293 101.088 80.064 101.504C79.4987 101.909 78.752 102.112 77.824 102.112ZM88.9195 100.192C89.0368 100.192 89.1382 100.24 89.2235 100.336C89.3088 100.432 89.3515 100.555 89.3515 100.704C89.3515 100.971 89.1648 101.216 88.7915 101.44C88.4075 101.664 88.0022 101.835 87.5755 101.952C87.1488 102.059 86.7328 102.112 86.3275 102.112C85.1222 102.112 84.1675 101.755 83.4635 101.04C82.7702 100.325 82.4235 99.3387 82.4235 98.08C82.4235 97.28 82.5782 96.576 82.8875 95.968C83.1968 95.3493 83.6288 94.8693 84.1835 94.528C84.7488 94.1867 85.3888 94.016 86.1035 94.016C87.1168 94.016 87.9222 94.3467 88.5195 95.008C89.1168 95.6693 89.4155 96.5653 89.4155 97.696C89.4155 97.9093 89.3728 98.064 89.2875 98.16C89.2022 98.256 89.0635 98.304 88.8715 98.304H83.7195C83.8155 100.139 84.6848 101.056 86.3275 101.056C86.7435 101.056 87.1008 101.003 87.3995 100.896C87.6982 100.779 88.0182 100.624 88.3595 100.432C88.6368 100.272 88.8235 100.192 88.9195 100.192ZM86.1195 95.024C85.4368 95.024 84.8875 95.2373 84.4715 95.664C84.0662 96.0907 83.8262 96.6933 83.7515 97.472H88.2795C88.2582 96.6827 88.0608 96.08 87.6875 95.664C87.3142 95.2373 86.7915 95.024 86.1195 95.024ZM97.645 94.048C97.8477 94.048 98.0077 94.1067 98.125 94.224C98.2423 94.3413 98.301 94.496 98.301 94.688V101.472C98.301 102.635 98.0023 103.509 97.405 104.096C96.8077 104.693 95.9223 104.992 94.749 104.992C93.6077 104.992 92.6583 104.768 91.901 104.32C91.517 104.107 91.325 103.861 91.325 103.584C91.325 103.435 91.3623 103.312 91.437 103.216C91.5223 103.12 91.629 103.072 91.757 103.072C91.8637 103.072 92.0557 103.147 92.333 103.296C92.7063 103.488 93.0743 103.643 93.437 103.76C93.7997 103.877 94.2317 103.936 94.733 103.936C95.4903 103.936 96.061 103.733 96.445 103.328C96.829 102.933 97.021 102.352 97.021 101.584V100.208C96.797 100.709 96.4503 101.093 95.981 101.36C95.5223 101.627 94.9783 101.76 94.349 101.76C93.6663 101.76 93.0583 101.6 92.525 101.28C92.0023 100.96 91.5917 100.507 91.293 99.92C91.005 99.3333 90.861 98.656 90.861 97.888C90.861 97.12 91.005 96.4427 91.293 95.856C91.5917 95.2693 92.0023 94.816 92.525 94.496C93.0583 94.176 93.6663 94.016 94.349 94.016C94.9677 94.016 95.5063 94.1493 95.965 94.416C96.4237 94.6827 96.7703 95.0613 97.005 95.552V94.688C97.005 94.496 97.0583 94.3413 97.165 94.224C97.2823 94.1067 97.4423 94.048 97.645 94.048ZM94.605 100.688C95.3517 100.688 95.9383 100.443 96.365 99.952C96.7917 99.4507 97.005 98.7627 97.005 97.888C97.005 97.024 96.7917 96.3467 96.365 95.856C95.949 95.3547 95.3623 95.104 94.605 95.104C93.8477 95.104 93.2503 95.3547 92.813 95.856C92.3863 96.3467 92.173 97.024 92.173 97.888C92.173 98.7627 92.3863 99.4507 92.813 99.952C93.2503 100.443 93.8477 100.688 94.605 100.688ZM106.62 94.048C106.823 94.048 106.977 94.1067 107.084 94.224C107.201 94.3413 107.26 94.496 107.26 94.688V101.456C107.26 101.637 107.201 101.787 107.084 101.904C106.977 102.021 106.823 102.08 106.62 102.08C106.428 102.08 106.273 102.027 106.156 101.92C106.049 101.803 105.996 101.653 105.996 101.472V100.672C105.751 101.141 105.404 101.499 104.956 101.744C104.519 101.989 104.023 102.112 103.468 102.112C102.54 102.112 101.841 101.856 101.372 101.344C100.903 100.821 100.668 100.053 100.668 99.04V94.688C100.668 94.496 100.727 94.3413 100.844 94.224C100.961 94.1067 101.121 94.048 101.324 94.048C101.527 94.048 101.681 94.1067 101.788 94.224C101.905 94.3413 101.964 94.496 101.964 94.688V99.008C101.964 99.7013 102.103 100.213 102.38 100.544C102.657 100.864 103.095 101.024 103.692 101.024C104.375 101.024 104.924 100.805 105.34 100.368C105.756 99.92 105.964 99.3333 105.964 98.608V94.688C105.964 94.496 106.023 94.3413 106.14 94.224C106.257 94.1067 106.417 94.048 106.62 94.048ZM113.525 94.048C113.973 94.016 114.197 94.1973 114.197 94.592C114.197 94.7627 114.149 94.9013 114.053 95.008C113.957 95.104 113.791 95.1627 113.557 95.184L113.077 95.232C112.362 95.296 111.829 95.552 111.477 96C111.135 96.4373 110.965 96.9547 110.965 97.552V101.44C110.965 101.653 110.906 101.813 110.789 101.92C110.671 102.027 110.517 102.08 110.325 102.08C110.133 102.08 109.973 102.027 109.845 101.92C109.727 101.803 109.669 101.643 109.669 101.44V94.688C109.669 94.4853 109.733 94.3307 109.861 94.224C109.989 94.1067 110.143 94.048 110.325 94.048C110.495 94.048 110.639 94.1067 110.757 94.224C110.874 94.3307 110.933 94.48 110.933 94.672V95.568C111.157 95.0987 111.471 94.7413 111.877 94.496C112.293 94.2507 112.767 94.1067 113.301 94.064L113.525 94.048ZM115.965 102.08C115.773 102.08 115.613 102.027 115.485 101.92C115.368 101.803 115.309 101.643 115.309 101.44V94.688C115.309 94.4853 115.368 94.3307 115.485 94.224C115.613 94.1067 115.773 94.048 115.965 94.048C116.157 94.048 116.312 94.1067 116.429 94.224C116.547 94.3307 116.605 94.4853 116.605 94.688V101.44C116.605 101.653 116.547 101.813 116.429 101.92C116.312 102.027 116.157 102.08 115.965 102.08ZM115.965 92.368C115.709 92.368 115.501 92.2933 115.341 92.144C115.181 91.9947 115.101 91.7973 115.101 91.552C115.101 91.3173 115.181 91.1253 115.341 90.976C115.501 90.8267 115.709 90.752 115.965 90.752C116.221 90.752 116.429 90.8267 116.589 90.976C116.749 91.1253 116.829 91.3173 116.829 91.552C116.829 91.7973 116.749 91.9947 116.589 92.144C116.429 92.2933 116.221 92.368 115.965 92.368ZM125.284 90.64C125.487 90.64 125.647 90.6987 125.764 90.816C125.881 90.9333 125.94 91.0827 125.94 91.264V101.44C125.94 101.632 125.881 101.787 125.764 101.904C125.647 102.021 125.487 102.08 125.284 102.08C125.081 102.08 124.921 102.021 124.804 101.904C124.697 101.787 124.644 101.632 124.644 101.44V100.576C124.409 101.067 124.063 101.445 123.604 101.712C123.156 101.979 122.628 102.112 122.02 102.112C121.337 102.112 120.735 101.941 120.212 101.6C119.689 101.259 119.284 100.784 118.996 100.176C118.708 99.5573 118.564 98.8427 118.564 98.032C118.564 97.232 118.708 96.528 118.996 95.92C119.284 95.312 119.689 94.8427 120.212 94.512C120.735 94.1813 121.337 94.016 122.02 94.016C122.628 94.016 123.156 94.1493 123.604 94.416C124.063 94.6827 124.409 95.0613 124.644 95.552V91.264C124.644 91.072 124.697 90.9227 124.804 90.816C124.921 90.6987 125.081 90.64 125.284 90.64ZM122.276 101.04C123.033 101.04 123.615 100.784 124.02 100.272C124.436 99.7493 124.644 99.0133 124.644 98.064C124.644 97.1147 124.436 96.384 124.02 95.872C123.615 95.36 123.033 95.104 122.276 95.104C121.519 95.104 120.927 95.36 120.5 95.872C120.084 96.384 119.876 97.104 119.876 98.032C119.876 98.9813 120.084 99.7227 120.5 100.256C120.927 100.779 121.519 101.04 122.276 101.04ZM131.525 94.016C133.477 94.016 134.453 95.04 134.453 97.088V101.44C134.453 101.632 134.394 101.787 134.277 101.904C134.17 102.021 134.021 102.08 133.829 102.08C133.637 102.08 133.482 102.021 133.365 101.904C133.247 101.787 133.189 101.632 133.189 101.44V100.672C132.986 101.131 132.677 101.488 132.261 101.744C131.845 101.989 131.365 102.112 130.821 102.112C130.319 102.112 129.855 102.011 129.429 101.808C129.013 101.605 128.682 101.323 128.437 100.96C128.191 100.597 128.069 100.197 128.069 99.76C128.069 99.1733 128.218 98.72 128.517 98.4C128.815 98.0693 129.306 97.8347 129.989 97.696C130.671 97.5467 131.621 97.472 132.837 97.472H133.189V96.944C133.189 96.304 133.055 95.8347 132.789 95.536C132.533 95.2373 132.111 95.088 131.525 95.088C130.799 95.088 130.063 95.2853 129.317 95.68C129.029 95.8613 128.826 95.952 128.709 95.952C128.581 95.952 128.474 95.904 128.389 95.808C128.303 95.712 128.261 95.5893 128.261 95.44C128.261 95.2907 128.303 95.1627 128.389 95.056C128.485 94.9387 128.634 94.8213 128.837 94.704C129.21 94.4907 129.631 94.3253 130.101 94.208C130.581 94.08 131.055 94.016 131.525 94.016ZM130.997 101.088C131.637 101.088 132.159 100.875 132.565 100.448C132.981 100.011 133.189 99.4507 133.189 98.768V98.304H132.901C131.962 98.304 131.247 98.3467 130.757 98.432C130.266 98.5067 129.914 98.64 129.701 98.832C129.498 99.0133 129.397 99.2853 129.397 99.648C129.397 100.064 129.546 100.411 129.845 100.688C130.154 100.955 130.538 101.088 130.997 101.088ZM143.081 90.64C143.284 90.64 143.444 90.6987 143.561 90.816C143.678 90.9333 143.737 91.0827 143.737 91.264V101.44C143.737 101.632 143.678 101.787 143.561 101.904C143.444 102.021 143.284 102.08 143.081 102.08C142.878 102.08 142.718 102.021 142.601 101.904C142.494 101.787 142.441 101.632 142.441 101.44V100.576C142.206 101.067 141.86 101.445 141.401 101.712C140.953 101.979 140.425 102.112 139.817 102.112C139.134 102.112 138.532 101.941 138.009 101.6C137.486 101.259 137.081 100.784 136.793 100.176C136.505 99.5573 136.361 98.8427 136.361 98.032C136.361 97.232 136.505 96.528 136.793 95.92C137.081 95.312 137.486 94.8427 138.009 94.512C138.532 94.1813 139.134 94.016 139.817 94.016C140.425 94.016 140.953 94.1493 141.401 94.416C141.86 94.6827 142.206 95.0613 142.441 95.552V91.264C142.441 91.072 142.494 90.9227 142.601 90.816C142.718 90.6987 142.878 90.64 143.081 90.64ZM140.073 101.04C140.83 101.04 141.412 100.784 141.817 100.272C142.233 99.7493 142.441 99.0133 142.441 98.064C142.441 97.1147 142.233 96.384 141.817 95.872C141.412 95.36 140.83 95.104 140.073 95.104C139.316 95.104 138.724 95.36 138.297 95.872C137.881 96.384 137.673 97.104 137.673 98.032C137.673 98.9813 137.881 99.7227 138.297 100.256C138.724 100.779 139.316 101.04 140.073 101.04ZM156.519 90.64C156.721 90.64 156.881 90.6987 156.999 90.816C157.116 90.9333 157.175 91.0827 157.175 91.264V101.44C157.175 101.632 157.116 101.787 156.999 101.904C156.881 102.021 156.721 102.08 156.519 102.08C156.316 102.08 156.156 102.021 156.039 101.904C155.932 101.787 155.879 101.632 155.879 101.44V100.576C155.644 101.067 155.297 101.445 154.839 101.712C154.391 101.979 153.863 102.112 153.255 102.112C152.572 102.112 151.969 101.941 151.447 101.6C150.924 101.259 150.519 100.784 150.231 100.176C149.943 99.5573 149.799 98.8427 149.799 98.032C149.799 97.232 149.943 96.528 150.231 95.92C150.519 95.312 150.924 94.8427 151.447 94.512C151.969 94.1813 152.572 94.016 153.255 94.016C153.863 94.016 154.391 94.1493 154.839 94.416C155.297 94.6827 155.644 95.0613 155.879 95.552V91.264C155.879 91.072 155.932 90.9227 156.039 90.816C156.156 90.6987 156.316 90.64 156.519 90.64ZM153.511 101.04C154.268 101.04 154.849 100.784 155.255 100.272C155.671 99.7493 155.879 99.0133 155.879 98.064C155.879 97.1147 155.671 96.384 155.255 95.872C154.849 95.36 154.268 95.104 153.511 95.104C152.753 95.104 152.161 95.36 151.735 95.872C151.319 96.384 151.111 97.104 151.111 98.032C151.111 98.9813 151.319 99.7227 151.735 100.256C152.161 100.779 152.753 101.04 153.511 101.04ZM165.607 100.192C165.724 100.192 165.826 100.24 165.911 100.336C165.996 100.432 166.039 100.555 166.039 100.704C166.039 100.971 165.852 101.216 165.479 101.44C165.095 101.664 164.69 101.835 164.263 101.952C163.836 102.059 163.42 102.112 163.015 102.112C161.81 102.112 160.855 101.755 160.151 101.04C159.458 100.325 159.111 99.3387 159.111 98.08C159.111 97.28 159.266 96.576 159.575 95.968C159.884 95.3493 160.316 94.8693 160.871 94.528C161.436 94.1867 162.076 94.016 162.791 94.016C163.804 94.016 164.61 94.3467 165.207 95.008C165.804 95.6693 166.103 96.5653 166.103 97.696C166.103 97.9093 166.06 98.064 165.975 98.16C165.89 98.256 165.751 98.304 165.559 98.304H160.407C160.503 100.139 161.372 101.056 163.015 101.056C163.431 101.056 163.788 101.003 164.087 100.896C164.386 100.779 164.706 100.624 165.047 100.432C165.324 100.272 165.511 100.192 165.607 100.192ZM162.807 95.024C162.124 95.024 161.575 95.2373 161.159 95.664C160.754 96.0907 160.514 96.6933 160.439 97.472H164.967C164.946 96.6827 164.748 96.08 164.375 95.664C164.002 95.2373 163.479 95.024 162.807 95.024ZM175.738 101.056C176.111 101.088 176.298 101.259 176.298 101.568C176.298 101.749 176.228 101.888 176.09 101.984C175.962 102.069 175.764 102.101 175.498 102.08L175.066 102.048C174.212 101.984 173.583 101.728 173.178 101.28C172.772 100.832 172.57 100.155 172.57 99.248V95.232H171.498C171.316 95.232 171.172 95.1893 171.066 95.104C170.97 95.008 170.921 94.8853 170.921 94.736C170.921 94.576 170.97 94.448 171.066 94.352C171.172 94.256 171.316 94.208 171.498 94.208H172.57V92.4C172.57 92.1973 172.628 92.0427 172.746 91.936C172.863 91.8187 173.023 91.76 173.226 91.76C173.418 91.76 173.572 91.8187 173.69 91.936C173.807 92.0427 173.866 92.1973 173.866 92.4V94.208H175.641C175.812 94.208 175.946 94.256 176.042 94.352C176.148 94.448 176.202 94.576 176.202 94.736C176.202 94.8853 176.148 95.008 176.042 95.104C175.946 95.1893 175.812 95.232 175.641 95.232H173.866V99.312C173.866 99.8987 173.983 100.325 174.218 100.592C174.463 100.848 174.826 100.992 175.306 101.024L175.738 101.056ZM183.495 94.048C183.698 94.048 183.852 94.1067 183.959 94.224C184.076 94.3413 184.135 94.496 184.135 94.688V101.456C184.135 101.637 184.076 101.787 183.959 101.904C183.852 102.021 183.698 102.08 183.495 102.08C183.303 102.08 183.148 102.027 183.031 101.92C182.924 101.803 182.871 101.653 182.871 101.472V100.672C182.626 101.141 182.279 101.499 181.831 101.744C181.394 101.989 180.898 102.112 180.343 102.112C179.415 102.112 178.716 101.856 178.247 101.344C177.778 100.821 177.543 100.053 177.543 99.04V94.688C177.543 94.496 177.602 94.3413 177.719 94.224C177.836 94.1067 177.996 94.048 178.199 94.048C178.402 94.048 178.556 94.1067 178.663 94.224C178.78 94.3413 178.839 94.496 178.839 94.688V99.008C178.839 99.7013 178.978 100.213 179.255 100.544C179.532 100.864 179.97 101.024 180.567 101.024C181.25 101.024 181.799 100.805 182.215 100.368C182.631 99.92 182.839 99.3333 182.839 98.608V94.688C182.839 94.496 182.898 94.3413 183.015 94.224C183.132 94.1067 183.292 94.048 183.495 94.048ZM189.168 102.112C188.677 102.112 188.208 102.053 187.76 101.936C187.322 101.819 186.933 101.653 186.592 101.44C186.4 101.312 186.261 101.195 186.176 101.088C186.101 100.971 186.064 100.832 186.064 100.672C186.064 100.533 186.101 100.421 186.176 100.336C186.261 100.24 186.368 100.192 186.496 100.192C186.624 100.192 186.81 100.272 187.056 100.432C187.376 100.624 187.69 100.779 188 100.896C188.32 101.003 188.714 101.056 189.184 101.056C189.76 101.056 190.208 100.955 190.528 100.752C190.848 100.549 191.008 100.256 191.008 99.872C191.008 99.6373 190.949 99.4507 190.832 99.312C190.714 99.1627 190.512 99.0347 190.224 98.928C189.936 98.8107 189.514 98.6933 188.96 98.576C188.021 98.3733 187.349 98.1013 186.944 97.76C186.538 97.4187 186.336 96.9547 186.336 96.368C186.336 95.9093 186.464 95.504 186.72 95.152C186.976 94.8 187.328 94.5227 187.776 94.32C188.234 94.1173 188.752 94.016 189.328 94.016C189.744 94.016 190.144 94.0747 190.528 94.192C190.922 94.2987 191.269 94.4533 191.568 94.656C191.93 94.912 192.112 95.1787 192.112 95.456C192.112 95.5947 192.069 95.712 191.984 95.808C191.898 95.904 191.797 95.952 191.68 95.952C191.552 95.952 191.36 95.8613 191.104 95.68C190.805 95.488 190.522 95.3387 190.256 95.232C189.989 95.1253 189.658 95.072 189.264 95.072C188.762 95.072 188.357 95.184 188.048 95.408C187.749 95.632 187.6 95.9307 187.6 96.304C187.6 96.5387 187.653 96.7307 187.76 96.88C187.877 97.0187 188.064 97.1467 188.32 97.264C188.586 97.3707 188.965 97.4773 189.456 97.584C190.181 97.744 190.741 97.92 191.136 98.112C191.541 98.304 191.829 98.5387 192 98.816C192.17 99.0933 192.256 99.4453 192.256 99.872C192.256 100.544 191.973 101.088 191.408 101.504C190.842 101.909 190.096 102.112 189.168 102.112ZM201.956 101.056C202.33 101.088 202.516 101.259 202.516 101.568C202.516 101.749 202.447 101.888 202.308 101.984C202.18 102.069 201.983 102.101 201.716 102.08L201.284 102.048C200.431 101.984 199.802 101.728 199.396 101.28C198.991 100.832 198.788 100.155 198.788 99.248V95.232H197.716C197.535 95.232 197.391 95.1893 197.284 95.104C197.188 95.008 197.14 94.8853 197.14 94.736C197.14 94.576 197.188 94.448 197.284 94.352C197.391 94.256 197.535 94.208 197.716 94.208H198.788V92.4C198.788 92.1973 198.847 92.0427 198.964 91.936C199.082 91.8187 199.242 91.76 199.444 91.76C199.636 91.76 199.791 91.8187 199.908 91.936C200.026 92.0427 200.084 92.1973 200.084 92.4V94.208H201.86C202.031 94.208 202.164 94.256 202.26 94.352C202.367 94.448 202.42 94.576 202.42 94.736C202.42 94.8853 202.367 95.008 202.26 95.104C202.164 95.1893 202.031 95.232 201.86 95.232H200.084V99.312C200.084 99.8987 200.202 100.325 200.436 100.592C200.682 100.848 201.044 100.992 201.524 101.024L201.956 101.056ZM207.65 94.048C208.098 94.016 208.322 94.1973 208.322 94.592C208.322 94.7627 208.274 94.9013 208.178 95.008C208.082 95.104 207.916 95.1627 207.682 95.184L207.202 95.232C206.487 95.296 205.954 95.552 205.602 96C205.26 96.4373 205.09 96.9547 205.09 97.552V101.44C205.09 101.653 205.031 101.813 204.914 101.92C204.796 102.027 204.642 102.08 204.45 102.08C204.258 102.08 204.098 102.027 203.97 101.92C203.852 101.803 203.794 101.643 203.794 101.44V94.688C203.794 94.4853 203.858 94.3307 203.986 94.224C204.114 94.1067 204.268 94.048 204.45 94.048C204.62 94.048 204.764 94.1067 204.882 94.224C204.999 94.3307 205.058 94.48 205.058 94.672V95.568C205.282 95.0987 205.596 94.7413 206.002 94.496C206.418 94.2507 206.892 94.1067 207.426 94.064L207.65 94.048ZM212.556 94.016C214.508 94.016 215.484 95.04 215.484 97.088V101.44C215.484 101.632 215.425 101.787 215.308 101.904C215.201 102.021 215.052 102.08 214.86 102.08C214.668 102.08 214.513 102.021 214.396 101.904C214.279 101.787 214.22 101.632 214.22 101.44V100.672C214.017 101.131 213.708 101.488 213.292 101.744C212.876 101.989 212.396 102.112 211.852 102.112C211.351 102.112 210.887 102.011 210.46 101.808C210.044 101.605 209.713 101.323 209.468 100.96C209.223 100.597 209.1 100.197 209.1 99.76C209.1 99.1733 209.249 98.72 209.548 98.4C209.847 98.0693 210.337 97.8347 211.02 97.696C211.703 97.5467 212.652 97.472 213.868 97.472H214.22V96.944C214.22 96.304 214.087 95.8347 213.82 95.536C213.564 95.2373 213.143 95.088 212.556 95.088C211.831 95.088 211.095 95.2853 210.348 95.68C210.06 95.8613 209.857 95.952 209.74 95.952C209.612 95.952 209.505 95.904 209.42 95.808C209.335 95.712 209.292 95.5893 209.292 95.44C209.292 95.2907 209.335 95.1627 209.42 95.056C209.516 94.9387 209.665 94.8213 209.868 94.704C210.241 94.4907 210.663 94.3253 211.132 94.208C211.612 94.08 212.087 94.016 212.556 94.016ZM212.028 101.088C212.668 101.088 213.191 100.875 213.596 100.448C214.012 100.011 214.22 99.4507 214.22 98.768V98.304H213.932C212.993 98.304 212.279 98.3467 211.788 98.432C211.297 98.5067 210.945 98.64 210.732 98.832C210.529 99.0133 210.428 99.2853 210.428 99.648C210.428 100.064 210.577 100.411 210.876 100.688C211.185 100.955 211.569 101.088 212.028 101.088ZM221.776 94.016C223.643 94.016 224.576 95.0453 224.576 97.104V101.44C224.576 101.643 224.518 101.803 224.4 101.92C224.294 102.027 224.139 102.08 223.936 102.08C223.734 102.08 223.574 102.027 223.456 101.92C223.339 101.803 223.28 101.643 223.28 101.44V97.184C223.28 96.4587 223.136 95.9307 222.848 95.6C222.571 95.2693 222.123 95.104 221.504 95.104C220.79 95.104 220.219 95.3227 219.792 95.76C219.366 96.1973 219.152 96.7893 219.152 97.536V101.44C219.152 101.643 219.094 101.803 218.976 101.92C218.87 102.027 218.715 102.08 218.512 102.08C218.31 102.08 218.15 102.027 218.032 101.92C217.915 101.803 217.856 101.643 217.856 101.44V94.688C217.856 94.496 217.915 94.3413 218.032 94.224C218.15 94.1067 218.31 94.048 218.512 94.048C218.704 94.048 218.854 94.1067 218.96 94.224C219.078 94.3413 219.136 94.4907 219.136 94.672V95.488C219.392 95.008 219.75 94.6453 220.208 94.4C220.667 94.144 221.19 94.016 221.776 94.016ZM229.574 102.112C229.083 102.112 228.614 102.053 228.166 101.936C227.729 101.819 227.339 101.653 226.998 101.44C226.806 101.312 226.667 101.195 226.582 101.088C226.507 100.971 226.47 100.832 226.47 100.672C226.47 100.533 226.507 100.421 226.582 100.336C226.667 100.24 226.774 100.192 226.902 100.192C227.03 100.192 227.217 100.272 227.462 100.432C227.782 100.624 228.097 100.779 228.406 100.896C228.726 101.003 229.121 101.056 229.59 101.056C230.166 101.056 230.614 100.955 230.934 100.752C231.254 100.549 231.414 100.256 231.414 99.872C231.414 99.6373 231.355 99.4507 231.238 99.312C231.121 99.1627 230.918 99.0347 230.63 98.928C230.342 98.8107 229.921 98.6933 229.366 98.576C228.427 98.3733 227.755 98.1013 227.35 97.76C226.945 97.4187 226.742 96.9547 226.742 96.368C226.742 95.9093 226.87 95.504 227.126 95.152C227.382 94.8 227.734 94.5227 228.182 94.32C228.641 94.1173 229.158 94.016 229.734 94.016C230.15 94.016 230.55 94.0747 230.934 94.192C231.329 94.2987 231.675 94.4533 231.974 94.656C232.337 94.912 232.518 95.1787 232.518 95.456C232.518 95.5947 232.475 95.712 232.39 95.808C232.305 95.904 232.203 95.952 232.086 95.952C231.958 95.952 231.766 95.8613 231.51 95.68C231.211 95.488 230.929 95.3387 230.662 95.232C230.395 95.1253 230.065 95.072 229.67 95.072C229.169 95.072 228.763 95.184 228.454 95.408C228.155 95.632 228.006 95.9307 228.006 96.304C228.006 96.5387 228.059 96.7307 228.166 96.88C228.283 97.0187 228.47 97.1467 228.726 97.264C228.993 97.3707 229.371 97.4773 229.862 97.584C230.587 97.744 231.147 97.92 231.542 98.112C231.947 98.304 232.235 98.5387 232.406 98.816C232.577 99.0933 232.662 99.4453 232.662 99.872C232.662 100.544 232.379 101.088 231.814 101.504C231.249 101.909 230.502 102.112 229.574 102.112ZM238.078 91.744C237.512 91.7867 237.086 91.968 236.798 92.288C236.51 92.5973 236.366 93.0667 236.366 93.696V94.208H238.141C238.323 94.208 238.462 94.256 238.558 94.352C238.654 94.448 238.702 94.576 238.702 94.736C238.702 94.896 238.654 95.0187 238.558 95.104C238.462 95.1893 238.323 95.232 238.141 95.232H236.366V101.44C236.366 101.643 236.302 101.803 236.174 101.92C236.056 102.027 235.907 102.08 235.726 102.08C235.534 102.08 235.374 102.027 235.246 101.92C235.128 101.803 235.07 101.643 235.07 101.44V95.232H233.998C233.816 95.232 233.672 95.1893 233.566 95.104C233.47 95.008 233.421 94.8853 233.421 94.736C233.421 94.576 233.47 94.448 233.566 94.352C233.672 94.256 233.816 94.208 233.998 94.208H235.07V93.92C235.07 92.96 235.31 92.208 235.789 91.664C236.27 91.1093 236.958 90.8 237.854 90.736L238.27 90.704C238.547 90.6827 238.744 90.7093 238.862 90.784C238.99 90.8587 239.054 90.992 239.054 91.184C239.054 91.4933 238.867 91.6693 238.494 91.712L238.078 91.744ZM245.841 100.192C245.959 100.192 246.06 100.24 246.145 100.336C246.231 100.432 246.273 100.555 246.273 100.704C246.273 100.971 246.087 101.216 245.713 101.44C245.329 101.664 244.924 101.835 244.497 101.952C244.071 102.059 243.655 102.112 243.249 102.112C242.044 102.112 241.089 101.755 240.385 101.04C239.692 100.325 239.345 99.3387 239.345 98.08C239.345 97.28 239.5 96.576 239.809 95.968C240.119 95.3493 240.551 94.8693 241.105 94.528C241.671 94.1867 242.311 94.016 243.025 94.016C244.039 94.016 244.844 94.3467 245.441 95.008C246.039 95.6693 246.337 96.5653 246.337 97.696C246.337 97.9093 246.295 98.064 246.209 98.16C246.124 98.256 245.985 98.304 245.793 98.304H240.641C240.737 100.139 241.607 101.056 243.249 101.056C243.665 101.056 244.023 101.003 244.321 100.896C244.62 100.779 244.94 100.624 245.281 100.432C245.559 100.272 245.745 100.192 245.841 100.192ZM243.041 95.024C242.359 95.024 241.809 95.2373 241.393 95.664C240.988 96.0907 240.748 96.6933 240.673 97.472H245.201C245.18 96.6827 244.983 96.08 244.609 95.664C244.236 95.2373 243.713 95.024 243.041 95.024ZM252.103 94.048C252.551 94.016 252.775 94.1973 252.775 94.592C252.775 94.7627 252.727 94.9013 252.631 95.008C252.535 95.104 252.37 95.1627 252.135 95.184L251.655 95.232C250.94 95.296 250.407 95.552 250.055 96C249.714 96.4373 249.543 96.9547 249.543 97.552V101.44C249.543 101.653 249.484 101.813 249.367 101.92C249.25 102.027 249.095 102.08 248.903 102.08C248.711 102.08 248.551 102.027 248.423 101.92C248.306 101.803 248.247 101.643 248.247 101.44V94.688C248.247 94.4853 248.311 94.3307 248.439 94.224C248.567 94.1067 248.722 94.048 248.903 94.048C249.074 94.048 249.218 94.1067 249.335 94.224C249.452 94.3307 249.511 94.48 249.511 94.672V95.568C249.735 95.0987 250.05 94.7413 250.455 94.496C250.871 94.2507 251.346 94.1067 251.879 94.064L252.103 94.048ZM259.763 100.192C259.881 100.192 259.982 100.24 260.067 100.336C260.153 100.432 260.195 100.555 260.195 100.704C260.195 100.971 260.009 101.216 259.635 101.44C259.251 101.664 258.846 101.835 258.419 101.952C257.993 102.059 257.577 102.112 257.171 102.112C255.966 102.112 255.011 101.755 254.307 101.04C253.614 100.325 253.267 99.3387 253.267 98.08C253.267 97.28 253.422 96.576 253.731 95.968C254.041 95.3493 254.473 94.8693 255.027 94.528C255.593 94.1867 256.233 94.016 256.947 94.016C257.961 94.016 258.766 94.3467 259.363 95.008C259.961 95.6693 260.259 96.5653 260.259 97.696C260.259 97.9093 260.217 98.064 260.131 98.16C260.046 98.256 259.907 98.304 259.715 98.304H254.563C254.659 100.139 255.529 101.056 257.171 101.056C257.587 101.056 257.945 101.003 258.243 100.896C258.542 100.779 258.862 100.624 259.203 100.432C259.481 100.272 259.667 100.192 259.763 100.192ZM256.963 95.024C256.281 95.024 255.731 95.2373 255.315 95.664C254.91 96.0907 254.67 96.6933 254.595 97.472H259.123C259.102 96.6827 258.905 96.08 258.531 95.664C258.158 95.2373 257.635 95.024 256.963 95.024ZM266.089 94.016C267.955 94.016 268.889 95.0453 268.889 97.104V101.44C268.889 101.643 268.83 101.803 268.713 101.92C268.606 102.027 268.451 102.08 268.249 102.08C268.046 102.08 267.886 102.027 267.769 101.92C267.651 101.803 267.593 101.643 267.593 101.44V97.184C267.593 96.4587 267.449 95.9307 267.161 95.6C266.883 95.2693 266.435 95.104 265.817 95.104C265.102 95.104 264.531 95.3227 264.105 95.76C263.678 96.1973 263.465 96.7893 263.465 97.536V101.44C263.465 101.643 263.406 101.803 263.289 101.92C263.182 102.027 263.027 102.08 262.825 102.08C262.622 102.08 262.462 102.027 262.345 101.92C262.227 101.803 262.169 101.643 262.169 101.44V94.688C262.169 94.496 262.227 94.3413 262.345 94.224C262.462 94.1067 262.622 94.048 262.825 94.048C263.017 94.048 263.166 94.1067 263.273 94.224C263.39 94.3413 263.449 94.4907 263.449 94.672V95.488C263.705 95.008 264.062 94.6453 264.521 94.4C264.979 94.144 265.502 94.016 266.089 94.016ZM274.479 102.112C273.753 102.112 273.108 101.947 272.543 101.616C271.988 101.285 271.556 100.816 271.247 100.208C270.948 99.6 270.799 98.896 270.799 98.096C270.799 97.296 270.953 96.5867 271.263 95.968C271.583 95.3493 272.025 94.8693 272.591 94.528C273.156 94.1867 273.807 94.016 274.543 94.016C274.948 94.016 275.348 94.0747 275.743 94.192C276.148 94.2987 276.5 94.4587 276.799 94.672C276.991 94.8 277.124 94.928 277.199 95.056C277.284 95.1733 277.327 95.3067 277.327 95.456C277.327 95.6053 277.284 95.728 277.199 95.824C277.124 95.92 277.023 95.968 276.895 95.968C276.82 95.968 276.74 95.9467 276.655 95.904C276.569 95.8613 276.495 95.8187 276.431 95.776C276.377 95.7333 276.34 95.7067 276.319 95.696C276.041 95.5147 275.775 95.3707 275.519 95.264C275.273 95.1573 274.969 95.104 274.607 95.104C273.828 95.104 273.22 95.3707 272.783 95.904C272.356 96.4267 272.143 97.1573 272.143 98.096C272.143 99.0347 272.356 99.76 272.783 100.272C273.22 100.784 273.828 101.04 274.607 101.04C274.969 101.04 275.279 100.987 275.535 100.88C275.801 100.773 276.068 100.629 276.335 100.448C276.452 100.373 276.564 100.309 276.671 100.256C276.777 100.203 276.868 100.176 276.943 100.176C277.06 100.176 277.156 100.224 277.231 100.32C277.316 100.416 277.359 100.539 277.359 100.688C277.359 100.827 277.321 100.955 277.247 101.072C277.172 101.179 277.033 101.301 276.831 101.44C276.532 101.643 276.169 101.808 275.743 101.936C275.327 102.053 274.905 102.112 274.479 102.112ZM279.575 102.08C279.383 102.08 279.223 102.027 279.095 101.92C278.977 101.803 278.919 101.643 278.919 101.44V94.688C278.919 94.4853 278.977 94.3307 279.095 94.224C279.223 94.1067 279.383 94.048 279.575 94.048C279.767 94.048 279.921 94.1067 280.039 94.224C280.156 94.3307 280.215 94.4853 280.215 94.688V101.44C280.215 101.653 280.156 101.813 280.039 101.92C279.921 102.027 279.767 102.08 279.575 102.08ZM279.575 92.368C279.319 92.368 279.111 92.2933 278.951 92.144C278.791 91.9947 278.711 91.7973 278.711 91.552C278.711 91.3173 278.791 91.1253 278.951 90.976C279.111 90.8267 279.319 90.752 279.575 90.752C279.831 90.752 280.039 90.8267 280.199 90.976C280.359 91.1253 280.439 91.3173 280.439 91.552C280.439 91.7973 280.359 91.9947 280.199 92.144C280.039 92.2933 279.831 92.368 279.575 92.368ZM285.822 94.016C287.774 94.016 288.75 95.04 288.75 97.088V101.44C288.75 101.632 288.691 101.787 288.574 101.904C288.467 102.021 288.318 102.08 288.126 102.08C287.934 102.08 287.779 102.021 287.662 101.904C287.544 101.787 287.486 101.632 287.486 101.44V100.672C287.283 101.131 286.974 101.488 286.558 101.744C286.142 101.989 285.662 102.112 285.118 102.112C284.616 102.112 284.152 102.011 283.726 101.808C283.31 101.605 282.979 101.323 282.734 100.96C282.488 100.597 282.366 100.197 282.366 99.76C282.366 99.1733 282.515 98.72 282.814 98.4C283.112 98.0693 283.603 97.8347 284.286 97.696C284.968 97.5467 285.918 97.472 287.134 97.472H287.486V96.944C287.486 96.304 287.352 95.8347 287.086 95.536C286.83 95.2373 286.408 95.088 285.822 95.088C285.096 95.088 284.36 95.2853 283.614 95.68C283.326 95.8613 283.123 95.952 283.006 95.952C282.878 95.952 282.771 95.904 282.686 95.808C282.6 95.712 282.558 95.5893 282.558 95.44C282.558 95.2907 282.6 95.1627 282.686 95.056C282.782 94.9387 282.931 94.8213 283.134 94.704C283.507 94.4907 283.928 94.3253 284.398 94.208C284.878 94.08 285.352 94.016 285.822 94.016ZM285.294 101.088C285.934 101.088 286.456 100.875 286.862 100.448C287.278 100.011 287.486 99.4507 287.486 98.768V98.304H287.198C286.259 98.304 285.544 98.3467 285.054 98.432C284.563 98.5067 284.211 98.64 283.998 98.832C283.795 99.0133 283.694 99.2853 283.694 99.648C283.694 100.064 283.843 100.411 284.142 100.688C284.451 100.955 284.835 101.088 285.294 101.088ZM293.746 102.112C293.255 102.112 292.786 102.053 292.338 101.936C291.901 101.819 291.511 101.653 291.17 101.44C290.978 101.312 290.839 101.195 290.754 101.088C290.679 100.971 290.642 100.832 290.642 100.672C290.642 100.533 290.679 100.421 290.754 100.336C290.839 100.24 290.946 100.192 291.074 100.192C291.202 100.192 291.389 100.272 291.634 100.432C291.954 100.624 292.269 100.779 292.578 100.896C292.898 101.003 293.293 101.056 293.762 101.056C294.338 101.056 294.786 100.955 295.106 100.752C295.426 100.549 295.586 100.256 295.586 99.872C295.586 99.6373 295.527 99.4507 295.41 99.312C295.293 99.1627 295.09 99.0347 294.802 98.928C294.514 98.8107 294.093 98.6933 293.538 98.576C292.599 98.3733 291.927 98.1013 291.522 97.76C291.117 97.4187 290.914 96.9547 290.914 96.368C290.914 95.9093 291.042 95.504 291.298 95.152C291.554 94.8 291.906 94.5227 292.354 94.32C292.813 94.1173 293.33 94.016 293.906 94.016C294.322 94.016 294.722 94.0747 295.106 94.192C295.501 94.2987 295.847 94.4533 296.146 94.656C296.509 94.912 296.69 95.1787 296.69 95.456C296.69 95.5947 296.647 95.712 296.562 95.808C296.477 95.904 296.375 95.952 296.258 95.952C296.13 95.952 295.938 95.8613 295.682 95.68C295.383 95.488 295.101 95.3387 294.834 95.232C294.567 95.1253 294.237 95.072 293.842 95.072C293.341 95.072 292.935 95.184 292.626 95.408C292.327 95.632 292.178 95.9307 292.178 96.304C292.178 96.5387 292.231 96.7307 292.338 96.88C292.455 97.0187 292.642 97.1467 292.898 97.264C293.165 97.3707 293.543 97.4773 294.034 97.584C294.759 97.744 295.319 97.92 295.714 98.112C296.119 98.304 296.407 98.5387 296.578 98.816C296.749 99.0933 296.834 99.4453 296.834 99.872C296.834 100.544 296.551 101.088 295.986 101.504C295.421 101.909 294.674 102.112 293.746 102.112ZM306.118 94.016C308.07 94.016 309.046 95.04 309.046 97.088V101.44C309.046 101.632 308.988 101.787 308.87 101.904C308.764 102.021 308.614 102.08 308.422 102.08C308.23 102.08 308.076 102.021 307.958 101.904C307.841 101.787 307.782 101.632 307.782 101.44V100.672C307.58 101.131 307.27 101.488 306.854 101.744C306.438 101.989 305.958 102.112 305.414 102.112C304.913 102.112 304.449 102.011 304.022 101.808C303.606 101.605 303.276 101.323 303.03 100.96C302.785 100.597 302.662 100.197 302.662 99.76C302.662 99.1733 302.812 98.72 303.11 98.4C303.409 98.0693 303.9 97.8347 304.582 97.696C305.265 97.5467 306.214 97.472 307.43 97.472H307.782V96.944C307.782 96.304 307.649 95.8347 307.382 95.536C307.126 95.2373 306.705 95.088 306.118 95.088C305.393 95.088 304.657 95.2853 303.91 95.68C303.622 95.8613 303.42 95.952 303.302 95.952C303.174 95.952 303.068 95.904 302.982 95.808C302.897 95.712 302.854 95.5893 302.854 95.44C302.854 95.2907 302.897 95.1627 302.982 95.056C303.078 94.9387 303.228 94.8213 303.43 94.704C303.804 94.4907 304.225 94.3253 304.694 94.208C305.174 94.08 305.649 94.016 306.118 94.016ZM305.59 101.088C306.23 101.088 306.753 100.875 307.158 100.448C307.574 100.011 307.782 99.4507 307.782 98.768V98.304H307.494C306.556 98.304 305.841 98.3467 305.35 98.432C304.86 98.5067 304.508 98.64 304.294 98.832C304.092 99.0133 303.99 99.2853 303.99 99.648C303.99 100.064 304.14 100.411 304.438 100.688C304.748 100.955 305.132 101.088 305.59 101.088ZM79.12 116.016C80.9867 116.016 81.92 117.045 81.92 119.104V123.44C81.92 123.643 81.8613 123.803 81.744 123.92C81.6373 124.027 81.4827 124.08 81.28 124.08C81.0773 124.08 80.9173 124.027 80.8 123.92C80.6827 123.803 80.624 123.643 80.624 123.44V119.184C80.624 118.459 80.48 117.931 80.192 117.6C79.9147 117.269 79.4667 117.104 78.848 117.104C78.1333 117.104 77.5627 117.323 77.136 117.76C76.7093 118.197 76.496 118.789 76.496 119.536V123.44C76.496 123.643 76.4373 123.803 76.32 123.92C76.2133 124.027 76.0587 124.08 75.856 124.08C75.6533 124.08 75.4933 124.027 75.376 123.92C75.2587 123.803 75.2 123.643 75.2 123.44V116.688C75.2 116.496 75.2587 116.341 75.376 116.224C75.4933 116.107 75.6533 116.048 75.856 116.048C76.048 116.048 76.1973 116.107 76.304 116.224C76.4213 116.341 76.48 116.491 76.48 116.672V117.488C76.736 117.008 77.0933 116.645 77.552 116.4C78.0107 116.144 78.5333 116.016 79.12 116.016ZM84.9498 124.08C84.7578 124.08 84.5978 124.027 84.4698 123.92C84.3524 123.803 84.2938 123.643 84.2938 123.44V116.688C84.2938 116.485 84.3524 116.331 84.4698 116.224C84.5978 116.107 84.7578 116.048 84.9498 116.048C85.1418 116.048 85.2964 116.107 85.4138 116.224C85.5311 116.331 85.5898 116.485 85.5898 116.688V123.44C85.5898 123.653 85.5311 123.813 85.4138 123.92C85.2964 124.027 85.1418 124.08 84.9498 124.08ZM84.9498 114.368C84.6938 114.368 84.4858 114.293 84.3258 114.144C84.1658 113.995 84.0858 113.797 84.0858 113.552C84.0858 113.317 84.1658 113.125 84.3258 112.976C84.4858 112.827 84.6938 112.752 84.9498 112.752C85.2058 112.752 85.4138 112.827 85.5738 112.976C85.7338 113.125 85.8138 113.317 85.8138 113.552C85.8138 113.797 85.7338 113.995 85.5738 114.144C85.4138 114.293 85.2058 114.368 84.9498 114.368ZM93.6285 116.448C93.7458 116.192 93.9325 116.064 94.1885 116.064C94.3485 116.064 94.4925 116.117 94.6205 116.224C94.7485 116.331 94.8125 116.464 94.8125 116.624C94.8125 116.72 94.7912 116.805 94.7485 116.88L91.6285 123.6C91.5645 123.739 91.4685 123.851 91.3405 123.936C91.2125 124.011 91.0738 124.048 90.9245 124.048C90.7858 124.048 90.6525 124.011 90.5245 123.936C90.3965 123.851 90.2952 123.739 90.2205 123.6L87.1165 116.88C87.0738 116.805 87.0525 116.725 87.0525 116.64C87.0525 116.48 87.1218 116.341 87.2605 116.224C87.4098 116.107 87.5698 116.048 87.7405 116.048C87.8472 116.048 87.9485 116.08 88.0445 116.144C88.1512 116.208 88.2312 116.299 88.2845 116.416L90.9565 122.416L93.6285 116.448ZM102.17 122.192C102.287 122.192 102.388 122.24 102.474 122.336C102.559 122.432 102.602 122.555 102.602 122.704C102.602 122.971 102.415 123.216 102.042 123.44C101.658 123.664 101.252 123.835 100.826 123.952C100.399 124.059 99.9828 124.112 99.5775 124.112C98.3722 124.112 97.4175 123.755 96.7135 123.04C96.0202 122.325 95.6735 121.339 95.6735 120.08C95.6735 119.28 95.8282 118.576 96.1375 117.968C96.4468 117.349 96.8788 116.869 97.4335 116.528C97.9988 116.187 98.6388 116.016 99.3535 116.016C100.367 116.016 101.172 116.347 101.77 117.008C102.367 117.669 102.666 118.565 102.666 119.696C102.666 119.909 102.623 120.064 102.538 120.16C102.452 120.256 102.314 120.304 102.122 120.304H96.9695C97.0655 122.139 97.9348 123.056 99.5775 123.056C99.9935 123.056 100.351 123.003 100.65 122.896C100.948 122.779 101.268 122.624 101.61 122.432C101.887 122.272 102.074 122.192 102.17 122.192ZM99.3695 117.024C98.6868 117.024 98.1375 117.237 97.7215 117.664C97.3162 118.091 97.0762 118.693 97.0015 119.472H101.53C101.508 118.683 101.311 118.08 100.938 117.664C100.564 117.237 100.042 117.024 99.3695 117.024ZM105.231 124.08C105.039 124.08 104.879 124.027 104.751 123.92C104.634 123.803 104.575 123.643 104.575 123.44V113.28C104.575 113.077 104.634 112.923 104.751 112.816C104.879 112.699 105.039 112.64 105.231 112.64C105.412 112.64 105.562 112.699 105.679 112.816C105.807 112.923 105.871 113.077 105.871 113.28V123.44C105.871 123.643 105.807 123.803 105.679 123.92C105.562 124.027 105.412 124.08 105.231 124.08ZM121.091 116.016C122.819 116.016 123.683 117.045 123.683 119.104V123.44C123.683 123.643 123.624 123.803 123.507 123.92C123.389 124.027 123.235 124.08 123.043 124.08C122.851 124.08 122.691 124.027 122.563 123.92C122.445 123.803 122.387 123.643 122.387 123.44V119.136C122.387 118.421 122.259 117.904 122.003 117.584C121.747 117.264 121.347 117.104 120.803 117.104C120.152 117.104 119.64 117.323 119.267 117.76C118.893 118.197 118.707 118.789 118.707 119.536V123.44C118.707 123.643 118.643 123.803 118.515 123.92C118.397 124.027 118.243 124.08 118.051 124.08C117.859 124.08 117.704 124.027 117.587 123.92C117.469 123.803 117.411 123.643 117.411 123.44V119.136C117.411 118.421 117.283 117.904 117.027 117.584C116.771 117.264 116.365 117.104 115.811 117.104C115.171 117.104 114.659 117.323 114.275 117.76C113.901 118.197 113.715 118.789 113.715 119.536V123.44C113.715 123.643 113.656 123.803 113.539 123.92C113.421 124.027 113.267 124.08 113.075 124.08C112.883 124.08 112.723 124.027 112.595 123.92C112.477 123.803 112.419 123.643 112.419 123.44V116.688C112.419 116.496 112.477 116.341 112.595 116.224C112.723 116.107 112.883 116.048 113.075 116.048C113.256 116.048 113.405 116.107 113.523 116.224C113.64 116.331 113.699 116.48 113.699 116.672V117.44C113.933 116.981 114.259 116.629 114.675 116.384C115.091 116.139 115.571 116.016 116.115 116.016C117.331 116.016 118.125 116.528 118.499 117.552C118.723 117.083 119.064 116.709 119.523 116.432C119.981 116.155 120.504 116.016 121.091 116.016ZM131.964 116.048C132.166 116.048 132.321 116.107 132.428 116.224C132.545 116.341 132.604 116.496 132.604 116.688V123.456C132.604 123.637 132.545 123.787 132.428 123.904C132.321 124.021 132.166 124.08 131.964 124.08C131.772 124.08 131.617 124.027 131.5 123.92C131.393 123.803 131.34 123.653 131.34 123.472V122.672C131.094 123.141 130.748 123.499 130.3 123.744C129.862 123.989 129.366 124.112 128.812 124.112C127.884 124.112 127.185 123.856 126.716 123.344C126.246 122.821 126.012 122.053 126.012 121.04V116.688C126.012 116.496 126.07 116.341 126.188 116.224C126.305 116.107 126.465 116.048 126.668 116.048C126.87 116.048 127.025 116.107 127.132 116.224C127.249 116.341 127.308 116.496 127.308 116.688V121.008C127.308 121.701 127.446 122.213 127.724 122.544C128.001 122.864 128.438 123.024 129.036 123.024C129.718 123.024 130.268 122.805 130.684 122.368C131.1 121.92 131.308 121.333 131.308 120.608V116.688C131.308 116.496 131.366 116.341 131.484 116.224C131.601 116.107 131.761 116.048 131.964 116.048ZM138.933 116.016C140.799 116.016 141.733 117.045 141.733 119.104V123.44C141.733 123.643 141.674 123.803 141.557 123.92C141.45 124.027 141.295 124.08 141.093 124.08C140.89 124.08 140.73 124.027 140.613 123.92C140.495 123.803 140.437 123.643 140.437 123.44V119.184C140.437 118.459 140.293 117.931 140.005 117.6C139.727 117.269 139.279 117.104 138.661 117.104C137.946 117.104 137.375 117.323 136.949 117.76C136.522 118.197 136.309 118.789 136.309 119.536V123.44C136.309 123.643 136.25 123.803 136.133 123.92C136.026 124.027 135.871 124.08 135.669 124.08C135.466 124.08 135.306 124.027 135.189 123.92C135.071 123.803 135.013 123.643 135.013 123.44V116.688C135.013 116.496 135.071 116.341 135.189 116.224C135.306 116.107 135.466 116.048 135.669 116.048C135.861 116.048 136.01 116.107 136.117 116.224C136.234 116.341 136.293 116.491 136.293 116.672V117.488C136.549 117.008 136.906 116.645 137.365 116.4C137.823 116.144 138.346 116.016 138.933 116.016ZM150.362 112.64C150.565 112.64 150.725 112.699 150.842 112.816C150.96 112.933 151.018 113.083 151.018 113.264V123.44C151.018 123.632 150.96 123.787 150.842 123.904C150.725 124.021 150.565 124.08 150.362 124.08C150.16 124.08 150 124.021 149.882 123.904C149.776 123.787 149.722 123.632 149.722 123.44V122.576C149.488 123.067 149.141 123.445 148.682 123.712C148.234 123.979 147.706 124.112 147.098 124.112C146.416 124.112 145.813 123.941 145.29 123.6C144.768 123.259 144.362 122.784 144.074 122.176C143.786 121.557 143.642 120.843 143.642 120.032C143.642 119.232 143.786 118.528 144.074 117.92C144.362 117.312 144.768 116.843 145.29 116.512C145.813 116.181 146.416 116.016 147.098 116.016C147.706 116.016 148.234 116.149 148.682 116.416C149.141 116.683 149.488 117.061 149.722 117.552V113.264C149.722 113.072 149.776 112.923 149.882 112.816C150 112.699 150.16 112.64 150.362 112.64ZM147.354 123.04C148.112 123.04 148.693 122.784 149.098 122.272C149.514 121.749 149.722 121.013 149.722 120.064C149.722 119.115 149.514 118.384 149.098 117.872C148.693 117.36 148.112 117.104 147.354 117.104C146.597 117.104 146.005 117.36 145.578 117.872C145.162 118.384 144.954 119.104 144.954 120.032C144.954 120.981 145.162 121.723 145.578 122.256C146.005 122.779 146.597 123.04 147.354 123.04ZM154.075 124.08C153.883 124.08 153.723 124.027 153.595 123.92C153.477 123.803 153.419 123.643 153.419 123.44V116.688C153.419 116.485 153.477 116.331 153.595 116.224C153.723 116.107 153.883 116.048 154.075 116.048C154.267 116.048 154.421 116.107 154.539 116.224C154.656 116.331 154.715 116.485 154.715 116.688V123.44C154.715 123.653 154.656 123.813 154.539 123.92C154.421 124.027 154.267 124.08 154.075 124.08ZM154.075 114.368C153.819 114.368 153.611 114.293 153.451 114.144C153.291 113.995 153.211 113.797 153.211 113.552C153.211 113.317 153.291 113.125 153.451 112.976C153.611 112.827 153.819 112.752 154.075 112.752C154.331 112.752 154.539 112.827 154.699 112.976C154.859 113.125 154.939 113.317 154.939 113.552C154.939 113.797 154.859 113.995 154.699 114.144C154.539 114.293 154.331 114.368 154.075 114.368ZM160.322 116.016C162.274 116.016 163.25 117.04 163.25 119.088V123.44C163.25 123.632 163.191 123.787 163.074 123.904C162.967 124.021 162.818 124.08 162.626 124.08C162.434 124.08 162.279 124.021 162.162 123.904C162.044 123.787 161.986 123.632 161.986 123.44V122.672C161.783 123.131 161.474 123.488 161.058 123.744C160.642 123.989 160.162 124.112 159.618 124.112C159.116 124.112 158.652 124.011 158.226 123.808C157.81 123.605 157.479 123.323 157.234 122.96C156.988 122.597 156.866 122.197 156.866 121.76C156.866 121.173 157.015 120.72 157.314 120.4C157.612 120.069 158.103 119.835 158.786 119.696C159.468 119.547 160.418 119.472 161.634 119.472H161.986V118.944C161.986 118.304 161.852 117.835 161.586 117.536C161.33 117.237 160.908 117.088 160.322 117.088C159.596 117.088 158.86 117.285 158.114 117.68C157.826 117.861 157.623 117.952 157.506 117.952C157.378 117.952 157.271 117.904 157.186 117.808C157.1 117.712 157.058 117.589 157.058 117.44C157.058 117.291 157.1 117.163 157.186 117.056C157.282 116.939 157.431 116.821 157.634 116.704C158.007 116.491 158.428 116.325 158.898 116.208C159.378 116.08 159.852 116.016 160.322 116.016ZM159.794 123.088C160.434 123.088 160.956 122.875 161.362 122.448C161.778 122.011 161.986 121.451 161.986 120.768V120.304H161.698C160.759 120.304 160.044 120.347 159.554 120.432C159.063 120.507 158.711 120.64 158.498 120.832C158.295 121.013 158.194 121.285 158.194 121.648C158.194 122.064 158.343 122.411 158.642 122.688C158.951 122.955 159.335 123.088 159.794 123.088ZM166.278 124.08C166.086 124.08 165.926 124.027 165.798 123.92C165.681 123.803 165.622 123.643 165.622 123.44V113.28C165.622 113.077 165.681 112.923 165.798 112.816C165.926 112.699 166.086 112.64 166.278 112.64C166.459 112.64 166.609 112.699 166.726 112.816C166.854 112.923 166.918 113.077 166.918 113.28V123.44C166.918 123.643 166.854 123.803 166.726 123.92C166.609 124.027 166.459 124.08 166.278 124.08ZM169.981 124.08C169.725 124.08 169.511 124 169.341 123.84C169.17 123.669 169.085 123.451 169.085 123.184C169.085 122.917 169.17 122.699 169.341 122.528C169.511 122.357 169.725 122.272 169.981 122.272C170.226 122.272 170.429 122.357 170.589 122.528C170.759 122.699 170.845 122.917 170.845 123.184C170.845 123.451 170.759 123.669 170.589 123.84C170.429 124 170.226 124.08 169.981 124.08Z" fill="#8792A4"/>
<circle cx="38.5" cy="44.5" r="24.5" fill="#004098" fill-opacity="0.13"/>
<path fill-rule="evenodd" clip-rule="evenodd" d="M43.95 52C43.7184 53.1411 42.7095 54 41.5 54H32.5C31.1193 54 30 52.8807 30 51.5V44.5C30 43.2905 30.8589 42.2816 32 42.05V41C32 38.2386 34.2386 36 37 36C39.7614 36 42 38.2386 42 41V42.05C43.1411 42.2816 44 43.2905 44 44.5V46H45.5C46.8807 46 48 47.1193 48 48.5V49.5C48 50.8807 46.8807 52 45.5 52H43.95ZM42.9146 52H38.5C37.1193 52 36 50.8807 36 49.5V48.5C36 47.1193 37.1193 46 38.5 46H43V44.5C43 43.7105 42.39 43.0634 41.6157 43.0044C41.5785 43.0132 41.5398 43.0178 41.5 43.0178C41.454 43.0178 41.4095 43.0116 41.3672 43H32.5C31.6716 43 31 43.6716 31 44.5V51.5C31 52.3284 31.6716 53 32.5 53H41.5C42.1531 53 42.7087 52.5826 42.9146 52ZM41 42H33V41C33 38.7909 34.7909 37 37 37C39.2091 37 41 38.7909 41 41V42ZM47 49.5V48.5C47 47.6716 46.3284 47 45.5 47H38.5C37.6716 47 37 47.6716 37 48.5V49.5C37 50.3284 37.6716 51 38.5 51H45.5C46.3284 51 47 50.3284 47 49.5ZM39.5 48H38.5C38.2239 48 38 48.2239 38 48.5V49.5C38 49.7761 38.2239 50 38.5 50H39.5C39.7761 50 40 49.7761 40 49.5V48.5C40 48.2239 39.7761 48 39.5 48ZM42.5 48C42.7761 48 43 48.2239 43 48.5V49.5C43 49.7761 42.7761 50 42.5 50H41.5C41.2239 50 41 49.7761 41 49.5V48.5C41 48.2239 41.2239 48 41.5 48H42.5ZM45.5 48H44.5C44.2239 48 44 48.2239 44 48.5V49.5C44 49.7761 44.2239 50 44.5 50H45.5C45.7761 50 46 49.7761 46 49.5V48.5C46 48.2239 45.7761 48 45.5 48Z" fill="#004098"/>
</svg>
