<svg width="49" height="49" viewBox="0 0 49 49" fill="none" xmlns="http://www.w3.org/2000/svg">
<circle cx="24.5" cy="24.5" r="24.5" fill="#004098" fill-opacity="0.13"/>
<path fill-rule="evenodd" clip-rule="evenodd" d="M21.9531 30.9847C21.7274 32.1334 20.7149 33 19.5 33H17.5C17.2239 33 17 32.7762 17 32.5V30.5C17 29.2851 17.8666 28.2726 19.0153 28.047L19.0272 27.7042C19.0471 27.1245 19.1068 26.5557 19.2035 26H15.5C15.1463 26 14.9044 25.6428 15.0358 25.3143L17.0358 20.3143C17.1117 20.1245 17.2956 20 17.5 20H22C22.0254 20 22.0503 20.0019 22.0747 20.0056C24.4291 17.3215 27.9247 15.677 31.7713 15.8096C32.382 15.8307 32.9902 15.8971 33.591 16.0084C33.7946 16.0461 33.9539 16.2054 33.9916 16.409C34.8122 20.8399 33.1523 25.1558 29.9947 27.9271C29.9982 27.9509 30 27.9753 30 28V32.5C30 32.7045 29.8755 32.8883 29.6857 32.9643L24.6857 34.9643C24.3573 35.0956 24 34.8537 24 34.5V30.795C23.4368 30.8937 22.8674 30.9532 22.2959 30.9729L21.9531 30.9847ZM20.9875 30.6946L19.3054 29.0125C18.5689 29.1079 18 29.7375 18 30.5V32H19.5C20.2625 32 20.8921 31.4311 20.9875 30.6946ZM25 33.7615V30.577C26.4714 30.1926 27.8179 29.5521 29 28.7132V32.1615L25 33.7615ZM19.4208 25C19.802 23.5415 20.4426 22.1915 21.2887 21H17.8385L16.2385 25H19.4208ZM22.2614 29.9735L21.6999 29.9928L20.0072 28.3001L20.0266 27.7386C20.2421 21.4868 25.485 16.5934 31.7368 16.809C32.1822 16.8244 32.6262 16.866 33.0665 16.9337C33.9957 22.96 29.9702 28.6729 23.9335 29.7908C23.3814 29.8931 22.8225 29.9541 22.2614 29.9735ZM27 26C25.3432 26 24 24.6569 24 23C24 21.3432 25.3432 20 27 20C28.6569 20 30 21.3432 30 23C30 24.6569 28.6569 26 27 26ZM29 23C29 24.1046 28.1046 25 27 25C25.8954 25 25 24.1046 25 23C25 21.8954 25.8954 21 27 21C28.1046 21 29 21.8954 29 23Z" fill="#004098"/>
</svg>
