<svg width="49" height="49" viewBox="0 0 49 49" fill="none" xmlns="http://www.w3.org/2000/svg">
<circle cx="24.5" cy="24.5" r="24.5" fill="#004098" fill-opacity="0.13"/>
<path fill-rule="evenodd" clip-rule="evenodd" d="M29.95 32C29.7184 33.1411 28.7095 34 27.5 34H18.5C17.1193 34 16 32.8807 16 31.5V24.5C16 23.2905 16.8589 22.2816 18 22.05V21C18 18.2386 20.2386 16 23 16C25.7614 16 28 18.2386 28 21V22.05C29.1411 22.2816 30 23.2905 30 24.5V26H31.5C32.8807 26 34 27.1193 34 28.5V29.5C34 30.8807 32.8807 32 31.5 32H29.95ZM28.9146 32H24.5C23.1193 32 22 30.8807 22 29.5V28.5C22 27.1193 23.1193 26 24.5 26H29V24.5C29 23.7105 28.39 23.0634 27.6157 23.0044C27.5785 23.0132 27.5398 23.0178 27.5 23.0178C27.454 23.0178 27.4095 23.0116 27.3672 23H18.5C17.6716 23 17 23.6716 17 24.5V31.5C17 32.3284 17.6716 33 18.5 33H27.5C28.1531 33 28.7087 32.5826 28.9146 32ZM27 22H19V21C19 18.7909 20.7909 17 23 17C25.2091 17 27 18.7909 27 21V22ZM33 29.5V28.5C33 27.6716 32.3284 27 31.5 27H24.5C23.6716 27 23 27.6716 23 28.5V29.5C23 30.3284 23.6716 31 24.5 31H31.5C32.3284 31 33 30.3284 33 29.5ZM25.5 28H24.5C24.2239 28 24 28.2239 24 28.5V29.5C24 29.7761 24.2239 30 24.5 30H25.5C25.7761 30 26 29.7761 26 29.5V28.5C26 28.2239 25.7761 28 25.5 28ZM28.5 28C28.7761 28 29 28.2239 29 28.5V29.5C29 29.7761 28.7761 30 28.5 30H27.5C27.2239 30 27 29.7761 27 29.5V28.5C27 28.2239 27.2239 28 27.5 28H28.5ZM31.5 28H30.5C30.2239 28 30 28.2239 30 28.5V29.5C30 29.7761 30.2239 30 30.5 30H31.5C31.7761 30 32 29.7761 32 29.5V28.5C32 28.2239 31.7761 28 31.5 28Z" fill="#004098"/>
</svg>
