<svg width="49" height="49" viewBox="0 0 49 49" fill="none" xmlns="http://www.w3.org/2000/svg">
<circle cx="24.5" cy="24.5" r="24.5" fill="#004098" fill-opacity="0.13"/>
<path fill-rule="evenodd" clip-rule="evenodd" d="M31.2944 22.2697C31.3209 22.243 31.3439 22.2142 31.3632 22.1836L33.2687 20.2752C33.2891 20.2547 33.3074 20.2329 33.3236 20.2101C33.743 19.7629 33.9999 19.1615 33.9999 18.5C33.9999 17.1193 32.8807 16 31.4999 16C30.8338 16 30.2285 16.2605 29.7804 16.6853C29.758 16.7012 29.7367 16.7192 29.7167 16.7393L16.7493 29.7203C15.7695 30.7016 15.7705 32.2898 16.7518 33.2729C17.7317 34.2506 19.3174 34.2488 20.2944 33.2697L31.1104 22.4369C31.1738 22.3847 31.2352 22.329 31.2944 22.2697ZM28.5149 19.3573C28.498 19.3818 28.4786 19.4052 28.4568 19.427C27.8671 20.0176 27.8677 20.9735 28.4588 21.5657C29.001 22.1067 29.8527 22.1481 30.4423 21.6907L31.1554 20.9765C30.0514 20.8243 29.1775 19.9513 29.0239 18.8477L28.5149 19.3573ZM27.0383 20.8355L17.4568 30.427C16.8671 31.0176 16.8677 31.9735 17.4588 32.5657C18.047 33.1526 18.9996 33.1515 19.5866 32.5632L29.1565 22.9785C28.6427 22.9032 28.1478 22.668 27.7518 22.2729C27.3478 21.8681 27.1099 21.3608 27.0383 20.8355ZM29.9999 29H30.4999C30.7761 29 30.9999 29.2239 30.9999 29.5C30.9999 29.7761 30.7761 30 30.4999 30H29.9999V30.5616C29.9999 30.8377 29.7761 31.0616 29.4999 31.0616C29.2238 31.0616 28.9999 30.8377 28.9999 30.5616V30H28.4999C28.2238 30 27.9999 29.7761 27.9999 29.5C27.9999 29.2239 28.2238 29 28.4999 29H28.9999V28.5C28.9999 28.2239 29.2238 28 29.4999 28C29.7761 28 29.9999 28.2239 29.9999 28.5V29ZM22.9999 16.5V17H22.4999C22.2238 17 21.9999 17.2239 21.9999 17.5C21.9999 17.7761 22.2238 18 22.4999 18H22.9999V18.5C22.9999 18.7761 23.2238 19 23.4999 19C23.7761 19 23.9999 18.7761 23.9999 18.5V18H24.4999C24.7761 18 24.9999 17.7761 24.9999 17.5C24.9999 17.2239 24.7761 17 24.4999 17H23.9999V16.5C23.9999 16.2239 23.7761 16 23.4999 16C23.2238 16 22.9999 16.2239 22.9999 16.5ZM34.9999 25H35.4999C35.7761 25 35.9999 25.2239 35.9999 25.5C35.9999 25.7761 35.7761 26 35.4999 26H34.9999V26.5C34.9999 26.7761 34.7761 27 34.4999 27C34.2238 27 33.9999 26.7761 33.9999 26.5V26H33.4999C33.2238 26 32.9999 25.7761 32.9999 25.5C32.9999 25.2239 33.2238 25 33.4999 25H33.9999V24.5C33.9999 24.2239 34.2238 24 34.4999 24C34.7761 24 34.9999 24.2239 34.9999 24.5V25ZM32.9999 18.5C32.9999 19.3284 32.3284 20 31.4999 20C30.6715 20 29.9999 19.3284 29.9999 18.5C29.9999 17.6716 30.6715 17 31.4999 17C32.3284 17 32.9999 17.6716 32.9999 18.5Z" fill="#004098"/>
</svg>
