<svg width="80" height="72" viewBox="0 0 80 72" fill="none" xmlns="http://www.w3.org/2000/svg">
<path fill-rule="evenodd" clip-rule="evenodd" d="M71.4546 54.9758V71.1818C71.4546 71.6336 71.0883 72 70.6364 72H46.091C45.6391 72 45.2728 71.6336 45.2728 71.1818V54.9758L42.0586 46.9402C41.8436 46.4028 42.2394 45.8182 42.8182 45.8182H59.1819C59.5165 45.8182 59.8173 46.0219 59.9415 46.3325L62.4546 52.6151L64.9677 46.3325C65.0919 46.0219 65.3928 45.8182 65.7273 45.8182H73.9091C74.488 45.8182 74.8838 46.4028 74.6688 46.9402L71.4546 54.9758ZM63.2728 55.6364V70.3636H69.8183V55.6364H63.2728ZM46.9092 55.6364H61.6365V70.3636H46.9092V55.6364ZM46.6449 54H61.2461L58.628 47.4545H44.0267L46.6449 54ZM72.7007 47.4545L70.0825 54H63.663L66.2812 47.4545H72.7007ZM60.0001 64.6364V67.909C60.0001 68.3609 59.6337 68.7273 59.1819 68.7273H54.2728C53.8209 68.7273 53.4546 68.3609 53.4546 67.909V64.6364C53.4546 64.1844 53.8209 63.8182 54.2728 63.8182H59.1819C59.6337 63.8182 60.0001 64.1844 60.0001 64.6364ZM55.091 65.4545H58.3637V67.0909H55.091V65.4545Z" fill="white"/>
<path d="M68.4806 28.6762L67.8182 28.1308V40.9091H64.1818V25.4546C64.1818 25.3529 64.1902 25.2533 64.2063 25.1562L38.7274 4.17355L13.2484 25.1562C13.2644 25.2533 13.2728 25.3529 13.2728 25.4546V56.3636C13.2728 59.3761 15.7148 61.8181 18.7273 61.8181H27.8183V41.8182C27.8183 38.8057 30.2603 36.3637 33.2728 36.3637H44.1819C47.1943 36.3637 49.6365 38.8057 49.6365 41.8182H46.0001C46.0001 40.814 45.186 40 44.1819 40H33.2728C32.2686 40 31.4546 40.814 31.4546 41.8182V63.6364C31.4546 64.6405 30.6405 65.4545 29.6364 65.4545H18.7273C13.7066 65.4545 9.63641 61.3844 9.63641 56.3636V28.1308L8.97407 28.6762C8.19893 29.3146 7.05308 29.2037 6.41472 28.4285C5.77638 27.6534 5.88727 26.5076 6.6624 25.8692L37.5715 0.414675C38.2429 -0.138225 39.2118 -0.138225 39.8832 0.414675L70.7922 25.8692C71.5673 26.5076 71.6783 27.6534 71.0399 28.4285C70.4016 29.2037 69.2557 29.3146 68.4806 28.6762Z" fill="white"/>
</svg>
