<svg width="49" height="49" viewBox="0 0 49 49" fill="none" xmlns="http://www.w3.org/2000/svg">
<circle cx="24.5" cy="24.5" r="24.5" fill="#004098" fill-opacity="0.13"/>
<path fill-rule="evenodd" clip-rule="evenodd" d="M19.5 24C17.0147 24 15 21.9853 15 19.5C15 17.0147 17.0147 15 19.5 15C21.9853 15 24 17.0147 24 19.5C24 21.9853 21.9853 24 19.5 24ZM19.5 29.7929L17.4039 27.6968C17.9882 27.2592 18.7138 27 19.5 27C20.2862 27 21.0118 27.2592 21.5961 27.6968L19.5 29.7929ZM16.6968 28.4039C16.2592 28.9882 16 29.7138 16 30.5C16 31.2862 16.2592 32.0118 16.6968 32.5961L18.7929 30.5L16.6968 28.4039ZM23 30.5C23 31.2862 22.7408 32.0118 22.3032 32.5961L20.2071 30.5L22.3032 28.4039C22.7408 28.9882 23 29.7138 23 30.5ZM19.5 31.2071L21.5961 33.3032C21.0118 33.7408 20.2862 34 19.5 34C18.7138 34 17.9882 33.7408 17.4039 33.3032L19.5 31.2071ZM23 19.5C23 21.433 21.433 23 19.5 23C17.567 23 16 21.433 16 19.5C16 17.567 17.567 16 19.5 16C21.433 16 23 17.567 23 19.5ZM20.6096 18.1877C20.7821 17.972 21.0967 17.9371 21.3123 18.1096C21.528 18.2821 21.5629 18.5967 21.3904 18.8123L19.3904 21.3123C19.2043 21.5451 18.8572 21.5643 18.6464 21.3536L17.6464 20.3536C17.4512 20.1583 17.4512 19.8417 17.6464 19.6464C17.8417 19.4512 18.1583 19.4512 18.3536 19.6464L18.9585 20.2514L20.6096 18.1877ZM26 18.5C26 18.7761 26.2239 19 26.5 19H34.5C34.7761 19 35 18.7761 35 18.5C35 18.2239 34.7761 18 34.5 18H26.5C26.2239 18 26 18.2239 26 18.5ZM26.5 21C26.2239 21 26 20.7761 26 20.5C26 20.2239 26.2239 20 26.5 20H32.5C32.7761 20 33 20.2239 33 20.5C33 20.7761 32.7761 21 32.5 21H26.5ZM15 30.5C15 32.9853 17.0147 35 19.5 35C21.9853 35 24 32.9853 24 30.5C24 28.0147 21.9853 26 19.5 26C17.0147 26 15 28.0147 15 30.5ZM26.5 30C26.2239 30 26 29.7761 26 29.5C26 29.2239 26.2239 29 26.5 29H34.5C34.7761 29 35 29.2239 35 29.5C35 29.7761 34.7761 30 34.5 30H26.5ZM26 31.5C26 31.7761 26.2239 32 26.5 32H32.5C32.7761 32 33 31.7761 33 31.5C33 31.2239 32.7761 31 32.5 31H26.5C26.2239 31 26 31.2239 26 31.5Z" fill="#004098"/>
</svg>
