<svg width="68" height="68" viewBox="0 0 68 68" fill="none" xmlns="http://www.w3.org/2000/svg">
<path d="M30.1466 27.3133C29.75 26.86 29.1266 26.5767 28.39 26.5767C27.6533 26.5767 27.03 26.86 26.6333 27.3133" stroke="#BDC5D1" stroke-miterlimit="10" stroke-linecap="round" stroke-linejoin="round"/>
<path d="M40.7433 27.3133C40.3467 26.86 39.7233 26.5767 38.9867 26.5767C38.25 26.5767 37.6266 26.86 37.23 27.3133" stroke="#BDC5D1" stroke-miterlimit="10" stroke-linecap="round" stroke-linejoin="round"/>
<path d="M20.5132 17.2267C21.5332 10.7101 27.0299 5.72339 33.6598 5.72339C40.2898 5.72339 45.8432 10.7101 46.8632 17.2267" stroke="#004098" stroke-miterlimit="10" stroke-linecap="round" stroke-linejoin="round"/>
<path d="M17.8501 16.6033C17.8501 7.87667 24.9334 0.793335 33.6601 0.793335C36.4934 0.793335 39.1568 1.53 41.4801 2.89C46.2401 5.61 49.4701 10.7667 49.4701 16.66" stroke="#004098" stroke-miterlimit="10" stroke-linecap="round" stroke-linejoin="round"/>
<path d="M28.5601 14.5634C29.5234 20.57 38.1934 23.12 46.3534 22.6667" stroke="#BDC5D1" stroke-miterlimit="10" stroke-linecap="round" stroke-linejoin="round"/>
<path d="M28.5601 14.5634C28.5601 19.04 25.3301 21.7034 21.0801 22.6667" stroke="#BDC5D1" stroke-miterlimit="10" stroke-linecap="round" stroke-linejoin="round"/>
<path d="M32.9235 37.6834L17.9068 35.53L17.7368 31.28" stroke="#004098" stroke-miterlimit="10" stroke-linecap="round" stroke-linejoin="round"/>
<path opacity="0.4" d="M33.8301 54.91L38.7601 60.4633C39.1567 60.9167 39.8934 60.9167 40.3467 60.4633L46.6934 53.55C47.0334 53.21 47.0334 52.7 46.8067 52.3033L43.9167 47.3167" fill="#BDC5D1"/>
<path d="M20.5135 48.96L10.9935 54.8533C10.0868 55.42 9.29347 56.1566 8.67014 57.0066C7.7068 58.3666 7.14014 60.01 7.14014 61.71V67.2066" stroke="#BDC5D1" stroke-miterlimit="10" stroke-linecap="round" stroke-linejoin="round"/>
<path d="M47.1465 48.96L57.0632 55.1366C59.4432 56.61 60.8598 59.2166 60.8598 61.9933V62.6166V67.2066" stroke="#BDC5D1" stroke-miterlimit="10" stroke-linecap="round" stroke-linejoin="round"/>
<path d="M33.8301 63.1833V67.2067" stroke="#BDC5D1" stroke-miterlimit="10" stroke-linecap="round" stroke-linejoin="round"/>
<path d="M33.8301 59.1033V59.9533" stroke="#BDC5D1" stroke-miterlimit="10" stroke-linecap="round" stroke-linejoin="round"/>
<path d="M47.0898 30.6567C47.0898 30.7134 47.0898 30.7134 47.0898 30.7701C46.3531 36.3234 43.2364 42.0467 37.9098 44.2567C32.6964 46.4101 27.1998 44.1434 23.9131 39.8367" stroke="#BDC5D1" stroke-miterlimit="10" stroke-linecap="round" stroke-linejoin="round"/>
<path opacity="0.4" d="M33.8299 54.91L28.8999 60.4633C28.5033 60.9167 27.7666 60.9167 27.3133 60.4633L21.0233 53.55C20.6833 53.21 20.6833 52.7 20.9099 52.3033L23.7999 47.3167" fill="#BDC5D1"/>
<path d="M17.6799 31.2799H17.2266C15.4133 31.2799 13.9399 29.8066 13.9399 27.9933V19.8899C13.9399 18.0766 15.4133 16.6033 17.2266 16.6033H17.6799C19.4933 16.6033 20.9666 18.0766 20.9666 19.8899V27.9933C20.9666 29.7499 19.4933 31.2799 17.6799 31.2799Z" fill="white" stroke="#004098" stroke-miterlimit="10" stroke-linecap="round" stroke-linejoin="round"/>
<path d="M50.1502 31.2799H49.6968C47.8835 31.2799 46.4102 29.8066 46.4102 27.9933V19.8899C46.4102 18.0766 47.8835 16.6033 49.6968 16.6033H50.1502C51.9635 16.6033 53.4368 18.0766 53.4368 19.8899V27.9366C53.4368 29.7499 51.9635 31.2799 50.1502 31.2799Z" fill="white" stroke="#004098" stroke-miterlimit="10" stroke-linecap="round" stroke-linejoin="round"/>
<path d="M41.8203 41.7067V45.1067" stroke="#BDC5D1" stroke-miterlimit="10" stroke-linecap="round" stroke-linejoin="round"/>
<path d="M26.1797 42.2167V45.3333" stroke="#BDC5D1" stroke-miterlimit="10" stroke-linecap="round" stroke-linejoin="round"/>
<path d="M33.8301 51.1134L39.5534 57.5734L47.2601 49.1867L43.9167 43.52" fill="#004098"/>
<path d="M33.8301 51.1134L39.5534 57.5734L47.2601 49.1867L43.9167 43.52" stroke="#004098" stroke-miterlimit="10" stroke-linecap="round" stroke-linejoin="round"/>
<path d="M33.8299 51.1134L28.1632 57.5734L20.4565 49.1867L23.7432 43.52" fill="#004098"/>
<path d="M33.8299 51.1134L28.1632 57.5734L20.4565 49.1867L23.7432 43.52" stroke="#004098" stroke-miterlimit="10" stroke-linecap="round" stroke-linejoin="round"/>
<path d="M43.9167 43.52L33.8301 51.1134" stroke="#004098" stroke-miterlimit="10" stroke-linecap="round" stroke-linejoin="round"/>
<path d="M23.7432 43.52L33.8298 51.1134" stroke="#004098" stroke-miterlimit="10" stroke-linecap="round" stroke-linejoin="round"/>
</svg>
