<svg width="68" height="68" viewBox="0 0 68 68" fill="none" xmlns="http://www.w3.org/2000/svg">
<path d="M58.3667 63.7499V39.4399" stroke="#BDC5D1" stroke-miterlimit="10" stroke-linecap="round" stroke-linejoin="round"/>
<path d="M61.8232 39.4399V63.7499" stroke="#BDC5D1" stroke-miterlimit="10" stroke-linecap="round" stroke-linejoin="round"/>
<path d="M6.17676 63.7499V39.4399" stroke="#BDC5D1" stroke-miterlimit="10" stroke-linecap="round" stroke-linejoin="round"/>
<path d="M9.6333 39.4399V63.7499" stroke="#BDC5D1" stroke-miterlimit="10" stroke-linecap="round" stroke-linejoin="round"/>
<path d="M23.5732 32.4133H20.1732C19.1532 32.4133 18.3032 31.5633 18.3032 30.5433V8.32996C18.3032 7.30996 19.1532 6.45996 20.1732 6.45996H47.8832C48.9032 6.45996 49.7532 7.30996 49.7532 8.32996V30.5433C49.7532 31.5633 48.9032 32.4133 47.8832 32.4133H44.4266" stroke="#BDC5D1" stroke-miterlimit="10" stroke-linecap="round" stroke-linejoin="round"/>
<path d="M34.6797 9.06665H36.2663" stroke="#004098" stroke-miterlimit="10" stroke-linecap="round" stroke-linejoin="round"/>
<path d="M20.5703 15.1866V20.91" stroke="#004098" stroke-miterlimit="10" stroke-linecap="round" stroke-linejoin="round"/>
<path d="M20.5703 23.97V26.01" stroke="#004098" stroke-miterlimit="10" stroke-linecap="round" stroke-linejoin="round"/>
<path d="M32.5269 54.6266V51.6799H35.4735V54.6266" stroke="#BDC5D1" stroke-miterlimit="10" stroke-linecap="round" stroke-linejoin="round"/>
<path d="M34 51.6233V48.8467" stroke="#BDC5D1" stroke-miterlimit="10" stroke-linecap="round" stroke-linejoin="round"/>
<path d="M44.71 43.1799L39.3267 46.2399V47.8266L34 48.8466L28.6734 47.8266V46.2399L23.29 43.1799" stroke="#BDC5D1" stroke-miterlimit="10" stroke-linecap="round" stroke-linejoin="round"/>
<path d="M46.07 42.7266C45.8434 41.3666 44.3134 40.63 43.4067 40.5166C41.99 40.3466 38.5334 40.63 36.21 40.8566C34.7367 41.0266 33.32 41.0266 31.8467 40.8566C29.5234 40.63 26.0667 40.29 24.65 40.5166C23.7434 40.63 22.2134 41.3666 21.9867 42.7266C21.93 43.0666 22.27 43.4066 22.61 43.2933C23.8567 43.01 26.8034 42.7266 30.6567 44.1433C31.96 44.6533 33.0934 44.8233 34.0567 44.7666C35.02 44.7666 36.1534 44.5966 37.4567 44.1433C41.31 42.7266 44.2567 43.01 45.5034 43.2933C45.7867 43.35 46.1267 43.0666 46.07 42.7266Z" stroke="#BDC5D1" stroke-miterlimit="10" stroke-linecap="round" stroke-linejoin="round"/>
<path d="M43.2935 16.7166C40.2335 15.3 38.1935 15.5266 34.0002 15.5266C29.8068 15.5266 27.7668 15.3 24.7068 16.7166C20.8535 18.53 22.7235 22.95 23.3468 24.48C24.7068 27.6533 25.2735 29.07 25.3868 32.4133C25.6135 38.9866 28.5035 37.7966 30.0902 37.4566C31.2235 37.23 32.7535 37.1166 33.9435 37.1166C35.1335 37.1166 36.6635 37.23 37.7968 37.4566C39.3835 37.74 42.2735 38.9866 42.5002 32.4133C42.6135 29.07 43.1802 27.6533 44.5402 24.48C45.2768 22.95 47.1468 18.4733 43.2935 16.7166Z" fill="#004098"/>
<path d="M31.2231 40.6866V31.0533C31.2231 29.5233 32.4698 28.2766 33.9998 28.2766C35.5298 28.2766 36.7765 29.5233 36.7765 31.0533V40.6866" stroke="#BDC5D1" stroke-miterlimit="10" stroke-linecap="round" stroke-linejoin="round"/>
<path d="M19.1533 60.86V58.1966L34 54.2866" stroke="#BDC5D1" stroke-miterlimit="10" stroke-linecap="round" stroke-linejoin="round"/>
<path d="M48.8467 60.86V58.1966L34 54.2866" stroke="#BDC5D1" stroke-miterlimit="10" stroke-linecap="round" stroke-linejoin="round"/>
<path d="M34 60.86V54.2866" stroke="#BDC5D1" stroke-miterlimit="10" stroke-linecap="round" stroke-linejoin="round"/>
<path d="M43.0664 60.8598V56.7231" stroke="#BDC5D1" stroke-miterlimit="10" stroke-linecap="round" stroke-linejoin="round"/>
<path d="M24.9331 60.8598V56.7231" stroke="#BDC5D1" stroke-miterlimit="10" stroke-linecap="round" stroke-linejoin="round"/>
<path d="M26.9731 62.5034C26.9731 63.6367 26.0664 64.5434 24.9331 64.5434C23.7997 64.5434 22.8931 63.6367 22.8931 62.5034C22.8931 61.37 23.7997 60.4634 24.9331 60.4634C26.0664 60.4634 26.9731 61.37 26.9731 62.5034Z" fill="#004098"/>
<path d="M21.1933 62.5034C21.1933 63.6367 20.2866 64.5434 19.1533 64.5434C18.0199 64.5434 17.1133 63.6367 17.1133 62.5034C17.1133 61.37 18.0199 60.4634 19.1533 60.4634C20.2866 60.4634 21.1933 61.37 21.1933 62.5034Z" fill="#004098"/>
<path d="M50.8866 62.5034C50.8866 63.6367 49.98 64.5434 48.8466 64.5434C47.7133 64.5434 46.8066 63.6367 46.8066 62.5034C46.8066 61.37 47.7133 60.4634 48.8466 60.4634C49.98 60.4634 50.8866 61.37 50.8866 62.5034Z" fill="#004098"/>
<path d="M45.1064 62.5034C45.1064 63.6367 44.1997 64.5434 43.0664 64.5434C41.933 64.5434 41.0264 63.6367 41.0264 62.5034C41.0264 61.37 41.933 60.4634 43.0664 60.4634C44.1997 60.4634 45.1064 61.37 45.1064 62.5034Z" fill="#004098"/>
<path d="M36.04 62.5034C36.04 63.6367 35.1333 64.5434 34 64.5434C32.8666 64.5434 31.96 63.6367 31.96 62.5034C31.96 61.37 32.8666 60.4634 34 60.4634C35.1333 60.4634 36.04 61.37 36.04 62.5034Z" fill="#004098"/>
<path d="M49.6399 62.5033C49.6399 62.9567 49.2433 63.3533 48.7899 63.3533C48.3366 63.3533 47.9399 62.9567 47.9399 62.5033C47.9399 62.05 48.3366 61.6533 48.7899 61.6533C49.2999 61.6533 49.6399 62.05 49.6399 62.5033Z" fill="white"/>
<path d="M43.9168 62.6166C43.9168 63.0699 43.5201 63.4666 43.0668 63.4666C42.6135 63.4666 42.2168 63.0699 42.2168 62.6166C42.2168 62.1633 42.6135 61.7666 43.0668 61.7666C43.5201 61.7666 43.9168 62.1633 43.9168 62.6166Z" fill="white"/>
<path d="M34.8499 62.5033C34.8499 62.9567 34.4532 63.3533 33.9999 63.3533C33.5466 63.3533 33.1499 62.9567 33.1499 62.5033C33.1499 62.05 33.5466 61.6533 33.9999 61.6533C34.4532 61.6533 34.8499 62.05 34.8499 62.5033Z" fill="white"/>
<path d="M25.7835 62.5033C25.7835 62.9567 25.3868 63.3533 24.9335 63.3533C24.4802 63.3533 24.0835 62.9567 24.0835 62.5033C24.0835 62.05 24.4802 61.6533 24.9335 61.6533C25.3868 61.6533 25.7835 62.05 25.7835 62.5033Z" fill="white"/>
<path d="M20.0032 62.5033C20.0032 62.9567 19.6066 63.3533 19.1532 63.3533C18.6999 63.3533 18.3032 62.9567 18.3032 62.5033C18.3032 62.05 18.6999 61.6533 19.1532 61.6533C19.6066 61.6533 20.0032 62.05 20.0032 62.5033Z" fill="white"/>
<path d="M20.8534 39.1567H0.906738V35.0767H23.5734" stroke="#BDC5D1" stroke-miterlimit="10" stroke-linecap="round" stroke-linejoin="round"/>
<path d="M47.1468 39.1567H67.0935V35.0767H44.3701" stroke="#BDC5D1" stroke-miterlimit="10" stroke-linecap="round" stroke-linejoin="round"/>
<path d="M66.4696 63.75H54.0596" stroke="#BDC5D1" stroke-miterlimit="10" stroke-linecap="round" stroke-linejoin="round"/>
<path d="M13.9398 63.75H1.52979" stroke="#BDC5D1" stroke-miterlimit="10" stroke-linecap="round" stroke-linejoin="round"/>
</svg>
