<svg width="68" height="68" viewBox="0 0 68 68" fill="none" xmlns="http://www.w3.org/2000/svg">
<path d="M49.9233 62.73H60.86" stroke="#004098" stroke-miterlimit="10" stroke-linecap="round" stroke-linejoin="round"/>
<path opacity="0.3" d="M13.9399 32.0734H66.6966C67.1499 32.0734 67.5466 32.47 67.5466 32.9234V66.98C67.5466 67.4334 67.1499 67.83 66.6966 67.83H14.7899C14.3366 67.83 13.9399 67.4334 13.9399 66.98V32.0734Z" fill="#BDC5D1"/>
<path d="M61.03 31.3367V67.0933H7.47998V31.3367" fill="white"/>
<path d="M61.03 31.3367V67.0933H7.47998V31.3367" stroke="#BDC5D1" stroke-miterlimit="10" stroke-linecap="round" stroke-linejoin="round"/>
<path opacity="0.5" d="M23.1201 31.3933V51.34L24.8201 49.64C25.3868 49.0733 26.2368 49.0733 26.8035 49.64L27.3135 50.2066C27.9368 50.8866 28.9001 50.7733 29.4668 50.0366C30.0335 49.2433 30.9968 49.1866 31.6201 49.8666L33.1501 51.3966V31.3933" fill="#BDC5D1"/>
<path d="M19.3232 31.3933V47.3166L21.0232 45.9566C21.5899 45.5033 22.4399 45.5033 23.0066 45.9566L23.5166 46.41C24.1399 46.92 25.1032 46.8633 25.6699 46.24C26.2366 45.6166 27.1999 45.56 27.8232 46.07L29.3532 47.3166V31.3933" fill="#004098"/>
<path d="M19.3232 31.3933V47.3166L21.0232 45.9566C21.5899 45.5033 22.4399 45.5033 23.0066 45.9566L23.5166 46.41C24.1399 46.92 25.1032 46.8633 25.6699 46.24C26.2366 45.6166 27.1999 45.56 27.8232 46.07L29.3532 47.3166V31.3933" stroke="#004098" stroke-miterlimit="10" stroke-linecap="round" stroke-linejoin="round"/>
<path d="M29.58 59.7833H19.1533" stroke="#004098" stroke-miterlimit="10" stroke-linecap="round" stroke-linejoin="round"/>
<path d="M29.5802 56.3833H26.2368" stroke="#004098" stroke-miterlimit="10" stroke-linecap="round" stroke-linejoin="round"/>
<path d="M23.5167 56.3833H19.1533" stroke="#004098" stroke-miterlimit="10" stroke-linecap="round" stroke-linejoin="round"/>
<path d="M21.873 31.3933V40.63" stroke="white" stroke-miterlimit="10" stroke-linecap="round" stroke-linejoin="round"/>
<path d="M42.6699 31.3367V55.25" stroke="#BDC5D1" stroke-miterlimit="10" stroke-linecap="round" stroke-linejoin="round"/>
<path d="M42.6699 60.1234V67.0934" stroke="#BDC5D1" stroke-miterlimit="10" stroke-linecap="round" stroke-linejoin="round"/>
<path d="M37.3432 31.3366H7.47986L1.35986 18.2466H36.4932L42.6132 31.3366H53.5499" stroke="#BDC5D1" stroke-miterlimit="10" stroke-linecap="round" stroke-linejoin="round"/>
<path d="M47.4864 20.74H37.6831" stroke="#BDC5D1" stroke-miterlimit="10" stroke-linecap="round" stroke-linejoin="round"/>
<path d="M34.2266 21.6467H7.6499" stroke="#BDC5D1" stroke-miterlimit="10" stroke-linecap="round" stroke-linejoin="round"/>
<path d="M65.62 21.6467H51.0566" stroke="#BDC5D1" stroke-miterlimit="10" stroke-linecap="round" stroke-linejoin="round"/>
<path d="M57.2334 17.9633C57.2334 17.2266 57.3467 16.5466 57.5167 15.8666" stroke="#004098" stroke-miterlimit="10" stroke-linecap="round" stroke-linejoin="round"/>
<path d="M56.6099 31.3366C56.6099 31.3366 60.3499 31.3366 60.9733 31.3366L67.0933 18.2466H48.7899L42.6699 31.3366" stroke="#BDC5D1" stroke-miterlimit="10" stroke-linecap="round" stroke-linejoin="round"/>
<path d="M4.30676 3.73997C3.17343 3.56997 2.0401 3.51331 0.850098 3.51331" stroke="#004098" stroke-miterlimit="10" stroke-linecap="round" stroke-linejoin="round"/>
<path d="M16.2067 14.6767C15.64 10.8233 12.9767 7.31 9.57666 5.44" stroke="#004098" stroke-miterlimit="10" stroke-linecap="round" stroke-linejoin="round"/>
<path d="M59.6699 11.1067C61.0299 9.57669 63.0133 8.84003 65.0533 8.84003" stroke="#004098" stroke-miterlimit="10" stroke-linecap="round" stroke-linejoin="round"/>
<path opacity="0.5" d="M39.723 15.3V12.92C41.4797 11.8433 42.613 9.91664 42.613 7.76331C42.613 4.36331 39.893 1.64331 36.493 1.64331C33.093 1.64331 30.373 4.41998 30.373 7.76331C30.373 9.97331 31.5064 11.8433 33.263 12.92V15.3" fill="#BDC5D1"/>
<path d="M37.4564 13.8266V11.4467C39.2131 10.37 40.3464 8.44332 40.3464 6.28998C40.3464 2.88998 37.6264 0.169983 34.2264 0.169983C30.8264 0.169983 28.1631 2.88998 28.1631 6.28998C28.1631 8.49998 29.2964 10.37 31.0531 11.4467V13.8266" fill="#004098"/>
<path d="M35.4166 8.83999V7.93332C36.04 7.53666 36.4933 6.85666 36.4933 6.00666C36.4933 4.75999 35.4733 3.73999 34.2266 3.73999C32.98 3.73999 31.96 4.75999 31.96 6.00666C31.96 6.79999 32.4133 7.53666 33.0366 7.93332V8.78332" fill="white"/>
</svg>
