<svg width="49" height="49" viewBox="0 0 49 49" fill="none" xmlns="http://www.w3.org/2000/svg">
<circle cx="24.5" cy="24.5" r="24.5" fill="#004098" fill-opacity="0.13"/>
<path fill-rule="evenodd" clip-rule="evenodd" d="M30.9156 16.2229L34.9156 22.2229C35.0406 22.4099 35.0256 22.6569 34.8786 22.8269L25.3786 33.8269C25.3651 33.8423 25.3489 33.8523 25.3326 33.8625C25.3224 33.8688 25.3122 33.8752 25.3026 33.8829C25.2962 33.8878 25.2901 33.8929 25.284 33.898C25.2691 33.9104 25.2543 33.9227 25.2366 33.9319C25.0876 34.0139 24.9116 34.0139 24.7626 33.9319C24.7449 33.9227 24.7301 33.9104 24.7152 33.898C24.7091 33.8929 24.703 33.8878 24.6966 33.8829C24.6872 33.8753 24.6772 33.8691 24.6673 33.8629C24.6509 33.8526 24.6347 33.8425 24.6216 33.8269L15.1216 22.8269C14.9746 22.6569 14.9596 22.4099 15.0836 22.2229L19.0836 16.2229C19.0846 16.2219 19.0856 16.2211 19.0866 16.2204C19.0876 16.2196 19.0886 16.2189 19.0896 16.2179C19.1306 16.1569 19.1866 16.1069 19.2526 16.0699C19.2632 16.0634 19.2747 16.0597 19.2865 16.056C19.2949 16.0533 19.3033 16.0506 19.3116 16.0469C19.3221 16.0427 19.3323 16.0379 19.3426 16.0332C19.3664 16.0221 19.3903 16.0111 19.4176 16.0069C19.4266 16.0053 19.4351 16.0062 19.4435 16.0072C19.4508 16.008 19.4581 16.0088 19.4656 16.0079C19.4716 16.0079 19.4771 16.0059 19.4826 16.0039C19.4881 16.0019 19.4936 15.9999 19.4996 15.9999H30.4996C30.5057 15.9999 30.5113 16.002 30.5168 16.004C30.5221 16.006 30.5272 16.0079 30.5326 16.0079C30.5407 16.0088 30.5485 16.008 30.5562 16.0071C30.5648 16.0062 30.5732 16.0053 30.5816 16.0069C30.6084 16.011 30.6319 16.0217 30.6557 16.0326C30.6665 16.0375 30.6773 16.0425 30.6886 16.0469C30.6969 16.0508 30.7055 16.0536 30.7142 16.0564C30.7255 16.06 30.7369 16.0637 30.7476 16.0699C30.8136 16.1069 30.8686 16.1569 30.9106 16.2179C30.9111 16.2189 30.9121 16.2196 30.9131 16.2204C30.9141 16.2211 30.9151 16.2219 30.9156 16.2229ZM20.0896 16.9999L20.8006 21.2649L23.9996 16.9999H20.0896ZM19.9096 21.9999H16.4336L19.2146 17.8299L19.9096 21.9999ZM30.0896 21.9999L30.7846 17.8299L33.5656 21.9999H30.0896ZM29.8356 22.9999H33.4066L26.6206 30.8579L29.8356 22.9999ZM23.3786 30.8579L20.1636 22.9999H16.5916L23.3786 30.8579ZM25.9996 16.9999H29.9096L29.1986 21.2649L25.9996 16.9999ZM24.9996 17.3329L21.4996 21.9999H28.4996L24.9996 17.3329ZM28.7546 22.9999L24.9996 32.1799L21.2446 22.9999H28.7546Z" fill="#004098"/>
</svg>
