<svg width="52" height="52" viewBox="0 0 52 52" fill="none" xmlns="http://www.w3.org/2000/svg">
<circle cx="26" cy="26" r="26" fill="#EDF1FD"/>
<path fill-rule="evenodd" clip-rule="evenodd" d="M34 32.5V24.736L34.1822 24.886C34.3953 25.0615 34.7104 25.031 34.886 24.8179C35.0615 24.6047 35.031 24.2896 34.8179 24.114L26.3179 17.114C26.1332 16.962 25.8668 16.962 25.6822 17.114L17.1822 24.114C16.969 24.2896 16.9385 24.6047 17.114 24.8179C17.2896 25.031 17.6047 25.0615 17.8179 24.886L18 24.736V32.5C18 33.8807 19.1193 35 20.5 35H23.5C23.7762 35 24 34.7761 24 34.5V28.5C24 28.2239 24.2239 28 24.5 28H27.5C27.7762 28 28 28.2239 28 28.5V34.5C28 34.7761 28.2239 35 28.5 35H31.5C32.8807 35 34 33.8807 34 32.5ZM26 18.1477L33.0067 23.918C33.0023 23.9446 33 23.9721 33 24V32.5C33 33.3284 32.3284 34 31.5 34H29V28.5C29 27.6716 28.3284 27 27.5 27H24.5C23.6716 27 23 27.6716 23 28.5V34H20.5C19.6716 34 19 33.3284 19 32.5V24C19 23.9721 18.9977 23.9446 18.9933 23.918L26 18.1477Z" fill="#4878EA"/>
</svg>
