<svg width="52" height="52" viewBox="0 0 52 52" fill="none" xmlns="http://www.w3.org/2000/svg">
<circle cx="26" cy="26" r="26" fill="#EEEBFD"/>
<path fill-rule="evenodd" clip-rule="evenodd" d="M26 36C20.4772 36 16 31.5228 16 26C16 20.4772 20.4772 16 26 16C31.5228 16 36 20.4772 36 26C36 31.5228 31.5228 36 26 36ZM26 35C30.9706 35 35 30.9706 35 26C35 21.0294 30.9706 17 26 17C21.0294 17 17 21.0294 17 26C17 30.9706 21.0294 35 26 35ZM29.9069 28.7906C30.0674 28.5659 30.0153 28.2536 29.7906 28.0931L26.4355 25.6966L24.9824 20.3684C24.9097 20.102 24.6349 19.945 24.3684 20.0176C24.102 20.0903 23.945 20.3651 24.0176 20.6316L25.5176 26.1316C25.5479 26.2427 25.6157 26.3399 25.7094 26.4069L29.2094 28.9069C29.4341 29.0674 29.7464 29.0153 29.9069 28.7906Z" fill="#5644E9"/>
</svg>
