<svg width="80" height="72" viewBox="0 0 80 72" fill="none" xmlns="http://www.w3.org/2000/svg">
<path fill-rule="evenodd" clip-rule="evenodd" d="M16.6666 32.3333H8.83334V30.375H4.91668V31.999C2.63484 31.1925 1 29.0163 1 26.4583V23.2959C1 22.5485 1.14262 21.808 1.4202 21.114L8.9734 2.23103C9.2708 1.48753 9.9909 1 10.7916 1H69.5416C70.3424 1 71.0625 1.48753 71.3599 2.23103L78.9131 21.114C79.1907 21.808 79.3334 22.5485 79.3334 23.2959V26.4583C79.3334 29.0163 77.6985 31.1925 75.4166 31.999V30.375H71.5V32.3333H63.6666C62.1619 32.3333 60.7894 31.7677 59.75 30.8374C58.7106 31.7677 57.338 32.3333 55.8333 32.3333H44.0833C42.5786 32.3333 41.206 31.7677 40.1666 30.8374C39.1272 31.7677 37.7547 32.3333 36.25 32.3333H24.5C22.9953 32.3333 21.6227 31.7677 20.5833 30.8374C19.5439 31.7677 18.1713 32.3333 16.6666 32.3333ZM71.5 32.3333H73.4584C74.1451 32.3333 74.8041 32.2155 75.4166 31.999V61.7083C75.4166 67.1161 71.0327 71.5 65.625 71.5H14.7083C9.30055 71.5 4.91668 67.1161 4.91668 61.7083V31.999C5.5292 32.2155 6.18834 32.3333 6.875 32.3333H8.83334V61.7083C8.83334 64.953 11.4636 67.5833 14.7083 67.5833H65.625C68.8696 67.5833 71.5 64.953 71.5 61.7083V32.3333ZM16.6666 46.0417V67.5833H20.5833V46.0417C20.5833 44.9601 21.4601 44.0833 22.5416 44.0833H34.2916C35.3732 44.0833 36.25 44.9601 36.25 46.0417V67.5833H40.1666V46.0417C40.1666 42.797 37.5363 40.1667 34.2916 40.1667H22.5416C19.297 40.1667 16.6666 42.797 16.6666 46.0417ZM51.9166 46.0417V53.875C51.9166 54.9565 52.7934 55.8333 53.875 55.8333H57.7916C58.8732 55.8333 59.75 54.9565 59.75 53.875V46.0417C59.75 44.9601 58.8732 44.0833 57.7916 44.0833H53.875C52.7934 44.0833 51.9166 44.9601 51.9166 46.0417ZM53.8749 40.1667C50.6303 40.1667 47.9999 42.797 47.9999 46.0417V53.875C47.9999 57.1197 50.6303 59.75 53.8749 59.75H57.7916C61.0363 59.75 63.6666 57.1197 63.6666 53.875V46.0417C63.6666 42.797 61.0363 40.1667 57.7916 40.1667H53.8749ZM5.05674 22.5686L12.1175 4.91667H68.2159L75.2766 22.5686C75.3691 22.8 75.4166 23.0468 75.4166 23.2959V26.4583C75.4166 27.5399 74.54 28.4167 73.4584 28.4167H63.6666C62.5851 28.4167 61.7083 27.5399 61.7083 26.4583V22.5417C61.7083 21.4601 60.8315 20.5833 59.75 20.5833C58.6684 20.5833 57.7916 21.4601 57.7916 22.5417V26.4583C57.7916 27.5399 56.9148 28.4167 55.8333 28.4167H44.0833C43.0017 28.4167 42.125 27.5399 42.125 26.4583V22.5417C42.125 21.4601 41.2482 20.5833 40.1666 20.5833C39.0851 20.5833 38.2083 21.4601 38.2083 22.5417V26.4583C38.2083 27.5399 37.3315 28.4167 36.25 28.4167H24.5C23.4184 28.4167 22.5416 27.5399 22.5416 26.4583V22.5417C22.5416 21.4601 21.6648 20.5833 20.5833 20.5833C19.5017 20.5833 18.625 21.4601 18.625 22.5417V26.4583C18.625 27.5399 17.7482 28.4167 16.6666 28.4167H6.87501C5.79345 28.4167 4.91668 27.5399 4.91668 26.4583V23.2959C4.91668 23.0468 4.96422 22.8 5.05674 22.5686Z" fill="white"/>
</svg>
