<svg width="49" height="49" viewBox="0 0 49 49" fill="none" xmlns="http://www.w3.org/2000/svg">
<circle cx="24.5" cy="24.5" r="24.5" fill="#004098" fill-opacity="0.13"/>
<path fill-rule="evenodd" clip-rule="evenodd" d="M31.5 18H26V17.4927C26 16.6642 25.3284 15.9927 24.5 15.9927H19.5C18.6716 15.9927 18 16.6642 18 17.4927V33.5C18 33.7762 18.2239 34 18.5 34C18.7761 34 19 33.7762 19 33.5V25H24.5C24.7761 25 25 25.2239 25 25.5C25 26.3285 25.6716 27 26.5 27H31.5C31.912 27 32.1472 26.5296 31.9 26.2L29.125 22.5L31.9 18.8C32.1472 18.4704 31.912 18 31.5 18ZM26 20.5V19H30.5L28.1 22.2C27.9667 22.3778 27.9667 22.6222 28.1 22.8L30.5 26H26.5C26.2239 26 26 25.7762 26 25.5C26 24.6716 25.3284 24 24.5 24H19V17.4927C19 17.2165 19.2239 16.9927 19.5 16.9927H24.5C24.7761 16.9927 25 17.2165 25 17.4927V18.498L25 18.5L25 18.502V20.5C25 20.7762 25.2239 21 25.5 21C25.7761 21 26 20.7762 26 20.5Z" fill="#004098"/>
</svg>
