<svg width="96" height="72" viewBox="0 0 96 72" fill="none" xmlns="http://www.w3.org/2000/svg">
<path fill-rule="evenodd" clip-rule="evenodd" d="M76.4018 26.9621C80.186 24.184 85.5265 24.3744 89.1124 27.672L95.0155 33.1005C95.8305 33.8499 95.8837 35.1183 95.1341 35.9335L89.7056 41.8365C86.408 45.4224 81.102 46.0586 77.0989 43.6067L76.1337 44.5865C74.5014 46.243 72.781 47.7601 70.9875 49.1376L81.9187 59.19C82.9627 60.1501 82.7069 61.8612 81.4277 62.4739L61.9533 71.8032C61.214 72.1574 60.3334 72.0257 59.73 71.4708L46.4479 59.2566C46.3729 59.1877 46.3045 59.1143 46.2424 59.0375C32.0079 60.5692 17.2269 55.9351 6.23339 45.1029C4.48811 43.3832 2.87312 41.5361 1.40177 39.5769C0.903167 38.9131 0.865369 38.0105 1.3067 37.3073C10.9116 22.0019 27.5255 13.7686 44.3673 14.1594C44.4216 14.0797 44.4823 14.003 44.5495 13.9299L56.7638 0.647871C57.3188 0.044418 58.1851 -0.16038 58.9515 0.130755L79.1379 7.79899C80.4639 8.30268 80.8619 9.98631 79.9016 11.0304L69.8452 21.9661C71.7755 23.2033 73.6175 24.5733 75.3579 26.0665L76.4018 26.9621ZM78.4644 30.439L78.8635 39.9694C81.2963 41.6869 84.6843 41.3728 86.7538 39.1222L90.8252 34.6949L86.3979 30.6235C84.1475 28.5539 80.7449 28.5241 78.4644 30.439ZM74.9456 10.4958L66.3022 19.895C60.9158 17.0362 55.2029 15.2716 49.437 14.539L58.7965 4.36126L74.9456 10.4958ZM67.6319 51.4995C62.5477 54.7696 56.9928 57.0156 51.2614 58.2356L61.4449 67.6003L77.0246 60.137L67.6319 51.4995ZM72.7467 29.1098L74.4564 30.5767L74.8582 40.1674L73.2771 41.772C55.6715 59.6396 26.915 59.8521 9.04747 42.2466C7.77458 40.9924 6.57711 39.6645 5.46118 38.2698C19.0757 17.9604 46.4637 12.0247 67.3157 25.1103C69.2227 26.3071 71.0379 27.6439 72.7467 29.1098ZM47.9757 27.9759C52.866 32.473 53.1848 40.0831 48.6875 44.9734C44.1904 49.8636 36.5804 50.1824 31.69 45.6853C26.7999 41.188 26.4811 33.5781 30.9782 28.6878C35.4754 23.7974 43.0854 23.4786 47.9757 27.9759ZM33.9296 31.4021C36.9279 28.1418 42.0012 27.9293 45.2614 30.9274C48.5215 33.9256 48.734 38.9989 45.7359 42.2591C42.7379 45.5193 37.6645 45.7317 34.4044 42.7337C31.144 39.7356 30.9316 34.6622 33.9296 31.4021Z" fill="white"/>
</svg>
