<svg width="52" height="52" viewBox="0 0 52 52" fill="none" xmlns="http://www.w3.org/2000/svg">
<circle cx="26" cy="26" r="26" fill="#EEF9F4"/>
<path fill-rule="evenodd" clip-rule="evenodd" d="M18.5414 33.0349C18.6063 33.0349 18.6683 33.0225 18.7252 33H34.5C35.8807 33 37 31.8807 37 30.5V21.5C37 20.1193 35.8807 19 34.5 19H17.5C16.1193 19 15 20.1193 15 21.5V30.5C15 31.8807 16.1193 33 17.5 33H18.3576C18.4145 33.0225 18.4765 33.0349 18.5414 33.0349ZM19 20.5V20H33V20.5C33 21.8807 34.1193 23 35.5 23H36V29H35.5C34.1193 29 33 30.1193 33 31.5V32H19.0414V31.5C19.0414 30.1193 17.9221 29 16.5414 29H16V23H16.5C17.8807 23 19 21.8807 19 20.5ZM17.5 20H18V20.5C18 21.3284 17.3284 22 16.5 22H16V21.5C16 20.6716 16.6716 20 17.5 20ZM18.0414 32V31.5C18.0414 30.6716 17.3698 30 16.5414 30H16V30.5C16 31.3284 16.6716 32 17.5 32H18.0414ZM34 32H34.5C35.3284 32 36 31.3284 36 30.5V30H35.5C34.6716 30 34 30.6716 34 31.5V32ZM34 20.5V20H34.5C35.3284 20 36 20.6716 36 21.5V22H35.5C34.6716 22 34 21.3284 34 20.5ZM26 30C23.7909 30 22 28.2091 22 26C22 23.7909 23.7909 22 26 22C28.2091 22 30 23.7909 30 26C30 28.2091 28.2091 30 26 30ZM29 26C29 27.6569 27.6569 29 26 29C24.3431 29 23 27.6569 23 26C23 24.3431 24.3431 23 26 23C27.6569 23 29 24.3431 29 26Z" fill="#5BC590"/>
</svg>
