<svg width="68" height="68" viewBox="0 0 68 68" fill="none" xmlns="http://www.w3.org/2000/svg">
<path d="M40.4032 44.2567H55.3065L57.0065 48.3367H38.6465L40.4032 44.2567Z" stroke="#BDC5D1" stroke-miterlimit="10" stroke-linecap="round" stroke-linejoin="round"/>
<g opacity="0.5">
<path opacity="0.5" d="M52.1333 10.4266H58.99C60.7466 10.4266 62.1066 11.8433 62.1066 13.5433V49.9233" stroke="#BDC5D1" stroke-miterlimit="10" stroke-linecap="round" stroke-linejoin="round"/>
<path opacity="0.5" d="M28.5601 54.7966H4.02341C2.26674 54.7966 0.906738 53.38 0.906738 51.68V13.5433C0.906738 11.7866 2.32341 10.4266 4.02341 10.4266H25.7267" stroke="#BDC5D1" stroke-miterlimit="10" stroke-linecap="round" stroke-linejoin="round"/>
<path opacity="0.5" d="M0.850098 45.22H37.5134" stroke="#BDC5D1" stroke-miterlimit="10" stroke-linecap="round" stroke-linejoin="round"/>
<path opacity="0.5" d="M57.8003 45.22H61.767" stroke="#BDC5D1" stroke-miterlimit="10" stroke-linecap="round" stroke-linejoin="round"/>
<g opacity="0.5">
<path opacity="0.5" d="M23.8001 54.7966L21.9868 63.41" stroke="#BDC5D1" stroke-miterlimit="10" stroke-linecap="round" stroke-linejoin="round"/>
</g>
<path opacity="0.5" d="M28.5601 63.41H15.7534" stroke="#BDC5D1" stroke-miterlimit="10" stroke-linecap="round" stroke-linejoin="round"/>
</g>
<path d="M24.0834 25.67C24.3101 24.9333 24.4234 24.14 24.4234 23.29C24.4234 19.38 21.5901 16.49 18.1334 16.49C14.6768 16.49 11.9001 19.4367 11.9001 23.3467C11.9001 24.1967 12.0134 24.99 12.2401 25.7267C11.7301 26.0667 11.4468 26.6333 11.4468 27.2567C11.4468 28.1067 12.0134 28.7867 12.7501 29.0133C13.6568 31.6767 15.7534 33.6033 18.1901 33.6033C20.6268 33.6033 22.7234 31.7333 23.6301 29.0133C24.3668 28.73 24.9334 28.05 24.9334 27.2C24.9334 26.5767 24.5934 26.01 24.0834 25.67Z" stroke="#BDC5D1" stroke-miterlimit="10" stroke-linecap="round" stroke-linejoin="round"/>
<path d="M22.5532 23.0066C22.3832 22.27 21.8732 22.27 21.2499 22.27C21.0232 22.27 20.9099 20.6266 20.9099 20.6266C20.9099 20.6266 20.2299 20.6266 19.0965 21.6466C16.7165 23.7433 14.1099 22.1 14.1099 22.1" stroke="#BDC5D1" stroke-miterlimit="10" stroke-linecap="round" stroke-linejoin="round"/>
<path d="M23.6299 36.3233L29.5799 38.8166C30.6565 39.3833 31.1099 40.46 31.1099 41.5933V41.82V44.9933" stroke="#BDC5D1" stroke-miterlimit="10" stroke-linecap="round" stroke-linejoin="round"/>
<path d="M18.2466 37.1733L20.5699 39.78L23.6866 36.4367L22.3266 34.1133" stroke="#004098" stroke-miterlimit="10" stroke-linecap="round" stroke-linejoin="round"/>
<path d="M12.8632 36.3233L7.02658 38.7033C6.62992 38.93 6.34658 39.2133 6.11992 39.5533C5.72325 40.12 5.49658 40.7433 5.49658 41.48V44.9933" stroke="#BDC5D1" stroke-miterlimit="10" stroke-linecap="round" stroke-linejoin="round"/>
<path d="M18.2466 37.1733L15.9799 39.78L12.8633 36.4367L14.1666 34.1133" stroke="#004098" stroke-miterlimit="10" stroke-linecap="round" stroke-linejoin="round"/>
<path d="M22.3266 34.1133L18.2466 37.1733" stroke="#004098" stroke-miterlimit="10" stroke-linecap="round" stroke-linejoin="round"/>
<path d="M14.1665 34.1133L18.2465 37.1733" stroke="#004098" stroke-miterlimit="10" stroke-linecap="round" stroke-linejoin="round"/>
<path d="M35.7568 62.22V66.8667" stroke="#BDC5D1" stroke-miterlimit="10" stroke-linecap="round" stroke-linejoin="round"/>
<path d="M60.4634 62.22V66.8667" stroke="#BDC5D1" stroke-miterlimit="10" stroke-linecap="round" stroke-linejoin="round"/>
<path d="M51.1703 44.2567V43.0667C53.267 41.9333 54.9103 39.78 55.817 37.1167C56.9503 36.7767 57.8003 35.7567 57.8003 34.4533C57.8003 33.49 57.2903 32.64 56.6103 32.13C56.9503 30.9967 57.177 29.8067 57.177 28.6167C57.177 22.7233 52.927 18.36 47.7136 18.36C42.5003 18.36 38.2503 22.78 38.2503 28.6167C38.2503 29.8633 38.4203 31.0533 38.817 32.13C38.0803 32.64 37.627 33.49 37.627 34.4533C37.627 35.7 38.477 36.7767 39.6103 37.1167C40.517 39.78 42.1603 41.9333 44.257 43.0667V44.2567" stroke="#BDC5D1" stroke-miterlimit="10" stroke-linecap="round" stroke-linejoin="round"/>
<path d="M67.1501 66.8666V55.6466V55.3066C67.1501 53.6066 66.4701 51.9633 64.8268 51.1133L57.0635 48.28V48.3366" stroke="#BDC5D1" stroke-miterlimit="10" stroke-linecap="round" stroke-linejoin="round"/>
<path d="M38.7601 48.11L30.8834 50.9433C30.3167 51.2833 29.8634 51.7366 29.4667 52.2466C28.9001 53.0966 28.5601 54.06 28.5601 55.1367V66.8666" stroke="#BDC5D1" stroke-miterlimit="10" stroke-linecap="round" stroke-linejoin="round"/>
<path opacity="0.5" d="M55.1368 56.78L48.6768 63.24" stroke="#BDC5D1" stroke-miterlimit="10" stroke-linecap="round" stroke-linejoin="round"/>
<path opacity="0.5" d="M54.3999 61.4833L52.2466 63.6367" stroke="#BDC5D1" stroke-miterlimit="10" stroke-linecap="round" stroke-linejoin="round"/>
<path d="M56.6103 32.1867C55.9303 34.17 53.8903 35.9833 52.6436 36.9467C52.4736 37.06 51.2836 35.53 51.2836 35.53C51.2836 35.53 50.5469 38.25 50.1503 38.3633C46.5236 39.7233 42.0469 38.0233 38.7603 32.13" stroke="#BDC5D1" stroke-miterlimit="10" stroke-linecap="round" stroke-linejoin="round"/>
<path opacity="0.5" d="M49.4134 4.25H27.88C26.52 4.25 25.4434 5.32667 25.4434 6.68667V14.79C25.4434 16.15 26.52 17.2267 27.88 17.2267H29.92V21.1933L36.21 17.2267H49.4134C50.7734 17.2267 51.85 16.15 51.85 14.79V6.68667C51.85 5.32667 50.7734 4.25 49.4134 4.25Z" fill="#BDC5D1"/>
<path d="M46.1267 1.13336H24.5934C23.2334 1.13336 22.1567 2.21003 22.1567 3.57003V11.6734C22.1567 13.0334 23.2334 14.11 24.5934 14.11H26.6334V18.0767L32.9234 14.11H46.1267C47.4867 14.11 48.5634 13.0334 48.5634 11.6734V3.57003C48.5634 2.21003 47.4867 1.13336 46.1267 1.13336Z" fill="#004098"/>
<path d="M41.8766 5.83667H28.8433" stroke="white" stroke-miterlimit="10" stroke-linecap="round" stroke-linejoin="round"/>
<path d="M31.8466 9.34998H28.8433" stroke="white" stroke-miterlimit="10" stroke-linecap="round" stroke-linejoin="round"/>
</svg>
