<svg width="80" height="72" viewBox="0 0 80 72" fill="none" xmlns="http://www.w3.org/2000/svg">
<path d="M28 7.50011C28 8.32856 28.6715 9.00008 29.5 9.00008H38.5C39.3284 9.00008 39.9999 8.32856 39.9999 7.50011C39.9999 6.67168 39.3284 6.0001 38.5 6.0001H29.5C28.6715 6.0001 28 6.67168 28 7.50011Z" fill="white"/>
<path fill-rule="evenodd" clip-rule="evenodd" d="M38.5 21.0001C42.874 21.0001 46 23.605 46 28.5001C46 33.1784 42.1638 37.5627 34.7442 41.8024C34.2831 42.0659 33.7169 42.0659 33.2558 41.8024C25.8362 37.5627 22 33.1784 22 28.5001C22 23.605 25.1259 21.0001 29.5 21.0001C31.3023 21.0001 32.8224 21.6483 34 22.8826C35.1775 21.6483 36.6977 21.0001 38.5 21.0001ZM38.5 24.0001C41.3259 24.0001 42.9999 25.3951 42.9999 28.5001C42.9999 31.6939 40.0748 35.1597 34 38.7644C27.9251 35.1597 25 31.6939 25 28.5001C25 25.3951 26.6741 24.0001 29.5 24.0001C30.9107 24.0001 31.904 24.6623 32.6583 26.1709C33.2111 27.2765 34.7888 27.2765 35.3416 26.1709C36.0959 24.6623 37.0892 24.0001 38.5 24.0001Z" fill="white"/>
<path fill-rule="evenodd" clip-rule="evenodd" d="M16 55.5C16 59.6421 19.3579 63 23.5 63H35.4999C35.6027 63 35.7028 62.9897 35.7997 62.97L43.3789 71.4965C43.9292 72.1157 44.8773 72.1715 45.4965 71.6211C46.1156 71.0707 46.1715 70.1226 45.6211 69.5035L35.1968 57.7761C34.5783 57.0804 34.3787 56.1074 34.7115 55.1089C34.9322 54.4467 35.5519 54 36.3235 54.0001C37.2646 54.0001 38.181 54.2944 38.9451 54.8418C40.9545 56.2811 43.3211 57 46 57C49.3136 57 51.9999 54.3137 51.9999 51.0001V33.1064C57.0883 33.8342 60.9999 38.2104 60.9999 43.5V70.5C60.9999 71.3285 61.6715 72 62.4999 72C63.3283 72 63.9999 71.3285 63.9999 70.5V43.5C63.9999 36.5512 58.7498 30.8286 51.9999 30.0825V7.49999C51.9999 3.35786 48.6421 0 44.5 0L23.5 1.79234e-06C19.3579 1.79234e-06 16 3.35786 16 7.49999V55.5ZM32.9545 59.7692C31.6232 58.2715 31.1933 56.1767 31.8269 54.2757C32.4945 52.273 34.2606 51.0001 36.2512 51.0001C37.8913 51.0001 39.4186 51.4907 40.6921 52.4029C42.1778 53.4672 43.932 54 46 54C47.6568 54 48.9999 52.6569 48.9999 51.0001L49 7.49999C49 5.01471 46.9852 3 44.5 2.99999L23.5 3C21.0147 3 19 5.01471 19 7.49999V55.5C19 57.9853 21.0147 60 23.5 60H33.1597L32.9545 59.7692Z" fill="white"/>
</svg>
