<svg width="52" height="52" viewBox="0 0 52 52" fill="none" xmlns="http://www.w3.org/2000/svg">
<circle cx="26" cy="26" r="26" fill="#FDF5E5"/>
<path fill-rule="evenodd" clip-rule="evenodd" d="M35 21.9146V32.5C35 33.8807 33.8807 35 32.5 35H19.5C18.1193 35 17 33.8807 17 32.5V21.9146C16.4174 21.7087 16 21.1531 16 20.5V18.5C16 17.6716 16.6716 17 17.5 17H34.5C35.3284 17 36 17.6716 36 18.5V20.5C36 21.1531 35.5826 21.7087 35 21.9146ZM17 18.5V20.5C17 20.7761 17.2239 21 17.5 21H34.5C34.7761 21 35 20.7761 35 20.5V18.5C35 18.2239 34.7761 18 34.5 18H17.5C17.2239 18 17 18.2239 17 18.5ZM18 22H34V32.5C34 33.3284 33.3284 34 32.5 34H19.5C18.6716 34 18 33.3284 18 32.5V22ZM22 25.5C22 24.6716 22.6716 24 23.5 24H28.5C29.3284 24 30 24.6716 30 25.5C30 26.3284 29.3284 27 28.5 27H23.5C22.6716 27 22 26.3284 22 25.5ZM23.5 26C23.2239 26 23 25.7761 23 25.5C23 25.2239 23.2239 25 23.5 25H28.5C28.7761 25 29 25.2239 29 25.5C29 25.7761 28.7761 26 28.5 26H23.5Z" fill="#F3BE50"/>
</svg>
