<svg width="32" height="32" viewBox="0 0 32 32" fill="none" xmlns="http://www.w3.org/2000/svg">
<circle cx="16" cy="16" r="16" fill="white"/>
<path d="M19.3 12.7H19.306M13 10H19C20.6569 10 22 11.3431 22 13V19C22 20.6569 20.6569 22 19 22H13C11.3431 22 10 20.6569 10 19V13C10 11.3431 11.3431 10 13 10ZM18.4 15.622C18.474 16.1213 18.3888 16.6313 18.1563 17.0794C17.9238 17.5275 17.5559 17.8908 17.105 18.1178C16.6541 18.3448 16.1431 18.4238 15.6447 18.3436C15.1463 18.2634 14.6859 18.0281 14.3289 17.6711C13.972 17.3141 13.7366 16.8537 13.6564 16.3553C13.5762 15.8569 13.6552 15.3459 13.8822 14.895C14.1092 14.4441 14.4725 14.0762 14.9206 13.8437C15.3687 13.6112 15.8787 13.526 16.378 13.6C16.8874 13.6755 17.3589 13.9129 17.723 14.277C18.0871 14.6411 18.3245 15.1126 18.4 15.622Z" stroke="#004098" stroke-linecap="round" stroke-linejoin="round"/>
</svg>
