<svg width="32" height="32" viewBox="0 0 32 32" fill="none" xmlns="http://www.w3.org/2000/svg">
<circle cx="16" cy="16" r="16" fill="white"/>
<path d="M18.8421 13.7895C19.8471 13.7895 20.811 14.1887 21.5217 14.8994C22.2323 15.61 22.6316 16.5739 22.6316 17.5789V22H20.1053V17.5789C20.1053 17.2439 19.9722 16.9226 19.7353 16.6858C19.4984 16.4489 19.1771 16.3158 18.8421 16.3158C18.5071 16.3158 18.1858 16.4489 17.9489 16.6858C17.712 16.9226 17.5789 17.2439 17.5789 17.5789V22H15.0526V17.5789C15.0526 16.5739 15.4519 15.61 16.1625 14.8994C16.8732 14.1887 17.8371 13.7895 18.8421 13.7895Z" stroke="#004098" stroke-linecap="round" stroke-linejoin="round"/>
<path d="M12.5263 14.4211H10V22H12.5263V14.4211Z" stroke="#004098" stroke-linecap="round" stroke-linejoin="round"/>
<path d="M11.2632 12.5263C11.9608 12.5263 12.5263 11.9608 12.5263 11.2632C12.5263 10.5655 11.9608 10 11.2632 10C10.5655 10 10 10.5655 10 11.2632C10 11.9608 10.5655 12.5263 11.2632 12.5263Z" stroke="#004098" stroke-linecap="round" stroke-linejoin="round"/>
</svg>
