<svg xmlns="http://www.w3.org/2000/svg" viewBox="0 0 748.33 92.89"><defs><style>.cls-1{fill:#e0040b;}.cls-1,.cls-3{fill-rule:evenodd;}.cls-2,.cls-3{fill:#fff;}</style></defs><g id="Capa_2" data-name="Capa 2"><g id="Capa_1-2" data-name="Capa 1"><polygon class="cls-1" points="747.41 90.6 210.15 90.6 215.01 75.12 747.41 75.12 747.41 90.6"/><path class="cls-2" d="M426.85,40.66a1.75,1.75,0,0,1-1.3.45,1.29,1.29,0,0,1-.49-.07c-.14,0-.44-.14-.88-.32l-1.48-.61a6.6,6.6,0,0,0-.7-.22,3.85,3.85,0,0,0-.91-.1,5,5,0,0,0-3.77,1.66,10.94,10.94,0,0,0-1.73,2.73h2.28a3.14,3.14,0,0,1,.9-1.1,2,2,0,0,1,1.17-.39,4.91,4.91,0,0,1,.55,0,4.71,4.71,0,0,1,.56.15l1.26.48a9.49,9.49,0,0,0,1.06.31,5.61,5.61,0,0,0,1.46.25,4.13,4.13,0,0,0,3.05-1.23A9.56,9.56,0,0,0,430,39.62h-2.33a4.8,4.8,0,0,1-.78,1"/><path class="cls-2" d="M404.47,47.39a8.42,8.42,0,0,0-4.05-.9,11.05,11.05,0,0,0-7.22,2.65,14.1,14.1,0,0,0-4.53,7.62c-.93,3.49-.67,6,.76,7.61a7.55,7.55,0,0,0,5.82,2.34,11.18,11.18,0,0,0,7.61-2.78,9.16,9.16,0,0,0,2.68-3.43h-5.1a6.59,6.59,0,0,1-1.28,1.3,4.6,4.6,0,0,1-2.74.89,3.45,3.45,0,0,1-2.3-.74c-.92-.75-1.18-2.1-.74-4h13.08a24.42,24.42,0,0,0,.81-3.77,7.8,7.8,0,0,0-.4-3.95,5,5,0,0,0-2.4-2.82m-2.33,7.25h-7.75a7.07,7.07,0,0,1,2-2.94,4.24,4.24,0,0,1,2.95-1.09,2.9,2.9,0,0,1,2.42,1,3.58,3.58,0,0,1,.4,3"/><path class="cls-2" d="M423.4,46.54a7.76,7.76,0,0,0-4.21,1.16,13,13,0,0,0-2.39,2.12l.74-2.78h-4.81l-5,19h5l2.73-10.33a8.78,8.78,0,0,1,1.25-2.89,4.69,4.69,0,0,1,4-2.18c1.39,0,2.19.5,2.42,1.47a4.75,4.75,0,0,1-.2,2.33l-3.06,11.6H425l3.39-12.84c.62-2.4.45-4.12-.53-5.15a5.87,5.87,0,0,0-4.44-1.55"/><path class="cls-2" d="M351.79,47.79a10.09,10.09,0,0,0-5.24-1.25c-3.21,0-5.71.85-7.48,2.51a10.25,10.25,0,0,0-2.48,4.13h4.81a5.12,5.12,0,0,1,1.18-1.76,3.92,3.92,0,0,1,2.72-.88,4.39,4.39,0,0,1,2.29.46c.46.29.58.83.39,1.62A2.16,2.16,0,0,1,346.54,54a8.4,8.4,0,0,1-2.12.45l-1.74.2A14.63,14.63,0,0,0,338,55.92a7.65,7.65,0,0,0-4,5.09c-.48,1.81-.3,3.22.57,4.21a5,5,0,0,0,3.92,1.46,8.74,8.74,0,0,0,3.88-.92,15.74,15.74,0,0,0,2.87-1.91c-.06.42-.11.82-.14,1.16a3.87,3.87,0,0,0,0,1.07h5.42l.18-.72a1.38,1.38,0,0,1-.59-.58,2.9,2.9,0,0,1,.07-1.34c.2-.85.38-1.6.53-2.21L353,52.48c.61-2.3.22-3.86-1.19-4.69m-5.43,10.87A5.54,5.54,0,0,1,344,62.12a6.36,6.36,0,0,1-3.22,1,2,2,0,0,1-1.56-.59,1.81,1.81,0,0,1-.23-1.83,3.18,3.18,0,0,1,1.72-2.12,8.14,8.14,0,0,1,2.44-.68l1.18-.22a10.89,10.89,0,0,0,1.41-.34,7.21,7.21,0,0,0,1.08-.47Z"/><polygon class="cls-2" points="720.28 44.43 727.01 39.18 721.44 39.18 716.68 44.43 720.28 44.43"/><polygon class="cls-2" points="238.55 58.29 233.06 40.28 227.39 40.28 220.57 66.08 225.59 66.08 230.43 47.76 236.14 66.08 241.54 66.08 248.36 40.28 243.32 40.28 238.55 58.29"/><path class="cls-2" d="M300.53,46.45a10.42,10.42,0,0,0-6.32,1.89,8.22,8.22,0,0,0-3.29,4.56,3.55,3.55,0,0,0,.41,3.44,8,8,0,0,0,4,2,23.57,23.57,0,0,1,4.8,1.5,1.1,1.1,0,0,1,.37,1.28,2,2,0,0,1-1.22,1.33,6.43,6.43,0,0,1-2.46.42c-1.67,0-2.71-.33-3.14-1a2.58,2.58,0,0,1-.2-1.88h-5.07a5.05,5.05,0,0,0,.87,4.84c1.11,1.27,3.14,1.9,6.15,1.9a11.83,11.83,0,0,0,7-1.81,8,8,0,0,0,3.34-4.63,3.92,3.92,0,0,0-.53-3.58,6.79,6.79,0,0,0-3.89-2.12,26.32,26.32,0,0,1-4.84-1.38,1,1,0,0,1-.41-1.23,2.1,2.1,0,0,1,1-1.2,4.66,4.66,0,0,1,2.45-.51c1.32,0,2.17.33,2.54,1a2.48,2.48,0,0,1,.15,1.51h5c.38-2.33,0-4-1.29-4.92a8.84,8.84,0,0,0-5.44-1.43"/><path class="cls-2" d="M316.65,62.57c-1,0-1.61-.09-1.74-.28s-.14-.7.07-1.48l2.68-10.07h3.1l.94-3.56h-3.1L320,41.84h-4.94l-1.41,5.34H311l-.94,3.56h2.66l-3.11,11.74a3.2,3.2,0,0,0,.13,2.64c.64.91,2.15,1.31,4.52,1.22l2.39-.08,1-3.73-.53,0h-.47"/><path class="cls-2" d="M336.09,46.57h-.42l-.23,0a6.86,6.86,0,0,0-4,1.17,16.62,16.62,0,0,0-2.69,2.61l.87-3.32H324.9l-5,19.08h5L327.3,57a9.38,9.38,0,0,1,1.46-3.41,5.45,5.45,0,0,1,4.56-2l.6,0a6.33,6.33,0,0,1,.82.07Z"/><path class="cls-2" d="M284.83,47.39a8.5,8.5,0,0,0-4.05-.9,11.06,11.06,0,0,0-7.23,2.65A14,14,0,0,0,269,56.76c-.94,3.49-.67,6,.76,7.61a7.57,7.57,0,0,0,5.81,2.34,11.18,11.18,0,0,0,7.61-2.78,9,9,0,0,0,2.68-3.43h-5.1a6.56,6.56,0,0,1-1.27,1.3,4.63,4.63,0,0,1-2.75.89,3.42,3.42,0,0,1-2.29-.74c-.92-.75-1.15-2.1-.74-4H286.8a26.67,26.67,0,0,0,.84-3.77,7.9,7.9,0,0,0-.42-3.95,4.91,4.91,0,0,0-2.39-2.82m-2.33,7.25h-7.76a7.25,7.25,0,0,1,2-2.94,4.32,4.32,0,0,1,3-1.09,2.89,2.89,0,0,1,2.41,1,3.61,3.61,0,0,1,.41,3"/><path class="cls-2" d="M260.48,57.4a9.19,9.19,0,0,1-1.26,3,4.77,4.77,0,0,1-4.06,2c-1.33,0-2.09-.47-2.29-1.43a6.07,6.07,0,0,1,.26-2.47l3-11.49h-5.12L248,58.5a11,11,0,0,0-.49,5c.43,2,2.06,3.05,4.9,3.05a8.7,8.7,0,0,0,2.67-.38,9.68,9.68,0,0,0,2.65-1.45,4,4,0,0,0,.87-.77l.48-.53-.7,2.7h4.84l5-19.07h-5Z"/><path class="cls-2" d="M380.31,39.53a13.23,13.23,0,0,0-8,2.29,10.17,10.17,0,0,0-4.05,5.76c-.68,2.54-.29,4.41,1.13,5.59a13.43,13.43,0,0,0,5.06,2l2.57.61A9,9,0,0,1,380.19,57a1.66,1.66,0,0,1,.6,2,4.2,4.2,0,0,1-3,3,10.4,10.4,0,0,1-3.22.42c-2.12,0-3.49-.53-4.08-1.61a4.4,4.4,0,0,1-.27-2.63h-5.14c-.72,2.69-.31,4.81,1.2,6.34s4,2.29,7.34,2.29a13.94,13.94,0,0,0,8.27-2.35,10.24,10.24,0,0,0,4.24-5.85q.91-3.46-.9-5.28a8.66,8.66,0,0,0-3.94-1.89l-4.14-1.06a11.16,11.16,0,0,1-3.1-1.06,1.71,1.71,0,0,1-.67-2.07,3.8,3.8,0,0,1,1.86-2.34,7.06,7.06,0,0,1,3.57-.85,5.83,5.83,0,0,1,3,.65A2.81,2.81,0,0,1,382.87,48h5.18c.64-2.74.18-4.82-1.35-6.27a9,9,0,0,0-6.39-2.16"/><path class="cls-2" d="M645.93,57.4a9.19,9.19,0,0,1-1.28,3,4.72,4.72,0,0,1-4,2c-1.34,0-2.11-.47-2.29-1.43a5.9,5.9,0,0,1,.26-2.47l3-11.49H636.5l-3,11.49a11,11,0,0,0-.5,5c.45,2,2.08,3.05,4.9,3.05a8.72,8.72,0,0,0,2.68-.38,9.64,9.64,0,0,0,2.64-1.45,4.27,4.27,0,0,0,.88-.77c.24-.28.41-.47.48-.53l-.71,2.7h4.87l5-19.07h-5.07Z"/><path class="cls-2" d="M669.26,46.54a7.81,7.81,0,0,0-4.21,1.16,12.42,12.42,0,0,0-2.39,2.12l.75-2.78h-4.83l-5,19h5l2.7-10.33a9.7,9.7,0,0,1,1.26-2.89,4.72,4.72,0,0,1,4-2.18c1.38,0,2.19.5,2.42,1.47a5,5,0,0,1-.21,2.33l-3.06,11.6h5.13l3.39-12.84c.62-2.4.45-4.12-.54-5.15a5.79,5.79,0,0,0-4.42-1.55"/><path class="cls-2" d="M624.17,46.45a10.61,10.61,0,0,0-6.35,1.89,8.5,8.5,0,0,0-3.28,4.56,3.63,3.63,0,0,0,.42,3.44,8,8,0,0,0,4,2,23.82,23.82,0,0,1,4.8,1.5,1.12,1.12,0,0,1,.37,1.28A2,2,0,0,1,623,62.46a6.52,6.52,0,0,1-2.47.42c-1.65,0-2.7-.33-3.13-1a2.62,2.62,0,0,1-.21-1.88h-5.08a5,5,0,0,0,.91,4.84c1.09,1.27,3.15,1.9,6.13,1.9a11.87,11.87,0,0,0,7-1.81,8,8,0,0,0,3.34-4.63,3.92,3.92,0,0,0-.53-3.58A6.82,6.82,0,0,0,625,54.6a26.14,26.14,0,0,1-4.82-1.38,1,1,0,0,1-.41-1.23,2,2,0,0,1,1-1.2,4.61,4.61,0,0,1,2.46-.51c1.31,0,2.16.33,2.52,1a2.34,2.34,0,0,1,.15,1.51h5c.39-2.33,0-4-1.28-4.92a8.88,8.88,0,0,0-5.44-1.43"/><path class="cls-2" d="M688.52,46.54a10.86,10.86,0,0,0-7.35,2.73,14.83,14.83,0,0,0-4.41,7.66c-.77,2.92-.68,5.26.29,7.09s3,2.73,6,2.73a10.58,10.58,0,0,0,7.85-3.27,11.21,11.21,0,0,0,2.75-4.31h-5.07a6.78,6.78,0,0,1-1.55,2.45,3.78,3.78,0,0,1-2.74,1,2.43,2.43,0,0,1-2.73-2.39,9.65,9.65,0,0,1,.4-3.36,12.16,12.16,0,0,1,1.43-3.55,4.69,4.69,0,0,1,4.1-2.51,2.24,2.24,0,0,1,2.31,1.17,3.53,3.53,0,0,1,.21,1.91h5.1c.46-2.71.06-4.62-1.18-5.69a8.08,8.08,0,0,0-5.45-1.61"/><polygon class="cls-2" points="702.31 40.11 701.1 44.73 706.15 44.73 707.37 40.11 702.31 40.11"/><polygon class="cls-2" points="695.44 66.08 700.51 66.08 705.54 47 700.48 47 695.44 66.08"/><path class="cls-2" d="M743,46.54a7.75,7.75,0,0,0-4.22,1.16,12.72,12.72,0,0,0-2.39,2.12l.74-2.78h-4.81l-5,19h5L735,55.75a8.78,8.78,0,0,1,1.26-2.89,4.7,4.7,0,0,1,4-2.18c1.37,0,2.19.5,2.42,1.47a5.14,5.14,0,0,1-.2,2.33l-3.06,11.6h5.1L748,53.24c.64-2.4.44-4.12-.55-5.15a5.78,5.78,0,0,0-4.4-1.55"/><path class="cls-2" d="M719.13,46.37a11.42,11.42,0,0,0-8.14,3,15,15,0,0,0-4.32,7.17,9.58,9.58,0,0,0,.52,7.2c1.07,2,3.26,3,6.54,3a11.53,11.53,0,0,0,8.14-3,14.91,14.91,0,0,0,4.32-7.2,9.64,9.64,0,0,0-.53-7.17c-1.07-2-3.25-3-6.53-3M721,56.58A9.38,9.38,0,0,1,718.59,61a5.21,5.21,0,0,1-3.77,1.56,3,3,0,0,1-3-1.56,6.41,6.41,0,0,1,0-4.43,9.36,9.36,0,0,1,2.35-4.43A5.24,5.24,0,0,1,718,50.61a3,3,0,0,1,2.95,1.54,6.5,6.5,0,0,1,0,4.43"/><path class="cls-2" d="M514.47,40.3l-2.4,9.11a4.17,4.17,0,0,0-1.64-2.11,5,5,0,0,0-2.88-.76,9.68,9.68,0,0,0-6.75,2.8,15.86,15.86,0,0,0-4.29,7.7c-.74,2.83-.59,5.13.45,6.93a5.25,5.25,0,0,0,4.91,2.71,8.12,8.12,0,0,0,3.61-.76,10.46,10.46,0,0,0,3.1-2.48l-.7,2.64h4.85l6.82-25.78Zm-4.22,16.52a9.18,9.18,0,0,1-2.17,4.09,5,5,0,0,1-3.64,1.57,2.61,2.61,0,0,1-2.75-1.59,6.79,6.79,0,0,1,.08-4.23,10,10,0,0,1,2.1-4.09,4.69,4.69,0,0,1,3.67-1.67,2.89,2.89,0,0,1,2.27.92c.91,1,1.05,2.66.44,5"/><path class="cls-2" d="M600.35,40.27l-16,25.81H590l3.19-5.29h9.5l.29,5.29h5.85l-2.34-25.81Zm-4.57,16.07,6-10.17.56,10.17Z"/><path class="cls-2" d="M483.37,47.79a10.2,10.2,0,0,0-5.25-1.25,10.54,10.54,0,0,0-7.47,2.51,10,10,0,0,0-2.49,4.13H473a5.54,5.54,0,0,1,1.15-1.76,4,4,0,0,1,2.77-.88,4.3,4.3,0,0,1,2.25.46c.48.29.59.83.39,1.62A2.15,2.15,0,0,1,478.09,54a7.91,7.91,0,0,1-2.1.45l-1.74.2a14.42,14.42,0,0,0-4.71,1.24A7.64,7.64,0,0,0,465.47,61c-.47,1.81-.28,3.22.59,4.21a5,5,0,0,0,3.9,1.46,8.75,8.75,0,0,0,3.89-.92,15.48,15.48,0,0,0,2.88-1.91c-.08.42-.13.82-.17,1.16a5.56,5.56,0,0,0,0,1.07H482l.18-.72a1.25,1.25,0,0,1-.58-.58,2.6,2.6,0,0,1,.06-1.34c.2-.85.39-1.6.53-2.21l2.33-8.75c.62-2.3.22-3.86-1.18-4.69m-5.44,10.87a5.53,5.53,0,0,1-2.33,3.46,6.39,6.39,0,0,1-3.22,1,2.07,2.07,0,0,1-1.58-.59,1.87,1.87,0,0,1-.21-1.83,3.14,3.14,0,0,1,1.71-2.12,8.52,8.52,0,0,1,2.44-.68l1.18-.22a11.53,11.53,0,0,0,1.42-.34,6.23,6.23,0,0,0,1.06-.47Z"/><path class="cls-2" d="M467.66,46.57h-.4l-.24,0a6.82,6.82,0,0,0-4,1.17,16.19,16.19,0,0,0-2.7,2.61l.87-3.32h-4.77l-5,19.08h5L458.88,57a9.56,9.56,0,0,1,1.45-3.41,5.45,5.45,0,0,1,4.57-2l.6,0a6.19,6.19,0,0,1,.81.07Z"/><path class="cls-2" d="M443.37,46.37a11.42,11.42,0,0,0-8.14,3,14.78,14.78,0,0,0-4.32,7.17,9.49,9.49,0,0,0,.51,7.2c1.08,2,3.27,3,6.54,3a11.49,11.49,0,0,0,8.13-3,14.93,14.93,0,0,0,4.33-7.2,9.64,9.64,0,0,0-.52-7.17c-1.08-2-3.25-3-6.53-3m1.81,10.21A9.55,9.55,0,0,1,442.83,61a5.25,5.25,0,0,1-3.77,1.56,3,3,0,0,1-3-1.56,6.6,6.6,0,0,1,0-4.43,9.53,9.53,0,0,1,2.34-4.43,5.28,5.28,0,0,1,3.78-1.54,3,3,0,0,1,3,1.54,6.52,6.52,0,0,1,0,4.43"/><path class="cls-2" d="M575.08,47.79a10.15,10.15,0,0,0-5.25-1.25c-3.21,0-5.71.85-7.47,2.51a10,10,0,0,0-2.49,4.13h4.82a5.22,5.22,0,0,1,1.15-1.76,4,4,0,0,1,2.75-.88,4.33,4.33,0,0,1,2.27.46q.69.44.39,1.62A2.14,2.14,0,0,1,569.81,54a8.1,8.1,0,0,1-2.11.45l-1.75.2a14.21,14.21,0,0,0-4.7,1.24A7.55,7.55,0,0,0,557.19,61c-.48,1.81-.3,3.22.58,4.21a4.91,4.91,0,0,0,3.88,1.46,8.87,8.87,0,0,0,3.91-.92,16.17,16.17,0,0,0,2.88-1.91c-.08.42-.14.82-.18,1.16a5.59,5.59,0,0,0,0,1.07h5.42l.18-.72a1.35,1.35,0,0,1-.58-.58,2.76,2.76,0,0,1,.07-1.34c.19-.85.38-1.6.53-2.21l2.33-8.75c.59-2.3.22-3.86-1.18-4.69m-5.44,10.87a5.51,5.51,0,0,1-2.34,3.46,6.41,6.41,0,0,1-3.21,1,2,2,0,0,1-1.57-.59,1.84,1.84,0,0,1-.23-1.83A3.14,3.14,0,0,1,564,58.53a8.14,8.14,0,0,1,2.44-.68l1.17-.22a11.53,11.53,0,0,0,1.42-.34,8.13,8.13,0,0,0,1.07-.47Z"/><polygon class="cls-2" points="554.11 40.28 547.28 66.08 552.27 66.08 559.1 40.28 554.11 40.28"/><path class="cls-2" d="M534,47.39a8.51,8.51,0,0,0-4.08-.9,11.1,11.1,0,0,0-7.21,2.65,14.14,14.14,0,0,0-4.51,7.62c-.94,3.49-.68,6,.77,7.61a7.52,7.52,0,0,0,5.8,2.34,11.12,11.12,0,0,0,7.6-2.78,9,9,0,0,0,2.69-3.43H530a6.33,6.33,0,0,1-1.28,1.3,4.6,4.6,0,0,1-2.74.89,3.4,3.4,0,0,1-2.29-.74c-.93-.75-1.16-2.1-.74-4H536a24.08,24.08,0,0,0,.84-3.77,8.13,8.13,0,0,0-.42-3.95,5,5,0,0,0-2.4-2.82m-2.33,7.25h-7.76a7.15,7.15,0,0,1,2-2.94,4.32,4.32,0,0,1,3-1.09,2.85,2.85,0,0,1,2.4,1,3.57,3.57,0,0,1,.42,3"/><polygon class="cls-3" points="59.75 91.32 59.75 91.35 42.59 91.35 30.79 40.74 17.25 91.35 0 91.35 23.3 1.47 39.92 1.47 52.05 52.71 65.77 1.47 83.03 1.47 59.75 91.32"/><path class="cls-3" d="M123,30.65h17.78s3.41-15.32-8.27-24.48S103.23-1.72,93.33,8.41s-10.26,27.9-4.17,35.26,15.63,11.17,20.39,14.5,5.29,6.64,4,10-4.23,5.66-11.53,5.66S91.46,71.73,91.46,65A47.57,47.57,0,0,1,92,58.48H74.39s-3.17,11,.37,20,13.15,14.45,26.29,14.45,27.59-8.73,31.19-24.37-3-24.21-11.94-29-16.8-7.24-16.63-14,6.76-7.2,9.16-7.2,7.73.92,9.49,5a11,11,0,0,1,.63,7.33"/><polygon class="cls-3" points="196.92 1.47 178.08 1.47 129.7 91.35 148.22 91.35 180.08 32.46 182.94 91.35 201.33 91.35 196.92 1.47"/><polygon class="cls-1" points="160.72 91.35 167.94 91.35 214.85 1.47 207.63 1.47 160.72 91.35"/></g></g></svg>