<svg xmlns="http://www.w3.org/2000/svg" viewBox="0 0 491.99 248.85"><defs><style>.cls-1,.cls-3{fill:#be0411;}.cls-2{fill:#fff;}.cls-2,.cls-3{fill-rule:evenodd;}.cls-3{stroke:#be0411;stroke-miterlimit:10;stroke-width:0.74px;}</style></defs><g id="Capa_2" data-name="Capa 2"><g id="Capa_1-2" data-name="Capa 1"><rect class="cls-1" y="224.12" width="458.94" height="24.73"/><path class="cls-2" d="M409.17,3.26h43.29l10.36,205.8H420.25L413.92,73.68,340.66,209.06H298.13Zm-315.74,0,27.68,118L152.38,3.31h40.2L138.65,209.07H99.34L72.22,93.51l-31,115.55H1.79L54.92,3.26ZM265.08,0c36.53,0,63.2,27.64,59.7,64.67l-.53,5.71c-4.07-1.77-17.75.17-41,0,3.87-19.35-8-28.41-22.42-28.41-10.61,0-20.4,2-21.64,15.44-2.94,31.79,73.26,21.79,67.16,88-3.72,40.18-35.12,66.91-73.13,66.91-37,0-67.64-18.5-63.59-62.08l1.31-13.85c12.24-.13,24.94-.9,41.25-2.38-3.34,27.63,1.27,34.76,22.26,34.76,13.27,0,27.06-1.42,28.74-19.44,2.45-26.41-72.19-25.14-66.5-86.75C200.21,24.67,227,0,265.08,0Z"/><polygon class="cls-3" points="476.67 5.62 491.38 5.62 385.05 208.42 370.37 208.42 476.67 5.62"/></g></g></svg>