<svg xmlns="http://www.w3.org/2000/svg" viewBox="0 0 206.68 83.31"><defs><style>.cls-1,.cls-3{fill:#004597;}.cls-1,.cls-2{fill-rule:evenodd;}.cls-2,.cls-4{fill:#d30710;}</style></defs><g id="Capa_2" data-name="Capa 2"><g id="Capa_1-2" data-name="Capa 1"><polygon class="cls-1" points="70.24 49.66 70.24 49.68 62.69 49.68 57.51 27.41 51.55 49.67 43.96 49.67 54.22 10.14 61.53 10.15 66.86 32.68 72.9 10.15 80.49 10.15 70.24 49.66"/><path class="cls-1" d="M98,23h7.82s1.51-6.75-3.62-10.78A13.26,13.26,0,0,0,85,13.2c-4.35,4.45-4.51,12.27-1.84,15.51s6.87,4.92,9,6.39,2.33,2.91,1.77,4.38S92.05,42,88.84,42s-4.65-.92-4.65-3.86a21.52,21.52,0,0,1,.23-2.88H76.68s-1.39,4.83.16,8.78,5.78,6.36,11.56,6.36a14.12,14.12,0,0,0,13.73-10.71c1.58-6.88-1.32-10.65-5.26-12.76s-7.38-3.2-7.31-6.17,3-3.16,4-3.16S97,18,97.77,19.77A4.83,4.83,0,0,1,98,23"/><polygon class="cls-1" points="130.59 10.17 122.3 10.16 101 49.69 109.14 49.69 123.17 23.8 124.42 49.7 132.51 49.7 130.59 10.17"/><polygon class="cls-2" points="114.65 49.69 117.82 49.69 138.48 10.17 135.3 10.17 114.65 49.69"/><polygon class="cls-3" points="63.55 56.23 62.55 60.9 54.66 60.9 50.07 82.57 44.53 82.57 49.13 60.9 41.2 60.9 42.21 56.23 63.55 56.23"/><path class="cls-3" d="M66.76,56.23h5.6L68.91,72.42a8.87,8.87,0,0,0-.2,4q.54,2.22,3.9,2.22a5.31,5.31,0,0,0,4.8-2.22,10.58,10.58,0,0,0,1.49-4l3.45-16.19h5.59L84.49,72.42A16.14,16.14,0,0,1,81.79,79q-3.35,4.29-10.18,4.29T63.23,79q-.81-2.34.09-6.54Z"/><path class="cls-3" d="M112.5,58.75a6.34,6.34,0,0,1,.88,2.22,6.9,6.9,0,0,1-.08,2.77,9.84,9.84,0,0,1-1.74,3.69A7.13,7.13,0,0,1,107.89,70,3.69,3.69,0,0,1,110,72.07a8.07,8.07,0,0,1-.12,4.12L109.53,78a14.74,14.74,0,0,0-.37,2.45,1.71,1.71,0,0,0,.67,1.5l-.12.66h-6.06c-.05-.58-.07-1-.07-1.41a11.85,11.85,0,0,1,.25-2.26l.48-2.45c.33-1.69.27-2.81-.2-3.37s-1.52-.84-3.14-.84H95.29L93.1,82.57H87.73l5.59-26.34h12.92a10.86,10.86,0,0,1,4.11.68,5,5,0,0,1,2.15,1.84M97.72,60.81l-1.51,7.08h6.24a7.79,7.79,0,0,0,2.88-.43,3.88,3.88,0,0,0,2.29-3c.33-1.6,0-2.67-.91-3.22a5.46,5.46,0,0,0-2.59-.46Z"/><polygon class="cls-3" points="119.07 82.57 113.61 82.57 119.2 56.23 124.67 56.23 119.07 82.57"/><path class="cls-3" d="M129.9,74.44a4.71,4.71,0,0,0,.42,2.7c.66,1.09,2.08,1.63,4.25,1.63a10.75,10.75,0,0,0,3.25-.43,4,4,0,0,0,3-3.06,1.8,1.8,0,0,0-.72-2A10,10,0,0,0,136.73,72l-2.66-.62a14.48,14.48,0,0,1-5.26-2q-2.27-1.83-1.45-5.71a9.8,9.8,0,0,1,3.83-5.87,13,13,0,0,1,8.06-2.34,9.56,9.56,0,0,1,6.63,2.2c1.65,1.47,2.21,3.61,1.71,6.41h-5.28A3,3,0,0,0,141,60.7a6.15,6.15,0,0,0-3.06-.66,6.85,6.85,0,0,0-3.58.86,3.54,3.54,0,0,0-1.78,2.39,1.81,1.81,0,0,0,.8,2.11,12.62,12.62,0,0,0,3.2,1.09l4.31,1.09A9.33,9.33,0,0,1,145,69.49q2,1.86,1.22,5.38a9.84,9.84,0,0,1-4,6,13.74,13.74,0,0,1-8.31,2.38c-3.43,0-6-.78-7.6-2.35s-2.16-3.72-1.57-6.46Z"/><path class="cls-3" d="M171.67,56.23h7.92L174,82.57h-5.14l3.77-17.81c.12-.52.29-1.23.49-2.16s.36-1.63.46-2.13l-9.67,22.1h-5.34l-.27-22.1c-.1.5-.23,1.21-.42,2.13s-.34,1.64-.45,2.16l-3.77,17.81h-5.13l5.59-26.34h8L162.5,77Z"/><path class="cls-3" d="M199.87,80.23a13.86,13.86,0,0,1-9.28,3.08q-5.64,0-8-3.08-3.19-3.77-1.67-10.86t6.31-10.87a13.81,13.81,0,0,1,9.27-3.07q5.66,0,8,3.07,3.21,3.63,1.68,10.87a18,18,0,0,1-6.31,10.86m.81-10.86c.61-3,.46-5.24-.48-6.85a5,5,0,0,0-4.67-2.43,8,8,0,0,0-5.73,2.41,13.2,13.2,0,0,0-3.4,6.87q-1,4.44.48,6.86a5,5,0,0,0,4.7,2.41,7.86,7.86,0,0,0,5.71-2.41,13.42,13.42,0,0,0,3.39-6.86"/><path class="cls-4" d="M59.9,37.7a94.38,94.38,0,0,1-23.35,6.61c-16.77,2.62-13.3-2.82-12.72-3.76A50,50,0,0,1,34.45,30.21c6.1-4.47,6.11-4.46,5.06-4S26.56,34.09,20.79,39.45,14,48.89,19.63,49.53,32,48.81,36,47.64c2.24-.66.8-.09-1.67.89a52,52,0,0,1-9.79,2.89C13.62,54,9.7,52.87,8.89,50.29,8,47.5,10.46,45.36,12.8,42.84a65.35,65.35,0,0,1,10.09-8.22c4.82-3.36,8.66-6,4.22-3.5a136.1,136.1,0,0,0-16,10.32C5,46.11.43,50.33.05,52.91c-.48,3.32,2.66,4,6.3,4,3.46,0,15.27-1.34,26.45-4.9A210,210,0,0,0,60.68,41.05Z"/><path class="cls-4" d="M97.77,19.77a3.81,3.81,0,0,0-2.74-2c-3,2.17-7,4.8-12.52,8.05-2.51,1.48-4.88,2.85-7.15,4.13l-1.1,4.22.69-.37c8.84-4.79,16.6-9.46,23-13.62l-.14-.39"/><path class="cls-4" d="M111.44.28c-13.94-1-25.07.83-20.1.71,0,0,5.35.14,10.91.82s6.88,2.73,3.68,5.93c-1.21,1.21-2.21,2.53-4,4.28l.29.2a9.71,9.71,0,0,1,2.63,3.2,92.63,92.63,0,0,0,8.77-6.89c5.57-5.15,6.25-7.66-2.2-8.25"/></g></g></svg>