<svg xmlns="http://www.w3.org/2000/svg" viewBox="0 0 597.14 544.98"><defs><style>.cls-1,.cls-4{fill:#fff;}.cls-2{fill:#cb2030;}.cls-3,.cls-5{fill:#be0411;}.cls-4,.cls-5{fill-rule:evenodd;}.cls-5{stroke:#be0411;stroke-miterlimit:10;stroke-width:0.74px;}</style></defs><g id="Capa_2" data-name="Capa 2"><g id="Capa_1-2" data-name="Capa 1"><path class="cls-1" d="M71.09,153.78A10.13,10.13,0,1,1,61,163.9a10.13,10.13,0,0,1,10.13-10.12m0-8.22A18.35,18.35,0,1,0,89.45,163.9a18.35,18.35,0,0,0-18.36-18.34Z"/><path class="cls-1" d="M143.47,28.14C128,16.37,95.65,1.37,69.35,27,40.48,56.34,9.24,89.37,9.24,89.37.68,98.21-6,120.36,8.55,135l33.21,31.92c1.82,1.76,5.31,5,4.91-3a24.4,24.4,0,0,1,44.19-14.29l70.64-73c8.55-8.85,8-23.27-1.27-32.22C160.23,44.35,152.05,34.65,143.47,28.14Z"/><path class="cls-1" d="M193.93,1.88c-2.09-2.14-5.2-2.51-7-.82L181.27,6.6a4.22,4.22,0,0,0-1,4L152.76,37.12l4.58,4.43L184.42,15.2a4.24,4.24,0,0,0,4.37-.8l5.73-5.55C196.28,7.16,196,4.05,193.93,1.88Z"/><path class="cls-2" d="M121.45,16.29,13.88,140.09l5.26,5.06L126.89,18.49A25.69,25.69,0,0,0,121.45,16.29Z"/><polygon class="cls-2" points="11.13 137.39 9.89 136.3 116.02 14.64 117.53 15.02 11.13 137.39"/><path class="cls-1" d="M377.88,177.92c-41.5,0-68.23-32-65-77.9s34.43-77.93,75.9-77.93,68.2,32,65,77.93S419.34,177.92,377.88,177.92Z"/><path class="cls-1" d="M469.6,234.68H455.92l1.29-18.46H462c15.76,0,27.61-4.71,37.82-28.22l6.4-14.75L468.57,58.44c-4.11-12.46-13.36-19.5-27.45-20.92l-4.25-.43,1.06-15H468c19,0,32.66,9.53,38.38,26.87l23.35,70.81,42.32-94.69h25L523.38,191.26C509.37,222.92,494.79,234.68,469.6,234.68Z"/><path class="cls-1" d="M302.57,25.08l-45,91.09L238.73,62.3c-12.91-36-36-40.21-52.32-40.21-1.71,0-4.38.21-6.77.38l-3.11.2-6.08,15.19,4.4.27c10.88.67,16.77,4.69,25,27.88l39.71,111.91h12.22l76-152.84Z"/><path class="cls-2" d="M380.65,179.27a11.3,11.3,0,0,1-13.54,7.16h0a9.84,9.84,0,0,1-6.23-13.06L414.93,11.72c2-5.57,10-10.28,18.6-7.09h0c5.46,1.63,12.31,6,11.55,14.08Z"/><path class="cls-1" d="M381.86,191.11A18.2,18.2,0,0,1,364,207.82a15.36,15.36,0,0,1-15.52-16.71,18.19,18.19,0,0,1,17.85-16.72A15.39,15.39,0,0,1,381.86,191.11Z"/><rect class="cls-3" x="84.17" y="523.39" width="400.49" height="21.58"/><path class="cls-4" d="M441.23,330.66H479l9,179.6H450.89l-5.52-118.14L381.45,510.26H344.34Zm-275.52,0,24.15,103,27.28-102.92h35.09L205.17,510.26H170.86L147.19,409.42,120.1,510.26H85.74l46.36-179.6Zm149.78-2.84c31.88,0,55.15,24.12,52.1,56.43l-.46,5c-3.56-1.55-15.49.14-35.8,0,3.38-16.88-6.93-24.79-19.57-24.79-9.26,0-17.8,1.72-18.87,13.47-2.58,27.75,63.92,19,58.6,76.77-3.25,35.07-30.65,58.4-63.82,58.4-32.25,0-59-16.15-55.49-54.18l1.14-12.08c10.68-.11,21.77-.78,36-2.08-2.92,24.11,1.1,30.33,19.43,30.33,11.58,0,23.61-1.24,25.07-17,2.14-23-63-21.94-58-75.71C258.88,349.35,282.29,327.82,315.49,327.82Z"/><polygon class="cls-5" points="500.13 332.73 512.97 332.73 420.18 509.7 407.37 509.7 500.13 332.73"/></g></g></svg>