<svg width="32" height="32" viewBox="0 0 32 32" fill="none" xmlns="http://www.w3.org/2000/svg">
<circle cx="16" cy="16" r="16" fill="white"/>
<path d="M23.6391 10.0067C23.0019 10.4562 22.2964 10.7999 21.5497 11.0248C21.149 10.564 20.6164 10.2374 20.024 10.0892C19.4315 9.94092 18.8079 9.97821 18.2374 10.196C17.6668 10.4137 17.1769 10.8015 16.8339 11.3067C16.4909 11.812 16.3114 12.4104 16.3196 13.021V13.6864C15.1502 13.7168 13.9915 13.4574 12.9466 12.9315C11.9017 12.4056 11.0031 11.6294 10.3308 10.6721C10.3308 10.6721 7.66917 16.6608 13.6579 19.3225C12.2875 20.2527 10.655 20.7192 9 20.6533C14.9887 23.9804 22.3083 20.6533 22.3083 13.0011C22.3077 12.8157 22.2899 12.6308 22.2551 12.4488C22.9342 11.779 23.4134 10.9334 23.6391 10.0067V10.0067Z" stroke="#004098" stroke-linecap="round" stroke-linejoin="round"/>
</svg>
